<svg width="496" height="230" viewBox="0 0 496 230" fill="none" xmlns="http://www.w3.org/2000/svg">
<path d="M0.532 2.01559V0.853585H3.164V10.9756H1.876V2.01559H0.532ZM5.35238 5.80959C5.35238 4.20425 5.61371 2.95359 6.13638 2.05759C6.65904 1.15225 7.57371 0.699586 8.88038 0.699586C10.1777 0.699586 11.0877 1.15225 11.6104 2.05759C12.133 2.95359 12.3944 4.20425 12.3944 5.80959C12.3944 7.44292 12.133 8.71225 11.6104 9.61759C11.0877 10.5229 10.1777 10.9756 8.88038 10.9756C7.57371 10.9756 6.65904 10.5229 6.13638 9.61759C5.61371 8.71225 5.35238 7.44292 5.35238 5.80959ZM11.1344 5.80959C11.1344 4.99759 11.0784 4.31159 10.9664 3.75159C10.8637 3.18225 10.6444 2.72492 10.3084 2.37959C9.98171 2.03425 9.50571 1.86159 8.88038 1.86159C8.24571 1.86159 7.76038 2.03425 7.42438 2.37959C7.09771 2.72492 6.87838 3.18225 6.76638 3.75159C6.66371 4.31159 6.61238 4.99759 6.61238 5.80959C6.61238 6.64959 6.66371 7.35425 6.76638 7.92359C6.87838 8.49292 7.09771 8.95025 7.42438 9.29559C7.76038 9.64092 8.24571 9.81359 8.88038 9.81359C9.50571 9.81359 9.98171 9.64092 10.3084 9.29559C10.6444 8.95025 10.8637 8.49292 10.9664 7.92359C11.0784 7.35425 11.1344 6.64959 11.1344 5.80959Z" fill="#515760"/>
<path d="M2.716 43.7116C2.19333 43.5063 1.792 43.2076 1.512 42.8156C1.232 42.4236 1.092 41.9476 1.092 41.3876C1.092 40.8836 1.218 40.4309 1.47 40.0296C1.722 39.6189 2.09533 39.2969 2.59 39.0636C3.094 38.8209 3.70067 38.6996 4.41 38.6996C5.11933 38.6996 5.72133 38.8209 6.216 39.0636C6.72 39.2969 7.098 39.6189 7.35 40.0296C7.61133 40.4309 7.742 40.8836 7.742 41.3876C7.742 41.9289 7.59733 42.4049 7.308 42.8156C7.01867 43.2169 6.622 43.5156 6.118 43.7116C6.69667 43.8889 7.154 44.2016 7.49 44.6496C7.83533 45.0883 8.008 45.6203 8.008 46.2456C8.008 46.8523 7.85867 47.3843 7.56 47.8416C7.26133 48.2896 6.83667 48.6396 6.286 48.8916C5.74467 49.1343 5.11933 49.2556 4.41 49.2556C3.70067 49.2556 3.07533 49.1343 2.534 48.8916C2.002 48.6396 1.58667 48.2896 1.288 47.8416C0.989333 47.3843 0.84 46.8523 0.84 46.2456C0.84 45.6203 1.008 45.0836 1.344 44.6356C1.68 44.1876 2.13733 43.8796 2.716 43.7116ZM6.51 41.5416C6.51 40.9723 6.32333 40.5336 5.95 40.2256C5.57667 39.9176 5.06333 39.7636 4.41 39.7636C3.766 39.7636 3.25733 39.9176 2.884 40.2256C2.51067 40.5336 2.324 40.9769 2.324 41.5556C2.324 42.0783 2.51533 42.4983 2.898 42.8156C3.29 43.1329 3.794 43.2916 4.41 43.2916C5.03533 43.2916 5.53933 43.1329 5.922 42.8156C6.314 42.4889 6.51 42.0643 6.51 41.5416ZM4.41 44.2716C3.71933 44.2716 3.15467 44.4349 2.716 44.7616C2.27733 45.0789 2.058 45.5596 2.058 46.2036C2.058 46.8009 2.268 47.2816 2.688 47.6456C3.11733 48.0096 3.69133 48.1916 4.41 48.1916C5.12867 48.1916 5.698 48.0096 6.118 47.6456C6.538 47.2816 6.748 46.8009 6.748 46.2036C6.748 45.5783 6.53333 45.1023 6.104 44.7756C5.67467 44.4396 5.11 44.2716 4.41 44.2716Z" fill="#515760"/>
<path d="M6.51 79.2616C6.30467 78.2256 5.66533 77.7076 4.592 77.7076C3.76133 77.7076 3.14067 78.0296 2.73 78.6736C2.31933 79.3083 2.11867 80.3583 2.128 81.8236C2.34267 81.3383 2.69733 80.9603 3.192 80.6896C3.696 80.4096 4.256 80.2696 4.872 80.2696C5.83333 80.2696 6.59867 80.5683 7.168 81.1656C7.74667 81.7629 8.036 82.5889 8.036 83.6436C8.036 84.2783 7.91 84.8476 7.658 85.3516C7.41533 85.8556 7.042 86.2569 6.538 86.5556C6.04333 86.8543 5.44133 87.0036 4.732 87.0036C3.77067 87.0036 3.01933 86.7889 2.478 86.3596C1.93667 85.9303 1.55867 85.3376 1.344 84.5816C1.12933 83.8256 1.022 82.8923 1.022 81.7816C1.022 78.3563 2.21667 76.6436 4.606 76.6436C5.52067 76.6436 6.23933 76.8909 6.762 77.3856C7.28467 77.8803 7.59267 78.5056 7.686 79.2616H6.51ZM4.606 81.3476C4.20467 81.3476 3.82667 81.4316 3.472 81.5996C3.11733 81.7583 2.828 82.0056 2.604 82.3416C2.38933 82.6683 2.282 83.0696 2.282 83.5456C2.282 84.2549 2.48733 84.8336 2.898 85.2816C3.30867 85.7203 3.89667 85.9396 4.662 85.9396C5.31533 85.9396 5.83333 85.7389 6.216 85.3376C6.608 84.9269 6.804 84.3763 6.804 83.6856C6.804 82.9576 6.61733 82.3883 6.244 81.9776C5.87067 81.5576 5.32467 81.3476 4.606 81.3476Z" fill="#515760"/>
<path d="M0.56 122.722V121.756L5.474 114.952H7V121.616H8.4V122.722H7V124.976H5.74V122.722H0.56ZM5.796 116.282L2.03 121.616H5.796V116.282Z" fill="#515760"/>
<path d="M0.714 161.954C1.89933 161.002 2.828 160.222 3.5 159.616C4.172 159 4.73667 158.36 5.194 157.698C5.66067 157.026 5.894 156.368 5.894 155.724C5.894 155.117 5.74467 154.641 5.446 154.296C5.15667 153.941 4.68533 153.764 4.032 153.764C3.39733 153.764 2.90267 153.964 2.548 154.366C2.20267 154.758 2.016 155.285 1.988 155.948H0.756C0.793333 154.902 1.11067 154.095 1.708 153.526C2.30533 152.956 3.07533 152.672 4.018 152.672C4.97933 152.672 5.74 152.938 6.3 153.47C6.86933 154.002 7.154 154.734 7.154 155.668C7.154 156.442 6.92067 157.198 6.454 157.936C5.99667 158.664 5.474 159.308 4.886 159.868C4.298 160.418 3.54667 161.062 2.632 161.8H7.448V162.864H0.714V161.954Z" fill="#515760"/>
<path d="M0.868 195.81C0.868 194.204 1.12933 192.954 1.652 192.058C2.17467 191.152 3.08933 190.7 4.396 190.7C5.69333 190.7 6.60333 191.152 7.126 192.058C7.64867 192.954 7.91 194.204 7.91 195.81C7.91 197.443 7.64867 198.712 7.126 199.618C6.60333 200.523 5.69333 200.976 4.396 200.976C3.08933 200.976 2.17467 200.523 1.652 199.618C1.12933 198.712 0.868 197.443 0.868 195.81ZM6.65 195.81C6.65 194.998 6.594 194.312 6.482 193.752C6.37933 193.182 6.16 192.725 5.824 192.38C5.49733 192.034 5.02133 191.862 4.396 191.862C3.76133 191.862 3.276 192.034 2.94 192.38C2.61333 192.725 2.394 193.182 2.282 193.752C2.17933 194.312 2.128 194.998 2.128 195.81C2.128 196.65 2.17933 197.354 2.282 197.924C2.394 198.493 2.61333 198.95 2.94 199.296C3.276 199.641 3.76133 199.814 4.396 199.814C5.02133 199.814 5.49733 199.641 5.824 199.296C6.16 198.95 6.37933 198.493 6.482 197.924C6.594 197.354 6.65 196.65 6.65 195.81Z" fill="#515760"/>
<path d="M59.714 222.633C60.8993 221.681 61.828 220.902 62.5 220.295C63.172 219.679 63.7367 219.04 64.194 218.377C64.6607 217.705 64.894 217.047 64.894 216.403C64.894 215.797 64.7447 215.321 64.446 214.975C64.1567 214.621 63.6853 214.443 63.032 214.443C62.3973 214.443 61.9027 214.644 61.548 215.045C61.2027 215.437 61.016 215.965 60.988 216.627H59.756C59.7933 215.582 60.1107 214.775 60.708 214.205C61.3053 213.636 62.0753 213.351 63.018 213.351C63.9793 213.351 64.74 213.617 65.3 214.149C65.8693 214.681 66.154 215.414 66.154 216.347C66.154 217.122 65.9207 217.878 65.454 218.615C64.9967 219.343 64.474 219.987 63.886 220.547C63.298 221.098 62.5467 221.742 61.632 222.479H66.448V223.543H59.714V222.633ZM67.9207 218.489C67.9207 216.884 68.1821 215.633 68.7047 214.737C69.2274 213.832 70.1421 213.379 71.4487 213.379C72.7461 213.379 73.6561 213.832 74.1787 214.737C74.7014 215.633 74.9627 216.884 74.9627 218.489C74.9627 220.123 74.7014 221.392 74.1787 222.297C73.6561 223.203 72.7461 223.655 71.4487 223.655C70.1421 223.655 69.2274 223.203 68.7047 222.297C68.1821 221.392 67.9207 220.123 67.9207 218.489ZM73.7027 218.489C73.7027 217.677 73.6467 216.991 73.5347 216.431C73.4321 215.862 73.2127 215.405 72.8767 215.059C72.5501 214.714 72.0741 214.541 71.4487 214.541C70.8141 214.541 70.3287 214.714 69.9927 215.059C69.6661 215.405 69.4467 215.862 69.3347 216.431C69.2321 216.991 69.1807 217.677 69.1807 218.489C69.1807 219.329 69.2321 220.034 69.3347 220.603C69.4467 221.173 69.6661 221.63 69.9927 221.975C70.3287 222.321 70.8141 222.493 71.4487 222.493C72.0741 222.493 72.5501 222.321 72.8767 221.975C73.2127 221.63 73.4321 221.173 73.5347 220.603C73.6467 220.034 73.7027 219.329 73.7027 218.489ZM76.5578 222.633C77.7431 221.681 78.6718 220.902 79.3438 220.295C80.0158 219.679 80.5804 219.04 81.0378 218.377C81.5044 217.705 81.7378 217.047 81.7378 216.403C81.7378 215.797 81.5884 215.321 81.2898 214.975C81.0004 214.621 80.5291 214.443 79.8758 214.443C79.2411 214.443 78.7464 214.644 78.3918 215.045C78.0464 215.437 77.8598 215.965 77.8318 216.627H76.5998C76.6371 215.582 76.9544 214.775 77.5518 214.205C78.1491 213.636 78.9191 213.351 79.8618 213.351C80.8231 213.351 81.5838 213.617 82.1438 214.149C82.7131 214.681 82.9978 215.414 82.9978 216.347C82.9978 217.122 82.7644 217.878 82.2978 218.615C81.8404 219.343 81.3178 219.987 80.7298 220.547C80.1418 221.098 79.3904 221.742 78.4758 222.479H83.2918V223.543H76.5578V222.633ZM84.6105 222.633C85.7958 221.681 86.7245 220.902 87.3965 220.295C88.0685 219.679 88.6332 219.04 89.0905 218.377C89.5572 217.705 89.7905 217.047 89.7905 216.403C89.7905 215.797 89.6412 215.321 89.3425 214.975C89.0532 214.621 88.5818 214.443 87.9285 214.443C87.2938 214.443 86.7992 214.644 86.4445 215.045C86.0992 215.437 85.9125 215.965 85.8845 216.627H84.6525C84.6898 215.582 85.0072 214.775 85.6045 214.205C86.2018 213.636 86.9718 213.351 87.9145 213.351C88.8758 213.351 89.6365 213.617 90.1965 214.149C90.7658 214.681 91.0505 215.414 91.0505 216.347C91.0505 217.122 90.8172 217.878 90.3505 218.615C89.8932 219.343 89.3705 219.987 88.7825 220.547C88.1945 221.098 87.4432 221.742 86.5285 222.479H91.3445V223.543H84.6105V222.633Z" fill="#515760"/>
<path d="M158.714 222.634C159.899 221.682 160.828 220.903 161.5 220.296C162.172 219.68 162.737 219.041 163.194 218.378C163.661 217.706 163.894 217.048 163.894 216.404C163.894 215.798 163.745 215.322 163.446 214.976C163.157 214.622 162.685 214.444 162.032 214.444C161.397 214.444 160.903 214.645 160.548 215.046C160.203 215.438 160.016 215.966 159.988 216.628H158.756C158.793 215.583 159.111 214.776 159.708 214.206C160.305 213.637 161.075 213.352 162.018 213.352C162.979 213.352 163.74 213.618 164.3 214.15C164.869 214.682 165.154 215.415 165.154 216.348C165.154 217.123 164.921 217.879 164.454 218.616C163.997 219.344 163.474 219.988 162.886 220.548C162.298 221.099 161.547 221.743 160.632 222.48H165.448V223.544H158.714V222.634ZM166.921 218.49C166.921 216.885 167.182 215.634 167.705 214.738C168.227 213.833 169.142 213.38 170.449 213.38C171.746 213.38 172.656 213.833 173.179 214.738C173.701 215.634 173.963 216.885 173.963 218.49C173.963 220.124 173.701 221.393 173.179 222.298C172.656 223.204 171.746 223.656 170.449 223.656C169.142 223.656 168.227 223.204 167.705 222.298C167.182 221.393 166.921 220.124 166.921 218.49ZM172.703 218.49C172.703 217.678 172.647 216.992 172.535 216.432C172.432 215.863 172.213 215.406 171.877 215.06C171.55 214.715 171.074 214.542 170.449 214.542C169.814 214.542 169.329 214.715 168.993 215.06C168.666 215.406 168.447 215.863 168.335 216.432C168.232 216.992 168.181 217.678 168.181 218.49C168.181 219.33 168.232 220.035 168.335 220.604C168.447 221.174 168.666 221.631 168.993 221.976C169.329 222.322 169.814 222.494 170.449 222.494C171.074 222.494 171.55 222.322 171.877 221.976C172.213 221.631 172.432 221.174 172.535 220.604C172.647 220.035 172.703 219.33 172.703 218.49ZM175.558 222.634C176.743 221.682 177.672 220.903 178.344 220.296C179.016 219.68 179.58 219.041 180.038 218.378C180.504 217.706 180.738 217.048 180.738 216.404C180.738 215.798 180.588 215.322 180.29 214.976C180 214.622 179.529 214.444 178.876 214.444C178.241 214.444 177.746 214.645 177.392 215.046C177.046 215.438 176.86 215.966 176.832 216.628H175.6C175.637 215.583 175.954 214.776 176.552 214.206C177.149 213.637 177.919 213.352 178.862 213.352C179.823 213.352 180.584 213.618 181.144 214.15C181.713 214.682 181.998 215.415 181.998 216.348C181.998 217.123 181.764 217.879 181.298 218.616C180.84 219.344 180.318 219.988 179.73 220.548C179.142 221.099 178.39 221.743 177.476 222.48H182.292V223.544H175.558V222.634ZM183.61 222.634C184.796 221.682 185.724 220.903 186.396 220.296C187.068 219.68 187.633 219.041 188.09 218.378C188.557 217.706 188.79 217.048 188.79 216.404C188.79 215.798 188.641 215.322 188.342 214.976C188.053 214.622 187.582 214.444 186.928 214.444C186.294 214.444 185.799 214.645 185.444 215.046C185.099 215.438 184.912 215.966 184.884 216.628H183.652C183.69 215.583 184.007 214.776 184.604 214.206C185.202 213.637 185.972 213.352 186.914 213.352C187.876 213.352 188.636 213.618 189.196 214.15C189.766 214.682 190.05 215.415 190.05 216.348C190.05 217.123 189.817 217.879 189.35 218.616C188.893 219.344 188.37 219.988 187.782 220.548C187.194 221.099 186.443 221.743 185.528 222.48H190.344V223.544H183.61V222.634Z" fill="#515760"/>
<path d="M256.714 222.634C257.899 221.682 258.828 220.903 259.5 220.296C260.172 219.68 260.737 219.041 261.194 218.378C261.661 217.706 261.894 217.048 261.894 216.404C261.894 215.798 261.745 215.322 261.446 214.976C261.157 214.622 260.685 214.444 260.032 214.444C259.397 214.444 258.903 214.645 258.548 215.046C258.203 215.438 258.016 215.966 257.988 216.628H256.756C256.793 215.583 257.111 214.776 257.708 214.206C258.305 213.637 259.075 213.352 260.018 213.352C260.979 213.352 261.74 213.618 262.3 214.15C262.869 214.682 263.154 215.415 263.154 216.348C263.154 217.123 262.921 217.879 262.454 218.616C261.997 219.344 261.474 219.988 260.886 220.548C260.298 221.099 259.547 221.743 258.632 222.48H263.448V223.544H256.714V222.634ZM264.921 218.49C264.921 216.885 265.182 215.634 265.705 214.738C266.227 213.833 267.142 213.38 268.449 213.38C269.746 213.38 270.656 213.833 271.179 214.738C271.701 215.634 271.963 216.885 271.963 218.49C271.963 220.124 271.701 221.393 271.179 222.298C270.656 223.204 269.746 223.656 268.449 223.656C267.142 223.656 266.227 223.204 265.705 222.298C265.182 221.393 264.921 220.124 264.921 218.49ZM270.703 218.49C270.703 217.678 270.647 216.992 270.535 216.432C270.432 215.863 270.213 215.406 269.877 215.06C269.55 214.715 269.074 214.542 268.449 214.542C267.814 214.542 267.329 214.715 266.993 215.06C266.666 215.406 266.447 215.863 266.335 216.432C266.232 216.992 266.181 217.678 266.181 218.49C266.181 219.33 266.232 220.035 266.335 220.604C266.447 221.174 266.666 221.631 266.993 221.976C267.329 222.322 267.814 222.494 268.449 222.494C269.074 222.494 269.55 222.322 269.877 221.976C270.213 221.631 270.432 221.174 270.535 220.604C270.647 220.035 270.703 219.33 270.703 218.49ZM273.558 222.634C274.743 221.682 275.672 220.903 276.344 220.296C277.016 219.68 277.58 219.041 278.038 218.378C278.504 217.706 278.738 217.048 278.738 216.404C278.738 215.798 278.588 215.322 278.29 214.976C278 214.622 277.529 214.444 276.876 214.444C276.241 214.444 275.746 214.645 275.392 215.046C275.046 215.438 274.86 215.966 274.832 216.628H273.6C273.637 215.583 273.954 214.776 274.552 214.206C275.149 213.637 275.919 213.352 276.862 213.352C277.823 213.352 278.584 213.618 279.144 214.15C279.713 214.682 279.998 215.415 279.998 216.348C279.998 217.123 279.764 217.879 279.298 218.616C278.84 219.344 278.318 219.988 277.73 220.548C277.142 221.099 276.39 221.743 275.476 222.48H280.292V223.544H273.558V222.634ZM281.736 216.082C281.802 215.224 282.133 214.552 282.73 214.066C283.328 213.581 284.102 213.338 285.054 213.338C285.689 213.338 286.235 213.455 286.692 213.688C287.159 213.912 287.509 214.22 287.742 214.612C287.985 215.004 288.106 215.448 288.106 215.942C288.106 216.521 287.938 217.02 287.602 217.44C287.276 217.86 286.846 218.131 286.314 218.252V218.322C286.921 218.472 287.402 218.766 287.756 219.204C288.111 219.643 288.288 220.217 288.288 220.926C288.288 221.458 288.167 221.939 287.924 222.368C287.682 222.788 287.318 223.12 286.832 223.362C286.347 223.605 285.764 223.726 285.082 223.726C284.093 223.726 283.281 223.47 282.646 222.956C282.012 222.434 281.657 221.696 281.582 220.744H282.814C282.88 221.304 283.108 221.762 283.5 222.116C283.892 222.471 284.415 222.648 285.068 222.648C285.722 222.648 286.216 222.48 286.552 222.144C286.898 221.799 287.07 221.356 287.07 220.814C287.07 220.114 286.837 219.61 286.37 219.302C285.904 218.994 285.199 218.84 284.256 218.84H283.934V217.776H284.27C285.129 217.767 285.778 217.627 286.216 217.356C286.655 217.076 286.874 216.647 286.874 216.068C286.874 215.574 286.711 215.177 286.384 214.878C286.067 214.58 285.61 214.43 285.012 214.43C284.434 214.43 283.967 214.58 283.612 214.878C283.258 215.177 283.048 215.578 282.982 216.082H281.736Z" fill="#515760"/>
<path d="M355.714 222.634C356.899 221.682 357.828 220.903 358.5 220.296C359.172 219.68 359.737 219.041 360.194 218.378C360.661 217.706 360.894 217.048 360.894 216.404C360.894 215.798 360.745 215.322 360.446 214.976C360.157 214.622 359.685 214.444 359.032 214.444C358.397 214.444 357.903 214.645 357.548 215.046C357.203 215.438 357.016 215.966 356.988 216.628H355.756C355.793 215.583 356.111 214.776 356.708 214.206C357.305 213.637 358.075 213.352 359.018 213.352C359.979 213.352 360.74 213.618 361.3 214.15C361.869 214.682 362.154 215.415 362.154 216.348C362.154 217.123 361.921 217.879 361.454 218.616C360.997 219.344 360.474 219.988 359.886 220.548C359.298 221.099 358.547 221.743 357.632 222.48H362.448V223.544H355.714V222.634ZM363.921 218.49C363.921 216.885 364.182 215.634 364.705 214.738C365.227 213.833 366.142 213.38 367.449 213.38C368.746 213.38 369.656 213.833 370.179 214.738C370.701 215.634 370.963 216.885 370.963 218.49C370.963 220.124 370.701 221.393 370.179 222.298C369.656 223.204 368.746 223.656 367.449 223.656C366.142 223.656 365.227 223.204 364.705 222.298C364.182 221.393 363.921 220.124 363.921 218.49ZM369.703 218.49C369.703 217.678 369.647 216.992 369.535 216.432C369.432 215.863 369.213 215.406 368.877 215.06C368.55 214.715 368.074 214.542 367.449 214.542C366.814 214.542 366.329 214.715 365.993 215.06C365.666 215.406 365.447 215.863 365.335 216.432C365.232 216.992 365.181 217.678 365.181 218.49C365.181 219.33 365.232 220.035 365.335 220.604C365.447 221.174 365.666 221.631 365.993 221.976C366.329 222.322 366.814 222.494 367.449 222.494C368.074 222.494 368.55 222.322 368.877 221.976C369.213 221.631 369.432 221.174 369.535 220.604C369.647 220.035 369.703 219.33 369.703 218.49ZM372.558 222.634C373.743 221.682 374.672 220.903 375.344 220.296C376.016 219.68 376.58 219.041 377.038 218.378C377.504 217.706 377.738 217.048 377.738 216.404C377.738 215.798 377.588 215.322 377.29 214.976C377 214.622 376.529 214.444 375.876 214.444C375.241 214.444 374.746 214.645 374.392 215.046C374.046 215.438 373.86 215.966 373.832 216.628H372.6C372.637 215.583 372.954 214.776 373.552 214.206C374.149 213.637 374.919 213.352 375.862 213.352C376.823 213.352 377.584 213.618 378.144 214.15C378.713 214.682 378.998 215.415 378.998 216.348C378.998 217.123 378.764 217.879 378.298 218.616C377.84 219.344 377.318 219.988 376.73 220.548C376.142 221.099 375.39 221.743 374.476 222.48H379.292V223.544H372.558V222.634ZM380.456 221.402V220.436L385.37 213.632H386.896V220.296H388.296V221.402H386.896V223.656H385.636V221.402H380.456ZM385.692 214.962L381.926 220.296H385.692V214.962Z" fill="#515760"/>
<path d="M453.714 222.634C454.899 221.682 455.828 220.903 456.5 220.296C457.172 219.68 457.737 219.041 458.194 218.378C458.661 217.706 458.894 217.048 458.894 216.404C458.894 215.798 458.745 215.322 458.446 214.976C458.157 214.622 457.685 214.444 457.032 214.444C456.397 214.444 455.903 214.645 455.548 215.046C455.203 215.438 455.016 215.966 454.988 216.628H453.756C453.793 215.583 454.111 214.776 454.708 214.206C455.305 213.637 456.075 213.352 457.018 213.352C457.979 213.352 458.74 213.618 459.3 214.15C459.869 214.682 460.154 215.415 460.154 216.348C460.154 217.123 459.921 217.879 459.454 218.616C458.997 219.344 458.474 219.988 457.886 220.548C457.298 221.099 456.547 221.743 455.632 222.48H460.448V223.544H453.714V222.634ZM461.921 218.49C461.921 216.885 462.182 215.634 462.705 214.738C463.227 213.833 464.142 213.38 465.449 213.38C466.746 213.38 467.656 213.833 468.179 214.738C468.701 215.634 468.963 216.885 468.963 218.49C468.963 220.124 468.701 221.393 468.179 222.298C467.656 223.204 466.746 223.656 465.449 223.656C464.142 223.656 463.227 223.204 462.705 222.298C462.182 221.393 461.921 220.124 461.921 218.49ZM467.703 218.49C467.703 217.678 467.647 216.992 467.535 216.432C467.432 215.863 467.213 215.406 466.877 215.06C466.55 214.715 466.074 214.542 465.449 214.542C464.814 214.542 464.329 214.715 463.993 215.06C463.666 215.406 463.447 215.863 463.335 216.432C463.232 216.992 463.181 217.678 463.181 218.49C463.181 219.33 463.232 220.035 463.335 220.604C463.447 221.174 463.666 221.631 463.993 221.976C464.329 222.322 464.814 222.494 465.449 222.494C466.074 222.494 466.55 222.322 466.877 221.976C467.213 221.631 467.432 221.174 467.535 220.604C467.647 220.035 467.703 219.33 467.703 218.49ZM470.558 222.634C471.743 221.682 472.672 220.903 473.344 220.296C474.016 219.68 474.58 219.041 475.038 218.378C475.504 217.706 475.738 217.048 475.738 216.404C475.738 215.798 475.588 215.322 475.29 214.976C475 214.622 474.529 214.444 473.876 214.444C473.241 214.444 472.746 214.645 472.392 215.046C472.046 215.438 471.86 215.966 471.832 216.628H470.6C470.637 215.583 470.954 214.776 471.552 214.206C472.149 213.637 472.919 213.352 473.862 213.352C474.823 213.352 475.584 213.618 476.144 214.15C476.713 214.682 476.998 215.415 476.998 216.348C476.998 217.123 476.764 217.879 476.298 218.616C475.84 219.344 475.318 219.988 474.73 220.548C474.142 221.099 473.39 221.743 472.476 222.48H477.292V223.544H470.558V222.634ZM485.218 214.64H480.304V217.832C480.519 217.534 480.836 217.291 481.256 217.104C481.676 216.908 482.129 216.81 482.614 216.81C483.389 216.81 484.019 216.974 484.504 217.3C484.99 217.618 485.335 218.033 485.54 218.546C485.755 219.05 485.862 219.587 485.862 220.156C485.862 220.828 485.736 221.43 485.484 221.962C485.232 222.494 484.845 222.914 484.322 223.222C483.809 223.53 483.17 223.684 482.404 223.684C481.424 223.684 480.631 223.432 480.024 222.928C479.418 222.424 479.049 221.752 478.918 220.912H480.164C480.286 221.444 480.542 221.86 480.934 222.158C481.326 222.457 481.821 222.606 482.418 222.606C483.156 222.606 483.711 222.387 484.084 221.948C484.458 221.5 484.644 220.912 484.644 220.184C484.644 219.456 484.458 218.896 484.084 218.504C483.711 218.103 483.16 217.902 482.432 217.902C481.938 217.902 481.504 218.024 481.13 218.266C480.766 218.5 480.5 218.822 480.332 219.232H479.128V213.52H485.218V214.64Z" fill="#515760"/>
<rect x="49" y="2" width="52" height="181" rx="8" fill="#F5F6F6"/>
<rect x="49" y="82" width="52" height="101" rx="16" fill="#002E43"/>
<rect x="148" y="2" width="52" height="181" rx="8" fill="#F5F6F6"/>
<rect x="148" y="40" width="52" height="143" rx="16" fill="#002E43"/>
<rect x="247" y="2" width="52" height="181" rx="8" fill="#F5F6F6"/>
<rect x="247" y="82" width="52" height="101" rx="16" fill="#002E43"/>
<rect x="346" y="2" width="51" height="181" rx="8" fill="#F5F6F6"/>
<rect x="346" y="111" width="51" height="72" rx="16" fill="#002E43"/>
<rect x="444" y="2" width="52" height="181" rx="8" fill="#F5F6F6"/>
<rect x="444" y="65" width="52" height="118" rx="16" fill="#002E43"/>
<ellipse cx="272.5" cy="85.845" rx="6.29645" ry="5.84496" fill="#17181B" stroke="white" stroke-width="3"/>
<rect x="217" y="37" width="111" height="41" rx="20.5" fill="#678FAB"/>
<path d="M246.714 60.978C247.899 60.026 248.828 59.2467 249.5 58.64C250.172 58.024 250.737 57.3847 251.194 56.722C251.661 56.05 251.894 55.392 251.894 54.748C251.894 54.1413 251.745 53.6653 251.446 53.32C251.157 52.9653 250.685 52.788 250.032 52.788C249.397 52.788 248.903 52.9887 248.548 53.39C248.203 53.782 248.016 54.3093 247.988 54.972H246.756C246.793 53.9267 247.111 53.1193 247.708 52.55C248.305 51.9807 249.075 51.696 250.018 51.696C250.979 51.696 251.74 51.962 252.3 52.494C252.869 53.026 253.154 53.7587 253.154 54.692C253.154 55.4667 252.921 56.2227 252.454 56.96C251.997 57.688 251.474 58.332 250.886 58.892C250.298 59.4427 249.547 60.0867 248.632 60.824H253.448V61.888H246.714V60.978ZM254.767 60.978C255.952 60.026 256.881 59.2467 257.553 58.64C258.225 58.024 258.789 57.3847 259.247 56.722C259.713 56.05 259.947 55.392 259.947 54.748C259.947 54.1413 259.797 53.6653 259.499 53.32C259.209 52.9653 258.738 52.788 258.085 52.788C257.45 52.788 256.955 52.9887 256.601 53.39C256.255 53.782 256.069 54.3093 256.041 54.972H254.809C254.846 53.9267 255.163 53.1193 255.761 52.55C256.358 51.9807 257.128 51.696 258.071 51.696C259.032 51.696 259.793 51.962 260.353 52.494C260.922 53.026 261.207 53.7587 261.207 54.692C261.207 55.4667 260.973 56.2227 260.507 56.96C260.049 57.688 259.527 58.332 258.939 58.892C258.351 59.4427 257.599 60.0867 256.685 60.824H261.501V61.888H254.767V60.978ZM262.973 56.834C262.973 55.2287 263.235 53.978 263.757 53.082C264.28 52.1767 265.195 51.724 266.501 51.724C267.799 51.724 268.709 52.1767 269.231 53.082C269.754 53.978 270.015 55.2287 270.015 56.834C270.015 58.4673 269.754 59.7367 269.231 60.642C268.709 61.5473 267.799 62 266.501 62C265.195 62 264.28 61.5473 263.757 60.642C263.235 59.7367 262.973 58.4673 262.973 56.834ZM268.755 56.834C268.755 56.022 268.699 55.336 268.587 54.776C268.485 54.2067 268.265 53.7493 267.929 53.404C267.603 53.0587 267.127 52.886 266.501 52.886C265.867 52.886 265.381 53.0587 265.045 53.404C264.719 53.7493 264.499 54.2067 264.387 54.776C264.285 55.336 264.233 56.022 264.233 56.834C264.233 57.674 264.285 58.3787 264.387 58.948C264.499 59.5173 264.719 59.9747 265.045 60.32C265.381 60.6653 265.867 60.838 266.501 60.838C267.127 60.838 267.603 60.6653 267.929 60.32C268.265 59.9747 268.485 59.5173 268.587 58.948C268.699 58.3787 268.755 57.674 268.755 56.834ZM271.764 56.834C271.764 55.2287 272.026 53.978 272.548 53.082C273.071 52.1767 273.986 51.724 275.292 51.724C276.59 51.724 277.5 52.1767 278.022 53.082C278.545 53.978 278.806 55.2287 278.806 56.834C278.806 58.4673 278.545 59.7367 278.022 60.642C277.5 61.5473 276.59 62 275.292 62C273.986 62 273.071 61.5473 272.548 60.642C272.026 59.7367 271.764 58.4673 271.764 56.834ZM277.546 56.834C277.546 56.022 277.49 55.336 277.378 54.776C277.276 54.2067 277.056 53.7493 276.72 53.404C276.394 53.0587 275.918 52.886 275.292 52.886C274.658 52.886 274.172 53.0587 273.836 53.404C273.51 53.7493 273.29 54.2067 273.178 54.776C273.076 55.336 273.024 56.022 273.024 56.834C273.024 57.674 273.076 58.3787 273.178 58.948C273.29 59.5173 273.51 59.9747 273.836 60.32C274.172 60.6653 274.658 60.838 275.292 60.838C275.918 60.838 276.394 60.6653 276.72 60.32C277.056 59.9747 277.276 59.5173 277.378 58.948C277.49 58.3787 277.546 57.674 277.546 56.834ZM292.016 52.242V62H290.742V57.576H285.772V62H284.498V52.242H285.772V56.526H290.742V52.242H292.016ZM295.465 55.574C295.689 55.1353 296.007 54.7947 296.417 54.552C296.837 54.3093 297.346 54.188 297.943 54.188V55.504H297.607C296.179 55.504 295.465 56.2787 295.465 57.828V62H294.191V54.328H295.465V55.574Z" fill="white"/>
<path d="M273.414 83.9422C273.062 84.7343 271.938 84.7343 271.586 83.9422L268.794 77.6559C268.501 76.9946 268.985 76.25 269.708 76.25L275.292 76.25C276.015 76.25 276.499 76.9946 276.206 77.6559L273.414 83.9422Z" fill="#678FAB"/>
</svg>
