<svg width="514" height="222" viewBox="0 0 514 222" fill="none" xmlns="http://www.w3.org/2000/svg">
<rect opacity="0.7" x="1" y="158" width="512" height="1" fill="#E4E6EF"/>
<rect x="82.5" y="177.5" width="11" height="11" rx="5.5" fill="#12B76A"/>
<path d="M103.988 188.098C103.083 188.098 102.247 187.888 101.482 187.468C100.726 187.039 100.124 186.446 99.676 185.69C99.2373 184.925 99.018 184.066 99.018 183.114C99.018 182.162 99.2373 181.308 99.676 180.552C100.124 179.796 100.726 179.208 101.482 178.788C102.247 178.359 103.083 178.144 103.988 178.144C104.903 178.144 105.738 178.359 106.494 178.788C107.259 179.208 107.861 179.796 108.3 180.552C108.739 181.308 108.958 182.162 108.958 183.114C108.958 184.066 108.739 184.925 108.3 185.69C107.861 186.446 107.259 187.039 106.494 187.468C105.738 187.888 104.903 188.098 103.988 188.098ZM103.988 186.712C104.632 186.712 105.206 186.567 105.71 186.278C106.214 185.979 106.606 185.559 106.886 185.018C107.175 184.467 107.32 183.833 107.32 183.114C107.32 182.395 107.175 181.765 106.886 181.224C106.606 180.683 106.214 180.267 105.71 179.978C105.206 179.689 104.632 179.544 103.988 179.544C103.344 179.544 102.77 179.689 102.266 179.978C101.762 180.267 101.365 180.683 101.076 181.224C100.796 181.765 100.656 182.395 100.656 183.114C100.656 183.833 100.796 184.467 101.076 185.018C101.365 185.559 101.762 185.979 102.266 186.278C102.77 186.567 103.344 186.712 103.988 186.712ZM113.231 186.572L115.415 180.286H117.109L114.169 188H112.265L109.339 180.286H111.047L113.231 186.572ZM125.105 183.954C125.105 184.243 125.086 184.505 125.049 184.738H119.155C119.202 185.354 119.43 185.849 119.841 186.222C120.252 186.595 120.756 186.782 121.353 186.782C122.212 186.782 122.818 186.423 123.173 185.704H124.895C124.662 186.413 124.237 186.997 123.621 187.454C123.014 187.902 122.258 188.126 121.353 188.126C120.616 188.126 119.953 187.963 119.365 187.636C118.786 187.3 118.329 186.833 117.993 186.236C117.666 185.629 117.503 184.929 117.503 184.136C117.503 183.343 117.662 182.647 117.979 182.05C118.306 181.443 118.758 180.977 119.337 180.65C119.925 180.323 120.597 180.16 121.353 180.16C122.081 180.16 122.73 180.319 123.299 180.636C123.868 180.953 124.312 181.401 124.629 181.98C124.946 182.549 125.105 183.207 125.105 183.954ZM123.439 183.45C123.43 182.862 123.22 182.391 122.809 182.036C122.398 181.681 121.89 181.504 121.283 181.504C120.732 181.504 120.261 181.681 119.869 182.036C119.477 182.381 119.244 182.853 119.169 183.45H123.439ZM127.992 181.406C128.225 181.014 128.533 180.711 128.916 180.496C129.308 180.272 129.77 180.16 130.302 180.16V181.812H129.896C129.27 181.812 128.794 181.971 128.468 182.288C128.15 182.605 127.992 183.156 127.992 183.94V188H126.396V180.286H127.992V181.406ZM133.351 181.588V185.858C133.351 186.147 133.416 186.357 133.547 186.488C133.687 186.609 133.92 186.67 134.247 186.67H135.227V188H133.967C133.248 188 132.697 187.832 132.315 187.496C131.932 187.16 131.741 186.614 131.741 185.858V181.588H130.831V180.286H131.741V178.368H133.351V180.286H135.227V181.588H133.351ZM137.23 179.264C136.94 179.264 136.698 179.166 136.502 178.97C136.306 178.774 136.208 178.531 136.208 178.242C136.208 177.953 136.306 177.71 136.502 177.514C136.698 177.318 136.94 177.22 137.23 177.22C137.51 177.22 137.748 177.318 137.944 177.514C138.14 177.71 138.238 177.953 138.238 178.242C138.238 178.531 138.14 178.774 137.944 178.97C137.748 179.166 137.51 179.264 137.23 179.264ZM138.014 180.286V188H136.418V180.286H138.014ZM149.167 180.16C149.774 180.16 150.315 180.286 150.791 180.538C151.276 180.79 151.654 181.163 151.925 181.658C152.205 182.153 152.345 182.75 152.345 183.45V188H150.763V183.688C150.763 182.997 150.59 182.47 150.245 182.106C149.9 181.733 149.428 181.546 148.831 181.546C148.234 181.546 147.758 181.733 147.403 182.106C147.058 182.47 146.885 182.997 146.885 183.688V188H145.303V183.688C145.303 182.997 145.13 182.47 144.785 182.106C144.44 181.733 143.968 181.546 143.371 181.546C142.774 181.546 142.298 181.733 141.943 182.106C141.598 182.47 141.425 182.997 141.425 183.688V188H139.829V180.286H141.425V181.168C141.686 180.851 142.018 180.603 142.419 180.426C142.82 180.249 143.25 180.16 143.707 180.16C144.323 180.16 144.874 180.291 145.359 180.552C145.844 180.813 146.218 181.191 146.479 181.686C146.712 181.219 147.076 180.851 147.571 180.58C148.066 180.3 148.598 180.16 149.167 180.16ZM161.166 183.954C161.166 184.243 161.147 184.505 161.11 184.738H155.216C155.263 185.354 155.491 185.849 155.902 186.222C156.313 186.595 156.817 186.782 157.414 186.782C158.273 186.782 158.879 186.423 159.234 185.704H160.956C160.723 186.413 160.298 186.997 159.682 187.454C159.075 187.902 158.319 188.126 157.414 188.126C156.677 188.126 156.014 187.963 155.426 187.636C154.847 187.3 154.39 186.833 154.054 186.236C153.727 185.629 153.564 184.929 153.564 184.136C153.564 183.343 153.723 182.647 154.04 182.05C154.367 181.443 154.819 180.977 155.398 180.65C155.986 180.323 156.658 180.16 157.414 180.16C158.142 180.16 158.791 180.319 159.36 180.636C159.929 180.953 160.373 181.401 160.69 181.98C161.007 182.549 161.166 183.207 161.166 183.954ZM159.5 183.45C159.491 182.862 159.281 182.391 158.87 182.036C158.459 181.681 157.951 181.504 157.344 181.504C156.793 181.504 156.322 181.681 155.93 182.036C155.538 182.381 155.305 182.853 155.23 183.45H159.5Z" fill="#B5B5C3"/>
<path d="M100.222 211.83C101.118 211.055 101.823 210.421 102.336 209.926C102.859 209.422 103.293 208.899 103.638 208.358C103.983 207.817 104.156 207.275 104.156 206.734C104.156 206.174 104.021 205.735 103.75 205.418C103.489 205.101 103.073 204.942 102.504 204.942C101.953 204.942 101.524 205.119 101.216 205.474C100.917 205.819 100.759 206.286 100.74 206.874H99.2C99.228 205.81 99.5453 204.998 100.152 204.438C100.768 203.869 101.547 203.584 102.49 203.584C103.507 203.584 104.301 203.864 104.87 204.424C105.449 204.984 105.738 205.731 105.738 206.664C105.738 207.336 105.565 207.985 105.22 208.61C104.884 209.226 104.478 209.781 104.002 210.276C103.535 210.761 102.938 211.326 102.21 211.97L101.58 212.53H106.018V213.86H99.214V212.698L100.222 211.83ZM109.142 208.666C108.171 208.181 107.686 207.415 107.686 206.37C107.686 205.866 107.812 205.404 108.064 204.984C108.316 204.564 108.694 204.233 109.198 203.99C109.702 203.738 110.318 203.612 111.046 203.612C111.765 203.612 112.376 203.738 112.88 203.99C113.393 204.233 113.776 204.564 114.028 204.984C114.28 205.404 114.406 205.866 114.406 206.37C114.406 206.893 114.271 207.355 114 207.756C113.739 208.148 113.389 208.451 112.95 208.666C113.482 208.862 113.902 209.184 114.21 209.632C114.518 210.071 114.672 210.589 114.672 211.186C114.672 211.793 114.518 212.329 114.21 212.796C113.902 213.263 113.473 213.622 112.922 213.874C112.371 214.126 111.746 214.252 111.046 214.252C110.346 214.252 109.721 214.126 109.17 213.874C108.629 213.622 108.204 213.263 107.896 212.796C107.588 212.329 107.434 211.793 107.434 211.186C107.434 210.579 107.588 210.057 107.896 209.618C108.204 209.179 108.619 208.862 109.142 208.666ZM112.88 206.566C112.88 206.043 112.717 205.642 112.39 205.362C112.063 205.082 111.615 204.942 111.046 204.942C110.486 204.942 110.043 205.082 109.716 205.362C109.389 205.642 109.226 206.048 109.226 206.58C109.226 207.047 109.394 207.429 109.73 207.728C110.075 208.017 110.514 208.162 111.046 208.162C111.578 208.162 112.017 208.013 112.362 207.714C112.707 207.415 112.88 207.033 112.88 206.566ZM111.046 209.366C110.43 209.366 109.926 209.52 109.534 209.828C109.151 210.127 108.96 210.561 108.96 211.13C108.96 211.662 109.147 212.096 109.52 212.432C109.893 212.759 110.402 212.922 111.046 212.922C111.681 212.922 112.18 212.754 112.544 212.418C112.917 212.082 113.104 211.653 113.104 211.13C113.104 210.57 112.913 210.136 112.53 209.828C112.157 209.52 111.662 209.366 111.046 209.366ZM116.348 208.764C116.348 207.149 116.618 205.889 117.16 204.984C117.71 204.069 118.653 203.612 119.988 203.612C121.322 203.612 122.26 204.069 122.802 204.984C123.352 205.889 123.628 207.149 123.628 208.764C123.628 210.397 123.352 211.676 122.802 212.6C122.26 213.515 121.322 213.972 119.988 213.972C118.653 213.972 117.71 213.515 117.16 212.6C116.618 211.676 116.348 210.397 116.348 208.764ZM122.06 208.764C122.06 208.008 122.008 207.369 121.906 206.846C121.812 206.323 121.616 205.899 121.318 205.572C121.019 205.236 120.576 205.068 119.988 205.068C119.4 205.068 118.956 205.236 118.658 205.572C118.359 205.899 118.158 206.323 118.056 206.846C117.962 207.369 117.916 208.008 117.916 208.764C117.916 209.548 117.962 210.206 118.056 210.738C118.149 211.27 118.345 211.699 118.644 212.026C118.952 212.353 119.4 212.516 119.988 212.516C120.576 212.516 121.019 212.353 121.318 212.026C121.626 211.699 121.826 211.27 121.92 210.738C122.013 210.206 122.06 209.548 122.06 208.764ZM125.317 208.764C125.317 207.149 125.587 205.889 126.129 204.984C126.679 204.069 127.622 203.612 128.957 203.612C130.291 203.612 131.229 204.069 131.771 204.984C132.321 205.889 132.597 207.149 132.597 208.764C132.597 210.397 132.321 211.676 131.771 212.6C131.229 213.515 130.291 213.972 128.957 213.972C127.622 213.972 126.679 213.515 126.129 212.6C125.587 211.676 125.317 210.397 125.317 208.764ZM131.029 208.764C131.029 208.008 130.977 207.369 130.875 206.846C130.781 206.323 130.585 205.899 130.287 205.572C129.988 205.236 129.545 205.068 128.957 205.068C128.369 205.068 127.925 205.236 127.627 205.572C127.328 205.899 127.127 206.323 127.025 206.846C126.931 207.369 126.885 208.008 126.885 208.764C126.885 209.548 126.931 210.206 127.025 210.738C127.118 211.27 127.314 211.699 127.613 212.026C127.921 212.353 128.369 212.516 128.957 212.516C129.545 212.516 129.988 212.353 130.287 212.026C130.595 211.699 130.795 211.27 130.889 210.738C130.982 210.206 131.029 209.548 131.029 208.764ZM145.902 204.27V214H144.306V209.744H139.728V214H138.132V204.27H139.728V208.442H144.306V204.27H145.902ZM149.599 207.406C149.832 207.014 150.14 206.711 150.523 206.496C150.915 206.272 151.377 206.16 151.909 206.16V207.812H151.503C150.878 207.812 150.402 207.971 150.075 208.288C149.758 208.605 149.599 209.156 149.599 209.94V214H148.003V206.286H149.599V207.406ZM156.176 214.126C155.57 214.126 155.024 214.019 154.538 213.804C154.062 213.58 153.684 213.281 153.404 212.908C153.124 212.525 152.975 212.101 152.956 211.634H154.608C154.636 211.961 154.79 212.236 155.07 212.46C155.36 212.675 155.719 212.782 156.148 212.782C156.596 212.782 156.942 212.698 157.184 212.53C157.436 212.353 157.562 212.129 157.562 211.858C157.562 211.569 157.422 211.354 157.142 211.214C156.872 211.074 156.438 210.92 155.84 210.752C155.262 210.593 154.79 210.439 154.426 210.29C154.062 210.141 153.745 209.912 153.474 209.604C153.213 209.296 153.082 208.89 153.082 208.386C153.082 207.975 153.204 207.602 153.446 207.266C153.689 206.921 154.034 206.65 154.482 206.454C154.94 206.258 155.462 206.16 156.05 206.16C156.928 206.16 157.632 206.384 158.164 206.832C158.706 207.271 158.995 207.873 159.032 208.638H157.436C157.408 208.293 157.268 208.017 157.016 207.812C156.764 207.607 156.424 207.504 155.994 207.504C155.574 207.504 155.252 207.583 155.028 207.742C154.804 207.901 154.692 208.111 154.692 208.372C154.692 208.577 154.767 208.75 154.916 208.89C155.066 209.03 155.248 209.142 155.462 209.226C155.677 209.301 155.994 209.399 156.414 209.52C156.974 209.669 157.432 209.823 157.786 209.982C158.15 210.131 158.463 210.355 158.724 210.654C158.986 210.953 159.121 211.349 159.13 211.844C159.13 212.283 159.009 212.675 158.766 213.02C158.524 213.365 158.178 213.636 157.73 213.832C157.292 214.028 156.774 214.126 156.176 214.126Z" fill="#17181B"/>
<rect x="362" y="178" width="10" height="10" rx="5" fill="#F54470" stroke="#F54470"/>
<path d="M381.728 178.27C382.764 178.27 383.669 178.471 384.444 178.872C385.228 179.264 385.83 179.833 386.25 180.58C386.679 181.317 386.894 182.181 386.894 183.17C386.894 184.159 386.679 185.018 386.25 185.746C385.83 186.474 385.228 187.034 384.444 187.426C383.669 187.809 382.764 188 381.728 188H378.55V178.27H381.728ZM381.728 186.698C382.867 186.698 383.739 186.39 384.346 185.774C384.953 185.158 385.256 184.29 385.256 183.17C385.256 182.041 384.953 181.159 384.346 180.524C383.739 179.889 382.867 179.572 381.728 179.572H380.146V186.698H381.728ZM395.266 183.954C395.266 184.243 395.247 184.505 395.21 184.738H389.316C389.362 185.354 389.591 185.849 390.002 186.222C390.412 186.595 390.916 186.782 391.514 186.782C392.372 186.782 392.979 186.423 393.334 185.704H395.056C394.822 186.413 394.398 186.997 393.782 187.454C393.175 187.902 392.419 188.126 391.514 188.126C390.776 188.126 390.114 187.963 389.526 187.636C388.947 187.3 388.49 186.833 388.154 186.236C387.827 185.629 387.664 184.929 387.664 184.136C387.664 183.343 387.822 182.647 388.14 182.05C388.466 181.443 388.919 180.977 389.498 180.65C390.086 180.323 390.758 180.16 391.514 180.16C392.242 180.16 392.89 180.319 393.46 180.636C394.029 180.953 394.472 181.401 394.79 181.98C395.107 182.549 395.266 183.207 395.266 183.954ZM393.6 183.45C393.59 182.862 393.38 182.391 392.97 182.036C392.559 181.681 392.05 181.504 391.444 181.504C390.893 181.504 390.422 181.681 390.03 182.036C389.638 182.381 389.404 182.853 389.33 183.45H393.6ZM398.152 177.64V188H396.556V177.64H398.152ZM399.436 184.108C399.436 183.333 399.594 182.647 399.912 182.05C400.238 181.453 400.677 180.991 401.228 180.664C401.788 180.328 402.404 180.16 403.076 180.16C403.682 180.16 404.21 180.281 404.658 180.524C405.115 180.757 405.479 181.051 405.75 181.406V180.286H407.36V188H405.75V186.852C405.479 187.216 405.11 187.519 404.644 187.762C404.177 188.005 403.645 188.126 403.048 188.126C402.385 188.126 401.778 187.958 401.228 187.622C400.677 187.277 400.238 186.801 399.912 186.194C399.594 185.578 399.436 184.883 399.436 184.108ZM405.75 184.136C405.75 183.604 405.638 183.142 405.414 182.75C405.199 182.358 404.914 182.059 404.56 181.854C404.205 181.649 403.822 181.546 403.412 181.546C403.001 181.546 402.618 181.649 402.264 181.854C401.909 182.05 401.62 182.344 401.396 182.736C401.181 183.119 401.074 183.576 401.074 184.108C401.074 184.64 401.181 185.107 401.396 185.508C401.62 185.909 401.909 186.217 402.264 186.432C402.628 186.637 403.01 186.74 403.412 186.74C403.822 186.74 404.205 186.637 404.56 186.432C404.914 186.227 405.199 185.928 405.414 185.536C405.638 185.135 405.75 184.668 405.75 184.136ZM416.12 180.286L411.388 191.626H409.736L411.304 187.874L408.266 180.286H410.044L412.214 186.166L414.468 180.286H416.12Z" fill="#B5B5C3"/>
<path d="M384.92 205.166H380.23V207.952C380.426 207.691 380.715 207.471 381.098 207.294C381.49 207.117 381.905 207.028 382.344 207.028C383.128 207.028 383.763 207.196 384.248 207.532C384.743 207.868 385.093 208.293 385.298 208.806C385.513 209.319 385.62 209.861 385.62 210.43C385.62 211.121 385.485 211.737 385.214 212.278C384.953 212.81 384.556 213.23 384.024 213.538C383.501 213.846 382.857 214 382.092 214C381.075 214 380.258 213.748 379.642 213.244C379.026 212.74 378.657 212.073 378.536 211.242H380.09C380.193 211.681 380.421 212.031 380.776 212.292C381.131 212.544 381.574 212.67 382.106 212.67C382.769 212.67 383.263 212.469 383.59 212.068C383.926 211.667 384.094 211.135 384.094 210.472C384.094 209.8 383.926 209.287 383.59 208.932C383.254 208.568 382.759 208.386 382.106 208.386C381.649 208.386 381.261 208.503 380.944 208.736C380.636 208.96 380.412 209.268 380.272 209.66H378.76V203.766H384.92V205.166ZM387.281 208.764C387.281 207.149 387.552 205.889 388.093 204.984C388.644 204.069 389.587 203.612 390.921 203.612C392.256 203.612 393.194 204.069 393.735 204.984C394.286 205.889 394.561 207.149 394.561 208.764C394.561 210.397 394.286 211.676 393.735 212.6C393.194 213.515 392.256 213.972 390.921 213.972C389.587 213.972 388.644 213.515 388.093 212.6C387.552 211.676 387.281 210.397 387.281 208.764ZM392.993 208.764C392.993 208.008 392.942 207.369 392.839 206.846C392.746 206.323 392.55 205.899 392.251 205.572C391.953 205.236 391.509 205.068 390.921 205.068C390.333 205.068 389.89 205.236 389.591 205.572C389.293 205.899 389.092 206.323 388.989 206.846C388.896 207.369 388.849 208.008 388.849 208.764C388.849 209.548 388.896 210.206 388.989 210.738C389.083 211.27 389.279 211.699 389.577 212.026C389.885 212.353 390.333 212.516 390.921 212.516C391.509 212.516 391.953 212.353 392.251 212.026C392.559 211.699 392.76 211.27 392.853 210.738C392.947 210.206 392.993 209.548 392.993 208.764ZM396.25 208.764C396.25 207.149 396.521 205.889 397.062 204.984C397.613 204.069 398.555 203.612 399.89 203.612C401.225 203.612 402.163 204.069 402.704 204.984C403.255 205.889 403.53 207.149 403.53 208.764C403.53 210.397 403.255 211.676 402.704 212.6C402.163 213.515 401.225 213.972 399.89 213.972C398.555 213.972 397.613 213.515 397.062 212.6C396.521 211.676 396.25 210.397 396.25 208.764ZM401.962 208.764C401.962 208.008 401.911 207.369 401.808 206.846C401.715 206.323 401.519 205.899 401.22 205.572C400.921 205.236 400.478 205.068 399.89 205.068C399.302 205.068 398.859 205.236 398.56 205.572C398.261 205.899 398.061 206.323 397.958 206.846C397.865 207.369 397.818 208.008 397.818 208.764C397.818 209.548 397.865 210.206 397.958 210.738C398.051 211.27 398.247 211.699 398.546 212.026C398.854 212.353 399.302 212.516 399.89 212.516C400.478 212.516 400.921 212.353 401.22 212.026C401.528 211.699 401.729 211.27 401.822 210.738C401.915 210.206 401.962 209.548 401.962 208.764ZM416.836 204.27V214H415.24V209.744H410.662V214H409.066V204.27H410.662V208.442H415.24V204.27H416.836ZM420.533 207.406C420.766 207.014 421.074 206.711 421.457 206.496C421.849 206.272 422.311 206.16 422.843 206.16V207.812H422.437C421.811 207.812 421.335 207.971 421.009 208.288C420.691 208.605 420.533 209.156 420.533 209.94V214H418.937V206.286H420.533V207.406ZM427.11 214.126C426.503 214.126 425.957 214.019 425.472 213.804C424.996 213.58 424.618 213.281 424.338 212.908C424.058 212.525 423.908 212.101 423.89 211.634H425.542C425.57 211.961 425.724 212.236 426.004 212.46C426.293 212.675 426.652 212.782 427.082 212.782C427.53 212.782 427.875 212.698 428.118 212.53C428.37 212.353 428.496 212.129 428.496 211.858C428.496 211.569 428.356 211.354 428.076 211.214C427.805 211.074 427.371 210.92 426.774 210.752C426.195 210.593 425.724 210.439 425.36 210.29C424.996 210.141 424.678 209.912 424.408 209.604C424.146 209.296 424.016 208.89 424.016 208.386C424.016 207.975 424.137 207.602 424.38 207.266C424.622 206.921 424.968 206.65 425.416 206.454C425.873 206.258 426.396 206.16 426.984 206.16C427.861 206.16 428.566 206.384 429.098 206.832C429.639 207.271 429.928 207.873 429.966 208.638H428.37C428.342 208.293 428.202 208.017 427.95 207.812C427.698 207.607 427.357 207.504 426.928 207.504C426.508 207.504 426.186 207.583 425.962 207.742C425.738 207.901 425.626 208.111 425.626 208.372C425.626 208.577 425.7 208.75 425.85 208.89C425.999 209.03 426.181 209.142 426.396 209.226C426.61 209.301 426.928 209.399 427.348 209.52C427.908 209.669 428.365 209.823 428.72 209.982C429.084 210.131 429.396 210.355 429.658 210.654C429.919 210.953 430.054 211.349 430.064 211.844C430.064 212.283 429.942 212.675 429.7 213.02C429.457 213.365 429.112 213.636 428.664 213.832C428.225 214.028 427.707 214.126 427.11 214.126Z" fill="#17181B"/>
<mask id="path-8-inside-1_410_12948" fill="white">
<path d="M167.33 107.027C160.628 107.443 154.781 102.332 155.17 95.6277C155.739 85.8132 157.732 76.1114 161.104 66.8313C165.865 53.7324 173.272 41.7542 182.864 31.6432C192.456 21.5321 204.028 13.5048 216.858 8.06152C229.688 2.61821 243.502 -0.124486 257.438 0.00433594C271.375 0.133158 285.135 3.13074 297.863 8.81029C310.59 14.4898 322.011 22.7297 331.415 33.0163C340.818 43.3029 348.003 55.416 352.52 68.6006C355.721 77.9415 357.534 87.6785 357.921 97.5019C358.186 104.212 352.246 109.214 345.553 108.675C338.859 108.135 333.97 102.247 333.453 95.5518C332.952 89.0709 331.633 82.6628 329.515 76.4828C326.08 66.457 320.617 57.246 313.466 49.4239C306.316 41.6018 297.631 35.3361 287.953 31.0172C278.275 26.6984 267.811 24.419 257.213 24.3211C246.616 24.2231 236.112 26.3087 226.355 30.4479C216.599 34.5871 207.8 40.6911 200.506 48.3797C193.212 56.0683 187.58 65.1767 183.96 75.1373C181.728 81.2772 180.291 87.6597 179.67 94.1303C179.029 100.815 174.032 106.612 167.33 107.027Z"/>
</mask>
<path d="M167.33 107.027C160.628 107.443 154.781 102.332 155.17 95.6277C155.739 85.8132 157.732 76.1114 161.104 66.8313C165.865 53.7324 173.272 41.7542 182.864 31.6432C192.456 21.5321 204.028 13.5048 216.858 8.06152C229.688 2.61821 243.502 -0.124486 257.438 0.00433594C271.375 0.133158 285.135 3.13074 297.863 8.81029C310.59 14.4898 322.011 22.7297 331.415 33.0163C340.818 43.3029 348.003 55.416 352.52 68.6006C355.721 77.9415 357.534 87.6785 357.921 97.5019C358.186 104.212 352.246 109.214 345.553 108.675C338.859 108.135 333.97 102.247 333.453 95.5518C332.952 89.0709 331.633 82.6628 329.515 76.4828C326.08 66.457 320.617 57.246 313.466 49.4239C306.316 41.6018 297.631 35.3361 287.953 31.0172C278.275 26.6984 267.811 24.419 257.213 24.3211C246.616 24.2231 236.112 26.3087 226.355 30.4479C216.599 34.5871 207.8 40.6911 200.506 48.3797C193.212 56.0683 187.58 65.1767 183.96 75.1373C181.728 81.2772 180.291 87.6597 179.67 94.1303C179.029 100.815 174.032 106.612 167.33 107.027Z" fill="#E3E4E9" stroke="#E4E6EF" stroke-width="20" mask="url(#path-8-inside-1_410_12948)"/>
<mask id="path-9-inside-2_410_12948" fill="white">
<path d="M167.402 107.023C160.66 107.441 154.779 102.299 155.174 95.5562C155.713 86.3672 157.501 77.275 160.503 68.5335C164.832 55.927 171.602 44.2966 180.426 34.3064C189.25 24.3162 199.955 16.1618 211.931 10.3089C220.234 6.25038 229.036 3.35356 238.088 1.68385C244.731 0.458566 250.559 5.65975 250.977 12.4016C251.395 19.1434 246.229 24.8507 239.638 26.3292C233.783 27.6425 228.088 29.6385 222.672 32.2856C213.582 36.728 205.457 42.9172 198.759 50.4998C192.062 58.0824 186.924 66.9099 183.638 76.4783C181.68 82.1798 180.402 88.0779 179.822 94.0502C179.169 100.773 174.143 106.605 167.402 107.023Z"/>
</mask>
<path d="M167.402 107.023C160.66 107.441 154.779 102.299 155.174 95.5562C155.713 86.3672 157.501 77.275 160.503 68.5335C164.832 55.927 171.602 44.2966 180.426 34.3064C189.25 24.3162 199.955 16.1618 211.931 10.3089C220.234 6.25038 229.036 3.35356 238.088 1.68385C244.731 0.458566 250.559 5.65975 250.977 12.4016C251.395 19.1434 246.229 24.8507 239.638 26.3292C233.783 27.6425 228.088 29.6385 222.672 32.2856C213.582 36.728 205.457 42.9172 198.759 50.4998C192.062 58.0824 186.924 66.9099 183.638 76.4783C181.68 82.1798 180.402 88.0779 179.822 94.0502C179.169 100.773 174.143 106.605 167.402 107.023Z" fill="#12B76A" stroke="#12B76A" stroke-width="20" mask="url(#path-9-inside-2_410_12948)"/>
<path d="M332.889 55.1071C338.613 51.6304 346.146 53.4303 348.916 59.5284C354.206 71.1775 357.247 83.7242 357.877 96.5028C358.207 103.192 352.334 108.241 345.653 107.771C338.972 107.301 334.036 101.478 333.455 94.8059C332.78 87.0441 330.934 79.4279 327.981 72.2182C325.442 66.0205 327.164 58.5838 332.889 55.1071Z" fill="#F54470"/>
<path d="M247.694 52.66V53.776H245.474V61H244.106V53.776H241.874V52.66H247.694ZM251.948 61.108C251.324 61.108 250.76 60.968 250.256 60.688C249.752 60.4 249.356 60 249.068 59.488C248.78 58.968 248.636 58.368 248.636 57.688C248.636 57.016 248.784 56.42 249.08 55.9C249.376 55.38 249.78 54.98 250.292 54.7C250.804 54.42 251.376 54.28 252.008 54.28C252.64 54.28 253.212 54.42 253.724 54.7C254.236 54.98 254.64 55.38 254.936 55.9C255.232 56.42 255.38 57.016 255.38 57.688C255.38 58.36 255.228 58.956 254.924 59.476C254.62 59.996 254.204 60.4 253.676 60.688C253.156 60.968 252.58 61.108 251.948 61.108ZM251.948 59.92C252.3 59.92 252.628 59.836 252.932 59.668C253.244 59.5 253.496 59.248 253.688 58.912C253.88 58.576 253.976 58.168 253.976 57.688C253.976 57.208 253.884 56.804 253.7 56.476C253.516 56.14 253.272 55.888 252.968 55.72C252.664 55.552 252.336 55.468 251.984 55.468C251.632 55.468 251.304 55.552 251 55.72C250.704 55.888 250.468 56.14 250.292 56.476C250.116 56.804 250.028 57.208 250.028 57.688C250.028 58.4 250.208 58.952 250.568 59.344C250.936 59.728 251.396 59.92 251.948 59.92ZM258.328 55.504V59.164C258.328 59.412 258.384 59.592 258.496 59.704C258.616 59.808 258.816 59.86 259.096 59.86H259.936V61H258.856C258.24 61 257.768 60.856 257.44 60.568C257.112 60.28 256.948 59.812 256.948 59.164V55.504H256.168V54.388H256.948V52.744H258.328V54.388H259.936V55.504H258.328ZM260.741 57.664C260.741 57 260.877 56.412 261.149 55.9C261.429 55.388 261.805 54.992 262.277 54.712C262.757 54.424 263.285 54.28 263.861 54.28C264.381 54.28 264.833 54.384 265.217 54.592C265.609 54.792 265.921 55.044 266.153 55.348V54.388H267.533V61H266.153V60.016C265.921 60.328 265.605 60.588 265.205 60.796C264.805 61.004 264.349 61.108 263.837 61.108C263.269 61.108 262.749 60.964 262.277 60.676C261.805 60.38 261.429 59.972 261.149 59.452C260.877 58.924 260.741 58.328 260.741 57.664ZM266.153 57.688C266.153 57.232 266.057 56.836 265.865 56.5C265.681 56.164 265.437 55.908 265.133 55.732C264.829 55.556 264.501 55.468 264.149 55.468C263.797 55.468 263.469 55.556 263.165 55.732C262.861 55.9 262.613 56.152 262.421 56.488C262.237 56.816 262.145 57.208 262.145 57.664C262.145 58.12 262.237 58.52 262.421 58.864C262.613 59.208 262.861 59.472 263.165 59.656C263.477 59.832 263.805 59.92 264.149 59.92C264.501 59.92 264.829 59.832 265.133 59.656C265.437 59.48 265.681 59.224 265.865 58.888C266.057 58.544 266.153 58.144 266.153 57.688ZM270.698 52.12V61H269.33V52.12H270.698Z" fill="#B5B5C3"/>
<path d="M226.042 82.592C224.538 81.792 223.786 80.536 223.786 78.824C223.786 77.96 224.01 77.176 224.458 76.472C224.906 75.752 225.586 75.184 226.498 74.768C227.41 74.336 228.53 74.12 229.858 74.12C231.186 74.12 232.298 74.336 233.194 74.768C234.106 75.184 234.786 75.752 235.234 76.472C235.682 77.176 235.906 77.96 235.906 78.824C235.906 79.688 235.698 80.44 235.282 81.08C234.882 81.72 234.338 82.224 233.65 82.592C234.514 83.008 235.178 83.584 235.642 84.32C236.106 85.04 236.338 85.888 236.338 86.864C236.338 88 236.05 88.984 235.474 89.816C234.898 90.632 234.114 91.256 233.122 91.688C232.146 92.12 231.058 92.336 229.858 92.336C228.658 92.336 227.562 92.12 226.57 91.688C225.594 91.256 224.818 90.632 224.242 89.816C223.666 88.984 223.378 88 223.378 86.864C223.378 85.872 223.61 85.016 224.074 84.296C224.538 83.56 225.194 82.992 226.042 82.592ZM231.922 79.448C231.922 78.792 231.73 78.288 231.346 77.936C230.978 77.568 230.482 77.384 229.858 77.384C229.234 77.384 228.73 77.568 228.346 77.936C227.978 78.304 227.794 78.816 227.794 79.472C227.794 80.096 227.986 80.592 228.37 80.96C228.754 81.312 229.25 81.488 229.858 81.488C230.466 81.488 230.962 81.304 231.346 80.936C231.73 80.568 231.922 80.072 231.922 79.448ZM229.858 84.368C229.106 84.368 228.498 84.576 228.034 84.992C227.57 85.392 227.338 85.952 227.338 86.672C227.338 87.344 227.562 87.896 228.01 88.328C228.474 88.76 229.09 88.976 229.858 88.976C230.626 88.976 231.226 88.76 231.658 88.328C232.106 87.896 232.33 87.344 232.33 86.672C232.33 85.968 232.098 85.408 231.634 84.992C231.186 84.576 230.594 84.368 229.858 84.368ZM243.549 88.208L240.885 95.096H238.269L239.661 88.208H243.549ZM245.759 79.424C245.823 77.712 246.383 76.392 247.439 75.464C248.495 74.536 249.927 74.072 251.735 74.072C252.935 74.072 253.959 74.28 254.807 74.696C255.671 75.112 256.319 75.68 256.751 76.4C257.199 77.12 257.423 77.928 257.423 78.824C257.423 79.88 257.159 80.744 256.631 81.416C256.103 82.072 255.487 82.52 254.783 82.76V82.856C255.695 83.16 256.415 83.664 256.943 84.368C257.471 85.072 257.735 85.976 257.735 87.08C257.735 88.072 257.503 88.952 257.039 89.72C256.591 90.472 255.927 91.064 255.047 91.496C254.183 91.928 253.151 92.144 251.951 92.144C250.031 92.144 248.495 91.672 247.343 90.728C246.207 89.784 245.607 88.36 245.543 86.456H249.527C249.543 87.16 249.743 87.72 250.127 88.136C250.511 88.536 251.071 88.736 251.807 88.736C252.431 88.736 252.911 88.56 253.247 88.208C253.599 87.84 253.775 87.36 253.775 86.768C253.775 86 253.527 85.448 253.031 85.112C252.551 84.76 251.775 84.584 250.703 84.584H249.935V81.248H250.703C251.519 81.248 252.175 81.112 252.671 80.84C253.183 80.552 253.439 80.048 253.439 79.328C253.439 78.752 253.279 78.304 252.959 77.984C252.639 77.664 252.199 77.504 251.639 77.504C251.031 77.504 250.575 77.688 250.271 78.056C249.983 78.424 249.815 78.88 249.767 79.424H245.759ZM260.242 88.88V85.568L267.826 74.72H272.41V85.328H274.378V88.88H272.41V92H268.306V88.88H260.242ZM268.594 79.232L264.562 85.328H268.594V79.232ZM288.725 78.056H281.237V81.368C281.557 81.016 282.005 80.728 282.581 80.504C283.157 80.28 283.781 80.168 284.453 80.168C285.653 80.168 286.645 80.44 287.429 80.984C288.229 81.528 288.813 82.232 289.181 83.096C289.549 83.96 289.733 84.896 289.733 85.904C289.733 87.776 289.205 89.264 288.149 90.368C287.093 91.456 285.605 92 283.685 92C282.405 92 281.293 91.784 280.349 91.352C279.405 90.904 278.677 90.288 278.165 89.504C277.653 88.72 277.373 87.816 277.325 86.792H281.333C281.429 87.288 281.661 87.704 282.029 88.04C282.397 88.36 282.901 88.52 283.541 88.52C284.293 88.52 284.853 88.28 285.221 87.8C285.589 87.32 285.773 86.68 285.773 85.88C285.773 85.096 285.581 84.496 285.197 84.08C284.813 83.664 284.253 83.456 283.517 83.456C282.973 83.456 282.525 83.592 282.173 83.864C281.821 84.12 281.589 84.464 281.477 84.896H277.517V74.456H288.725V78.056Z" fill="#3F4254"/>
</svg>
