<svg width="510" height="240" viewBox="0 0 510 240" fill="none" xmlns="http://www.w3.org/2000/svg">
<circle cx="256.443" cy="68.2936" r="58.2513" transform="rotate(180 256.443 68.2936)" stroke="#E6EAEC" stroke-width="18"/>
<path d="M288.569 120.468C279.152 126.173 268.411 129.253 257.458 129.432C254.871 129.474 252.899 127.238 253.052 124.655V124.655C253.206 122.073 255.426 120.125 258.012 120.048C267.065 119.778 275.923 117.175 283.714 112.455C292.844 106.923 300.076 98.7452 304.45 89.007C308.824 79.2687 310.133 68.4305 308.204 57.931C306.274 47.4314 301.197 37.767 293.646 30.2205C286.095 22.6741 276.427 17.6025 265.927 15.6789C255.426 13.7553 244.588 15.0707 234.853 19.4505C225.117 23.8303 216.944 31.0674 211.417 40.2011C206.702 47.9946 204.104 56.8545 203.84 65.9069C203.764 68.493 201.818 70.715 199.235 70.8696V70.8696C196.652 71.0242 194.415 69.0541 194.456 66.4671C194.628 55.5139 197.702 44.7711 203.401 35.3509C209.911 24.5911 219.54 16.0656 231.009 10.9061C242.478 5.74652 255.245 4.19692 267.615 6.46297C279.985 8.72901 291.374 14.7035 300.269 23.5935C309.164 32.4834 315.145 43.8684 317.419 56.2373C319.692 68.6061 318.15 81.3739 312.997 92.8458C307.844 104.318 299.325 113.951 288.569 120.468Z" stroke="#0BA5EC" stroke-width="10" stroke-linejoin="bevel"/>
<rect y="159.5" width="11" height="11" rx="5.5" fill="#0BA5EC"/>
<path d="M20.228 160.27C21.264 160.27 22.1693 160.471 22.944 160.872C23.728 161.264 24.33 161.833 24.75 162.58C25.1793 163.317 25.394 164.181 25.394 165.17C25.394 166.159 25.1793 167.018 24.75 167.746C24.33 168.474 23.728 169.034 22.944 169.426C22.1693 169.809 21.264 170 20.228 170H17.05V160.27H20.228ZM20.228 168.698C21.3667 168.698 22.2393 168.39 22.846 167.774C23.4527 167.158 23.756 166.29 23.756 165.17C23.756 164.041 23.4527 163.159 22.846 162.524C22.2393 161.889 21.3667 161.572 20.228 161.572H18.646V168.698H20.228ZM33.7658 165.954C33.7658 166.243 33.7471 166.505 33.7098 166.738H27.8158C27.8624 167.354 28.0911 167.849 28.5018 168.222C28.9124 168.595 29.4164 168.782 30.0138 168.782C30.8724 168.782 31.4791 168.423 31.8338 167.704H33.5558C33.3224 168.413 32.8978 168.997 32.2818 169.454C31.6751 169.902 30.9191 170.126 30.0138 170.126C29.2764 170.126 28.6138 169.963 28.0258 169.636C27.4471 169.3 26.9898 168.833 26.6538 168.236C26.3271 167.629 26.1638 166.929 26.1638 166.136C26.1638 165.343 26.3224 164.647 26.6398 164.05C26.9664 163.443 27.4191 162.977 27.9978 162.65C28.5858 162.323 29.2578 162.16 30.0138 162.16C30.7418 162.16 31.3904 162.319 31.9598 162.636C32.5291 162.953 32.9724 163.401 33.2898 163.98C33.6071 164.549 33.7658 165.207 33.7658 165.954ZM32.0998 165.45C32.0904 164.862 31.8804 164.391 31.4698 164.036C31.0591 163.681 30.5504 163.504 29.9438 163.504C29.3931 163.504 28.9218 163.681 28.5298 164.036C28.1378 164.381 27.9044 164.853 27.8298 165.45H32.0998ZM36.6524 159.64V170H35.0564V159.64H36.6524ZM37.9358 166.108C37.9358 165.333 38.0945 164.647 38.4118 164.05C38.7385 163.453 39.1771 162.991 39.7278 162.664C40.2878 162.328 40.9038 162.16 41.5758 162.16C42.1825 162.16 42.7098 162.281 43.1578 162.524C43.6151 162.757 43.9791 163.051 44.2498 163.406V162.286H45.8598V170H44.2498V168.852C43.9791 169.216 43.6105 169.519 43.1438 169.762C42.6771 170.005 42.1451 170.126 41.5478 170.126C40.8851 170.126 40.2785 169.958 39.7278 169.622C39.1771 169.277 38.7385 168.801 38.4118 168.194C38.0945 167.578 37.9358 166.883 37.9358 166.108ZM44.2498 166.136C44.2498 165.604 44.1378 165.142 43.9138 164.75C43.6991 164.358 43.4145 164.059 43.0598 163.854C42.7051 163.649 42.3225 163.546 41.9118 163.546C41.5011 163.546 41.1185 163.649 40.7638 163.854C40.4091 164.05 40.1198 164.344 39.8958 164.736C39.6811 165.119 39.5738 165.576 39.5738 166.108C39.5738 166.64 39.6811 167.107 39.8958 167.508C40.1198 167.909 40.4091 168.217 40.7638 168.432C41.1278 168.637 41.5105 168.74 41.9118 168.74C42.3225 168.74 42.7051 168.637 43.0598 168.432C43.4145 168.227 43.6991 167.928 43.9138 167.536C44.1378 167.135 44.2498 166.668 44.2498 166.136ZM54.6201 162.286L49.8881 173.626H48.2361L49.8041 169.874L46.7661 162.286H48.5441L50.7141 168.166L52.9681 162.286H54.6201Z" fill="#B5B5C3"/>
<path d="M491.204 161.524L488.012 169H486.308L489.524 161.716H485.42V160.276H491.204V161.524ZM492.21 164.512C492.21 163.128 492.458 162.044 492.954 161.26C493.458 160.476 494.29 160.084 495.45 160.084C496.61 160.084 497.438 160.476 497.934 161.26C498.438 162.044 498.69 163.128 498.69 164.512C498.69 165.904 498.438 166.996 497.934 167.788C497.438 168.58 496.61 168.976 495.45 168.976C494.29 168.976 493.458 168.58 492.954 167.788C492.458 166.996 492.21 165.904 492.21 164.512ZM497.034 164.512C497.034 163.92 496.994 163.424 496.914 163.024C496.842 162.616 496.69 162.284 496.458 162.028C496.234 161.772 495.898 161.644 495.45 161.644C495.002 161.644 494.662 161.772 494.43 162.028C494.206 162.284 494.054 162.616 493.974 163.024C493.902 163.424 493.866 163.92 493.866 164.512C493.866 165.12 493.902 165.632 493.974 166.048C494.046 166.456 494.198 166.788 494.43 167.044C494.662 167.292 495.002 167.416 495.45 167.416C495.898 167.416 496.238 167.292 496.47 167.044C496.702 166.788 496.854 166.456 496.926 166.048C496.998 165.632 497.034 165.12 497.034 164.512ZM499.776 162.4C499.776 161.792 499.952 161.316 500.304 160.972C500.664 160.628 501.124 160.456 501.684 160.456C502.244 160.456 502.7 160.628 503.052 160.972C503.412 161.316 503.592 161.792 503.592 162.4C503.592 163.016 503.412 163.496 503.052 163.84C502.7 164.184 502.244 164.356 501.684 164.356C501.124 164.356 500.664 164.184 500.304 163.84C499.952 163.496 499.776 163.016 499.776 162.4ZM507.48 160.6L502.764 169H501.132L505.836 160.6H507.48ZM501.672 161.464C501.232 161.464 501.012 161.776 501.012 162.4C501.012 163.032 501.232 163.348 501.672 163.348C501.888 163.348 502.056 163.272 502.176 163.12C502.296 162.96 502.356 162.72 502.356 162.4C502.356 161.776 502.128 161.464 501.672 161.464ZM505.044 167.188C505.044 166.572 505.22 166.096 505.572 165.76C505.932 165.416 506.392 165.244 506.952 165.244C507.512 165.244 507.964 165.416 508.308 165.76C508.66 166.096 508.836 166.572 508.836 167.188C508.836 167.804 508.66 168.284 508.308 168.628C507.964 168.972 507.512 169.144 506.952 169.144C506.384 169.144 505.924 168.972 505.572 168.628C505.22 168.284 505.044 167.804 505.044 167.188ZM506.94 166.252C506.484 166.252 506.256 166.564 506.256 167.188C506.256 167.82 506.484 168.136 506.94 168.136C507.388 168.136 507.612 167.82 507.612 167.188C507.612 166.564 507.388 166.252 506.94 166.252Z" fill="#B5B5C3"/>
<rect y="182" width="510" height="6" rx="3" fill="#E6EAEC"/>
<rect y="182" width="360.565" height="6" rx="3" fill="#0BA5EC"/>
<rect y="211.5" width="11" height="11" rx="5.5" fill="#0BA5EC"/>
<path d="M23.854 215.168C23.854 215.663 23.7373 216.129 23.504 216.568C23.2707 217.007 22.8973 217.366 22.384 217.646C21.8707 217.917 21.2127 218.052 20.41 218.052H18.646V222H17.05V212.27H20.41C21.1567 212.27 21.7867 212.401 22.3 212.662C22.8227 212.914 23.21 213.259 23.462 213.698C23.7233 214.137 23.854 214.627 23.854 215.168ZM20.41 216.75C21.0167 216.75 21.4693 216.615 21.768 216.344C22.0667 216.064 22.216 215.672 22.216 215.168C22.216 214.104 21.614 213.572 20.41 213.572H18.646V216.75H20.41ZM32.1662 217.954C32.1662 218.243 32.1475 218.505 32.1102 218.738H26.2162C26.2628 219.354 26.4915 219.849 26.9022 220.222C27.3128 220.595 27.8168 220.782 28.4142 220.782C29.2728 220.782 29.8795 220.423 30.2342 219.704H31.9562C31.7228 220.413 31.2982 220.997 30.6822 221.454C30.0755 221.902 29.3195 222.126 28.4142 222.126C27.6768 222.126 27.0142 221.963 26.4262 221.636C25.8475 221.3 25.3902 220.833 25.0542 220.236C24.7275 219.629 24.5642 218.929 24.5642 218.136C24.5642 217.343 24.7228 216.647 25.0402 216.05C25.3668 215.443 25.8195 214.977 26.3982 214.65C26.9862 214.323 27.6582 214.16 28.4142 214.16C29.1422 214.16 29.7908 214.319 30.3602 214.636C30.9295 214.953 31.3728 215.401 31.6902 215.98C32.0075 216.549 32.1662 217.207 32.1662 217.954ZM30.5002 217.45C30.4908 216.862 30.2808 216.391 29.8702 216.036C29.4595 215.681 28.9508 215.504 28.3442 215.504C27.7935 215.504 27.3222 215.681 26.9302 216.036C26.5382 216.381 26.3048 216.853 26.2302 217.45H30.5002ZM37.3488 214.16C37.9555 214.16 38.4968 214.286 38.9728 214.538C39.4581 214.79 39.8361 215.163 40.1068 215.658C40.3775 216.153 40.5128 216.75 40.5128 217.45V222H38.9308V217.688C38.9308 216.997 38.7581 216.47 38.4128 216.106C38.0675 215.733 37.5961 215.546 36.9988 215.546C36.4015 215.546 35.9255 215.733 35.5708 216.106C35.2255 216.47 35.0528 216.997 35.0528 217.688V222H33.4568V214.286H35.0528V215.168C35.3141 214.851 35.6455 214.603 36.0468 214.426C36.4575 214.249 36.8915 214.16 37.3488 214.16ZM41.7366 218.108C41.7366 217.333 41.8953 216.647 42.2126 216.05C42.5393 215.453 42.9779 214.991 43.5286 214.664C44.0886 214.328 44.7046 214.16 45.3766 214.16C45.9833 214.16 46.5106 214.281 46.9586 214.524C47.4159 214.757 47.7799 215.051 48.0506 215.406V214.286H49.6606V222H48.0506V220.852C47.7799 221.216 47.4113 221.519 46.9446 221.762C46.4779 222.005 45.9459 222.126 45.3486 222.126C44.6859 222.126 44.0793 221.958 43.5286 221.622C42.9779 221.277 42.5393 220.801 42.2126 220.194C41.8953 219.578 41.7366 218.883 41.7366 218.108ZM48.0506 218.136C48.0506 217.604 47.9386 217.142 47.7146 216.75C47.4999 216.358 47.2153 216.059 46.8606 215.854C46.5059 215.649 46.1233 215.546 45.7126 215.546C45.3019 215.546 44.9193 215.649 44.5646 215.854C44.2099 216.05 43.9206 216.344 43.6966 216.736C43.4819 217.119 43.3746 217.576 43.3746 218.108C43.3746 218.64 43.4819 219.107 43.6966 219.508C43.9206 219.909 44.2099 220.217 44.5646 220.432C44.9286 220.637 45.3113 220.74 45.7126 220.74C46.1233 220.74 46.5059 220.637 46.8606 220.432C47.2153 220.227 47.4999 219.928 47.7146 219.536C47.9386 219.135 48.0506 218.668 48.0506 218.136ZM53.0729 211.64V222H51.4769V211.64H53.0729ZM56.7503 215.588V219.858C56.7503 220.147 56.8156 220.357 56.9463 220.488C57.0863 220.609 57.3196 220.67 57.6463 220.67H58.6263V222H57.3663C56.6476 222 56.0969 221.832 55.7143 221.496C55.3316 221.16 55.1403 220.614 55.1403 219.858V215.588H54.2303V214.286H55.1403V212.368H56.7503V214.286H58.6263V215.588H56.7503ZM66.7613 214.286L62.0293 225.626H60.3773L61.9453 221.874L58.9073 214.286H60.6853L62.8553 220.166L65.1093 214.286H66.7613Z" fill="#B5B5C3"/>
<path d="M485.66 214.556C485.7 213.756 485.98 213.14 486.5 212.708C487.028 212.268 487.72 212.048 488.576 212.048C489.16 212.048 489.66 212.152 490.076 212.36C490.492 212.56 490.804 212.836 491.012 213.188C491.228 213.532 491.336 213.924 491.336 214.364C491.336 214.868 491.204 215.296 490.94 215.648C490.684 215.992 490.376 216.224 490.016 216.344V216.392C490.48 216.536 490.84 216.792 491.096 217.16C491.36 217.528 491.492 218 491.492 218.576C491.492 219.056 491.38 219.484 491.156 219.86C490.94 220.236 490.616 220.532 490.184 220.748C489.76 220.956 489.248 221.06 488.648 221.06C487.744 221.06 487.008 220.832 486.44 220.376C485.872 219.92 485.572 219.248 485.54 218.36H487.172C487.188 218.752 487.32 219.068 487.568 219.308C487.824 219.54 488.172 219.656 488.612 219.656C489.02 219.656 489.332 219.544 489.548 219.32C489.772 219.088 489.884 218.792 489.884 218.432C489.884 217.952 489.732 217.608 489.428 217.4C489.124 217.192 488.652 217.088 488.012 217.088H487.664V215.708H488.012C489.148 215.708 489.716 215.328 489.716 214.568C489.716 214.224 489.612 213.956 489.404 213.764C489.204 213.572 488.912 213.476 488.528 213.476C488.152 213.476 487.86 213.58 487.652 213.788C487.452 213.988 487.336 214.244 487.304 214.556H485.66ZM492.82 216.512C492.82 215.128 493.068 214.044 493.564 213.26C494.068 212.476 494.9 212.084 496.06 212.084C497.22 212.084 498.048 212.476 498.544 213.26C499.048 214.044 499.3 215.128 499.3 216.512C499.3 217.904 499.048 218.996 498.544 219.788C498.048 220.58 497.22 220.976 496.06 220.976C494.9 220.976 494.068 220.58 493.564 219.788C493.068 218.996 492.82 217.904 492.82 216.512ZM497.644 216.512C497.644 215.92 497.604 215.424 497.524 215.024C497.452 214.616 497.3 214.284 497.068 214.028C496.844 213.772 496.508 213.644 496.06 213.644C495.612 213.644 495.272 213.772 495.04 214.028C494.816 214.284 494.664 214.616 494.584 215.024C494.512 215.424 494.476 215.92 494.476 216.512C494.476 217.12 494.512 217.632 494.584 218.048C494.656 218.456 494.808 218.788 495.04 219.044C495.272 219.292 495.612 219.416 496.06 219.416C496.508 219.416 496.848 219.292 497.08 219.044C497.312 218.788 497.464 218.456 497.536 218.048C497.608 217.632 497.644 217.12 497.644 216.512ZM500.385 214.4C500.385 213.792 500.561 213.316 500.913 212.972C501.273 212.628 501.733 212.456 502.293 212.456C502.853 212.456 503.309 212.628 503.661 212.972C504.021 213.316 504.201 213.792 504.201 214.4C504.201 215.016 504.021 215.496 503.661 215.84C503.309 216.184 502.853 216.356 502.293 216.356C501.733 216.356 501.273 216.184 500.913 215.84C500.561 215.496 500.385 215.016 500.385 214.4ZM508.089 212.6L503.373 221H501.741L506.445 212.6H508.089ZM502.281 213.464C501.841 213.464 501.621 213.776 501.621 214.4C501.621 215.032 501.841 215.348 502.281 215.348C502.497 215.348 502.665 215.272 502.785 215.12C502.905 214.96 502.965 214.72 502.965 214.4C502.965 213.776 502.737 213.464 502.281 213.464ZM505.653 219.188C505.653 218.572 505.829 218.096 506.181 217.76C506.541 217.416 507.001 217.244 507.561 217.244C508.121 217.244 508.573 217.416 508.917 217.76C509.269 218.096 509.445 218.572 509.445 219.188C509.445 219.804 509.269 220.284 508.917 220.628C508.573 220.972 508.121 221.144 507.561 221.144C506.993 221.144 506.533 220.972 506.181 220.628C505.829 220.284 505.653 219.804 505.653 219.188ZM507.549 218.252C507.093 218.252 506.865 218.564 506.865 219.188C506.865 219.82 507.093 220.136 507.549 220.136C507.997 220.136 508.221 219.82 508.221 219.188C508.221 218.564 507.997 218.252 507.549 218.252Z" fill="#B5B5C3"/>
<rect y="234" width="510" height="6" rx="3" fill="#E6EAEC"/>
<rect y="234" width="161.774" height="6" rx="3" fill="#0BA5EC"/>
<path d="M247.694 47.66V48.776H245.474V56H244.106V48.776H241.874V47.66H247.694ZM251.948 56.108C251.324 56.108 250.76 55.968 250.256 55.688C249.752 55.4 249.356 55 249.068 54.488C248.78 53.968 248.636 53.368 248.636 52.688C248.636 52.016 248.784 51.42 249.08 50.9C249.376 50.38 249.78 49.98 250.292 49.7C250.804 49.42 251.376 49.28 252.008 49.28C252.64 49.28 253.212 49.42 253.724 49.7C254.236 49.98 254.64 50.38 254.936 50.9C255.232 51.42 255.38 52.016 255.38 52.688C255.38 53.36 255.228 53.956 254.924 54.476C254.62 54.996 254.204 55.4 253.676 55.688C253.156 55.968 252.58 56.108 251.948 56.108ZM251.948 54.92C252.3 54.92 252.628 54.836 252.932 54.668C253.244 54.5 253.496 54.248 253.688 53.912C253.88 53.576 253.976 53.168 253.976 52.688C253.976 52.208 253.884 51.804 253.7 51.476C253.516 51.14 253.272 50.888 252.968 50.72C252.664 50.552 252.336 50.468 251.984 50.468C251.632 50.468 251.304 50.552 251 50.72C250.704 50.888 250.468 51.14 250.292 51.476C250.116 51.804 250.028 52.208 250.028 52.688C250.028 53.4 250.208 53.952 250.568 54.344C250.936 54.728 251.396 54.92 251.948 54.92ZM258.328 50.504V54.164C258.328 54.412 258.384 54.592 258.496 54.704C258.616 54.808 258.816 54.86 259.096 54.86H259.936V56H258.856C258.24 56 257.768 55.856 257.44 55.568C257.112 55.28 256.948 54.812 256.948 54.164V50.504H256.168V49.388H256.948V47.744H258.328V49.388H259.936V50.504H258.328ZM260.741 52.664C260.741 52 260.877 51.412 261.149 50.9C261.429 50.388 261.805 49.992 262.277 49.712C262.757 49.424 263.285 49.28 263.861 49.28C264.381 49.28 264.833 49.384 265.217 49.592C265.609 49.792 265.921 50.044 266.153 50.348V49.388H267.533V56H266.153V55.016C265.921 55.328 265.605 55.588 265.205 55.796C264.805 56.004 264.349 56.108 263.837 56.108C263.269 56.108 262.749 55.964 262.277 55.676C261.805 55.38 261.429 54.972 261.149 54.452C260.877 53.924 260.741 53.328 260.741 52.664ZM266.153 52.688C266.153 52.232 266.057 51.836 265.865 51.5C265.681 51.164 265.437 50.908 265.133 50.732C264.829 50.556 264.501 50.468 264.149 50.468C263.797 50.468 263.469 50.556 263.165 50.732C262.861 50.9 262.613 51.152 262.421 51.488C262.237 51.816 262.145 52.208 262.145 52.664C262.145 53.12 262.237 53.52 262.421 53.864C262.613 54.208 262.861 54.472 263.165 54.656C263.477 54.832 263.805 54.92 264.149 54.92C264.501 54.92 264.829 54.832 265.133 54.656C265.437 54.48 265.681 54.224 265.865 53.888C266.057 53.544 266.153 53.144 266.153 52.688ZM270.698 47.12V56H269.33V47.12H270.698Z" fill="#B5B5C3"/>
<path d="M226.539 73.296V69.48H233.187V87H228.915V73.296H226.539ZM235.994 78C235.994 75.248 236.522 73.08 237.578 71.496C238.65 69.912 240.37 69.12 242.738 69.12C245.106 69.12 246.818 69.912 247.874 71.496C248.946 73.08 249.482 75.248 249.482 78C249.482 80.784 248.946 82.968 247.874 84.552C246.818 86.136 245.106 86.928 242.738 86.928C240.37 86.928 238.65 86.136 237.578 84.552C236.522 82.968 235.994 80.784 235.994 78ZM245.45 78C245.45 76.384 245.274 75.144 244.922 74.28C244.57 73.4 243.842 72.96 242.738 72.96C241.634 72.96 240.906 73.4 240.554 74.28C240.202 75.144 240.026 76.384 240.026 78C240.026 79.088 240.09 79.992 240.218 80.712C240.346 81.416 240.602 81.992 240.986 82.44C241.386 82.872 241.97 83.088 242.738 83.088C243.506 83.088 244.082 82.872 244.466 82.44C244.866 81.992 245.13 81.416 245.258 80.712C245.386 79.992 245.45 79.088 245.45 78ZM251.65 78C251.65 75.248 252.178 73.08 253.234 71.496C254.306 69.912 256.026 69.12 258.394 69.12C260.762 69.12 262.474 69.912 263.53 71.496C264.602 73.08 265.138 75.248 265.138 78C265.138 80.784 264.602 82.968 263.53 84.552C262.474 86.136 260.762 86.928 258.394 86.928C256.026 86.928 254.306 86.136 253.234 84.552C252.178 82.968 251.65 80.784 251.65 78ZM261.106 78C261.106 76.384 260.93 75.144 260.578 74.28C260.226 73.4 259.498 72.96 258.394 72.96C257.29 72.96 256.562 73.4 256.21 74.28C255.858 75.144 255.682 76.384 255.682 78C255.682 79.088 255.746 79.992 255.874 80.712C256.002 81.416 256.258 81.992 256.642 82.44C257.042 82.872 257.626 83.088 258.394 83.088C259.162 83.088 259.738 82.872 260.122 82.44C260.522 81.992 260.786 81.416 260.914 80.712C261.042 79.992 261.106 79.088 261.106 78ZM266.971 73.896C266.971 72.6 267.339 71.6 268.075 70.896C268.827 70.192 269.795 69.84 270.979 69.84C272.163 69.84 273.123 70.192 273.859 70.896C274.595 71.6 274.963 72.6 274.963 73.896C274.963 75.192 274.595 76.192 273.859 76.896C273.123 77.6 272.163 77.952 270.979 77.952C269.795 77.952 268.827 77.6 268.075 76.896C267.339 76.192 266.971 75.192 266.971 73.896ZM283.267 70.104L274.027 87H270.067L279.307 70.104H283.267ZM270.955 72.24C270.187 72.24 269.803 72.792 269.803 73.896C269.803 74.984 270.187 75.528 270.955 75.528C271.323 75.528 271.611 75.392 271.819 75.12C272.027 74.848 272.131 74.44 272.131 73.896C272.131 72.792 271.739 72.24 270.955 72.24ZM278.395 83.208C278.395 81.912 278.763 80.912 279.499 80.208C280.235 79.504 281.195 79.152 282.379 79.152C283.563 79.152 284.523 79.504 285.259 80.208C285.995 80.912 286.363 81.912 286.363 83.208C286.363 84.504 285.995 85.504 285.259 86.208C284.523 86.912 283.563 87.264 282.379 87.264C281.195 87.264 280.235 86.912 279.499 86.208C278.763 85.504 278.395 84.504 278.395 83.208ZM282.355 81.552C281.987 81.552 281.699 81.688 281.491 81.96C281.299 82.232 281.203 82.648 281.203 83.208C281.203 84.296 281.587 84.84 282.355 84.84C282.723 84.84 283.011 84.704 283.219 84.432C283.427 84.16 283.531 83.752 283.531 83.208C283.531 82.664 283.427 82.256 283.219 81.984C283.011 81.696 282.723 81.552 282.355 81.552Z" fill="#3F4254"/>
</svg>
