<svg width="539" height="228" viewBox="0 0 539 228" fill="none" xmlns="http://www.w3.org/2000/svg">
<rect x="26.6113" y="23.9336" width="29.1211" height="165.218" rx="14.5605" fill="#FBFBFC"/>
<rect x="67.5391" y="23.9336" width="29.1211" height="165.218" rx="14.5605" fill="#FBFBFC"/>
<rect x="108.465" y="23.9336" width="29.1211" height="165.218" rx="14.5605" fill="#FBFBFC"/>
<rect x="151.754" y="23.9336" width="29.1211" height="165.218" rx="14.5605" fill="#FBFBFC"/>
<rect x="195.041" y="23.9336" width="29.1211" height="165.218" rx="14.5605" fill="#FBFBFC"/>
<rect x="238.33" y="23.9336" width="29.9081" height="165.218" rx="14.9541" fill="#FBFBFC"/>
<rect x="280.043" y="23.9336" width="29.1211" height="165.218" rx="14.5605" fill="#FBFBFC"/>
<rect x="321.758" y="23.9336" width="29.1211" height="165.218" rx="14.5605" fill="#FBFBFC"/>
<rect x="362.686" y="23.9336" width="29.1211" height="165.218" rx="14.5605" fill="#FBFBFC"/>
<rect x="403.611" y="23.9336" width="29.9081" height="165.218" rx="14.9541" fill="#FBFBFC"/>
<rect x="444.539" y="23.9336" width="29.9081" height="165.218" rx="14.9541" fill="#FBFBFC"/>
<rect x="486.252" y="23.9336" width="29.1211" height="165.218" rx="14.5605" fill="#FBFBFC"/>
<path d="M3.532 2.01559V0.853585H6.164V10.9756H4.876V2.01559H3.532ZM8.35238 5.80959C8.35238 4.20425 8.61371 2.95359 9.13638 2.05759C9.65904 1.15225 10.5737 0.699586 11.8804 0.699586C13.1777 0.699586 14.0877 1.15225 14.6104 2.05759C15.133 2.95359 15.3944 4.20425 15.3944 5.80959C15.3944 7.44292 15.133 8.71225 14.6104 9.61759C14.0877 10.5229 13.1777 10.9756 11.8804 10.9756C10.5737 10.9756 9.65904 10.5229 9.13638 9.61759C8.61371 8.71225 8.35238 7.44292 8.35238 5.80959ZM14.1344 5.80959C14.1344 4.99759 14.0784 4.31159 13.9664 3.75159C13.8637 3.18225 13.6444 2.72492 13.3084 2.37959C12.9817 2.03425 12.5057 1.86159 11.8804 1.86159C11.2457 1.86159 10.7604 2.03425 10.4244 2.37959C10.0977 2.72492 9.87838 3.18225 9.76638 3.75159C9.66371 4.31159 9.61238 4.99759 9.61238 5.80959C9.61238 6.64959 9.66371 7.35425 9.76638 7.92359C9.87838 8.49292 10.0977 8.95025 10.4244 9.29559C10.7604 9.64092 11.2457 9.81359 11.8804 9.81359C12.5057 9.81359 12.9817 9.64092 13.3084 9.29559C13.6444 8.95025 13.8637 8.49292 13.9664 7.92359C14.0784 7.35425 14.1344 6.64959 14.1344 5.80959Z" fill="#515760"/>
<path d="M5.716 43.7116C5.19333 43.5063 4.792 43.2076 4.512 42.8156C4.232 42.4236 4.092 41.9476 4.092 41.3876C4.092 40.8836 4.218 40.4309 4.47 40.0296C4.722 39.6189 5.09533 39.2969 5.59 39.0636C6.094 38.8209 6.70067 38.6996 7.41 38.6996C8.11933 38.6996 8.72133 38.8209 9.216 39.0636C9.72 39.2969 10.098 39.6189 10.35 40.0296C10.6113 40.4309 10.742 40.8836 10.742 41.3876C10.742 41.9289 10.5973 42.4049 10.308 42.8156C10.0187 43.2169 9.622 43.5156 9.118 43.7116C9.69667 43.8889 10.154 44.2016 10.49 44.6496C10.8353 45.0883 11.008 45.6203 11.008 46.2456C11.008 46.8523 10.8587 47.3843 10.56 47.8416C10.2613 48.2896 9.83667 48.6396 9.286 48.8916C8.74467 49.1343 8.11933 49.2556 7.41 49.2556C6.70067 49.2556 6.07533 49.1343 5.534 48.8916C5.002 48.6396 4.58667 48.2896 4.288 47.8416C3.98933 47.3843 3.84 46.8523 3.84 46.2456C3.84 45.6203 4.008 45.0836 4.344 44.6356C4.68 44.1876 5.13733 43.8796 5.716 43.7116ZM9.51 41.5416C9.51 40.9723 9.32333 40.5336 8.95 40.2256C8.57667 39.9176 8.06333 39.7636 7.41 39.7636C6.766 39.7636 6.25733 39.9176 5.884 40.2256C5.51067 40.5336 5.324 40.9769 5.324 41.5556C5.324 42.0783 5.51533 42.4983 5.898 42.8156C6.29 43.1329 6.794 43.2916 7.41 43.2916C8.03533 43.2916 8.53933 43.1329 8.922 42.8156C9.314 42.4889 9.51 42.0643 9.51 41.5416ZM7.41 44.2716C6.71933 44.2716 6.15467 44.4349 5.716 44.7616C5.27733 45.0789 5.058 45.5596 5.058 46.2036C5.058 46.8009 5.268 47.2816 5.688 47.6456C6.11733 48.0096 6.69133 48.1916 7.41 48.1916C8.12867 48.1916 8.698 48.0096 9.118 47.6456C9.538 47.2816 9.748 46.8009 9.748 46.2036C9.748 45.5783 9.53333 45.1023 9.104 44.7756C8.67467 44.4396 8.11 44.2716 7.41 44.2716Z" fill="#515760"/>
<path d="M9.51 79.2616C9.30467 78.2256 8.66533 77.7076 7.592 77.7076C6.76133 77.7076 6.14067 78.0296 5.73 78.6736C5.31933 79.3083 5.11867 80.3583 5.128 81.8236C5.34267 81.3383 5.69733 80.9603 6.192 80.6896C6.696 80.4096 7.256 80.2696 7.872 80.2696C8.83333 80.2696 9.59867 80.5683 10.168 81.1656C10.7467 81.7629 11.036 82.5889 11.036 83.6436C11.036 84.2783 10.91 84.8476 10.658 85.3516C10.4153 85.8556 10.042 86.2569 9.538 86.5556C9.04333 86.8543 8.44133 87.0036 7.732 87.0036C6.77067 87.0036 6.01933 86.7889 5.478 86.3596C4.93667 85.9303 4.55867 85.3376 4.344 84.5816C4.12933 83.8256 4.022 82.8923 4.022 81.7816C4.022 78.3563 5.21667 76.6436 7.606 76.6436C8.52067 76.6436 9.23933 76.8909 9.762 77.3856C10.2847 77.8803 10.5927 78.5056 10.686 79.2616H9.51ZM7.606 81.3476C7.20467 81.3476 6.82667 81.4316 6.472 81.5996C6.11733 81.7583 5.828 82.0056 5.604 82.3416C5.38933 82.6683 5.282 83.0696 5.282 83.5456C5.282 84.2549 5.48733 84.8336 5.898 85.2816C6.30867 85.7203 6.89667 85.9396 7.662 85.9396C8.31533 85.9396 8.83333 85.7389 9.216 85.3376C9.608 84.9269 9.804 84.3763 9.804 83.6856C9.804 82.9576 9.61733 82.3883 9.244 81.9776C8.87067 81.5576 8.32467 81.3476 7.606 81.3476Z" fill="#515760"/>
<path d="M3.56 122.722V121.756L8.474 114.952H10V121.616H11.4V122.722H10V124.976H8.74V122.722H3.56ZM8.796 116.282L5.03 121.616H8.796V116.282Z" fill="#515760"/>
<path d="M3.714 161.954C4.89933 161.002 5.828 160.222 6.5 159.616C7.172 159 7.73667 158.36 8.194 157.698C8.66067 157.026 8.894 156.368 8.894 155.724C8.894 155.117 8.74467 154.641 8.446 154.296C8.15667 153.941 7.68533 153.764 7.032 153.764C6.39733 153.764 5.90267 153.964 5.548 154.366C5.20267 154.758 5.016 155.285 4.988 155.948H3.756C3.79333 154.902 4.11067 154.095 4.708 153.526C5.30533 152.956 6.07533 152.672 7.018 152.672C7.97933 152.672 8.74 152.938 9.3 153.47C9.86933 154.002 10.154 154.734 10.154 155.668C10.154 156.442 9.92067 157.198 9.454 157.936C8.99667 158.664 8.474 159.308 7.886 159.868C7.298 160.418 6.54667 161.062 5.632 161.8H10.448V162.864H3.714V161.954Z" fill="#515760"/>
<path d="M3.868 195.81C3.868 194.204 4.12933 192.954 4.652 192.058C5.17467 191.152 6.08933 190.7 7.396 190.7C8.69333 190.7 9.60333 191.152 10.126 192.058C10.6487 192.954 10.91 194.204 10.91 195.81C10.91 197.443 10.6487 198.712 10.126 199.618C9.60333 200.523 8.69333 200.976 7.396 200.976C6.08933 200.976 5.17467 200.523 4.652 199.618C4.12933 198.712 3.868 197.443 3.868 195.81ZM9.65 195.81C9.65 194.998 9.594 194.312 9.482 193.752C9.37933 193.182 9.16 192.725 8.824 192.38C8.49733 192.034 8.02133 191.862 7.396 191.862C6.76133 191.862 6.276 192.034 5.94 192.38C5.61333 192.725 5.394 193.182 5.282 193.752C5.17933 194.312 5.128 194.998 5.128 195.81C5.128 196.65 5.17933 197.354 5.282 197.924C5.394 198.493 5.61333 198.95 5.94 199.296C6.276 199.641 6.76133 199.814 7.396 199.814C8.02133 199.814 8.49733 199.641 8.824 199.296C9.16 198.95 9.37933 198.493 9.482 197.924C9.594 197.354 9.65 196.65 9.65 195.81Z" fill="#515760"/>
<path d="M37.326 213.897V221.107C37.326 221.91 37.0787 222.554 36.584 223.039C36.0893 223.515 35.436 223.753 34.624 223.753C33.8027 223.753 33.1447 223.511 32.65 223.025C32.1553 222.531 31.908 221.859 31.908 221.009H33.182C33.1913 221.485 33.3127 221.873 33.546 222.171C33.7887 222.47 34.148 222.619 34.624 222.619C35.1 222.619 35.4547 222.479 35.688 222.199C35.9213 221.91 36.038 221.546 36.038 221.107V213.897H37.326ZM45.6038 221.485H41.3478L40.5638 223.655H39.2198L42.7478 213.953H44.2178L47.7318 223.655H46.3878L45.6038 221.485ZM45.2398 220.449L43.4758 215.521L41.7118 220.449H45.2398ZM56.9414 223.655H55.6674L50.5434 215.885V223.655H49.2694V213.883H50.5434L55.6674 221.639V213.883H56.9414V223.655Z" fill="#515760"/>
<path d="M94.928 213.897V214.933H90.686V218.223H94.13V219.259H90.686V223.655H89.412V213.897H94.928ZM97.7407 214.933V218.195H101.297V219.245H97.7407V222.605H101.717V223.655H96.4667V213.883H101.717V214.933H97.7407ZM108.53 218.629C108.885 218.685 109.207 218.83 109.496 219.063C109.795 219.297 110.028 219.586 110.196 219.931C110.374 220.277 110.462 220.645 110.462 221.037C110.462 221.532 110.336 221.98 110.084 222.381C109.832 222.773 109.464 223.086 108.978 223.319C108.502 223.543 107.938 223.655 107.284 223.655H103.644V213.897H107.144C107.807 213.897 108.372 214.009 108.838 214.233C109.305 214.448 109.655 214.742 109.888 215.115C110.122 215.489 110.238 215.909 110.238 216.375C110.238 216.954 110.08 217.435 109.762 217.817C109.454 218.191 109.044 218.461 108.53 218.629ZM104.918 218.111H107.06C107.658 218.111 108.12 217.971 108.446 217.691C108.773 217.411 108.936 217.024 108.936 216.529C108.936 216.035 108.773 215.647 108.446 215.367C108.12 215.087 107.648 214.947 107.032 214.947H104.918V218.111ZM107.172 222.605C107.807 222.605 108.302 222.456 108.656 222.157C109.011 221.859 109.188 221.443 109.188 220.911C109.188 220.37 109.002 219.945 108.628 219.637C108.255 219.32 107.756 219.161 107.13 219.161H104.918V222.605H107.172Z" fill="#515760"/>
<path d="M152.31 213.967V223.655H151.036V216.431L147.816 223.655H146.92L143.686 216.417V223.655H142.412V213.967H143.784L147.368 221.975L150.952 213.967H152.31ZM160.239 221.485H155.983L155.199 223.655H153.855L157.383 213.953H158.853L162.367 223.655H161.023L160.239 221.485ZM159.875 220.449L158.111 215.521L156.347 220.449H159.875ZM169.042 223.655L166.718 219.665H165.178V223.655H163.904V213.897H167.054C167.792 213.897 168.412 214.023 168.916 214.275C169.43 214.527 169.812 214.868 170.064 215.297C170.316 215.727 170.442 216.217 170.442 216.767C170.442 217.439 170.246 218.032 169.854 218.545C169.472 219.059 168.893 219.399 168.118 219.567L170.568 223.655H169.042ZM165.178 218.643H167.054C167.745 218.643 168.263 218.475 168.608 218.139C168.954 217.794 169.126 217.337 169.126 216.767C169.126 216.189 168.954 215.741 168.608 215.423C168.272 215.106 167.754 214.947 167.054 214.947H165.178V218.643Z" fill="#515760"/>
<path d="M209.18 221.485H204.924L204.14 223.655H202.796L206.324 213.953H207.794L211.308 223.655H209.964L209.18 221.485ZM208.816 220.449L207.052 215.521L205.288 220.449H208.816ZM219.37 216.753C219.37 217.565 219.09 218.242 218.53 218.783C217.979 219.315 217.134 219.581 215.996 219.581H214.12V223.655H212.846V213.897H215.996C217.097 213.897 217.932 214.163 218.502 214.695C219.08 215.227 219.37 215.913 219.37 216.753ZM215.996 218.531C216.705 218.531 217.228 218.377 217.564 218.069C217.9 217.761 218.068 217.323 218.068 216.753C218.068 215.549 217.377 214.947 215.996 214.947H214.12V218.531H215.996ZM226.091 223.655L223.767 219.665H222.227V223.655H220.953V213.897H224.103C224.84 213.897 225.461 214.023 225.965 214.275C226.478 214.527 226.861 214.868 227.113 215.297C227.365 215.727 227.491 216.217 227.491 216.767C227.491 217.439 227.295 218.032 226.903 218.545C226.52 219.059 225.942 219.399 225.167 219.567L227.617 223.655H226.091ZM222.227 218.643H224.103C224.794 218.643 225.312 218.475 225.657 218.139C226.002 217.794 226.175 217.337 226.175 216.767C226.175 216.189 226.002 215.741 225.657 215.423C225.321 215.106 224.803 214.947 224.103 214.947H222.227V218.643Z" fill="#515760"/>
<path d="M270.31 213.967V223.655H269.036V216.431L265.816 223.655H264.92L261.686 216.417V223.655H260.412V213.967H261.784L265.368 221.975L268.952 213.967H270.31ZM278.239 221.485H273.983L273.199 223.655H271.855L275.383 213.953H276.853L280.367 223.655H279.023L278.239 221.485ZM277.875 220.449L276.111 215.521L274.347 220.449H277.875ZM288.736 213.897L285.558 219.973V223.655H284.284V219.973L281.092 213.897H282.506L284.914 218.839L287.322 213.897H288.736Z" fill="#515760"/>
<path d="M325.326 213.897V221.107C325.326 221.91 325.079 222.554 324.584 223.039C324.089 223.515 323.436 223.753 322.624 223.753C321.803 223.753 321.145 223.511 320.65 223.025C320.155 222.531 319.908 221.859 319.908 221.009H321.182C321.191 221.485 321.313 221.873 321.546 222.171C321.789 222.47 322.148 222.619 322.624 222.619C323.1 222.619 323.455 222.479 323.688 222.199C323.921 221.91 324.038 221.546 324.038 221.107V213.897H325.326ZM329.082 213.897V220.071C329.082 220.939 329.292 221.583 329.712 222.003C330.141 222.423 330.734 222.633 331.49 222.633C332.236 222.633 332.82 222.423 333.24 222.003C333.669 221.583 333.884 220.939 333.884 220.071V213.897H335.158V220.057C335.158 220.869 334.994 221.555 334.668 222.115C334.341 222.666 333.898 223.077 333.338 223.347C332.787 223.618 332.166 223.753 331.476 223.753C330.785 223.753 330.16 223.618 329.6 223.347C329.049 223.077 328.61 222.666 328.284 222.115C327.966 221.555 327.808 220.869 327.808 220.057V213.897H329.082ZM344.955 223.655H343.681L338.557 215.885V223.655H337.283V213.883H338.557L343.681 221.639V213.883H344.955V223.655Z" fill="#515760"/>
<path d="M382.326 213.897V221.107C382.326 221.91 382.079 222.554 381.584 223.039C381.089 223.515 380.436 223.753 379.624 223.753C378.803 223.753 378.145 223.511 377.65 223.025C377.155 222.531 376.908 221.859 376.908 221.009H378.182C378.191 221.485 378.313 221.873 378.546 222.171C378.789 222.47 379.148 222.619 379.624 222.619C380.1 222.619 380.455 222.479 380.688 222.199C380.921 221.91 381.038 221.546 381.038 221.107V213.897H382.326ZM386.082 213.897V220.071C386.082 220.939 386.292 221.583 386.712 222.003C387.141 222.423 387.734 222.633 388.49 222.633C389.236 222.633 389.82 222.423 390.24 222.003C390.669 221.583 390.884 220.939 390.884 220.071V213.897H392.158V220.057C392.158 220.869 391.994 221.555 391.668 222.115C391.341 222.666 390.898 223.077 390.338 223.347C389.787 223.618 389.166 223.753 388.476 223.753C387.785 223.753 387.16 223.618 386.6 223.347C386.049 223.077 385.61 222.666 385.284 222.115C384.966 221.555 384.808 220.869 384.808 220.057V213.897H386.082ZM395.557 222.619H398.973V223.655H394.283V213.897H395.557V222.619Z" fill="#515760"/>
<path d="M436.18 221.485H431.924L431.14 223.655H429.796L433.324 213.953H434.794L438.308 223.655H436.964L436.18 221.485ZM435.816 220.449L434.052 215.521L432.288 220.449H435.816ZM446.65 215.983V223.655H445.376V222.521C445.133 222.913 444.792 223.221 444.354 223.445C443.924 223.66 443.448 223.767 442.926 223.767C442.328 223.767 441.792 223.646 441.316 223.403C440.84 223.151 440.462 222.778 440.182 222.283C439.911 221.789 439.776 221.187 439.776 220.477V215.983H441.036V220.309C441.036 221.065 441.227 221.649 441.61 222.059C441.992 222.461 442.515 222.661 443.178 222.661C443.859 222.661 444.396 222.451 444.788 222.031C445.18 221.611 445.376 221 445.376 220.197V215.983H446.65ZM451.965 215.857C452.627 215.857 453.206 216.002 453.701 216.291C454.205 216.581 454.578 216.945 454.821 217.383V215.983H456.109V223.823C456.109 224.523 455.959 225.144 455.661 225.685C455.362 226.236 454.933 226.665 454.373 226.973C453.822 227.281 453.178 227.435 452.441 227.435C451.433 227.435 450.593 227.197 449.921 226.721C449.249 226.245 448.852 225.597 448.731 224.775H449.991C450.131 225.242 450.42 225.615 450.859 225.895C451.297 226.185 451.825 226.329 452.441 226.329C453.141 226.329 453.71 226.11 454.149 225.671C454.597 225.233 454.821 224.617 454.821 223.823V222.213C454.569 222.661 454.195 223.035 453.701 223.333C453.206 223.632 452.627 223.781 451.965 223.781C451.283 223.781 450.663 223.613 450.103 223.277C449.552 222.941 449.118 222.47 448.801 221.863C448.483 221.257 448.325 220.566 448.325 219.791C448.325 219.007 448.483 218.321 448.801 217.733C449.118 217.136 449.552 216.674 450.103 216.347C450.663 216.021 451.283 215.857 451.965 215.857ZM454.821 219.805C454.821 219.227 454.704 218.723 454.471 218.293C454.237 217.864 453.92 217.537 453.519 217.313C453.127 217.08 452.693 216.963 452.217 216.963C451.741 216.963 451.307 217.075 450.915 217.299C450.523 217.523 450.21 217.85 449.977 218.279C449.743 218.709 449.627 219.213 449.627 219.791C449.627 220.379 449.743 220.893 449.977 221.331C450.21 221.761 450.523 222.092 450.915 222.325C451.307 222.549 451.741 222.661 452.217 222.661C452.693 222.661 453.127 222.549 453.519 222.325C453.92 222.092 454.237 221.761 454.471 221.331C454.704 220.893 454.821 220.384 454.821 219.805Z" fill="#515760"/>
<path d="M491.506 223.753C490.862 223.753 490.283 223.641 489.77 223.417C489.266 223.184 488.869 222.867 488.58 222.465C488.291 222.055 488.141 221.583 488.132 221.051H489.49C489.537 221.509 489.723 221.896 490.05 222.213C490.386 222.521 490.871 222.675 491.506 222.675C492.113 222.675 492.589 222.526 492.934 222.227C493.289 221.919 493.466 221.527 493.466 221.051C493.466 220.678 493.363 220.375 493.158 220.141C492.953 219.908 492.696 219.731 492.388 219.609C492.08 219.488 491.665 219.357 491.142 219.217C490.498 219.049 489.98 218.881 489.588 218.713C489.205 218.545 488.874 218.284 488.594 217.929C488.323 217.565 488.188 217.08 488.188 216.473C488.188 215.941 488.323 215.47 488.594 215.059C488.865 214.649 489.243 214.331 489.728 214.107C490.223 213.883 490.787 213.771 491.422 213.771C492.337 213.771 493.083 214 493.662 214.457C494.25 214.915 494.581 215.521 494.656 216.277H493.256C493.209 215.904 493.013 215.577 492.668 215.297C492.323 215.008 491.865 214.863 491.296 214.863C490.764 214.863 490.33 215.003 489.994 215.283C489.658 215.554 489.49 215.937 489.49 216.431C489.49 216.786 489.588 217.075 489.784 217.299C489.989 217.523 490.237 217.696 490.526 217.817C490.825 217.929 491.24 218.06 491.772 218.209C492.416 218.387 492.934 218.564 493.326 218.741C493.718 218.909 494.054 219.175 494.334 219.539C494.614 219.894 494.754 220.379 494.754 220.995C494.754 221.471 494.628 221.919 494.376 222.339C494.124 222.759 493.751 223.1 493.256 223.361C492.761 223.623 492.178 223.753 491.506 223.753ZM503.629 219.525C503.629 219.768 503.615 220.025 503.587 220.295H497.455C497.501 221.051 497.758 221.644 498.225 222.073C498.701 222.493 499.275 222.703 499.947 222.703C500.497 222.703 500.955 222.577 501.319 222.325C501.692 222.064 501.953 221.719 502.103 221.289H503.475C503.269 222.027 502.859 222.629 502.243 223.095C501.627 223.553 500.861 223.781 499.947 223.781C499.219 223.781 498.565 223.618 497.987 223.291C497.417 222.965 496.969 222.503 496.643 221.905C496.316 221.299 496.153 220.599 496.153 219.805C496.153 219.012 496.311 218.317 496.629 217.719C496.946 217.122 497.389 216.665 497.959 216.347C498.537 216.021 499.2 215.857 499.947 215.857C500.675 215.857 501.319 216.016 501.879 216.333C502.439 216.651 502.868 217.089 503.167 217.649C503.475 218.2 503.629 218.825 503.629 219.525ZM502.313 219.259C502.313 218.774 502.205 218.359 501.991 218.013C501.776 217.659 501.482 217.393 501.109 217.215C500.745 217.029 500.339 216.935 499.891 216.935C499.247 216.935 498.696 217.141 498.239 217.551C497.791 217.962 497.534 218.531 497.469 219.259H502.313ZM506.584 217.397C506.836 216.959 507.21 216.595 507.704 216.305C508.208 216.007 508.792 215.857 509.454 215.857C510.136 215.857 510.752 216.021 511.302 216.347C511.862 216.674 512.301 217.136 512.618 217.733C512.936 218.321 513.094 219.007 513.094 219.791C513.094 220.566 512.936 221.257 512.618 221.863C512.301 222.47 511.862 222.941 511.302 223.277C510.752 223.613 510.136 223.781 509.454 223.781C508.801 223.781 508.222 223.637 507.718 223.347C507.224 223.049 506.846 222.68 506.584 222.241V227.295H505.31V215.983H506.584V217.397ZM511.792 219.791C511.792 219.213 511.676 218.709 511.442 218.279C511.209 217.85 510.892 217.523 510.49 217.299C510.098 217.075 509.664 216.963 509.188 216.963C508.722 216.963 508.288 217.08 507.886 217.313C507.494 217.537 507.177 217.869 506.934 218.307C506.701 218.737 506.584 219.236 506.584 219.805C506.584 220.384 506.701 220.893 506.934 221.331C507.177 221.761 507.494 222.092 507.886 222.325C508.288 222.549 508.722 222.661 509.188 222.661C509.664 222.661 510.098 222.549 510.49 222.325C510.892 222.092 511.209 221.761 511.442 221.331C511.676 220.893 511.792 220.379 511.792 219.791Z" fill="#515760"/>
<line x1="25.5371" y1="188.65" x2="518.809" y2="188.65" stroke="#C9CBCD" stroke-linecap="round" stroke-dasharray="3 6"/>
<line x1="25.5371" y1="160.596" x2="518.809" y2="160.596" stroke="#C9CBCD" stroke-linecap="round" stroke-dasharray="3 6"/>
<line x1="25.5371" y1="133.316" x2="518.809" y2="133.316" stroke="#C9CBCD" stroke-linecap="round" stroke-dasharray="3 6"/>
<line x1="25.5371" y1="106.043" x2="518.809" y2="106.043" stroke="#C9CBCD" stroke-linecap="round" stroke-dasharray="3 6"/>
<line x1="25.5371" y1="78.7656" x2="518.809" y2="78.7656" stroke="#C9CBCD" stroke-linecap="round" stroke-dasharray="3 6"/>
<line x1="25.5371" y1="50.7109" x2="518.809" y2="50.7109" stroke="#C9CBCD" stroke-linecap="round" stroke-dasharray="3 6"/>
<line x1="25.5371" y1="24.9922" x2="518.809" y2="24.9922" stroke="#C9CBCD" stroke-linecap="round" stroke-dasharray="3 6"/>
<g filter="url(#filter0_d_159_6323)">
<path d="M26.6113 118.143C35.234 107.61 60.4805 87.1036 92.4848 89.3462C132.49 92.1494 143.92 127.572 174.902 128.846C205.883 130.121 235.963 81.4462 281.683 82.2107C327.403 82.9752 347.556 153.311 390.87 154.84C434.184 156.369 456.142 72.2719 519.309 73.0364" stroke="url(#paint0_linear_159_6323)" stroke-width="6" stroke-linecap="round"/>
</g>
<g filter="url(#filter1_d_159_6323)">
<path d="M20.3145 143.211C34.9509 142.686 50.3791 138.444 62.2501 130.945C79.7265 119.905 86.6394 100.617 94.4734 84.1457C99.8773 72.7837 106.432 61.6448 113.717 51.0972C117.961 44.9505 124.211 38.317 132.616 35.2359C139.195 32.8238 150.383 32.4527 155.99 35.2359V35.2359C172.426 43.3959 178.281 64.0945 184.364 81.4077C186.179 86.5756 188.083 91.5899 190.417 97.1152C195.753 109.745 208.223 119.187 222.187 124.773C229.997 127.897 241.329 129.422 249.781 127.82C261.297 125.637 269.222 117.247 281.641 116.335C293.235 115.483 298.437 124.8 307.419 129.265C317.029 134.042 328.872 131.579 336.965 125.554C345.043 119.541 350.244 108.901 361.427 106.53C374.467 103.764 384.307 111.029 391.654 119.46C401.126 130.331 408.509 141.773 422.425 149.149C435.167 155.904 449.132 145.112 461.183 142C470.286 139.65 487.759 137.812 495.903 143.524C502.503 148.153 508.899 153.201 515.373 157.978" stroke="url(#paint1_linear_159_6323)" stroke-width="6" stroke-linecap="round"/>
</g>
<rect x="260.043" y="2.88867" width="29.1211" height="186.259" rx="14.5605" fill="url(#paint2_linear_159_6323)"/>
<ellipse cx="275.849" cy="83.552" rx="6.29645" ry="5.84496" fill="#17181B" stroke="white" stroke-width="3"/>
<rect x="223" y="38" width="105" height="38" rx="19" fill="#678FAB"/>
<path d="M252.612 60.124C253.628 59.308 254.424 58.64 255 58.12C255.576 57.592 256.06 57.044 256.452 56.476C256.852 55.9 257.052 55.336 257.052 54.784C257.052 54.264 256.924 53.856 256.668 53.56C256.42 53.256 256.016 53.104 255.456 53.104C254.912 53.104 254.488 53.276 254.184 53.62C253.888 53.956 253.728 54.408 253.704 54.976H252.648C252.68 54.08 252.952 53.388 253.464 52.9C253.976 52.412 254.636 52.168 255.444 52.168C256.268 52.168 256.92 52.396 257.4 52.852C257.888 53.308 258.132 53.936 258.132 54.736C258.132 55.4 257.932 56.048 257.532 56.68C257.14 57.304 256.692 57.856 256.188 58.336C255.684 58.808 255.04 59.36 254.256 59.992H258.384V60.904H252.612V60.124ZM259.514 60.124C260.53 59.308 261.326 58.64 261.902 58.12C262.478 57.592 262.962 57.044 263.354 56.476C263.754 55.9 263.954 55.336 263.954 54.784C263.954 54.264 263.826 53.856 263.57 53.56C263.322 53.256 262.918 53.104 262.358 53.104C261.814 53.104 261.39 53.276 261.086 53.62C260.79 53.956 260.63 54.408 260.606 54.976H259.55C259.582 54.08 259.854 53.388 260.366 52.9C260.878 52.412 261.538 52.168 262.346 52.168C263.17 52.168 263.822 52.396 264.302 52.852C264.79 53.308 265.034 53.936 265.034 54.736C265.034 55.4 264.834 56.048 264.434 56.68C264.042 57.304 263.594 57.856 263.09 58.336C262.586 58.808 261.942 59.36 261.158 59.992H265.286V60.904H259.514V60.124ZM272.532 52.636C273.444 52.636 274.232 52.808 274.896 53.152C275.568 53.488 276.08 53.972 276.432 54.604C276.792 55.236 276.972 55.98 276.972 56.836C276.972 57.692 276.792 58.436 276.432 59.068C276.08 59.692 275.568 60.172 274.896 60.508C274.232 60.836 273.444 61 272.532 61H269.928V52.636H272.532ZM272.532 60.1C273.612 60.1 274.436 59.816 275.004 59.248C275.572 58.672 275.856 57.868 275.856 56.836C275.856 55.796 275.568 54.984 274.992 54.4C274.424 53.816 273.604 53.524 272.532 53.524H271.02V60.1H272.532ZM278.004 57.688C278.004 57.016 278.14 56.428 278.412 55.924C278.684 55.412 279.056 55.016 279.528 54.736C280.008 54.456 280.54 54.316 281.124 54.316C281.7 54.316 282.2 54.44 282.624 54.688C283.048 54.936 283.364 55.248 283.572 55.624V54.424H284.676V61H283.572V59.776C283.356 60.16 283.032 60.48 282.6 60.736C282.176 60.984 281.68 61.108 281.112 61.108C280.528 61.108 280 60.964 279.528 60.676C279.056 60.388 278.684 59.984 278.412 59.464C278.14 58.944 278.004 58.352 278.004 57.688ZM283.572 57.7C283.572 57.204 283.472 56.772 283.272 56.404C283.072 56.036 282.8 55.756 282.456 55.564C282.12 55.364 281.748 55.264 281.34 55.264C280.932 55.264 280.56 55.36 280.224 55.552C279.888 55.744 279.62 56.024 279.42 56.392C279.22 56.76 279.12 57.192 279.12 57.688C279.12 58.192 279.22 58.632 279.42 59.008C279.62 59.376 279.888 59.66 280.224 59.86C280.56 60.052 280.932 60.148 281.34 60.148C281.748 60.148 282.12 60.052 282.456 59.86C282.8 59.66 283.072 59.376 283.272 59.008C283.472 58.632 283.572 58.196 283.572 57.7ZM292.186 54.424L288.226 64.096H287.098L288.394 60.928L285.742 54.424H286.954L289.018 59.752L291.058 54.424H292.186ZM295.611 61.108C295.107 61.108 294.655 61.024 294.255 60.856C293.855 60.68 293.539 60.44 293.307 60.136C293.075 59.824 292.947 59.468 292.923 59.068H294.051C294.083 59.396 294.235 59.664 294.507 59.872C294.787 60.08 295.151 60.184 295.599 60.184C296.015 60.184 296.343 60.092 296.583 59.908C296.823 59.724 296.943 59.492 296.943 59.212C296.943 58.924 296.815 58.712 296.559 58.576C296.303 58.432 295.907 58.292 295.371 58.156C294.883 58.028 294.483 57.9 294.171 57.772C293.867 57.636 293.603 57.44 293.379 57.184C293.163 56.92 293.055 56.576 293.055 56.152C293.055 55.816 293.155 55.508 293.355 55.228C293.555 54.948 293.839 54.728 294.207 54.568C294.575 54.4 294.995 54.316 295.467 54.316C296.195 54.316 296.783 54.5 297.231 54.868C297.679 55.236 297.919 55.74 297.951 56.38H296.859C296.835 56.036 296.695 55.76 296.439 55.552C296.191 55.344 295.855 55.24 295.431 55.24C295.039 55.24 294.727 55.324 294.495 55.492C294.263 55.66 294.147 55.88 294.147 56.152C294.147 56.368 294.215 56.548 294.351 56.692C294.495 56.828 294.671 56.94 294.879 57.028C295.095 57.108 295.391 57.2 295.767 57.304C296.239 57.432 296.623 57.56 296.919 57.688C297.215 57.808 297.467 57.992 297.675 58.24C297.891 58.488 298.003 58.812 298.011 59.212C298.011 59.572 297.911 59.896 297.711 60.184C297.511 60.472 297.227 60.7 296.859 60.868C296.499 61.028 296.083 61.108 295.611 61.108Z" fill="white"/>
<path d="M276.414 81.9422C276.062 82.7343 274.938 82.7343 274.586 81.9422L271.794 75.6559C271.501 74.9946 271.985 74.25 272.708 74.25L278.292 74.25C279.015 74.25 279.499 74.9946 279.206 75.6559L276.414 81.9422Z" fill="#678FAB"/>
<defs>
<filter id="filter0_d_159_6323" x="4.61124" y="61.0312" width="536.697" height="125.83" filterUnits="userSpaceOnUse" color-interpolation-filters="sRGB">
<feFlood flood-opacity="0" result="BackgroundImageFix"/>
<feColorMatrix in="SourceAlpha" type="matrix" values="0 0 0 0 0 0 0 0 0 0 0 0 0 0 0 0 0 0 127 0" result="hardAlpha"/>
<feOffset dy="10"/>
<feGaussianBlur stdDeviation="9.5"/>
<feComposite in2="hardAlpha" operator="out"/>
<feColorMatrix type="matrix" values="0 0 0 0 0.329412 0 0 0 0 0.65098 0 0 0 0 0.996078 0 0 0 0.16 0"/>
<feBlend mode="normal" in2="BackgroundImageFix" result="effect1_dropShadow_159_6323"/>
<feBlend mode="normal" in="SourceGraphic" in2="effect1_dropShadow_159_6323" result="shape"/>
</filter>
<filter id="filter1_d_159_6323" x="0.314423" y="22.2852" width="535.059" height="164.693" filterUnits="userSpaceOnUse" color-interpolation-filters="sRGB">
<feFlood flood-opacity="0" result="BackgroundImageFix"/>
<feColorMatrix in="SourceAlpha" type="matrix" values="0 0 0 0 0 0 0 0 0 0 0 0 0 0 0 0 0 0 127 0" result="hardAlpha"/>
<feOffset dy="9"/>
<feGaussianBlur stdDeviation="8.5"/>
<feComposite in2="hardAlpha" operator="out"/>
<feColorMatrix type="matrix" values="0 0 0 0 0.0286458 0 0 0 0 0.60611 0 0 0 0 0.888021 0 0 0 0.21 0"/>
<feBlend mode="normal" in2="BackgroundImageFix" result="effect1_dropShadow_159_6323"/>
<feBlend mode="normal" in="SourceGraphic" in2="effect1_dropShadow_159_6323" result="shape"/>
</filter>
<linearGradient id="paint0_linear_159_6323" x1="519.309" y1="73.0364" x2="19.0426" y2="124.012" gradientUnits="userSpaceOnUse">
<stop stop-color="white"/>
<stop offset="0.155817" stop-color="#678FAB"/>
<stop offset="0.295616" stop-color="#678FAB"/>
<stop offset="0.705334" stop-color="#678FAB"/>
<stop offset="0.856748" stop-color="#678FAB"/>
<stop offset="1" stop-color="white"/>
</linearGradient>
<linearGradient id="paint1_linear_159_6323" x1="515.179" y1="157.986" x2="29.171" y2="143.552" gradientUnits="userSpaceOnUse">
<stop stop-color="#EDF9FF"/>
<stop offset="0.181694" stop-color="#0A384D"/>
<stop offset="0.374441" stop-color="#002E43"/>
<stop offset="0.533766" stop-color="#002E43"/>
<stop offset="0.757079" stop-color="#0A384D"/>
<stop offset="1" stop-color="#E4F7FF"/>
</linearGradient>
<linearGradient id="paint2_linear_159_6323" x1="274.604" y1="2.88867" x2="274.604" y2="189.148" gradientUnits="userSpaceOnUse">
<stop stop-color="#FCFCFD" stop-opacity="0"/>
<stop offset="1" stop-color="#34B3F1" stop-opacity="0.15"/>
</linearGradient>
</defs>
</svg>
