<svg width="50" height="48" viewBox="0 0 50 48" fill="none" xmlns="http://www.w3.org/2000/svg">
<ellipse cx="24.9036" cy="24" rx="24.1411" ry="24" fill="white"/>
<path d="M24.922 29.329C25.6707 29.329 26.3837 29.1746 27.031 28.8969L29.1728 30.7363L30.2134 31.6295C28.7097 32.666 26.8861 33.2744 24.922 33.2744C19.7881 33.2744 15.6114 29.1221 15.6114 24.0182C15.6114 18.9142 19.7881 14.7619 24.922 14.7619C27.4617 14.7619 29.7668 15.7783 31.4483 17.4232L30.3683 18.2174L28.1894 19.8198C27.2856 19.123 26.1517 18.7079 24.922 18.7079C21.9766 18.7079 19.5803 21.0898 19.5803 24.0182C19.5803 26.9466 21.9766 29.329 24.922 29.329ZM36.6882 13.5698L34.5461 15.1451L33.5938 15.8455C31.4137 13.5603 28.3325 12.133 24.922 12.133C18.3301 12.133 12.9672 17.4651 12.9672 24.0182C12.9672 30.5713 18.3301 35.9033 24.922 35.9033C27.6875 35.9033 30.2365 34.9642 32.2641 33.3912L33.1704 34.1694L35.2038 35.9157L35.2298 35.9381C32.3632 38.3955 28.7463 39.7361 24.922 39.7361C20.6988 39.7361 16.7283 38.1013 13.7421 35.1328C10.7559 32.1637 9.11127 28.2165 9.11127 24.0182C9.11127 19.8198 10.7559 15.8726 13.7421 12.9036C16.7283 9.93506 20.6988 8.2996 24.922 8.2996C29.1451 8.2996 33.1157 9.93506 36.1018 12.9036C36.3135 13.114 36.5176 13.3298 36.7156 13.5497L36.6882 13.5698ZM24.922 3.80293C13.6917 3.80293 4.58789 12.8534 4.58789 24.0182C4.58789 35.1829 13.6917 44.2334 24.922 44.2334C36.1522 44.2334 45.256 35.1829 45.256 24.0182C45.256 12.8534 36.1522 3.80293 24.922 3.80293Z" fill="#142C3E"/>
<path d="M40.6984 24.0181C40.6984 28.2063 39.0584 32.1432 36.0807 35.1055L36.1065 35.1274C39.0895 32.1596 40.7324 28.2142 40.7324 24.0181C40.7324 20.5173 39.588 17.1917 37.4766 14.4615L37.4492 14.4818C39.5563 17.2058 40.6984 20.5246 40.6984 24.0181Z" fill="#678FAB"/>
<path d="M32.9076 24.0182C32.9076 22.159 32.261 20.4469 31.1799 19.092L29.0534 20.6559C29.8092 21.5725 30.2635 22.7433 30.2635 24.0182C30.2635 25.7551 29.4205 27.2993 28.1201 28.2689L30.1513 30.0137C31.8388 28.5568 32.9076 26.4092 32.9076 24.0182Z" fill="#678FAB"/>
<path d="M36.8764 24.0181C36.8764 21.2812 35.9403 18.7573 34.3703 16.746L32.2452 18.3088C33.4895 19.8824 34.2323 21.8655 34.2323 24.0181C34.2323 26.7376 33.0465 29.1866 31.1621 30.8812L33.174 32.6091C35.454 30.4441 36.8764 27.3928 36.8764 24.0181Z" fill="#678FAB"/>
<path d="M37.4492 14.4818L35.3169 16.0497C37.032 18.2559 38.0542 21.0204 38.0542 24.0181C38.0542 27.6852 36.525 31.0035 34.0681 33.377L36.0807 35.1055C39.0584 32.1432 40.6984 28.2063 40.6984 24.0181C40.6984 20.5246 39.5562 17.2058 37.4492 14.4818Z" fill="#678FAB"/>
<path d="M27.4039 24.0182C27.4039 22.6554 26.2926 21.5506 24.9218 21.5506C23.551 21.5506 22.4396 22.6554 22.4396 24.0182C22.4396 25.3811 23.551 26.4858 24.9218 26.4858C26.2926 26.4858 27.4039 25.3811 27.4039 24.0182Z" fill="#678FAB"/>
</svg>
