<svg width="23" height="23" viewBox="0 0 23 23" fill="none" xmlns="http://www.w3.org/2000/svg">
<g clip-path="url(#clip0_58_2749)">
<path d="M11.5 23C17.8513 23 23 17.8513 23 11.5C23 5.14873 17.8513 0 11.5 0C5.14873 0 0 5.14873 0 11.5C0 17.8513 5.14873 23 11.5 23Z" fill="#479951"/>
<path fill-rule="evenodd" clip-rule="evenodd" d="M8.74435 6.13332C8.72276 6.13281 8.69069 6.14188 8.64558 6.16182C8.54413 6.21254 8.34326 6.36907 8.33713 6.54898C8.33099 6.65044 8.30544 6.65005 8.39437 6.71471C8.45864 6.78397 8.52279 6.77719 8.65248 6.72634C8.72697 6.68545 8.75215 6.65913 8.77719 6.59038C8.80811 6.475 8.61491 6.64494 8.59013 6.51665C8.54694 6.39744 8.67037 6.34837 8.78754 6.23299C8.79023 6.17868 8.79176 6.13434 8.74435 6.13332ZM10.6327 6.14099C10.5964 6.14482 10.5522 6.17932 10.4906 6.26276C10.4465 6.35016 10.2563 6.48228 10.3935 6.75483C10.5059 6.92759 10.5519 7.20844 10.5009 7.52137C10.4232 7.6103 10.4055 7.64084 10.3035 7.72978C10.1603 7.8449 10.005 7.81552 9.88592 7.77258C9.77475 7.71649 9.68723 7.68774 9.6365 7.50974C9.6457 7.22595 9.6678 6.76148 9.59842 6.66283C9.49607 6.51027 9.32753 6.56495 9.25534 6.61108C8.90906 6.84773 8.73784 7.24742 8.63331 7.56533C8.53735 7.79712 8.435 7.73016 8.36306 7.6365C8.18814 7.51396 8.17587 6.55588 7.96465 6.71343C7.6263 7.43602 8.15888 8.2276 8.52764 8.15068C8.7938 8.23297 8.96273 7.85423 9.07172 7.43985C9.14621 7.32344 9.2032 7.31003 9.24141 7.36983C9.23157 7.92119 9.29431 8.04411 9.48406 8.2115C9.907 8.45543 10.257 8.24242 10.2845 8.22172L10.6136 7.97575C10.6868 7.91825 10.7838 7.91467 10.8873 7.96553C10.988 8.03376 10.975 8.15157 11.1905 8.23348C11.3718 8.28765 11.759 8.24664 11.8488 8.12998C11.9697 7.97511 11.999 7.92183 12.0549 7.86318C12.1412 7.77731 12.2888 7.81539 12.2888 7.84248C12.2751 7.89027 12.1883 7.93754 12.2473 8.02367C12.3499 8.08117 12.3738 8.04424 12.4344 8.03146C12.6491 7.95479 12.8104 7.60685 12.8104 7.60685C12.8198 7.47703 12.7209 7.48674 12.6579 7.51358C12.5755 7.55114 12.5704 7.56405 12.488 7.60162C12.3832 7.61324 12.1799 7.66499 12.0792 7.54859C11.9765 7.40854 11.9759 7.2133 11.8974 7.07198C11.8974 7.06175 11.76 6.85003 11.8869 6.83635C11.9509 6.8453 12.0888 6.87188 12.1105 6.78588C12.1776 6.70206 11.9655 6.46427 11.8211 6.34441C11.6958 6.24155 11.5228 6.22903 11.3551 6.33406C11.2376 6.41482 11.2551 6.5049 11.2321 6.59038C11.2022 6.68864 11.2078 6.81016 11.3412 6.93998C11.4584 7.11274 11.6712 7.33418 11.6011 7.64698C11.6011 7.64698 11.4774 7.79571 11.2598 7.77642C11.1691 7.76159 11.0214 7.73233 10.9428 7.29853C10.8834 6.97039 10.9576 6.51052 10.7713 6.29522C10.7291 6.21395 10.693 6.13485 10.6327 6.14099ZM10.035 6.17587C9.97856 6.1797 9.9162 6.22864 9.86522 6.32345C9.82152 6.39565 9.76811 6.77285 9.77693 6.77285C9.74204 6.88504 9.93384 6.93257 10.0211 6.78831C10.1521 6.52381 10.1527 6.41111 10.1614 6.29892C10.141 6.21344 10.0914 6.17229 10.0349 6.176L10.035 6.17587ZM12.2421 6.20564C12.1843 6.2096 12.1381 6.23503 12.1208 6.29892C12.0978 6.44932 12.1095 6.53109 12.1434 6.65632C12.1693 6.73975 12.3318 6.87954 12.412 6.96055C12.7943 7.34465 13.162 7.73054 13.5172 8.12972C13.5731 8.42617 13.614 8.71622 13.6403 9.005C13.6978 9.63827 13.7153 10.4267 13.6628 11.0935C13.8215 11.0983 14.0759 10.9019 14.1652 10.6144C14.2232 10.2168 14.1445 9.40545 14.1391 9.17073C14.1341 9.05886 14.1272 8.94708 14.1184 8.83544C14.5468 9.35784 14.9497 9.90055 15.3259 10.4617C15.4693 10.4107 15.4376 9.80706 15.3537 9.72234C15.0387 9.2157 14.6036 8.71571 14.4648 8.5234C14.4149 8.45389 14.2443 8.26005 14.0421 8.03657C14.005 7.71751 13.9646 7.44739 13.9383 7.36574C13.8732 7.02853 14.1235 7.40382 14.089 7.2078C14.0076 6.87111 13.759 6.64226 13.4652 6.3338C13.3705 6.2335 13.3725 6.21305 13.2263 6.35847C13.1388 6.50669 13.1399 6.62987 13.1656 6.74563C13.1167 6.69222 13.0652 6.64122 13.0114 6.59281C12.7577 6.43015 12.742 6.4212 12.5314 6.28844C12.465 6.2533 12.3387 6.199 12.2421 6.20564ZM18.7839 6.25624C18.7557 6.25292 18.7249 6.26327 18.6903 6.30148C18.6241 6.34492 18.553 6.42338 18.5551 6.52419C18.5712 6.7018 18.6135 6.88389 18.6296 7.0615C18.6354 7.08539 18.6414 7.10903 18.647 7.1328C18.6214 7.10852 18.5991 7.08935 18.5863 7.07964C18.1229 6.71586 18.7993 7.02023 18.498 6.73912C18.2432 6.53007 18.1686 6.4635 17.9505 6.33789C17.8412 6.28499 17.7752 6.18405 17.7391 6.35591C17.7248 6.50694 17.71 6.68174 17.7236 6.80914C17.7228 6.8798 17.8208 7.01307 17.9055 7.0914C18.2255 7.38563 18.5397 7.68605 18.848 7.99249C18.9148 8.63547 18.9326 9.22478 19.0004 9.86865C18.9909 10.1441 18.8774 10.5098 18.7701 10.5446C18.7701 10.5446 18.6059 10.6149 18.4962 10.5368C18.4165 10.5128 18.0978 10.1393 18.0978 10.1393C17.9346 10.0275 17.8259 10.0594 17.7098 10.1393C17.3895 10.3703 17.2446 10.8031 17.0272 11.1013C16.9711 11.1678 16.813 11.2245 16.6374 11.0962C16.1912 10.6406 16.4522 9.99195 16.3966 10.1587C15.9992 10.4935 16.1751 11.048 16.265 11.1674C16.3959 11.3633 16.502 11.4886 16.7569 11.5856C16.9891 11.7134 17.17 11.6336 17.2697 11.5442C17.5035 11.3631 17.5065 10.9002 17.6162 10.8087C17.6931 10.6404 17.886 10.6694 17.98 10.7439C18.0711 10.8419 18.1788 10.9056 18.3126 10.9588C18.5306 11.1026 18.7908 11.1288 19.0473 10.9977C19.2224 10.9242 19.3361 10.8288 19.4387 10.6404C19.5489 10.4204 19.4944 9.2672 19.4699 8.62563C19.6351 8.80002 19.798 8.97659 19.9585 9.15527C20.0293 9.71838 20.0615 10.2729 20.0381 10.8049C20.0215 10.9105 20.532 10.4891 20.5284 10.2894C20.5261 10.1147 20.5289 9.95643 20.5284 9.80898C20.7748 10.1021 21.0129 10.4022 21.2422 10.7089C21.3826 10.6533 21.3344 10.0594 21.2457 9.97739C21.0085 9.67992 20.7047 9.35856 20.4695 9.10978C20.4231 8.79608 20.3597 8.42578 20.331 8.31232C20.2861 8.13534 20.2412 7.86969 20.1733 7.65975C20.1547 7.57772 20.0986 7.3159 20.1162 7.29073C20.1438 7.23208 20.2483 7.29252 20.2998 7.22467C20.3769 7.16193 20.0328 6.49557 19.858 6.30531C19.7952 6.22008 19.6816 6.2496 19.5411 6.38824C19.4105 6.47947 19.4583 6.68749 19.5081 6.88529C19.6374 7.38976 19.7528 7.90355 19.8442 8.41582C19.6528 8.20297 19.4599 7.99149 19.2654 7.7814C19.26 7.76032 19.2395 7.68288 19.2395 7.68173C19.2395 7.67279 19.2114 7.26901 19.1875 7.17292C19.1833 7.13382 19.1709 7.12258 19.2256 7.12756C19.2837 7.1641 19.2915 7.16602 19.3278 7.17803C19.3865 7.18608 19.4377 7.1121 19.4023 7.04348C19.221 6.79342 19.0397 6.54247 18.8583 6.2924C18.8366 6.27643 18.8121 6.25944 18.7839 6.25624ZM1.90121 6.26902C1.80078 6.26698 1.68987 6.31349 1.73319 6.40383C1.70801 6.45302 1.92984 6.61926 1.96881 6.71062C2.00369 6.77579 1.93418 6.98534 2.00689 7.00451C2.07371 7.02623 2.16584 6.85948 2.20085 6.70551C2.22028 6.62118 2.20558 6.33227 1.94274 6.27298C1.92901 6.27069 1.91513 6.26928 1.90121 6.26902C1.91553 6.26928 1.90121 6.26902 1.90121 6.26902ZM21.1333 6.27081C21.1104 6.27247 21.0826 6.3002 21.0398 6.36792C20.9369 6.49378 20.9016 6.71918 20.9427 6.91813C21.1903 8.16959 21.3743 9.3813 21.4122 10.4905C21.391 10.5958 21.3848 10.6518 21.3187 10.7844C21.1725 10.9245 21.0114 11.0999 20.8596 11.1845C20.7078 11.2691 20.3849 11.3497 20.2792 11.4125C19.9442 11.5571 19.9425 11.7236 20.2134 11.7296C20.6802 11.6891 21.2327 11.6606 21.6132 11.2311C21.7151 11.1108 21.8349 10.7847 21.8402 10.585C21.8758 9.41465 21.8201 8.27028 21.5855 7.42452C21.5704 7.3421 21.5217 7.15273 21.5404 7.12807C21.5707 7.07006 21.7234 7.13369 21.7778 7.06712C21.8575 7.00617 21.3827 6.55179 21.2165 6.35757C21.1833 6.30876 21.1627 6.26864 21.1333 6.27081ZM16.2375 6.29023C16.2182 6.29279 16.1897 6.31464 16.1369 6.36664C16.0066 6.68532 15.9606 6.94548 16.0104 7.14353C16.3455 8.45006 16.6887 9.64031 16.6342 10.8841C16.7931 10.8849 16.9767 10.6126 17.0552 10.343C17.0982 9.97151 17.0265 9.74547 17.0136 9.52723C17.0008 9.30885 16.6829 7.53773 16.6187 7.37264C16.541 7.06035 16.9276 7.33162 16.8855 7.14992C16.7517 6.92094 16.4182 6.58757 16.3138 6.38862C16.2744 6.33534 16.2696 6.28602 16.2375 6.29023ZM4.3166 6.31477C4.27533 6.32013 4.23559 6.34543 4.22128 6.38734C4.2122 6.41469 4.23712 6.46018 4.2039 6.4741C4.18486 6.48842 4.11254 6.47883 4.1156 6.4028C4.1156 6.37865 4.09184 6.35348 4.0774 6.33815C4.06309 6.33112 4.05325 6.32908 4.02718 6.32908C3.99536 6.32997 3.99613 6.33623 3.97863 6.35629C3.97096 6.37661 3.96099 6.39642 3.96099 6.41967C3.95703 6.44663 3.94246 6.45583 3.91589 6.45979C3.88624 6.45979 3.89327 6.46222 3.86912 6.45072C3.85481 6.43897 3.83794 6.43437 3.83794 6.41443C3.83794 6.39373 3.83066 6.36077 3.82235 6.34709C3.8097 6.3347 3.78977 6.32818 3.7669 6.32384C3.64231 6.32422 3.63337 6.43117 3.6404 6.47142C3.63107 6.47909 3.62647 6.66858 3.79629 6.72135C4.02437 6.80262 4.45204 6.76825 4.4339 6.4934C4.4339 6.46912 4.42674 6.38747 4.42355 6.36524C4.40029 6.32473 4.35723 6.3094 4.31621 6.31477H4.3166ZM7.37611 6.31732C7.30493 6.32004 7.23468 6.3345 7.16821 6.36013C7.01705 6.46835 6.98166 6.64175 7.10049 6.74985C7.21639 6.79074 7.33203 6.87788 7.25485 6.92593C6.92723 7.18749 6.07469 7.62436 6.03176 7.70409L6.02997 7.70665V7.71048C6.03023 7.71125 6.03125 7.71265 6.03176 7.71317L6.03342 7.71444H6.03521C6.03546 7.71457 6.03649 7.71572 6.03687 7.71572H6.03866L6.04032 7.717C6.08376 7.73872 6.61711 7.73821 6.67614 7.71828C6.67665 7.71828 6.67755 7.71725 6.67793 7.717H6.67959V7.71572C6.86295 7.66525 7.73299 6.92209 7.73299 6.92209C7.68789 6.89322 7.64636 6.87188 7.60138 6.84313C7.55308 6.81182 7.55794 6.78115 7.60138 6.74985C7.81681 6.65619 7.74845 6.44995 7.63588 6.35629C7.55236 6.32772 7.46434 6.31456 7.37611 6.31745C7.37611 6.31745 7.45495 6.31438 7.37611 6.31745V6.31732ZM15.3731 6.31988C15.3501 6.32167 15.3222 6.34799 15.2795 6.41571C15.1767 6.5417 15.1068 6.76084 15.115 6.96605C15.3377 8.1186 15.4059 9.12703 15.5515 10.2795C15.5633 10.3909 15.5415 10.5529 15.4423 10.6174C15.0756 10.9036 14.547 11.2564 13.9716 11.4188C13.9096 11.4709 14.1255 11.6923 14.4047 11.692C14.8716 11.6515 15.2818 11.4556 15.6624 10.9398C15.7642 10.8194 15.943 10.562 15.9482 10.3623C15.9839 9.19194 15.8694 8.28203 15.6346 7.43614C15.6197 7.35373 15.6299 7.25623 15.6486 7.23157C15.6787 7.20461 15.7813 7.23208 15.8356 7.16551C15.9155 7.10456 15.6225 6.59971 15.4561 6.40549C15.4229 6.35668 15.4025 6.31783 15.3731 6.31988ZM2.98426 6.35527C2.91986 6.36089 2.85916 6.39999 2.83003 6.45238C2.8193 6.63715 2.81776 6.82192 2.84562 6.99224C2.95806 7.29099 2.99384 7.55383 3.0484 7.85985C3.06348 8.26964 2.73164 8.03708 2.74685 7.83392C2.82351 7.56993 2.80281 7.15452 2.73471 7.04923C2.68079 6.94394 2.6183 6.918 2.48708 6.93525C2.38281 6.93053 2.11358 7.14979 2.03832 7.51281C2.03832 7.51281 1.97571 7.69911 1.94824 7.86497C1.91144 8.05242 1.7452 8.18518 1.62943 7.83903C1.52938 7.58743 1.46792 6.96758 1.30028 7.11274C1.25236 7.59663 1.19524 8.44827 1.74558 8.53567C2.41105 8.58346 2.04343 7.69489 2.28429 7.53351C2.32991 7.45378 2.41424 7.45237 2.42114 7.55293V8.30772C2.41514 8.55318 2.63121 8.62614 2.79885 8.67674C2.9734 8.66677 3.08904 8.67035 3.15753 8.79723C3.18474 9.23232 3.21336 9.66855 3.24058 10.1036C3.24058 10.1036 3.6441 10.1903 3.6634 9.36942C3.68269 8.88757 3.53498 8.48315 3.62174 8.38937C3.62481 8.29724 3.78274 8.29264 3.89199 8.33749C4.06603 8.42923 4.1432 8.54206 4.41345 8.49683C4.8249 8.41211 5.07279 8.26299 5.07879 8.02673C5.05477 7.80248 5.02001 7.57785 4.88994 7.35347C4.90808 7.31258 4.81123 7.20653 4.82924 7.16564C4.90323 7.25227 5.01503 7.24512 5.04071 7.16564C4.97069 6.99327 4.8617 6.82805 4.68549 6.75662C4.53983 6.66079 4.32695 6.68098 4.24888 6.88095C4.21271 7.1112 4.36055 7.38414 4.58493 7.60724C4.63272 7.69438 4.69942 7.83941 4.6699 7.96987C4.55056 8.02073 4.43211 7.99952 4.33206 7.92055C4.33206 7.92055 4.00469 7.73744 4.00469 7.69655C4.09158 7.28077 4.02335 7.23323 3.9753 7.11772C3.94157 6.95851 3.84063 6.90817 3.75859 6.7993C3.67681 6.73439 3.56565 6.73439 3.51262 6.7993C3.36798 6.98688 3.43583 7.38938 3.54035 7.5698C3.61586 7.73553 3.73176 7.83903 3.6772 7.83903C3.63235 7.93269 3.53856 7.91097 3.47109 7.80274C3.37462 7.57913 3.35494 7.24601 3.35494 7.09587C3.32606 6.90957 3.29374 6.51193 3.1298 6.41098C3.11137 6.3912 3.08867 6.3759 3.06342 6.36624C3.03817 6.35659 3.01118 6.35283 2.98426 6.35527C3.03448 6.35093 2.98426 6.35527 2.98426 6.35527ZM5.32131 6.35783C5.28822 6.36089 5.2518 6.37495 5.20874 6.38236C5.06716 6.41609 4.93479 6.50758 4.97657 6.68545C5.14383 7.44496 5.25283 8.02456 5.41996 8.7842C5.44577 8.87313 5.34598 8.99043 5.2173 8.97842C4.99868 8.86789 4.94437 8.6439 4.57113 8.65348C4.30101 8.65591 3.99294 8.87556 3.95448 9.08716C3.90937 9.25544 3.8934 9.43778 3.95448 9.58447C4.14435 9.75505 4.3718 9.73691 4.57113 9.69832C4.7352 9.64785 4.87013 9.5271 4.92801 9.55598C4.92827 9.55598 4.92968 9.55572 4.9298 9.55598V9.55725C4.96558 9.60389 4.92635 9.99898 4.15713 10.3042C3.68435 10.4629 3.30805 10.5009 3.10552 10.2124C2.98004 10.0322 3.11459 9.3454 2.80575 9.5041C1.8924 11.2636 4.94552 11.5093 5.28669 9.57668C5.30866 9.52212 5.376 9.46743 5.42341 9.48084C5.44436 9.48749 5.4634 9.50857 5.4703 9.54818C5.39951 11.2981 3.1082 11.418 2.71925 10.8675C2.62265 10.7378 2.59364 10.4489 2.58406 10.2759C2.56643 10.1711 2.53116 10.1107 2.4904 10.0868C2.39763 10.0346 2.27292 10.1706 2.24621 10.4066C2.20763 10.5965 2.21849 10.6486 2.21849 10.8313C2.34064 12.2135 5.28899 11.6197 5.76815 10.4778C6.00544 9.88756 5.76343 9.44225 5.84278 9.38757C5.84341 9.38718 5.84546 9.38667 5.84623 9.38629L5.84968 9.38501L5.85313 9.38373C5.85654 9.38303 5.86 9.3826 5.86348 9.38245C6.15621 9.61808 6.56689 9.41235 6.65698 9.3307C6.69556 9.28982 6.79216 9.26349 6.85963 9.31639C7.08797 9.43906 7.48817 9.3813 7.57174 9.16498C7.62004 8.95338 7.6608 8.73564 7.67051 8.50973C7.52178 8.54423 7.40166 8.57017 7.35336 8.60812C7.34264 8.61575 7.33474 8.62671 7.33088 8.6393C7.3181 8.70191 7.3057 8.76452 7.2928 8.82713C7.29146 8.83223 7.28911 8.83701 7.2859 8.84119C7.27825 8.84971 7.26877 8.85639 7.25817 8.86074C7.20553 8.88208 7.11378 8.86981 7.10918 8.81282C7.03839 8.57234 6.74731 8.54117 6.57034 8.91377C6.45138 8.98583 6.23429 8.99989 6.21167 8.89179C6.24068 8.64173 6.10587 8.60812 5.83575 8.72606C5.74886 8.23079 5.66286 7.75814 5.57598 7.263C5.68842 7.26045 5.79179 7.32153 5.89465 7.22544C5.78336 6.96643 5.54761 6.4396 5.41485 6.39028L5.4114 6.38888C5.40286 6.38146 5.39356 6.37495 5.38367 6.36945C5.3754 6.36546 5.3667 6.36246 5.35773 6.36051C5.34581 6.3577 5.33353 6.35688 5.32131 6.35783C5.33371 6.35668 5.32131 6.35783 5.32131 6.35783ZM14.432 6.36166C14.3152 6.3591 14.1859 6.41405 14.2362 6.52355C14.2069 6.58323 14.4873 6.78563 14.5326 6.89641C14.614 7.06661 14.4705 7.22902 14.555 7.25253C14.633 7.27872 14.7413 7.0767 14.782 6.89002C14.829 6.73899 14.6849 6.42951 14.4806 6.36562C14.4645 6.36312 14.4483 6.36171 14.432 6.36166C14.4487 6.36192 14.432 6.36166 14.432 6.36166ZM7.33445 6.54822C7.38761 6.54413 7.45201 6.58067 7.48344 6.63229C7.51692 6.68737 7.50005 6.74014 7.44524 6.7501C7.39042 6.7602 7.3195 6.72365 7.2859 6.66858C7.25229 6.61338 7.26916 6.55946 7.32398 6.54949C7.32744 6.54888 7.33094 6.54845 7.33445 6.54822C7.33445 6.54822 7.33088 6.54834 7.33445 6.54822ZM20.5011 6.80326C20.3945 6.80045 20.2783 6.86076 20.3243 6.97934C20.2975 7.04387 20.5517 7.26339 20.5928 7.38324C20.6299 7.4686 20.5366 7.7437 20.6136 7.76913C20.6847 7.7975 20.7845 7.579 20.8215 7.37685C20.842 7.26607 20.7323 6.87763 20.546 6.80837C20.5312 6.80535 20.5162 6.80364 20.5011 6.80326C20.5163 6.80364 20.5011 6.80326 20.5011 6.80326ZM13.2214 6.93781C13.2311 6.97039 13.2409 7.00298 13.2474 7.0362C13.2692 7.10801 13.288 7.17931 13.3081 7.24997C13.224 7.16334 13.1543 7.09344 13.1244 7.06853C12.9341 6.8996 13.1287 6.95762 13.2214 6.93781ZM14.8984 7.55421C14.8572 7.55958 14.8175 7.58615 14.8031 7.62794C14.7941 7.65541 14.8207 7.69962 14.7875 7.71355C14.7684 7.72786 14.6945 7.71943 14.6974 7.64353C14.6974 7.61925 14.6738 7.5928 14.6593 7.57747C14.6449 7.57044 14.6352 7.56852 14.6091 7.56852C14.5773 7.56942 14.578 7.57568 14.5605 7.59561C14.5533 7.61605 14.5433 7.63599 14.5433 7.65912C14.5393 7.68608 14.5266 7.69528 14.4998 7.69924C14.4702 7.69924 14.4756 7.70167 14.4514 7.69017C14.4371 7.67841 14.4202 7.67381 14.4202 7.65388C14.4202 7.63318 14.413 7.60021 14.4047 7.58654C14.392 7.57414 14.3721 7.5689 14.3492 7.56456C14.2246 7.56482 14.2173 7.67062 14.2245 7.71087C14.2152 7.71853 14.2088 7.9093 14.3787 7.96208C14.6067 8.04334 15.036 8.00769 15.018 7.73284C15.018 7.70857 15.009 7.62692 15.0058 7.60468C14.9826 7.56418 14.9394 7.54884 14.8984 7.55421ZM7.2413 7.6112C7.21319 7.60903 7.17626 7.61669 7.13397 7.63573C6.93208 7.71725 6.85414 7.95901 6.97961 8.10059C7.09691 8.22517 7.28245 8.17955 7.30711 8.17955C7.50465 8.19808 7.62246 7.90253 7.62246 7.90253C7.62246 7.90253 7.62834 7.81948 7.39374 7.97626C7.29497 7.99006 7.28155 7.96348 7.25689 7.92195C7.23632 7.84503 7.24066 7.76709 7.28807 7.69017C7.30979 7.64404 7.28807 7.61478 7.2413 7.6112ZM18.0656 7.64877C17.9537 7.64468 17.8345 7.69885 17.8041 7.81309C17.8044 7.88055 17.8447 7.91761 17.8369 7.97882C17.8253 8.01383 17.777 8.03683 17.6618 7.99568C17.68 7.98329 17.5875 7.88567 17.5875 7.88567C17.4978 7.84478 17.3779 7.88784 17.3 7.92579C17.2569 7.98405 17.2252 8.08398 17.2739 8.18607C17.4027 8.36394 17.8446 8.66741 18.0553 8.67035C18.0591 8.50999 18.0799 8.29673 18.0916 8.16409C18.0967 8.114 18.1123 8.0588 18.1765 8.04615C18.2407 8.03363 18.352 8.09445 18.3532 8.04232C18.3415 7.94035 18.3143 7.7897 18.2371 7.71866C18.1976 7.67483 18.1328 7.65119 18.0656 7.64877ZM9.10571 8.20677C9.10264 8.20754 9.0997 8.20946 9.09702 8.2106C9.09529 8.21141 9.09359 8.21226 9.09191 8.21316C9.06955 8.22581 9.04323 8.25456 8.98445 8.28574C8.88516 8.37007 8.8674 8.42885 8.87354 8.59777C8.87916 8.61566 9.06175 8.99516 9.21649 9.26196C9.32089 9.53924 9.41736 9.85677 9.34644 10.1567C9.10226 10.5532 8.61121 10.9088 8.13728 11.1018C7.89578 11.1597 7.68725 11.14 7.63128 11.1006L7.62962 11.0993C7.49098 11.0296 7.48779 10.9056 7.49622 10.8844V10.8831L7.49801 10.8818C7.89795 10.6735 8.35476 10.5051 8.71241 9.94302C8.81808 9.72835 8.85028 9.59929 8.74538 9.2672C8.70449 9.14351 8.65389 9.04167 8.54093 8.95389L8.54259 8.95261C8.6107 8.92833 8.78729 9.02544 8.81463 8.96424C8.77285 8.80567 8.6291 8.59279 8.46644 8.48379C8.32396 8.38719 8.16897 8.37595 8.03838 8.4645C7.89156 8.52558 7.86039 8.74497 7.93105 8.93702C8.00963 9.08167 8.22174 9.10697 8.3729 9.39792V9.39919C8.37597 9.41747 8.42465 9.61642 8.34863 9.69704C8.28678 9.84105 7.49354 10.3086 7.43731 10.3367C7.43668 10.3372 7.43271 10.3389 7.4322 10.3393L7.43041 10.3405L7.42863 10.3418L7.42696 10.3431H7.42351C7.42291 10.3427 7.42231 10.3423 7.42173 10.3418V10.3405L7.41994 10.338C7.41764 10.3263 7.42185 10.2966 7.41994 10.2487C7.41483 10.161 7.46338 9.96282 7.4598 9.92883V9.92755L7.45814 9.92628V9.925H7.45635C7.19415 10.0515 7.10752 10.4394 7.0596 10.5543C6.3958 10.8971 5.64191 11.1522 5.20772 11.4995C4.98155 11.7633 6.76571 11.1964 6.9731 11.1278C6.97489 11.1288 6.97668 11.1303 6.97821 11.1316C7.01769 11.1642 7.02101 11.2773 7.13934 11.379C7.32487 11.5668 7.71906 11.6825 8.10265 11.6108C8.74589 11.437 9.11644 11.1094 9.49377 10.7458C9.54769 10.6872 9.63228 10.6411 9.71035 10.6863C9.96962 11.1201 10.7172 11.4287 11.6836 11.4606C11.9072 11.2575 11.8003 11.1574 11.7096 11.1149C11.6817 11.1011 11.229 10.9692 11.1587 10.8378C11.1144 10.7156 11.222 10.6072 11.4377 10.5258C12.0581 10.4696 12.6682 10.4074 13.2585 10.2655C13.2644 10.1173 13.3812 9.89561 13.4594 9.79939C13.5137 9.73257 13.5485 9.72605 13.5616 9.71659L13.5634 9.71532L13.565 9.71404L13.5668 9.71276V9.71008C13.5671 9.7057 13.5665 9.70131 13.565 9.69717L13.4646 9.65309L11.4844 9.6467C11.4658 9.6419 11.4478 9.63491 11.4308 9.62587L11.4272 9.62332L11.4255 9.62204L11.4237 9.62076L11.4221 9.6182C11.4218 9.61808 11.4205 9.61693 11.4203 9.61693V9.61565L11.4186 9.61437V9.60402C11.4189 9.60364 11.4199 9.60274 11.4203 9.60274C11.4208 9.60198 11.4214 9.6007 11.4221 9.60006C11.4316 9.59035 11.4552 9.58115 11.4844 9.57284C11.9572 9.52467 12.7973 9.42181 12.853 8.81793C12.8444 8.50347 12.6729 8.29749 12.1567 8.24038C11.7772 8.26235 11.5067 8.53669 11.5502 8.83863C11.5321 8.92003 11.587 9.07962 11.4757 9.09764C10.7479 9.14734 9.95352 9.48813 9.92694 9.73205H9.92515L9.92349 9.73333L9.92004 9.73461H9.91646C9.91531 9.73499 9.91263 9.73576 9.91135 9.73589H9.90611C9.90441 9.73582 9.9027 9.73582 9.901 9.73589L9.89397 9.73461C9.84669 9.72477 9.78574 9.6665 9.7952 9.58447C9.7676 9.1628 9.58385 8.68568 9.29635 8.31819C9.19362 8.24153 9.14903 8.21048 9.11964 8.20677H9.10571ZM11.001 8.42949C10.9598 8.43485 10.92 8.46015 10.9057 8.50194C10.8966 8.52941 10.9233 8.5749 10.8901 8.58883C10.871 8.60314 10.797 8.5947 10.8 8.5188C10.8 8.49453 10.7763 8.46808 10.762 8.45274C10.7475 8.44572 10.7395 8.4438 10.7134 8.4438C10.6816 8.44469 10.6806 8.45095 10.6632 8.47089C10.6558 8.49133 10.6458 8.51127 10.6458 8.53439C10.642 8.56135 10.6292 8.57055 10.6025 8.57452C10.5729 8.57452 10.5799 8.57694 10.5557 8.56544C10.5414 8.55369 10.5228 8.54909 10.5228 8.52915C10.5228 8.50845 10.5173 8.47549 10.509 8.46182C10.4963 8.44942 10.4746 8.44418 10.4518 8.43984C10.3273 8.44022 10.3199 8.54589 10.327 8.58614C10.3177 8.59381 10.3114 8.78458 10.4812 8.83735C10.7093 8.91862 11.2528 8.8707 11.1205 8.60812C11.1205 8.58384 11.1116 8.50219 11.1084 8.47996C11.0851 8.43945 11.0422 8.42412 11.001 8.42949ZM18.6498 8.66383C18.6434 8.66301 18.6369 8.66345 18.6306 8.66511C18.6306 8.66511 17.5742 9.22695 17.548 9.2465C17.4432 9.31614 17.4956 9.56083 17.548 9.53272C17.6238 9.55444 18.6875 9.0156 18.6672 8.95261C18.7136 8.95453 18.7358 8.67533 18.6498 8.66383ZM11.9995 8.74714C12.0426 8.74369 12.0992 8.75468 12.1536 8.77819C12.2324 8.81231 12.2811 8.8638 12.275 8.90124C12.2747 8.90227 12.2751 8.90405 12.275 8.90508C12.2746 8.9061 12.2718 8.90802 12.2714 8.90891L12.2697 8.91274L12.268 8.91543L12.2663 8.91798C12.2632 8.9214 12.2596 8.92445 12.2558 8.92705C12.2179 8.9535 12.1305 8.9498 12.0479 8.91415C11.9698 8.88029 11.9214 8.82854 11.9267 8.7911C11.9268 8.79008 11.9282 8.78829 11.9284 8.78727C11.9299 8.78252 11.9322 8.77809 11.9353 8.77423C11.9365 8.77283 11.9375 8.7704 11.9388 8.76912L11.9406 8.76784C11.9433 8.76551 11.9461 8.76337 11.9491 8.76145C11.9647 8.75306 11.9819 8.74817 11.9995 8.74714C11.9995 8.74714 11.9796 8.74868 11.9995 8.74714ZM2.74595 8.88949C2.19843 8.89703 1.39662 9.4259 1.37554 9.71953C1.95335 9.51215 2.52081 9.31256 3.10808 9.09802C3.01326 8.99222 3.10233 8.8969 2.74595 8.88949ZM4.52002 9.07349C4.57369 9.07387 4.63029 9.09368 4.66032 9.14977C4.68741 9.20127 4.6616 9.25519 4.62914 9.28189V9.28317L4.62735 9.28573C4.60435 9.30783 4.52385 9.29863 4.46635 9.29863C4.39671 9.29633 4.36247 9.2879 4.32069 9.2456C4.30075 9.19858 4.36158 9.15245 4.38841 9.11744C4.38854 9.11706 4.38969 9.11642 4.39007 9.11617C4.39375 9.11231 4.39782 9.10884 4.40221 9.10582C4.42291 9.0915 4.45894 9.07822 4.4974 9.07464C4.50507 9.074 4.51235 9.07349 4.52002 9.07349ZM18.444 9.23628C18.3466 9.24522 18.254 9.31397 18.2966 9.42398C18.2698 9.48864 18.4288 9.71442 18.4699 9.8344C18.507 9.91976 18.4221 10.1613 18.4993 10.1866C18.5703 10.2151 18.7571 10.0433 18.7505 9.82789C18.7711 9.71723 18.6977 9.30937 18.5116 9.24011C18.4893 9.23553 18.4666 9.23424 18.444 9.23628ZM6.61839 9.63494C6.53226 9.63954 6.45547 9.67392 6.4901 9.76451C6.48499 9.83019 6.73326 9.91018 6.74821 10.0622C6.78373 10.125 6.69518 10.3258 6.76904 10.3446C6.83676 10.3654 6.93106 10.2057 6.96658 10.0571C6.98626 9.97573 6.88135 9.69104 6.70323 9.64018C6.67521 9.63551 6.64677 9.63367 6.61839 9.63494C6.64701 9.63341 6.61839 9.63494 6.61839 9.63494ZM10.1578 9.9963C10.1642 9.99592 10.17 9.9963 10.1767 9.9963H10.1802C10.4009 10.041 10.7261 10.0457 11.0084 10.0675C11.2384 10.0783 11.3519 10.2129 11.1366 10.2694C10.9241 10.3238 10.7201 10.3663 10.719 10.5957C10.747 10.7094 10.7411 10.7691 10.7174 10.7964C10.7152 10.7987 10.7129 10.8009 10.7105 10.8028C10.7101 10.8032 10.7089 10.8041 10.7087 10.8041L10.707 10.8055L10.7052 10.8068L10.7034 10.8081L10.7 10.8093C10.6966 10.8109 10.6932 10.8122 10.6896 10.8132C10.6867 10.8141 10.6824 10.8142 10.6793 10.8145C10.6287 10.8201 10.5553 10.784 10.5008 10.7627C10.3698 10.6924 10.0022 10.5222 9.94994 10.1568C9.9424 10.0744 10.0251 10.0032 10.1578 9.9963ZM1.51264 10.2772C1.49884 10.2774 1.47137 10.3082 1.4347 10.3431C1.10899 10.7309 1.07999 11.3099 1.25964 11.4826C1.35522 11.5641 1.51264 11.6002 1.62879 11.5746C1.83336 11.5082 1.92332 11.1984 1.87476 11.0851C1.80653 11.0052 1.75235 10.9926 1.68412 11.0604C1.54024 11.2789 1.48031 11.1294 1.46766 11.0074C1.44556 10.7759 1.47559 10.5626 1.50919 10.3937C1.52708 10.3072 1.52644 10.2768 1.51264 10.2772ZM12.6092 10.7863C12.5833 10.7851 12.5574 10.789 12.533 10.798C12.5279 10.798 12.2998 10.9132 12.2263 10.9935C12.1816 11.019 12.1867 11.0411 12.2004 11.0855C12.2352 11.1455 12.2968 11.1266 12.3667 11.0983C12.4594 11.0889 12.5042 11.1343 12.4967 11.2175C12.4539 11.3212 12.5157 11.3598 12.5157 11.3663C12.5157 11.3728 12.6049 11.4302 12.7097 11.3845C12.9309 11.3214 13.0687 11.26 13.3783 11.2097C13.4597 11.2084 13.455 11.0459 13.3265 11.0401C13.1587 11.0465 13.004 11.0529 12.8362 11.1514C12.7329 11.1693 12.7153 11.1223 12.6923 11.0802C12.6661 10.9758 12.7513 10.9021 12.734 10.8239C12.7386 10.8274 12.6818 10.7893 12.6092 10.7863ZM19.7142 10.9844C19.6731 10.9854 19.6297 10.9896 19.567 10.9935C19.499 11.0042 19.4754 11.0264 19.463 11.088C19.4678 11.1813 19.5443 11.1767 19.6223 11.2136C19.6677 11.2567 19.6971 11.2957 19.6189 11.3663C19.5448 11.4171 19.492 11.4452 19.418 11.4959C19.383 11.5405 19.3612 11.609 19.4682 11.6306C19.6658 11.672 20.1231 11.45 20.1231 11.4453C20.1972 11.4039 20.1725 11.3249 20.1664 11.3249C20.1231 11.288 20.0257 11.3102 19.9602 11.3042C19.929 11.3042 19.8266 11.2929 19.8753 11.2253C19.916 11.1831 19.9309 11.1581 19.9584 11.1062C19.9893 11.0554 19.9622 11.0212 19.8511 10.9935C19.8058 10.9867 19.76 10.9837 19.7142 10.9845C19.7142 10.9845 19.7554 10.9835 19.7142 10.9845V10.9844ZM16.7459 15.4758C16.7455 15.4759 16.7446 15.4768 16.7443 15.4771C16.4156 15.5401 16.4258 15.7951 16.6369 15.9069C13.1667 15.9069 7.8416 15.863 6.69965 15.863C6.06064 15.863 4.03932 15.806 4.00035 15.806C4.4339 16.2798 5.0618 16.3764 5.88354 16.3861C7.42492 16.3861 14.5663 16.3718 16.5987 16.3718C16.4542 16.5634 16.6118 16.872 16.7252 16.9285C16.7324 16.932 16.7399 16.9345 16.7477 16.9362C16.749 16.9365 16.7515 16.9362 16.7528 16.9363C16.8874 16.9601 16.9467 16.8872 16.9919 16.8341C17.2103 16.8484 18.4387 16.8617 18.5512 16.8328C18.5516 16.8327 18.5524 16.8315 18.5528 16.8315C18.629 16.9151 18.7044 16.9942 18.8491 16.9804C19.1024 16.9397 19.3019 16.919 19.3083 16.5349C19.3083 16.5349 19.2823 15.8802 18.7071 15.9212C18.571 15.9366 18.189 15.9653 18.189 15.9653C17.7471 15.926 17.4229 15.9219 16.9261 15.9083C16.9721 15.8649 17.053 15.6885 16.9538 15.6247C16.928 15.6087 16.8894 15.5997 16.836 15.6027H16.8308C16.8304 15.6027 16.8295 15.6014 16.8291 15.6014C16.8277 15.601 16.8253 15.6008 16.824 15.6001C16.8209 15.5983 16.818 15.5962 16.8153 15.5937C16.8147 15.5931 16.8124 15.5917 16.8117 15.5912C16.7867 15.5637 16.7729 15.4966 16.7564 15.4798C16.7561 15.4795 16.7549 15.4785 16.7546 15.4785C16.7544 15.4783 16.7531 15.4772 16.7528 15.4772C16.7517 15.4767 16.7505 15.4763 16.7494 15.4759L16.7459 15.4758ZM16.9817 16.4119C16.9822 16.4118 16.9828 16.4121 16.9833 16.4119C17.4896 16.4304 17.9653 16.4155 18.4716 16.434C18.5518 16.4849 18.5117 16.6016 18.4594 16.623C18.4566 16.624 18.4537 16.6249 18.4507 16.6255C18.4488 16.6259 18.4458 16.6255 18.4438 16.6255C18.4419 16.6255 18.4387 16.6259 18.4369 16.6255C18.2724 16.6225 18.177 16.6195 18.0125 16.6166C18.0124 16.6103 18.0112 16.6042 18.009 16.5983C17.97 16.5119 17.6874 16.5178 17.6209 16.5855C17.6198 16.5868 17.6186 16.5881 17.6175 16.5894C17.6164 16.5907 17.6149 16.5932 17.614 16.5945C17.6128 16.5965 17.6116 16.5987 17.6106 16.6009C17.6094 16.6034 17.6093 16.6073 17.6088 16.6101C17.6084 16.6131 17.6068 16.6171 17.607 16.6203C17.3848 16.6404 17.1848 16.6149 16.9626 16.6088C16.8975 16.5481 16.9051 16.4383 16.9817 16.412V16.4119Z" fill="white"/>
<path d="M21.9842 16.2328C20.1799 20.2233 16.164 23 11.5 23C5.14868 23 0 17.8513 0 11.5C0 8.09714 1.47801 5.03955 3.82694 2.9339C3.17451 4.37728 2.81111 5.97961 2.81111 7.66666C2.81111 14.018 7.95979 19.1667 14.3111 19.1667C17.2595 19.1667 19.9487 18.057 21.9842 16.2328Z" fill="black" fill-opacity="0.125"/>
</g>
<defs>
<clipPath id="clip0_58_2749">
<rect width="23" height="23" fill="white"/>
</clipPath>
</defs>
</svg>
