<svg width="171" height="49" viewBox="0 0 171 49" fill="none" xmlns="http://www.w3.org/2000/svg">
<path d="M52.1611 19.6571C52.1611 13.3424 56.9329 9.22731 62.6191 9.22731C65.3908 9.22731 68.7052 10.1988 70.8482 13.6278L67.9911 15.5994C66.6764 13.7137 64.7048 12.9423 62.7334 12.9423C59.1331 12.9423 56.1615 15.5426 56.1615 19.6571C56.1615 23.8002 59.1617 26.3719 62.7619 26.3719C64.7908 26.3719 66.6764 25.6004 67.9911 23.7143L70.8482 25.6858C68.7052 29.1149 65.3908 30.0863 62.6191 30.0863C56.9043 30.0863 52.1611 25.9718 52.1611 19.6571Z" fill="#142C3E"/>
<path d="M79.7065 26.6292C81.8494 26.6292 83.7356 25.029 83.7356 22.3714C83.7356 19.7139 81.8494 18.1142 79.7065 18.1142C77.5636 18.1142 75.6493 19.7139 75.6493 22.3714C75.6493 25.029 77.5636 26.6292 79.7065 26.6292ZM71.8776 22.3714C71.8776 17.3428 75.8207 14.6566 79.7065 14.6566C83.5642 14.6566 87.536 17.3428 87.536 22.3714C87.536 27.4006 83.5642 30.0863 79.7065 30.0863C75.8207 30.0863 71.8776 27.4006 71.8776 22.3714Z" fill="#142C3E"/>
<path d="M118.367 21.0573C118.138 18.9425 116.367 17.8856 114.566 17.8856C112.795 17.8856 111.081 18.9143 110.595 21.0573H118.367ZM107.023 22.3715C107.023 17.3709 110.737 14.6566 114.537 14.6566C118.31 14.6566 122.596 17.3142 121.767 23.8576H110.652C111.194 25.8859 112.966 26.9433 115.195 26.9433C116.652 26.9433 117.938 26.5432 119.024 25.6005L120.767 27.4574C119.538 29.0008 117.395 30.0863 114.766 30.0863C110.68 30.0863 107.023 27.3147 107.023 22.3715Z" fill="#142C3E"/>
<path d="M124.052 9.51329H127.968V26.2004H135.882V29.8008H124.052V9.51329Z" fill="#142C3E"/>
<path d="M55.0342 33.5929H53.5587V32.6904H57.5339V33.5929H56.0584V39.1131H55.0342V33.5929Z" fill="#678FAB"/>
<path d="M58.1937 32.6904H59.0962V35.0509C59.374 34.4955 60.0163 34.2437 60.6325 34.2525C61.3703 34.2525 61.8389 34.4955 62.1427 34.9121C62.4379 35.3198 62.5507 35.8841 62.5507 36.5354V39.1131H61.6393V36.5784C61.6393 36.1535 61.5612 35.78 61.3703 35.5199C61.162 35.2592 60.8495 35.1033 60.3808 35.1033C59.9034 35.1033 59.5736 35.2857 59.3827 35.537C59.1831 35.7888 59.0962 36.1271 59.0962 36.4483V39.1131H58.1937V32.6904Z" fill="#678FAB"/>
<path d="M63.7144 34.3914H64.6169V39.1131H63.7144V34.3914ZM63.7144 32.6904H64.6169V33.6447H63.7144V32.6904Z" fill="#678FAB"/>
<path d="M65.7973 34.3914H66.6475V35.1204C66.8735 34.6344 67.403 34.2437 68.245 34.2525C69.7548 34.2702 70.1542 35.3634 70.1542 36.3442V39.1131H69.2429V36.5525C69.2429 35.7017 68.9128 35.0945 67.9931 35.1033C67.1076 35.1116 66.6999 35.667 66.6999 36.4831V39.1131H65.7973V34.3914Z" fill="#678FAB"/>
<path d="M71.3433 32.6904H72.2547V36.2571L74.1033 34.3914H75.1971L73.0966 36.466L75.2577 39.1131H74.2075L72.2547 36.6825V39.1131H71.3433V32.6904Z" fill="#678FAB"/>
<path d="M80.6042 35.624C80.6042 35.2592 80.3783 34.9815 79.9182 34.9903C79.4757 34.9903 79.2327 35.2857 79.2415 35.5975C79.2586 35.9711 79.5975 36.1447 80.1006 36.2836C80.8213 36.483 81.6109 36.6913 81.6368 37.7069C81.6545 38.6271 80.8907 39.2519 79.9529 39.2519C79.2068 39.2519 78.2778 38.8265 78.2348 37.7504H79.1286C79.1633 38.3229 79.6234 38.5141 79.9617 38.5141C80.3959 38.5141 80.7342 38.2105 80.7342 37.811C80.7254 37.3426 80.3695 37.1861 79.5281 36.9084C78.8685 36.7089 78.3472 36.3965 78.3389 35.6846C78.3389 34.7908 79.0679 34.2525 79.927 34.2525C80.5783 34.2525 81.4285 34.5737 81.498 35.624H80.6042Z" fill="#678FAB"/>
<path d="M82.5657 34.3914H83.4159V35.0598C83.6159 34.6603 84.1625 34.2525 84.848 34.2525C85.2822 34.2525 85.7335 34.3826 86.063 34.7562C86.1848 34.8774 86.3148 35.1292 86.3672 35.2157C86.4449 35.0768 86.5408 34.9121 86.7055 34.7473C87.0091 34.4432 87.4433 34.2525 87.9552 34.2525C88.3894 34.2525 88.8754 34.3743 89.2226 34.7297C89.6392 35.1551 89.7433 35.6064 89.7433 36.509V39.1131H88.8407V36.5437C88.8407 36.1535 88.7884 35.7629 88.5801 35.4934C88.4153 35.2504 88.1635 35.1033 87.7381 35.1033C87.3392 35.1033 87.0009 35.2681 86.8273 35.5546C86.6361 35.8494 86.6102 36.11 86.6102 36.509V39.1131H85.6988V36.509C85.7076 36.1188 85.6641 35.8323 85.5076 35.5717C85.334 35.294 85.0563 35.1116 84.6138 35.1033C84.1884 35.0945 83.876 35.3028 83.7201 35.5629C83.5465 35.8147 83.4682 36.1447 83.4682 36.5266V39.1131H82.5657V34.3914Z" fill="#678FAB"/>
<path d="M91.5312 36.7696C91.5401 37.4727 92.0349 38.41 93.1805 38.41C93.9006 38.41 94.4125 38.0105 94.6473 37.4727C94.7514 37.2556 94.8032 37.0126 94.812 36.7696C94.8209 36.5266 94.7773 36.2836 94.6732 36.0665C94.4473 35.5198 93.9183 35.0944 93.1628 35.0944C92.1737 35.0944 91.5312 35.8758 91.5312 36.7607V36.7696ZM95.7058 39.1131H94.8032V38.2882C94.4737 38.9219 93.7965 39.2519 93.0499 39.2519C91.5312 39.2519 90.6287 38.0716 90.6287 36.7519C90.6287 35.3116 91.6789 34.2525 93.0499 34.2525C93.9877 34.2525 94.5861 34.7732 94.8032 35.2245V34.3913H95.7058V39.1131Z" fill="#678FAB"/>
<path d="M96.8953 34.3915H97.7457V35.0858C98.0143 34.5303 98.509 34.2614 99.1516 34.2527V35.1552H99.0908C98.2404 35.1552 97.7976 35.6242 97.7976 36.5614V39.1132H96.8953V34.3915Z" fill="#678FAB"/>
<path d="M100.359 35.0945H99.5082V34.3914H100.359V32.6904H101.261V34.3914H102.172V35.0945H101.261V39.1131H100.359V35.0945Z" fill="#678FAB"/>
<path d="M103.31 39.7725H102.528L103.075 37.9756H104.03L103.31 39.7725Z" fill="#678FAB"/>
<path d="M107.086 33.5929H105.61V32.6904H109.585V33.5929H108.109V39.1131H107.086V33.5929Z" fill="#678FAB"/>
<path d="M110.245 32.6904H111.148V34.3131V35.0509C111.425 34.4955 112.067 34.2437 112.684 34.2525C113.421 34.2525 113.89 34.4955 114.194 34.912C114.489 35.3198 114.602 35.8841 114.602 36.5354V39.1131H113.691V36.5784C113.691 36.1535 113.613 35.7799 113.421 35.5199C113.213 35.2592 112.901 35.1033 112.433 35.1033C111.954 35.1033 111.625 35.2857 111.434 35.5369C111.235 35.7888 111.148 36.1271 111.148 36.4484V39.1131H110.245V32.6904Z" fill="#678FAB"/>
<path d="M115.765 34.3914H116.668V39.1131H115.765V34.3914ZM115.765 32.6904H116.668V33.6447H115.765V32.6904Z" fill="#678FAB"/>
<path d="M117.848 34.3914H118.698V35.1204C118.924 34.6344 119.453 34.2437 120.296 34.2525C121.805 34.2701 122.205 35.3633 122.205 36.3442V39.1131H121.294V36.5525C121.294 35.7017 120.964 35.0945 120.044 35.1033C119.158 35.1115 118.751 35.667 118.751 36.4831V39.1131H117.848V34.3914Z" fill="#678FAB"/>
<path d="M123.394 32.6904H124.305V36.2571L126.154 34.3914H127.247L125.147 36.466L127.308 39.1131H126.258L124.305 36.6826V39.1131H123.394V32.6904Z" fill="#678FAB"/>
<path d="M136.725 37.1602C136.325 38.3317 135.137 39.2342 133.678 39.2342C131.743 39.2342 130.32 37.7156 130.32 35.8929C130.32 34.1307 131.682 32.5685 133.67 32.5685C135.397 32.5773 136.421 33.7924 136.734 34.6778H135.649C135.441 34.2613 134.79 33.4799 133.661 33.4711C132.299 33.4711 131.344 34.5907 131.344 35.8929C131.344 37.2296 132.316 38.3317 133.67 38.3317C134.911 38.3317 135.51 37.3944 135.649 37.1602H136.725Z" fill="#678FAB"/>
<path d="M138.244 36.7608C138.244 37.698 138.956 38.4011 139.859 38.4011C140.761 38.4011 141.473 37.698 141.473 36.7519C141.473 35.8058 140.761 35.1032 139.859 35.1032C138.956 35.1032 138.244 35.8058 138.244 36.7519V36.7608ZM137.342 36.7436C137.342 35.4851 138.27 34.2525 139.859 34.2525C141.447 34.2525 142.375 35.4851 142.375 36.7519C142.375 38.0193 141.447 39.2431 139.859 39.2431C138.27 39.2431 137.342 38.0193 137.342 36.7519V36.7436Z" fill="#678FAB"/>
<path d="M143.929 36.7519C143.938 37.6198 144.546 38.41 145.587 38.41C146.047 38.41 146.472 38.2188 146.768 37.9152C147.071 37.6115 147.245 37.195 147.228 36.7261C147.228 36.2571 147.045 35.8494 146.75 35.5629C146.455 35.2681 146.047 35.0945 145.587 35.0945C144.589 35.0945 143.929 35.8582 143.929 36.7437V36.7519ZM148.078 39.1131H147.21V38.2882C146.95 38.7742 146.42 39.2519 145.448 39.2519C143.964 39.2519 143.026 38.1064 143.026 36.7437C143.026 35.2769 144.086 34.2525 145.431 34.2525C146.394 34.2525 146.985 34.7909 147.175 35.1639V34.3307V32.6904H148.078V39.1131Z" fill="#678FAB"/>
<path d="M153 36.3354C152.956 35.7105 152.331 35.0074 151.438 35.025C150.517 35.025 149.918 35.6934 149.875 36.3354H153ZM149.858 37.0385C149.901 37.9934 150.735 38.4794 151.446 38.4794C152.079 38.4794 152.548 38.1758 152.809 37.681H153.745C153.521 38.2017 153.191 38.5923 152.792 38.8524C152.392 39.1219 151.924 39.2519 151.446 39.2519C149.901 39.2519 148.946 38.0105 148.946 36.7608C148.946 35.4069 150.005 34.2525 151.438 34.2525C152.114 34.2525 152.73 34.5043 153.182 34.9468C153.737 35.511 153.972 36.2488 153.894 37.0385H149.858Z" fill="#678FAB"/>
<path d="M154.831 32.6904H155.855V38.2105H158.121V39.1131H154.831V32.6904Z" fill="#678FAB"/>
<path d="M159.388 36.7696C159.396 37.4727 159.891 38.41 161.037 38.41C161.757 38.41 162.269 38.0105 162.504 37.4727C162.608 37.2556 162.659 37.0126 162.669 36.7696C162.677 36.5266 162.634 36.2836 162.53 36.0665C162.304 35.5199 161.774 35.0945 161.019 35.0945C160.03 35.0945 159.388 35.8758 159.388 36.7608V36.7696ZM163.562 39.1131H162.659V38.2882C162.33 38.9219 161.653 39.2519 160.907 39.2519C159.388 39.2519 158.485 38.0716 158.485 36.7519C158.485 35.3115 159.536 34.2525 160.907 34.2525C161.844 34.2525 162.443 34.7732 162.659 35.2245V34.3914H163.562V39.1131Z" fill="#678FAB"/>
<path d="M168.883 36.7437C168.883 35.8235 168.18 35.0945 167.252 35.0945C166.279 35.0945 165.62 35.8493 165.62 36.7437C165.62 37.6463 166.262 38.41 167.225 38.41C168.302 38.41 168.874 37.568 168.883 36.7519V36.7437ZM164.752 32.6903H165.654V34.4002V35.1463C166.089 34.5302 166.783 34.2613 167.391 34.2525C168.614 34.2525 169.786 35.1639 169.786 36.7349C169.786 38.2535 168.71 39.2519 167.356 39.2519C166.549 39.2519 165.924 38.8613 165.62 38.297V39.1131H164.752V32.6903Z" fill="#678FAB"/>
<path d="M148.456 14.9425V16.9422H148.37C147.999 16.114 146.284 14.6566 143.627 14.6566C140.17 14.6566 136.483 17.2282 136.483 22.3714C136.483 27.5147 140.17 30.0863 143.627 30.0863C145.324 30.0863 146.636 29.4918 147.459 28.8465V25.3756C146.677 26.2209 145.559 26.6579 144.399 26.6579C142.255 26.6579 140.255 25.1431 140.255 22.3714C140.255 19.5998 142.255 18.0856 144.399 18.0856C146.541 18.0856 148.542 19.5711 148.542 22.3714L148.456 29.8009H152.285V14.9425H148.456Z" fill="#142C3E"/>
<path d="M163.856 14.6565C161.199 14.6565 159.485 16.114 159.113 16.9422H159.027V9.51325H155.198V29.8009H159.027V27.8007H159.029V23.3429C158.972 23.0393 158.942 22.7152 158.942 22.3714C158.942 19.5711 160.943 18.0856 163.085 18.0856C165.228 18.0856 167.228 19.5997 167.228 22.3714C167.228 25.1431 165.228 26.6579 163.085 26.6579C161.95 26.6579 160.855 26.2407 160.076 25.4323L160.036 28.8564C160.861 29.4978 162.169 30.0863 163.856 30.0863C167.314 30.0863 171 27.5146 171 22.3714C171 17.2281 167.314 14.6565 163.856 14.6565Z" fill="#142C3E"/>
<path d="M100.994 9.51316V16.9421H100.908C100.537 16.1139 98.8226 14.6564 96.1653 14.6564C92.7073 14.6564 89.022 17.2281 89.022 22.3713C89.022 27.5146 92.7073 30.0862 96.1653 30.0862C97.8594 30.0862 99.1685 29.4944 99.9929 28.8503V25.381C99.2112 26.2224 98.0949 26.6577 96.9364 26.6577C94.794 26.6577 92.7933 25.143 92.7933 22.3713C92.7933 19.5997 94.794 18.0855 96.9364 18.0855C99.0795 18.0855 101.08 19.571 101.08 22.3713C101.08 22.4727 101.077 22.5719 101.071 22.6694L100.994 29.3616V29.8008H104.823V9.51316H100.994Z" fill="#142C3E"/>
<ellipse cx="24.666" cy="24.5" rx="24.1411" ry="24" fill="white"/>
<path d="M24.6845 29.829C25.4331 29.829 26.1461 29.6745 26.7935 29.3969L28.9352 31.2363L29.9758 32.1295C28.4722 33.166 26.6485 33.7744 24.6845 33.7744C19.5506 33.7744 15.3738 29.6221 15.3738 24.5182C15.3738 19.4142 19.5506 15.2619 24.6845 15.2619C27.2242 15.2619 29.5293 16.2783 31.2108 17.9232L30.1308 18.7174L27.9519 20.3198C27.048 19.6229 25.9142 19.2079 24.6845 19.2079C21.739 19.2079 19.3427 21.5897 19.3427 24.5182C19.3427 27.4466 21.739 29.829 24.6845 29.829ZM36.4506 14.0698L34.3086 15.6451L33.3562 16.3455C31.1761 14.0603 28.095 12.633 24.6845 12.633C18.0926 12.633 12.7297 17.9651 12.7297 24.5182C12.7297 31.0712 18.0926 36.4033 24.6845 36.4033C27.45 36.4033 29.9989 35.4641 32.0266 33.8912L32.9328 34.6694L34.9663 36.4157L34.9923 36.4381C32.1257 38.8954 28.5087 40.2361 24.6845 40.2361C20.4612 40.2361 16.4908 38.6013 13.5045 35.6328C10.5184 32.6637 8.87372 28.7165 8.87372 24.5182C8.87372 20.3198 10.5184 16.3726 13.5045 13.4035C16.4908 10.4351 20.4612 8.79958 24.6845 8.79958C28.9076 8.79958 32.8781 10.4351 35.8643 13.4035C36.076 13.614 36.28 13.8298 36.478 14.0497L36.4506 14.0698ZM24.6845 4.30292C13.4542 4.30292 4.35034 13.3534 4.35034 24.5182C4.35034 35.6829 13.4542 44.7334 24.6845 44.7334C35.9146 44.7334 45.0185 35.6829 45.0185 24.5182C45.0185 13.3534 35.9146 4.30292 24.6845 4.30292Z" fill="#142C3E"/>
<path d="M40.4608 24.5181C40.4608 28.7063 38.8209 32.6432 35.8431 35.6055L35.8689 35.6274C38.852 32.6595 40.4948 28.7142 40.4948 24.5181C40.4948 21.0173 39.3504 17.6917 37.239 14.9615L37.2116 14.9818C39.3187 17.7057 40.4608 21.0246 40.4608 24.5181Z" fill="#678FAB"/>
<path d="M32.67 24.518C32.67 22.6589 32.0234 20.9468 30.9424 19.5918L28.8158 21.1558C29.5716 22.0724 30.0259 23.2431 30.0259 24.518C30.0259 26.2549 29.183 27.7992 27.8825 28.7687L29.9138 30.5135C31.6013 29.0566 32.67 26.909 32.67 24.518Z" fill="#678FAB"/>
<path d="M36.6389 24.5181C36.6389 21.7812 35.7027 19.2573 34.1328 17.246L32.0077 18.8088C33.2519 20.3823 33.9947 22.3654 33.9947 24.5181C33.9947 27.2376 32.8089 29.6866 30.9246 31.3812L32.9365 33.1091C35.2165 30.944 36.6389 27.8928 36.6389 24.5181Z" fill="#678FAB"/>
<path d="M37.2116 14.9817L35.0794 16.5495C36.7945 18.7557 37.8166 21.5203 37.8166 24.518C37.8166 28.185 36.2875 31.5033 33.8305 33.8769L35.8431 35.6053C38.8209 32.6431 40.4608 28.7062 40.4608 24.518C40.4608 21.0245 39.3187 17.7056 37.2116 14.9817Z" fill="#678FAB"/>
<path d="M27.1663 24.5181C27.1663 23.1553 26.0551 22.0505 24.6843 22.0505C23.3134 22.0505 22.2021 23.1553 22.2021 24.5181C22.2021 25.8809 23.3134 26.9857 24.6843 26.9857C26.0551 26.9857 27.1663 25.8809 27.1663 24.5181Z" fill="#678FAB"/>
</svg>
