<svg width="20" height="21" viewBox="0 0 20 21" fill="none" xmlns="http://www.w3.org/2000/svg">
<path d="M10.8193 2.28067L10.821 2.28161L16.2449 5.20602C16.2451 5.20613 16.2453 5.20623 16.2455 5.20634C16.5697 5.38243 16.7833 5.73491 16.7833 6.1415C16.7833 6.5481 16.5697 6.90057 16.2455 7.07667C16.2453 7.07677 16.2451 7.07688 16.2449 7.07699L10.821 10.0014L10.821 10.0013L10.8127 10.006C10.5719 10.1418 10.2919 10.2082 9.99998 10.2082C9.71734 10.2082 9.43106 10.1376 9.16807 10L3.74669 7.07699C3.74653 7.0769 3.74636 7.07681 3.7462 7.07672C3.42201 6.90064 3.20831 6.54814 3.20831 6.1415C3.20831 5.73487 3.42201 5.38236 3.7462 5.20629C3.74636 5.2062 3.74653 5.20611 3.74669 5.20602L9.17003 2.28192C9.17013 2.28186 9.17023 2.28181 9.17033 2.28176C9.69006 2.00253 10.311 2.00401 10.8193 2.28067ZM9.29602 9.78161L9.29601 9.78163L9.29993 9.7837C9.74597 10.0191 10.2623 10.0191 10.7084 9.7837L10.7084 9.78371L10.7123 9.78161L16.1373 6.85661L16.1373 6.85668L16.1451 6.85229C16.3421 6.74148 16.4427 6.57315 16.4917 6.44599C16.5388 6.32346 16.55 6.21058 16.55 6.1415C16.55 6.09248 16.5468 5.97287 16.4977 5.83866C16.4468 5.6992 16.3383 5.52605 16.1283 5.42154L10.7148 2.50276C10.4916 2.37945 10.2426 2.3165 9.99998 2.3165C9.75743 2.3165 9.50845 2.37942 9.28533 2.50267L3.87248 5.41728C3.45822 5.63793 3.4583 6.08007 3.45831 6.14064L3.45831 6.1415C3.45831 6.19053 3.46152 6.31013 3.51056 6.44435C3.56151 6.58381 3.67004 6.75696 3.88004 6.86147L9.29602 9.78161Z" fill="#717680" stroke="#717680"/>
<path d="M7.68196 18.8194L7.68137 18.8191L2.63373 16.3036C2.63334 16.3034 2.63296 16.3033 2.63257 16.3031C1.95922 15.9625 1.54169 15.285 1.54169 14.5333V9.76664C1.54169 9.39899 1.72624 9.06874 2.03623 8.87632C2.35777 8.68186 2.73299 8.66714 3.05975 8.83052L3.06034 8.83081L8.10798 11.3463C8.10835 11.3465 8.10872 11.3467 8.10909 11.3469C8.78332 11.6878 9.20002 12.3575 9.20002 13.1166V17.8833C9.20002 18.2516 9.0148 18.5824 8.70378 18.7747L8.70376 18.7746L8.69916 18.7776C8.53438 18.8819 8.34497 18.9333 8.15002 18.9333C7.99752 18.9333 7.83213 18.8945 7.68196 18.8194ZM2.20975 9.06109L2.1819 9.07501L2.156 9.09228C2.05016 9.16284 1.79169 9.36949 1.79169 9.76664V14.5333C1.79169 15.1858 2.15385 15.7858 2.74278 16.0804C2.7428 16.0804 2.74281 16.0804 2.74283 16.0804C2.74291 16.0804 2.743 16.0805 2.74308 16.0805L7.78445 18.6054L7.78475 18.6055C8.14109 18.7837 8.44303 18.6375 8.52363 18.5972L8.55147 18.5833L8.57737 18.566C8.68321 18.4954 8.94169 18.2888 8.94169 17.8916V13.125C8.94169 12.4723 8.5794 11.8723 7.99029 11.5778L2.94892 9.0529L2.94863 9.05276C2.83038 8.99363 2.71229 8.96664 2.59169 8.96664C2.40821 8.96664 2.26592 9.033 2.20975 9.06109Z" fill="#717680" stroke="#717680"/>
<path d="M11.3008 18.7776L11.3009 18.7776L11.2962 18.7747C10.9852 18.5824 10.8 18.2517 10.8 17.8833V13.1167C10.8 12.3648 11.2177 11.6871 11.8913 11.3467C11.8916 11.3466 11.8918 11.3464 11.892 11.3463L16.9319 8.82222C16.932 8.82218 16.9321 8.82215 16.9321 8.82212C16.9322 8.8221 16.9322 8.82209 16.9322 8.82207C17.2611 8.65777 17.6435 8.67517 17.9537 8.86697C18.2648 9.05923 18.45 9.39002 18.45 9.75834V14.525C18.45 15.2769 18.0322 15.9546 17.3586 16.295C17.3584 16.2951 17.3582 16.2952 17.358 16.2953L12.3178 18.8196L12.3111 18.8229L12.3046 18.8264C12.1718 18.898 12.014 18.9333 11.85 18.9333C11.655 18.9333 11.4656 18.882 11.3008 18.7776ZM17.0514 9.05279L17.0511 9.05294L12.0097 11.5778C12.0096 11.5778 12.0095 11.5779 12.0094 11.5779C11.4222 11.8717 11.0583 12.4622 11.0583 13.125V17.8917C11.0583 18.2888 11.3168 18.4955 11.4226 18.566C11.5799 18.6709 11.8809 18.7727 12.2153 18.6055L12.2156 18.6054L17.2569 16.0805C17.257 16.0805 17.2571 16.0804 17.2572 16.0804C17.8462 15.7858 18.2083 15.1858 18.2083 14.5333V9.76667C18.2083 9.36952 17.9498 9.16287 17.844 9.09231L17.8181 9.07504L17.7903 9.06112C17.7341 9.03304 17.5918 8.96667 17.4083 8.96667C17.2877 8.96667 17.1696 8.99367 17.0514 9.05279Z" fill="#717680" stroke="#717680"/>
</svg>
