<svg width="240" height="234" viewBox="0 0 240 234" fill="none" xmlns="http://www.w3.org/2000/svg">
<circle cx="122.225" cy="117" r="117" fill="url(#paint0_linear_257_11409)"/>
<circle cx="224.759" cy="75.7917" r="5.00267" stroke="#65D5AD" stroke-width="4"/>
<g filter="url(#filter0_f_257_11409)">
<circle cx="122.458" cy="214.545" r="7.00267" fill="#6AD6B0"/>
</g>
<g filter="url(#filter1_f_257_11409)">
<path d="M74.5283 10.583L78.0841 20.1923L87.6933 23.748L78.0841 27.3038L74.5283 36.913L70.9726 27.3038L61.3633 23.748L70.9726 20.1923L74.5283 10.583Z" fill="#65D5AD"/>
</g>
<path d="M15.074 113.591C17.3047 114.188 18.0519 116.977 16.4189 118.61L12.9662 122.062C11.3332 123.695 8.54481 122.948 7.94709 120.718L6.68333 116.001C6.08561 113.77 8.12685 111.729 10.3576 112.327L15.074 113.591Z" fill="#5ED2A8"/>
<circle cx="121.578" cy="118.004" r="50.3536" fill="url(#paint1_linear_257_11409)"/>
<circle cx="123.229" cy="116.354" r="50.3536" fill="url(#paint2_linear_257_11409)"/>
<g filter="url(#filter2_d_257_11409)">
<path d="M146.658 100.517C144.463 98.322 140.904 98.322 138.709 100.517L114.03 125.197C112.125 127.101 112.125 130.19 114.03 132.095C116.315 134.381 120.021 134.381 122.307 132.095L146.658 107.744C148.654 105.748 148.654 102.513 146.658 100.517Z" fill="url(#paint3_linear_257_11409)"/>
</g>
<rect width="45.0961" height="10.2542" rx="5.12708" transform="matrix(-0.707107 0.707107 0.707107 0.707107 142.469 96.7578)" fill="white"/>
<g filter="url(#filter3_d_257_11409)">
<path d="M99.6015 110.423C101.797 108.228 105.356 108.228 107.551 110.423L121.991 124.863C123.896 126.768 123.896 129.857 121.991 131.762C119.705 134.047 115.999 134.047 113.713 131.762L99.6015 117.65C97.6059 115.654 97.6059 112.419 99.6015 110.423Z" fill="url(#paint4_linear_257_11409)"/>
</g>
<rect x="103.723" y="106.595" width="30.7132" height="10.2542" rx="5.12708" transform="rotate(45 103.723 106.595)" fill="white"/>
<defs>
<filter id="filter0_f_257_11409" x="111.455" y="203.542" width="22.0059" height="22.0054" filterUnits="userSpaceOnUse" color-interpolation-filters="sRGB">
<feFlood flood-opacity="0" result="BackgroundImageFix"/>
<feBlend mode="normal" in="SourceGraphic" in2="BackgroundImageFix" result="shape"/>
<feGaussianBlur stdDeviation="2" result="effect1_foregroundBlur_257_11409"/>
</filter>
<filter id="filter1_f_257_11409" x="57.3633" y="6.58301" width="34.3301" height="34.3301" filterUnits="userSpaceOnUse" color-interpolation-filters="sRGB">
<feFlood flood-opacity="0" result="BackgroundImageFix"/>
<feBlend mode="normal" in="SourceGraphic" in2="BackgroundImageFix" result="shape"/>
<feGaussianBlur stdDeviation="2" result="effect1_foregroundBlur_257_11409"/>
</filter>
<filter id="filter2_d_257_11409" x="102.602" y="92.8706" width="55.5527" height="54.9385" filterUnits="userSpaceOnUse" color-interpolation-filters="sRGB">
<feFlood flood-opacity="0" result="BackgroundImageFix"/>
<feColorMatrix in="SourceAlpha" type="matrix" values="0 0 0 0 0 0 0 0 0 0 0 0 0 0 0 0 0 0 127 0" result="hardAlpha"/>
<feOffset dy="4"/>
<feGaussianBlur stdDeviation="5"/>
<feComposite in2="hardAlpha" operator="out"/>
<feColorMatrix type="matrix" values="0 0 0 0 0.368627 0 0 0 0 0.823529 0 0 0 0 0.658824 0 0 0 1 0"/>
<feBlend mode="normal" in2="BackgroundImageFix" result="effect1_dropShadow_257_11409"/>
<feBlend mode="normal" in="SourceGraphic" in2="effect1_dropShadow_257_11409" result="shape"/>
</filter>
<filter id="filter3_d_257_11409" x="93.1055" y="107.776" width="35.3145" height="34.6997" filterUnits="userSpaceOnUse" color-interpolation-filters="sRGB">
<feFlood flood-opacity="0" result="BackgroundImageFix"/>
<feColorMatrix in="SourceAlpha" type="matrix" values="0 0 0 0 0 0 0 0 0 0 0 0 0 0 0 0 0 0 127 0" result="hardAlpha"/>
<feOffset dy="4"/>
<feGaussianBlur stdDeviation="2.5"/>
<feComposite in2="hardAlpha" operator="out"/>
<feColorMatrix type="matrix" values="0 0 0 0 0.415579 0 0 0 0 0.79579 0 0 0 0 0.661811 0 0 0 1 0"/>
<feBlend mode="normal" in2="BackgroundImageFix" result="effect1_dropShadow_257_11409"/>
<feBlend mode="normal" in="SourceGraphic" in2="effect1_dropShadow_257_11409" result="shape"/>
</filter>
<linearGradient id="paint0_linear_257_11409" x1="122.225" y1="0" x2="122.225" y2="234" gradientUnits="userSpaceOnUse">
<stop stop-color="white" stop-opacity="0"/>
<stop offset="1" stop-color="#D9FFF6"/>
</linearGradient>
<linearGradient id="paint1_linear_257_11409" x1="121.578" y1="67.6509" x2="121.578" y2="168.358" gradientUnits="userSpaceOnUse">
<stop stop-color="#8AE1C3"/>
<stop offset="1" stop-color="#58D1A7"/>
</linearGradient>
<linearGradient id="paint2_linear_257_11409" x1="123.229" y1="66" x2="123.229" y2="166.707" gradientUnits="userSpaceOnUse">
<stop stop-color="#B3F0DC"/>
<stop offset="1" stop-color="#4EBF95"/>
</linearGradient>
<linearGradient id="paint3_linear_257_11409" x1="126.632" y1="112.594" x2="134.22" y2="120.182" gradientUnits="userSpaceOnUse">
<stop stop-color="white"/>
<stop offset="1" stop-color="#8CD7BD"/>
</linearGradient>
<linearGradient id="paint4_linear_257_11409" x1="114.508" y1="117.38" x2="106.92" y2="124.968" gradientUnits="userSpaceOnUse">
<stop stop-color="white"/>
<stop offset="1" stop-color="#8CD7BD"/>
</linearGradient>
</defs>
</svg>
