<svg width="20" height="21" viewBox="0 0 20 21" fill="none" xmlns="http://www.w3.org/2000/svg">
<path d="M6.6665 5.50008V4.66675C6.6665 3.28604 7.78579 2.16675 9.1665 2.16675H10.8332C12.2139 2.16675 13.3332 3.28604 13.3332 4.66675V5.50008M1.6665 9.12298C1.6665 9.12298 4.26487 10.8538 8.31456 11.2591M18.3332 9.12298C18.3332 9.12298 15.7348 10.8538 11.6851 11.2591M4.99984 18.8334H14.9998C16.8408 18.8334 18.3332 17.341 18.3332 15.5001V8.83342C18.3332 6.99247 16.8408 5.50008 14.9998 5.50008H4.99984C3.15889 5.50008 1.6665 6.99247 1.6665 8.83342V15.5001C1.6665 17.341 3.15889 18.8334 4.99984 18.8334Z" stroke="#17181B" stroke-width="1.5" stroke-linecap="round"/>
<path d="M11.6668 10.6334V11.4667C11.6668 11.475 11.6668 11.475 11.6668 11.4834C11.6668 12.3917 11.6585 13.1334 10.0002 13.1334C8.35016 13.1334 8.3335 12.4 8.3335 11.4917V10.6334C8.3335 9.80005 8.3335 9.80005 9.16683 9.80005H10.8335C11.6668 9.80005 11.6668 9.80005 11.6668 10.6334Z" stroke="#17181B" stroke-width="1.5" stroke-miterlimit="10" stroke-linecap="round" stroke-linejoin="round"/>
</svg>
