<svg width="20" height="21" viewBox="0 0 20 21" fill="none" xmlns="http://www.w3.org/2000/svg">
<path d="M8.166 18.7082H9.05682L8.59282 17.9477C8.3516 17.5524 8.20768 17.0231 8.20768 16.3332V7.7915V7.2915H7.70768H4.16602C3.45122 7.2915 2.82192 7.44099 2.38121 7.8817C1.9405 8.32241 1.79102 8.9517 1.79102 9.6665V16.3332C1.79102 17.048 1.9405 17.6773 2.38121 18.118C2.82192 18.5587 3.45122 18.7082 4.16602 18.7082H8.166ZM10.8327 18.9582H4.16602C3.24676 18.9582 2.60937 18.7069 2.20082 18.2984C1.79227 17.8898 1.54102 17.2524 1.54102 16.3332V9.6665C1.54102 8.74725 1.79227 8.10986 2.20082 7.70131C2.60937 7.29276 3.24676 7.0415 4.16602 7.0415H8.33268C8.36283 7.0415 8.39411 7.05379 8.41975 7.07943C8.4454 7.10508 8.45768 7.13636 8.45768 7.1665V16.3332C8.45768 17.048 8.60717 17.6773 9.04788 18.118C9.48859 18.5587 10.1179 18.7082 10.8327 18.7082C10.8628 18.7082 10.8941 18.7205 10.9198 18.7461C10.9454 18.7717 10.9577 18.803 10.9577 18.8332C10.9577 18.8633 10.9454 18.8946 10.9198 18.9202C10.8941 18.9459 10.8628 18.9582 10.8327 18.9582Z" fill="#002E43" stroke="#002E43"/>
<path d="M4.29102 6.54183V7.04183H4.79102H7.70768H8.20768V6.54183V4.66683V4.66639V4.66595V4.66551V4.66507V4.66463V4.6642V4.66376V4.66332V4.66288V4.66244V4.66201V4.66157V4.66113V4.6607V4.66026V4.65982V4.65939V4.65895V4.65851V4.65808V4.65764V4.65721V4.65677V4.65634V4.6559V4.65547V4.65503V4.6546V4.65416V4.65373V4.6533V4.65286V4.65243V4.652V4.65156V4.65113V4.6507V4.65026V4.64983V4.6494V4.64897V4.64854V4.6481V4.64767V4.64724V4.64681V4.64638V4.64595V4.64552V4.64509V4.64466V4.64423V4.6438V4.64337V4.64294V4.64251V4.64208V4.64165V4.64122V4.64079V4.64036V4.63994V4.63951V4.63908V4.63865V4.63822V4.6378V4.63737V4.63694V4.63651V4.63609V4.63566V4.63523V4.63481V4.63438V4.63395V4.63353V4.6331V4.63268V4.63225V4.63183V4.6314V4.63098V4.63055V4.63013V4.6297V4.62928V4.62885V4.62843V4.62801V4.62758V4.62716V4.62674V4.62631V4.62589V4.62547V4.62504V4.62462V4.6242V4.62378V4.62335V4.62293V4.62251V4.62209V4.62167V4.62124V4.62082V4.6204V4.61998V4.61956V4.61914V4.61872V4.6183V4.61788V4.61746V4.61704V4.61662V4.6162V4.61578V4.61536V4.61494V4.61452V4.6141V4.61369V4.61327V4.61285V4.61243V4.61201V4.61159V4.61118V4.61076V4.61034V4.60992V4.60951V4.60909V4.60867V4.60825V4.60784V4.60742V4.607V4.60659V4.60617V4.60576V4.60534V4.60492V4.60451V4.60409V4.60368V4.60326V4.60285V4.60243V4.60202V4.6016V4.60119V4.60077V4.60036V4.59995V4.59953V4.59912V4.5987V4.59829V4.59788V4.59746V4.59705V4.59664V4.59622V4.59581V4.5954V4.59499V4.59457V4.59416V4.59375V4.59334V4.59292V4.59251V4.5921V4.59169V4.59128V4.59087V4.59046V4.59004V4.58963V4.58922V4.58881V4.5884V4.58799V4.58758V4.58717V4.58676V4.58635V4.58594V4.58553V4.58512V4.58471V4.5843V4.58389V4.58348V4.58307V4.58267V4.58226V4.58185V4.58144V4.58103V4.58062V4.58021V4.57981V4.5794V4.57899V4.57858V4.57817V4.57777V4.57736V4.57695V4.57655V4.57614V4.57573V4.57532V4.57492V4.57451V4.5741V4.5737V4.57329V4.57289V4.57248V4.57207V4.57167V4.57126V4.57086V4.57045V4.57004V4.56964V4.56923V4.56883V4.56842V4.56802V4.56761V4.56721V4.5668V4.5664V4.566V4.56559V4.56519V4.56478V4.56438V4.56397V4.56357V4.56317V4.56276V4.56236V4.56196V4.56155V4.56115V4.56075V4.56034V4.55994V4.55954V4.55913V4.55873V4.55833V4.55793V4.55752V4.55712V4.55672V4.55632V4.55592V4.55551V4.55511V4.55471V4.55431V4.55391V4.55351V4.5531V4.5527V4.5523V4.5519V4.5515V4.5511V4.5507V4.5503V4.5499V4.5495V4.5491V4.54869V4.54829V4.54789V4.54749V4.54709V4.54669V4.54629V4.54589V4.54549V4.54509V4.5447V4.5443V4.5439V4.5435V4.5431V4.5427V4.5423V4.5419V4.5415V4.5411V4.5407V4.5403V4.53991V4.53951V4.53911V4.53871V4.53831V4.53791V4.53752V4.53712V4.53672V4.53632V4.53592V4.53553V4.53513V4.53473V4.53433V4.53394V4.53354V4.53314V4.53274V4.53235V4.53195V4.53155V4.53115V4.53076V4.53036V4.52996V4.52957V4.52917V4.52877V4.52838V4.52798V4.52758V4.52719V4.52679V4.5264V4.526V4.5256V4.52521V4.52481V4.52442V4.52402V4.52362V4.52323V4.52283V4.52244V4.52204V4.52165V4.52125V4.52085V4.52046V4.52006V4.51967V4.51927V4.51888V4.51848V4.51809V4.51769V4.5173V4.5169V4.51651V4.51612V4.51572V4.51533V4.51493V4.51454V4.51414V4.51375V4.51335V4.51296V4.51257V4.51217V4.51178V4.51138V4.51099V4.5106V4.5102V4.50981V4.50941V4.50902V4.50863V4.50823V4.50784V4.50745V4.50705V4.50666V4.50626V4.50587V4.50548V4.50508V4.50469V4.5043V4.50391V4.50351V4.50312V4.50273V4.50233V4.50194V4.50155V4.50115V4.50076V4.50037V4.49998V4.49958V4.49919V4.4988V4.49841V4.49801V4.49762V4.49723V4.49684V4.49644V4.49605V4.49566V4.49527V4.49487V4.49448V4.49409V4.4937V4.49331V4.49291V4.49252V4.49213V4.49174V4.49135V4.49095V4.49056V4.49017V4.48978V4.48939V4.48899V4.4886V4.48821V4.48782V4.48743V4.48704V4.48664V4.48625V4.48586V4.48547V4.48508V4.48469V4.4843V4.4839V4.48351V4.48312V4.48273V4.48234V4.48195V4.48156V4.48116V4.48077V4.48038V4.47999V4.4796V4.47921V4.47882V4.47843V4.47803V4.47764V4.47725V4.47686V4.47647V4.47608V4.47569V4.4753V4.47491V4.47452V4.47412V4.47373V4.47334V4.47295V4.47256V4.47217V4.47178V4.47139V4.471V4.47061V4.47022V4.46983V4.46943V4.46904V4.46865V4.46826V4.46787V4.46748V4.46709V4.4667V4.46631V4.46592V4.46553V4.46514V4.46475V4.46436V4.46396V4.46357V4.46318V4.46279V4.4624V4.46201V4.46162V4.46123V4.46084V4.46045V4.46006V4.45967V4.45928V4.45889V4.4585V3.9585H7.70768H5.83268C4.98154 3.9585 4.29102 4.64902 4.29102 5.50016V6.54183ZM8.33268 7.29183H4.16602C4.13587 7.29183 4.10459 7.27954 4.07894 7.2539C4.0533 7.22826 4.04102 7.19698 4.04102 7.16683V5.50016C4.04102 4.50964 4.84216 3.7085 5.83268 3.7085H8.42434C8.45717 3.7085 8.49375 3.72489 8.51761 3.75256C8.54647 3.79499 8.54855 3.83609 8.54196 3.86027C8.47436 4.10814 8.45768 4.36918 8.45768 4.66683V7.16683C8.45768 7.19698 8.4454 7.22826 8.41975 7.2539C8.39411 7.27954 8.36283 7.29183 8.33268 7.29183Z" fill="#002E43" stroke="#002E43"/>
<path d="M11.666 11.4582C11.6359 11.4582 11.6046 11.4459 11.5789 11.4202C11.5533 11.3946 11.541 11.3633 11.541 11.3332V7.1665C11.541 7.13636 11.5533 7.10508 11.5789 7.07943C11.6046 7.05379 11.6359 7.0415 11.666 7.0415C11.6962 7.0415 11.7274 7.05379 11.7531 7.07943C11.7787 7.10508 11.791 7.13636 11.791 7.1665V11.3332C11.791 11.3633 11.7787 11.3946 11.7531 11.4202C11.7274 11.4459 11.6962 11.4582 11.666 11.4582Z" fill="#002E43" stroke="#002E43"/>
<path d="M15 11.9582C14.6583 11.9582 14.375 11.6748 14.375 11.3332V7.1665C14.375 6.82484 14.6583 6.5415 15 6.5415C15.3417 6.5415 15.625 6.82484 15.625 7.1665V11.3332C15.625 11.6748 15.3417 11.9582 15 11.9582Z" fill="#002E43"/>
<path d="M14.9993 19.4582H11.666C11.3243 19.4582 11.041 19.1748 11.041 18.8332V15.4998C11.041 14.6998 11.6993 14.0415 12.4993 14.0415H14.166C14.966 14.0415 15.6243 14.6998 15.6243 15.4998V18.8332C15.6243 19.1748 15.341 19.4582 14.9993 19.4582ZM12.291 18.2082H14.3743V15.4998C14.3743 15.3832 14.2827 15.2915 14.166 15.2915H12.4993C12.3827 15.2915 12.291 15.3832 12.291 15.4998V18.2082Z" fill="#002E43"/>
<path d="M5 15.2918C4.65833 15.2918 4.375 15.0085 4.375 14.6668V11.3335C4.375 10.9918 4.65833 10.7085 5 10.7085C5.34167 10.7085 5.625 10.9918 5.625 11.3335V14.6668C5.625 15.0085 5.34167 15.2918 5 15.2918Z" fill="#002E43"/>
<path d="M15.834 19.4582H10.834C8.81732 19.4582 7.70898 18.3498 7.70898 16.3332V4.6665C7.70898 2.64984 8.81732 1.5415 10.834 1.5415H15.834C17.8507 1.5415 18.959 2.64984 18.959 4.6665V16.3332C18.959 18.3498 17.8507 19.4582 15.834 19.4582ZM10.834 2.7915C9.51732 2.7915 8.95898 3.34984 8.95898 4.6665V16.3332C8.95898 17.6498 9.51732 18.2082 10.834 18.2082H15.834C17.1507 18.2082 17.709 17.6498 17.709 16.3332V4.6665C17.709 3.34984 17.1507 2.7915 15.834 2.7915H10.834Z" fill="#002E43"/>
</svg>
