<svg width="164" height="110" viewBox="0 0 164 110" fill="none" xmlns="http://www.w3.org/2000/svg">
<g opacity="0.2">
<mask id="mask0_418_12951" style="mask-type:alpha" maskUnits="userSpaceOnUse" x="0" y="0" width="96" height="110">
<rect width="95.8705" height="108.485" transform="matrix(1 0 0 -1 0.129883 109.243)" fill="#CEE2E4"/>
<rect x="0.5" y="-0.5" width="94.8705" height="107.485" transform="matrix(1 0 0 -1 0.129883 108.243)" stroke="#99A1B7" stroke-opacity="0.6"/>
</mask>
<g mask="url(#mask0_418_12951)">
<path d="M110.264 -11.3419C108.806 -7.05832 102.456 1.39 88.7199 0.914853C71.5497 0.320916 60.8048 -12.6377 44.6065 -15.8774C32.6509 -18.2685 2.70684 -17.9292 -9.87385 -3.3507" stroke="#99A1B7" stroke-opacity="0.6"/>
<path d="M107.727 -5.00398C106.269 -0.720428 99.919 7.72789 86.1828 7.25274C69.0126 6.65881 58.2677 -6.29985 42.0694 -9.53951C30.1138 -11.9306 0.169735 -11.5913 -12.411 2.98719" stroke="#99A1B7" stroke-opacity="0.6"/>
<path d="M105.416 1.42375C103.958 5.70731 97.6084 14.1556 83.8723 13.6805C66.702 13.0865 55.9572 0.127884 39.7588 -3.11178C27.8033 -5.50289 -2.14081 -5.16356 -14.7215 9.41492" stroke="#99A1B7" stroke-opacity="0.6"/>
<path d="M103.371 7.93352C101.913 12.2171 95.5635 20.6654 81.8273 20.1902C64.6571 19.5963 53.9122 6.63765 37.7139 3.39799C25.7583 1.00687 -4.18573 1.3462 -16.7664 15.9247" stroke="#99A1B7" stroke-opacity="0.6"/>
<path d="M101.629 14.539C100.171 18.8225 93.8213 27.2709 80.0851 26.7957C62.9149 26.2018 52.17 13.2431 35.9717 10.0035C24.0162 7.61234 -5.92792 7.95167 -18.5086 22.5302" stroke="#99A1B7" stroke-opacity="0.6"/>
<path d="M100.246 21.2187C98.7882 25.5022 92.4385 33.9506 78.7023 33.4754C61.5321 32.8815 50.7872 19.9228 34.5889 16.6831C22.6333 14.292 -7.31073 14.6314 -19.8914 29.2098" stroke="#99A1B7" stroke-opacity="0.6"/>
<path d="M99.2949 27.9784C97.8371 32.262 91.4873 40.7103 77.7512 40.2352C60.5809 39.6412 49.8361 26.6826 33.6377 23.4429C21.6822 21.0518 -8.26191 21.3911 -20.8426 35.9696" stroke="#99A1B7" stroke-opacity="0.6"/>
<path d="M98.8516 34.7909C97.3937 39.0745 91.044 47.5228 77.3078 47.0477C60.1376 46.4537 49.3927 33.4951 33.1944 30.2554C21.2388 27.8643 -8.70527 28.2036 -21.286 42.7821" stroke="#99A1B7" stroke-opacity="0.6"/>
<path d="M99.0352 41.6191C97.5773 45.9026 91.2276 54.3509 77.4914 53.8758C60.3212 53.2819 49.5763 40.3232 33.378 37.0835C21.4224 34.6924 -8.52167 35.0317 -21.1024 49.6102" stroke="#99A1B7" stroke-opacity="0.6"/>
<path d="M99.9531 48.3827C98.4953 52.6663 92.1455 61.1146 78.4094 60.6395C61.2391 60.0455 50.4943 47.0869 34.2959 43.8472C22.3404 41.4561 -7.6037 41.7954 -20.1844 56.3739" stroke="#99A1B7" stroke-opacity="0.6"/>
<path d="M101.736 54.9745C100.278 59.2581 93.9287 67.7064 80.1926 67.2313C63.0223 66.6373 52.2775 53.6787 36.0791 50.439C24.1236 48.0479 -5.8205 48.3872 -18.4012 62.9657" stroke="#99A1B7" stroke-opacity="0.6"/>
<path d="M104.961 62.3593C103.503 66.6429 97.1533 75.0912 83.4172 74.616C66.247 74.0221 55.5021 61.0634 39.3038 57.8238C27.3482 55.4327 -2.59589 55.772 -15.1766 70.3505" stroke="#99A1B7" stroke-opacity="0.6"/>
<path d="M107.525 68.6855C106.068 72.969 99.7178 81.4173 85.9816 80.9422C68.8114 80.3483 58.0665 67.3896 41.8682 64.1499C29.9126 61.7588 -0.0314373 62.0982 -12.6121 76.6766" stroke="#99A1B7" stroke-opacity="0.6"/>
<path d="M109.553 75.203C108.095 79.4866 101.745 87.9349 88.009 87.4598C70.8388 86.8658 60.0939 73.9072 43.8956 70.6675C31.94 68.2764 1.99591 68.6157 -10.5848 83.1942" stroke="#99A1B7" stroke-opacity="0.6"/>
<path d="M111.041 81.8671C109.583 86.1507 103.233 94.599 89.4973 94.1238C72.327 93.5299 61.5822 80.5712 45.3838 77.3316C33.4283 74.9405 3.48419 75.2798 -9.0965 89.8583" stroke="#99A1B7" stroke-opacity="0.6"/>
<path d="M111.984 88.6288C110.527 92.9124 104.177 101.361 90.4406 100.886C73.2704 100.292 62.5255 87.333 46.3272 84.0933C34.3716 81.7022 4.42755 82.0415 -8.15315 96.62" stroke="#99A1B7" stroke-opacity="0.6"/>
<path d="M112.396 95.4433C110.939 99.7268 104.589 108.175 90.8527 107.7C73.6825 107.106 62.9376 94.1474 46.7393 90.9078C34.7837 88.5166 4.83966 88.856 -7.74104 103.434" stroke="#99A1B7" stroke-opacity="0.6"/>
<path d="M112.297 102.273C110.839 106.557 104.489 115.005 90.7531 114.53C73.5829 113.936 62.838 100.977 46.6397 97.7378C34.6841 95.3467 4.74005 95.686 -7.84065 110.265" stroke="#99A1B7" stroke-opacity="0.6"/>
<path d="M111.711 109.076C110.253 113.36 103.903 121.808 90.1672 121.333C72.997 120.739 62.2521 107.78 46.0538 104.541C34.0982 102.149 4.15411 102.489 -8.42658 117.067" stroke="#99A1B7" stroke-opacity="0.6"/>
<path d="M110.674 115.822C109.216 120.106 102.866 128.554 89.1301 128.079C71.9598 127.485 61.215 114.526 45.0166 111.287C33.0611 108.896 3.117 109.235 -9.46369 123.813" stroke="#99A1B7" stroke-opacity="0.6"/>
</g>
</g>
<g clip-path="url(#clip0_418_12951)">
<path d="M40 80.2416C40 84.5216 41.9405 88.6986 44.3243 92.1548C48.0294 97.5265 54.6145 99.5664 61.0875 99.5664H138.277C142.762 99.5664 145.733 93.154 145.88 88.6168C146.098 81.8722 149.909 74.2314 148.797 62.8819C147.065 45.1947 135.284 39.7903 122.984 33.0761C110.684 26.3614 118.653 16.5353 97.5169 10.6396C76.3812 4.74391 54.0327 24.2325 54.7257 42.4106C55.4187 60.5889 40 63.2093 40 80.2416Z" fill="#EBEDF3"/>
<g clip-path="url(#clip1_418_12951)">
<path d="M36 77.8163C36 82.2865 38.0473 86.6492 40.5624 90.259C44.4714 95.8695 51.4189 98 58.2483 98H139.686C144.419 98 147.553 91.3026 147.708 86.5637C147.938 79.5194 151.959 71.539 150.786 59.685C148.958 41.2118 136.529 35.5671 123.552 28.5546C110.574 21.5415 118.982 11.2786 96.683 5.12086C74.3838 -1.03683 50.8052 19.3179 51.5362 38.304C52.2674 57.2902 36 60.027 36 77.8163Z" fill="#F5F5F5"/>
<path d="M126.728 34.8498C129.725 34.8498 132.155 32.4197 132.155 29.422C132.155 26.4243 129.725 23.9941 126.728 23.9941C123.73 23.9941 121.3 26.4243 121.3 29.422C121.3 32.4197 123.73 34.8498 126.728 34.8498Z" fill="white"/>
<path d="M132.63 34.0921C134.845 34.0921 136.64 32.2968 136.64 30.0822C136.64 27.8676 134.845 26.0723 132.63 26.0723C130.415 26.0723 128.62 27.8676 128.62 30.0822C128.62 32.2968 130.415 34.0921 132.63 34.0921Z" fill="white"/>
<path d="M62.2457 35.1984C64.9896 35.1984 67.214 32.974 67.214 30.23C67.214 27.4861 64.9896 25.2617 62.2457 25.2617C59.5017 25.2617 57.2773 27.4861 57.2773 30.23C57.2773 32.974 59.5017 35.1984 62.2457 35.1984Z" fill="white"/>
<path d="M56.8423 33.296C58.8694 33.296 60.5128 31.6526 60.5128 29.6255C60.5128 27.5984 58.8694 25.9551 56.8423 25.9551C54.8152 25.9551 53.1719 27.5984 53.1719 29.6255C53.1719 31.6526 54.8152 33.296 56.8423 33.296Z" fill="white"/>
<path d="M63.7764 20.75L63.9639 96.1131H123.794L123.606 20.9376L63.7764 20.75Z" fill="#E6EAEC"/>
<path d="M61.1504 13.8105L125.482 13.9981L125.669 20.9376H61.1504V13.8105ZM61.1504 34.8166H125.482V36.8797H61.1504V34.8166Z" fill="#2E5465"/>
<path d="M63.9636 36.6922H123.418V38.7553H63.9636V36.6922ZM63.776 20.375H123.231V22.4381H63.776V20.375ZM61.5254 95.9594H125.857V98.0225H61.5254V95.9594ZM69.7778 24.8763L67.7147 27.127V30.3154L69.5902 32.1909L117.792 32.3785L119.667 30.6905V27.127L117.417 24.8763H69.7778Z" fill="#2E5465"/>
<path d="M63.7764 43.4446H67.5275V45.8828H63.9639L63.7764 43.4446ZM63.7764 67.8266H66.027V70.2648H63.9639L63.7764 67.8266ZM84.0322 64.2631H90.034V66.5138H84.0322V64.2631ZM80.4687 68.0142H86.4705V70.2648H80.4687V68.0142ZM77.571 54.1952H83.5727V56.4458H77.571V54.1952ZM91.3469 68.2017H97.3486V70.4524H91.3469V68.2017ZM80.7182 41.2352H86.7199V43.4858H80.7182V41.2352ZM114.416 66.8889H120.418V69.1395H114.416V66.8889ZM115.354 39.3184H121.356V41.569H115.354V39.3184Z" fill="#002E43"/>
<path d="M119.78 74.3887H108.888C108.533 74.3887 108.245 74.6767 108.245 75.032V95.9068C108.245 96.2621 108.533 96.5501 108.888 96.5501H119.78C120.135 96.5501 120.423 96.2621 120.423 95.9068V75.032C120.423 74.6767 120.135 74.3887 119.78 74.3887Z" fill="#2E5465"/>
<path d="M118.638 76.8848H110.055C109.7 76.8848 109.412 77.1728 109.412 77.5281V79.7937C109.412 80.149 109.7 80.437 110.055 80.437H118.638C118.993 80.437 119.281 80.149 119.281 79.7937V77.5281C119.281 77.1728 118.993 76.8848 118.638 76.8848Z" fill="white"/>
<path d="M67.2554 50.9605H68.4801L82.1566 50.9473C82.1566 50.9473 82.9068 46.8212 79.9059 44.3829C76.905 41.9447 73.7973 41.9447 71.5466 43.0701C69.296 44.1954 67.171 45.8834 67.2554 50.9605Z" fill="#2E5465"/>
<path d="M68.4779 50.9595L68.3747 60.958H81.1022V50.7063L68.2734 50.5L68.4779 50.9595Z" fill="#2E5465"/>
<path d="M68.3746 60.9585L67.5381 60.8984V62.5902H81.9254L81.8541 60.8984L68.3746 60.9585Z" fill="#2E5465"/>
<path d="M69.96 51.5176H74.4031V55.6082H69.96V51.5176ZM75.3071 51.4707H79.5534V55.5613H75.3071V51.4707ZM75.2846 56.6191H79.6134V60.7096H75.2846V56.6191ZM70.0012 56.6172H74.4444V60.7078H70.0012V56.6172Z" fill="white"/>
<path d="M69.0507 44.8649L68.5293 50.9866L71.0725 50.9041L71.5902 43.0587L69.981 44.0021L69.2458 44.6586M80.5778 44.9924L81.0561 50.9885L78.7266 50.9079L78.2709 43.2894L79.7075 44.2253L80.3996 44.7917M72.4042 44.7448L72.0572 50.9285L74.276 50.966L74.773 42.3535L73.8127 42.3798L72.6536 42.5973M77.6182 44.7205L77.9314 50.9041L75.9358 50.9416L75.5138 42.3873L76.5604 42.6067L77.4344 42.8862" fill="#002E43"/>
<path d="M86.2562 51.0913H87.481L101.157 51.0782C101.157 51.0782 101.908 46.952 98.9068 44.5138C95.9059 42.0756 92.7981 42.0756 90.5475 43.2009C88.2968 44.3262 86.1737 46.0199 86.2562 51.0913Z" fill="#2E5465"/>
<path d="M87.4807 51.0884L87.3776 61.0888H100.103V50.8352L87.2744 50.6289L87.4807 51.0884Z" fill="#2E5465"/>
<path d="M87.3775 61.0892L86.541 61.0273V62.721H100.926L100.857 61.0273L87.3775 61.0892Z" fill="#2E5465"/>
<path d="M88.9629 51.6485H93.4061V55.739H88.9629V51.6485ZM94.3082 51.6016H98.5544V55.6921H94.3082V51.6016ZM94.2857 56.7499H98.6144V60.8405H94.2857V56.7499ZM89.0042 56.7481H93.4473V60.8386H89.0042V56.7481Z" fill="white"/>
<path d="M88.0517 44.9957L87.5303 51.1175L90.0735 51.0369L90.5912 43.1915L88.9838 44.1349L88.2467 44.7913M99.5788 45.1233L100.057 51.1213L97.7276 51.0406L97.2718 43.4203L98.7085 44.3562L99.4006 44.9226M91.4051 44.8757L91.0582 51.0594L93.2769 51.0969L93.774 42.4844L92.8137 42.5106L91.6546 42.7301M96.621 44.8532L96.9324 51.035L94.9387 51.0725L94.5148 42.52L95.5632 42.7376L96.4354 43.017" fill="#002E43"/>
<path d="M104.999 51.0913H106.223L119.9 51.0782C119.9 51.0782 120.65 46.952 117.649 44.5138C114.648 42.0756 111.54 42.0756 109.29 43.2009C107.039 44.3262 104.914 46.0199 104.999 51.0913Z" fill="#2E5465"/>
<path d="M106.222 51.0884L106.119 61.0888H118.846V50.8352L106.016 50.6289L106.222 51.0884Z" fill="#2E5465"/>
<path d="M106.119 61.0892L105.282 61.0273V62.721H119.67L119.598 61.0273L106.119 61.0892Z" fill="#2E5465"/>
<path d="M107.703 51.6485H112.146V55.739H107.703V51.6485ZM113.048 51.6016H117.295V55.6921H113.048V51.6016ZM113.028 56.7499H117.357V60.8405H113.028V56.7499ZM107.744 56.7481H112.188V60.8386H107.744V56.7481Z" fill="white"/>
<path d="M106.794 44.9957L106.272 51.1175L108.816 51.0369L109.331 43.1915L107.724 44.1349L106.987 44.7913M118.321 45.1233L118.799 51.1213L116.468 51.0406L116.014 43.4203L117.451 44.3562L118.143 44.9226M110.147 44.8757L109.8 51.0594L112.019 51.0969L112.514 42.4844L111.556 42.5106L110.397 42.7301M115.361 44.8532L115.675 51.035L113.679 51.0725L113.257 42.52L114.304 42.7376L115.176 43.017" fill="#002E43"/>
<path d="M67.2985 79.559H70.5413L106.739 79.5459C106.739 79.5459 109.678 74.9846 101.735 72.4938C93.7925 70.0031 80.7293 70.7121 74.7782 71.8618C68.8271 73.0115 67.0772 74.3806 67.2985 79.559Z" fill="#2E5465"/>
<path d="M67.7726 79.6506L67.4556 95.9922H106.634V79.238L67.1387 78.9004L67.7726 79.6506Z" fill="#2E5465"/>
<path d="M69.6729 79.873H104.192V88.1948H69.6729V79.873ZM81.8451 89.5358H91.7874V93.6264H81.8451V89.5358ZM69.9092 89.6071H79.8514V93.6977H69.9092V89.6071ZM93.9236 89.6071H103.866V93.6977H93.9236V89.6071Z" fill="white"/>
<path d="M70.9629 73.1544L70.2539 79.0643L73.6318 78.9874L74.2319 71.8265L72.2514 72.301L71.156 72.7512M76.537 73.2144L75.9687 79.008L79.3578 78.9649L79.9749 71.1157L78.3206 71.3108L76.8258 71.4496M101.772 73.1113L102.329 79.0211L99.6737 78.9442L99.2029 71.7834L100.76 72.2579L101.621 72.708M97.3649 73.1713L97.8375 78.9649L95.0148 78.9217L94.5028 71.0726L95.8795 71.2676L97.123 71.4064M92.1828 73.1263L92.6554 78.9198L89.8327 78.8786L89.3076 70.8438L90.6448 70.9094L91.9183 70.975M86.046 73.342L86.5186 79.1355L83.6959 79.0943L83.1708 71.0613L84.5774 71.0125L85.8997 70.9844" fill="#002E43"/>
</g>
</g>
<defs>
<clipPath id="clip0_418_12951">
<rect width="140" height="104" fill="white" transform="translate(24 3)"/>
</clipPath>
<clipPath id="clip1_418_12951">
<rect width="107.168" height="104" fill="white" transform="translate(40 2)"/>
</clipPath>
</defs>
</svg>
