<svg width="164" height="110" viewBox="0 0 164 110" fill="none" xmlns="http://www.w3.org/2000/svg">
<g opacity="0.2">
<mask id="mask0_380_12948" style="mask-type:alpha" maskUnits="userSpaceOnUse" x="0" y="0" width="96" height="110">
<rect width="95.8705" height="108.485" transform="matrix(1 0 0 -1 0.129517 109.243)" fill="#CEE2E4"/>
<rect x="0.5" y="-0.5" width="94.8705" height="107.485" transform="matrix(1 0 0 -1 0.129517 108.243)" stroke="#99A1B7" stroke-opacity="0.6"/>
</mask>
<g mask="url(#mask0_380_12948)">
<path d="M110.262 -11.3419C108.804 -7.05832 102.455 1.39 88.7186 0.914853C71.5484 0.320916 60.8035 -12.6377 44.6051 -15.8774C32.6496 -18.2685 2.7055 -17.9292 -9.87519 -3.3507" stroke="#99A1B7" stroke-opacity="0.6"/>
<path d="M107.725 -5.00398C106.267 -0.720428 99.9176 7.72789 86.1815 7.25274C69.0112 6.65881 58.2664 -6.29985 42.068 -9.53951C30.1125 -11.9306 0.168392 -11.5913 -12.4123 2.98719" stroke="#99A1B7" stroke-opacity="0.6"/>
<path d="M105.415 1.42375C103.957 5.70731 97.6071 14.1556 83.8709 13.6805C66.7007 13.0865 55.9558 0.127884 39.7575 -3.11178C27.8019 -5.50289 -2.14216 -5.16356 -14.7228 9.41492" stroke="#99A1B7" stroke-opacity="0.6"/>
<path d="M103.37 7.93352C101.912 12.2171 95.5622 20.6654 81.826 20.1902C64.6558 19.5963 53.9109 6.63765 37.7126 3.39799C25.757 1.00687 -4.18708 1.3462 -16.7678 15.9247" stroke="#99A1B7" stroke-opacity="0.6"/>
<path d="M101.628 14.539C100.17 18.8225 93.82 27.2709 80.0838 26.7957C62.9136 26.2018 52.1687 13.2431 35.9704 10.0035C24.0148 7.61234 -5.92926 7.95167 -18.51 22.5302" stroke="#99A1B7" stroke-opacity="0.6"/>
<path d="M100.245 21.2187C98.7869 25.5022 92.4372 33.9506 78.701 33.4754C61.5308 32.8815 50.7859 19.9228 34.5876 16.6831C22.632 14.292 -7.31208 14.6314 -19.8928 29.2098" stroke="#99A1B7" stroke-opacity="0.6"/>
<path d="M99.2936 27.9784C97.8357 32.262 91.486 40.7103 77.7498 40.2352C60.5796 39.6412 49.8347 26.6826 33.6364 23.4429C21.6808 21.0518 -8.26325 21.3911 -20.8439 35.9696" stroke="#99A1B7" stroke-opacity="0.6"/>
<path d="M98.8502 34.7909C97.3924 39.0745 91.0426 47.5228 77.3065 47.0477C60.1362 46.4537 49.3914 33.4951 33.193 30.2554C21.2375 27.8643 -8.70661 28.2036 -21.2873 42.7821" stroke="#99A1B7" stroke-opacity="0.6"/>
<path d="M99.0338 41.6191C97.576 45.9026 91.2262 54.3509 77.4901 53.8758C60.3198 53.2819 49.575 40.3232 33.3766 37.0835C21.4211 34.6924 -8.52301 35.0317 -21.1037 49.6102" stroke="#99A1B7" stroke-opacity="0.6"/>
<path d="M99.9519 48.3827C98.4941 52.6663 92.1443 61.1146 78.4081 60.6395C61.2379 60.0455 50.493 47.0869 34.2947 43.8472C22.3392 41.4561 -7.60492 41.7954 -20.1856 56.3739" stroke="#99A1B7" stroke-opacity="0.6"/>
<path d="M101.735 54.9745C100.277 59.2581 93.9274 67.7064 80.1912 67.2313C63.021 66.6373 52.2761 53.6787 36.0778 50.439C24.1222 48.0479 -5.82184 48.3872 -18.4025 62.9657" stroke="#99A1B7" stroke-opacity="0.6"/>
<path d="M104.96 62.3593C103.502 66.6429 97.152 75.0912 83.4158 74.616C66.2456 74.0221 55.5007 61.0634 39.3024 57.8238C27.3468 55.4327 -2.59723 55.772 -15.1779 70.3505" stroke="#99A1B7" stroke-opacity="0.6"/>
<path d="M107.524 68.6855C106.066 72.969 99.7165 81.4173 85.9803 80.9422C68.8101 80.3483 58.0652 67.3896 41.8669 64.1499C29.9113 61.7588 -0.0327801 62.0982 -12.6135 76.6766" stroke="#99A1B7" stroke-opacity="0.6"/>
<path d="M109.551 75.203C108.094 79.4866 101.744 87.9349 88.0076 87.4598C70.8374 86.8658 60.0925 73.9072 43.8942 70.6675C31.9386 68.2764 1.99456 68.6157 -10.5861 83.1942" stroke="#99A1B7" stroke-opacity="0.6"/>
<path d="M111.04 81.8671C109.582 86.1507 103.232 94.599 89.4959 94.1238C72.3257 93.5299 61.5808 80.5712 45.3825 77.3316C33.4269 74.9405 3.48284 75.2798 -9.09785 89.8583" stroke="#99A1B7" stroke-opacity="0.6"/>
<path d="M111.983 88.6288C110.525 92.9124 104.175 101.361 90.4393 100.886C73.2691 100.292 62.5242 87.333 46.3259 84.0933C34.3703 81.7022 4.4262 82.0415 -8.15449 96.62" stroke="#99A1B7" stroke-opacity="0.6"/>
<path d="M112.395 95.4433C110.937 99.7268 104.588 108.175 90.8514 107.7C73.6812 107.106 62.9363 94.1474 46.738 90.9078C34.7824 88.5166 4.83831 88.856 -7.74238 103.434" stroke="#99A1B7" stroke-opacity="0.6"/>
<path d="M112.296 102.273C110.838 106.557 104.488 115.005 90.7518 114.53C73.5816 113.936 62.8367 100.977 46.6384 97.7378C34.6828 95.3467 4.7387 95.686 -7.84199 110.265" stroke="#99A1B7" stroke-opacity="0.6"/>
<path d="M111.71 109.076C110.252 113.36 103.902 121.808 90.1658 121.333C72.9956 120.739 62.2507 107.78 46.0524 104.541C34.0968 102.149 4.15277 102.489 -8.42793 117.067" stroke="#99A1B7" stroke-opacity="0.6"/>
<path d="M110.672 115.822C109.215 120.106 102.865 128.554 89.1287 128.079C71.9585 127.485 61.2136 114.526 45.0153 111.287C33.0597 108.896 3.11566 109.235 -9.46504 123.813" stroke="#99A1B7" stroke-opacity="0.6"/>
</g>
</g>
<g clip-path="url(#clip0_380_12948)">
<path d="M40 80.2416C40 84.5216 41.9405 88.6986 44.3243 92.1548C48.0294 97.5265 54.6145 99.5664 61.0875 99.5664H138.277C142.762 99.5664 145.733 93.154 145.88 88.6168C146.098 81.8722 149.909 74.2314 148.797 62.8819C147.065 45.1947 135.284 39.7903 122.984 33.0761C110.684 26.3614 118.653 16.5353 97.5169 10.6396C76.3812 4.74391 54.0327 24.2325 54.7257 42.4106C55.4187 60.5889 40 63.2093 40 80.2416Z" fill="#E9F0F5"/>
<path d="M86.0116 51.6529C88.0571 61.4638 94.4875 75.153 107.706 83.858C120.513 92.9535 135.777 93.4188 144.848 89.0345C154.294 84.7787 157.548 75.6741 154.976 68.5931C152.384 61.187 146.383 56.1552 140.682 52.9145C134.754 49.6259 129.128 48.128 122.02 46.6856C115.1 45.2878 107.79 43.094 102.005 40.0445C96.1347 37.2252 91.7888 33.5498 88.8437 34.5133C86.1741 35.3038 83.9002 41.5393 86.0116 51.6529Z" fill="#F3FAFF"/>
<path d="M100.472 65.4689C99.0613 55.5465 93.5243 41.4709 80.8926 31.9315C68.6972 22.0287 53.4946 20.58 44.16 24.3697C34.4598 28.0075 30.6275 36.8833 32.7393 44.1152C34.85 51.6733 40.5155 57.0816 45.9951 60.6831C51.6993 64.3471 57.2175 66.2047 64.2186 68.1029C71.0344 69.9442 78.1877 72.6048 83.7652 76.0211C89.4418 79.2131 93.5424 83.1612 96.5435 82.3896C99.2581 81.7733 101.928 75.6975 100.472 65.4689Z" fill="#E7F5FE"/>
<path d="M103.507 85.7212H85.2485V95.1664H103.507V85.7212Z" fill="#678FAB"/>
<path opacity="0.3" d="M103.507 91.8509L85.2485 89.8161V85.7212H103.507V91.8509Z" fill="#00365A"/>
<path d="M129.641 93.5083H58.6131C57.1173 93.5083 55.9044 94.7231 55.9044 96.2213H132.35C132.35 94.7227 131.137 93.5083 129.641 93.5083Z" fill="#F3FAFF"/>
<path d="M148.133 23.0036V83.3714C148.133 85.8324 146.138 87.8306 143.681 87.8306H48.1965C46.1168 87.8306 44.369 86.3969 43.8808 84.4619C43.792 84.112 43.7463 83.7474 43.7463 83.3714V23.0036C43.7463 20.5404 45.7413 18.5444 48.1961 18.5444H143.681C146.138 18.5444 148.133 20.5404 148.133 23.0036Z" fill="#678FAB"/>
<path d="M141.987 21.0825H49.8914C47.8968 21.0825 46.2798 22.7021 46.2798 24.6999V81.674C46.2798 83.6718 47.8968 85.2914 49.8914 85.2914H141.987C143.982 85.2914 145.599 83.6718 145.599 81.674V24.6999C145.599 22.7021 143.982 21.0825 141.987 21.0825Z" fill="#E7F5FE"/>
<path d="M141.987 21.0825H49.8914C47.8968 21.0825 46.2798 22.7021 46.2798 24.6999V81.674C46.2798 83.6718 47.8968 85.2914 49.8914 85.2914H141.987C143.982 85.2914 145.599 83.6718 145.599 81.674V24.6999C145.599 22.7021 143.982 21.0825 141.987 21.0825Z" fill="#F5FAF7"/>
<path d="M141.987 23.2544H101.523V83.1189H141.987C142.783 83.1189 143.43 82.4706 143.43 81.6739V24.6998C143.43 23.9027 142.783 23.2544 141.987 23.2544Z" fill="white"/>
<path d="M45.5976 96.5187H146.282C146.557 96.5187 146.78 96.295 146.78 96.0194C146.78 95.7437 146.557 95.5201 146.282 95.5201H45.5976C45.3224 95.5201 45.0991 95.7437 45.0991 96.0194C45.0991 96.2954 45.322 96.5187 45.5976 96.5187ZM110.487 33.9902C109.079 33.9902 107.938 35.1331 107.938 36.5434C107.938 37.9538 109.079 39.0966 110.487 39.0966C111.895 39.0966 113.036 37.9538 113.036 36.5434C113.036 35.1334 111.895 33.9902 110.487 33.9902ZM110.487 38.6771C109.31 38.6771 108.354 37.7224 108.354 36.5438C108.354 35.3652 109.31 34.4105 110.487 34.4105C111.664 34.4105 112.617 35.3652 112.617 36.5438C112.617 37.7224 111.664 38.6771 110.487 38.6771ZM122.705 34.5829H115.997C115.832 34.5829 115.679 34.6958 115.653 34.8589C115.619 35.0666 115.779 35.2464 115.98 35.2464H122.705C122.888 35.2464 123.036 35.0976 123.036 34.9146C123.036 34.7316 122.888 34.5829 122.705 34.5829ZM135.514 34.5829H123.817C123.634 34.5829 123.486 34.7316 123.486 34.9146C123.486 35.098 123.635 35.2464 123.817 35.2464H135.532C135.733 35.2464 135.893 35.0666 135.859 34.8589C135.832 34.6958 135.679 34.5829 135.514 34.5829ZM125.596 36.2117H115.998C115.833 36.2117 115.68 36.3246 115.653 36.4877C115.619 36.6955 115.779 36.8752 115.98 36.8752H125.597C125.78 36.8752 125.928 36.7265 125.928 36.5434C125.927 36.3604 125.779 36.2117 125.596 36.2117ZM125.596 37.8409H115.998C115.833 37.8409 115.68 37.9538 115.653 38.1169C115.619 38.3247 115.779 38.5047 115.98 38.5047H125.597C125.78 38.5047 125.928 38.356 125.928 38.173C125.927 37.9892 125.779 37.8409 125.596 37.8409ZM135.514 36.2117H126.708C126.526 36.2117 126.377 36.3604 126.377 36.5434C126.377 36.7268 126.526 36.8752 126.708 36.8752H135.532C135.733 36.8752 135.892 36.6955 135.859 36.4877C135.832 36.325 135.679 36.2117 135.514 36.2117Z" fill="#E6EAEC"/>
<path d="M110.45 37.817C110.409 37.817 110.367 37.813 110.326 37.8045C110.166 37.7713 110.025 37.675 109.937 37.5369L109.034 36.138C108.851 35.8543 108.933 35.4753 109.216 35.2919C109.5 35.1077 109.878 35.19 110.061 35.4738L110.626 36.3502L113.544 34.3941C113.824 34.2051 114.204 34.2808 114.392 34.5623C114.579 34.8428 114.504 35.2229 114.224 35.4111L110.79 37.7133C110.689 37.7816 110.57 37.817 110.45 37.817Z" fill="#002E43"/>
<path d="M130.765 45.185C130.765 46.5954 131.906 47.7382 133.314 47.7382C134.722 47.7382 135.863 46.5954 135.863 45.185C135.863 43.7747 134.722 42.6318 133.314 42.6318C131.906 42.6318 130.765 43.7747 130.765 45.185ZM131.185 45.185C131.185 44.0064 132.138 43.0518 133.314 43.0518C134.491 43.0518 135.447 44.0064 135.447 45.185C135.447 46.3637 134.491 47.3183 133.314 47.3183C132.138 47.3183 131.185 46.3637 131.185 45.185ZM121.096 43.2245H127.804C127.969 43.2245 128.122 43.3374 128.148 43.5005C128.182 43.7082 128.023 43.888 127.822 43.888H121.096C120.913 43.888 120.765 43.7392 120.765 43.5562C120.765 43.3728 120.914 43.2245 121.096 43.2245ZM108.287 43.2245H119.984C120.167 43.2245 120.315 43.3732 120.315 43.5562C120.315 43.7396 120.167 43.888 119.984 43.888H108.269C108.068 43.888 107.908 43.7082 107.942 43.5005C107.969 43.3374 108.122 43.2245 108.287 43.2245ZM118.205 44.8533H127.804C127.969 44.8533 128.121 44.9662 128.148 45.1293C128.182 45.3371 128.022 45.5168 127.821 45.5168H118.205C118.022 45.5168 117.873 45.3681 117.873 45.185C117.874 45.002 118.022 44.8533 118.205 44.8533ZM118.205 46.4821H127.804C127.969 46.4821 128.121 46.595 128.148 46.7581C128.182 46.9659 128.022 47.146 127.821 47.146H118.205C118.022 47.146 117.873 46.9973 117.873 46.8142C117.874 46.6308 118.022 46.4821 118.205 46.4821ZM108.287 44.8533H117.093C117.276 44.8533 117.424 45.002 117.424 45.185C117.424 45.3684 117.276 45.5168 117.093 45.5168H108.269C108.068 45.5168 107.908 45.3371 107.942 45.1293C107.969 44.9662 108.122 44.8533 108.287 44.8533Z" fill="#E6EAEC"/>
<path d="M133.599 46.1588C133.557 46.1588 133.516 46.1548 133.475 46.1463C133.315 46.1131 133.174 46.0168 133.085 45.8787L132.183 44.4798C132 44.196 132.081 43.8171 132.365 43.6337C132.649 43.4495 133.027 43.5318 133.21 43.8156L133.775 44.692L136.693 42.7359C136.973 42.5469 137.352 42.6226 137.54 42.9041C137.728 43.1846 137.653 43.5647 137.372 43.7529L133.939 46.0551C133.837 46.1234 133.719 46.1588 133.599 46.1588Z" fill="#002E43"/>
<path opacity="0.1" d="M126.23 51.7354H99.0592C98.3279 51.7354 97.7351 52.3298 97.7362 53.0623L97.7532 66.6438C97.7539 67.3752 98.3463 67.9675 99.0762 67.9675H122.059L124.806 68.9088L125.381 67.9675H126.231C128.026 67.9675 129.481 66.5099 129.481 64.7117V54.9915C129.481 53.1933 128.026 51.7354 126.23 51.7354Z" fill="#00365A"/>
<path d="M124.806 66.667V68.9091L120.21 66.9371L124.806 66.667Z" fill="white"/>
<path d="M99.6135 51.2529H125.654C127.45 51.2529 128.905 52.7105 128.905 54.5087V64.2281C128.905 66.0263 127.45 67.4839 125.654 67.4839H99.6135C97.8182 67.4839 96.3629 66.0263 96.3629 64.2281V54.5087C96.3629 52.7105 97.8182 51.2529 99.6135 51.2529Z" fill="white"/>
<path d="M101.071 58.9121C100.105 58.9121 99.3218 59.6963 99.3218 60.6638C99.3218 61.6314 100.105 62.4155 101.071 62.4155C102.037 62.4155 102.82 61.6314 102.82 60.6638C102.82 59.6963 102.037 58.9121 101.071 58.9121ZM101.071 62.1269C100.263 62.1269 99.6077 61.4719 99.6077 60.6634C99.6077 59.8549 100.263 59.1999 101.071 59.1999C101.878 59.1999 102.532 59.8549 102.532 60.6634C102.532 61.4719 101.878 62.1269 101.071 62.1269Z" fill="#2E5465"/>
<path d="M101.3 60.6643C101.3 60.7917 101.197 60.8946 101.07 60.8946C100.943 60.8946 100.84 60.7917 100.84 60.6643C100.84 60.537 100.943 60.4341 101.07 60.4341C101.197 60.4341 101.3 60.537 101.3 60.6643Z" fill="#678FAB"/>
<path d="M101.07 59.4233C100.988 59.4233 100.922 59.4894 100.922 59.5713V60.5983C100.922 60.6798 100.988 60.7462 101.07 60.7462C101.151 60.7462 101.218 60.6802 101.218 60.5983V59.5713C101.218 59.4894 101.151 59.4233 101.07 59.4233Z" fill="#2E5465"/>
<path d="M101.933 59.8464C101.876 59.7888 101.782 59.7888 101.724 59.8464L100.999 60.5726C100.942 60.6302 100.942 60.7239 100.999 60.7818C101.057 60.8394 101.15 60.8394 101.208 60.7818L101.933 60.0556C101.99 59.9977 101.99 59.904 101.933 59.8464Z" fill="#2E5465"/>
<path d="M109.452 59.3184H104.851C104.738 59.3184 104.633 59.3959 104.615 59.5077C104.592 59.6505 104.701 59.7734 104.839 59.7734H109.453C109.578 59.7734 109.68 59.6715 109.68 59.5457C109.679 59.4202 109.578 59.3184 109.452 59.3184ZM118.24 59.3184H110.215C110.09 59.3184 109.988 59.4202 109.988 59.546C109.988 59.6719 110.09 59.7737 110.215 59.7737H118.252C118.39 59.7737 118.499 59.6505 118.476 59.508C118.458 59.3958 118.353 59.3184 118.24 59.3184ZM111.436 60.4357H104.851C104.738 60.4357 104.633 60.5132 104.614 60.625C104.591 60.7675 104.701 60.8911 104.838 60.8911H111.435C111.561 60.8911 111.663 60.7892 111.663 60.6634C111.663 60.5379 111.561 60.4357 111.436 60.4357ZM111.436 61.5535H104.851C104.738 61.5535 104.633 61.631 104.614 61.7428C104.591 61.8856 104.701 62.0088 104.838 62.0088H111.435C111.561 62.0088 111.663 61.907 111.663 61.7811C111.663 61.6553 111.561 61.5535 111.436 61.5535ZM118.24 60.4357H112.199C112.073 60.4357 111.972 60.5376 111.972 60.6634C111.972 60.7892 112.073 60.8911 112.199 60.8911H118.252C118.39 60.8911 118.499 60.7678 118.476 60.625C118.458 60.5132 118.353 60.4357 118.24 60.4357Z" fill="#E6EAEC"/>
<path d="M96.9382 56.2135V54.509C96.9382 53.0315 98.1382 51.8296 99.613 51.8296H125.654C127.128 51.8296 128.328 53.0315 128.328 54.509V56.2135H96.9382Z" fill="#002E43"/>
<path d="M125.813 57.9629H121.609C120.836 57.9629 120.21 58.5902 120.21 59.364V63.5472C120.21 64.321 120.836 64.9483 121.609 64.9483H125.813C126.586 64.9483 127.212 64.321 127.212 63.5472V59.364C127.212 58.5902 126.586 57.9629 125.813 57.9629Z" fill="#E7F5FE"/>
<path d="M126.965 60.0977V59.3641C126.965 58.7283 126.448 58.2109 125.813 58.2109H121.609C120.974 58.2109 120.457 58.7283 120.457 59.3641V60.0977H126.965Z" fill="#C2CDD2"/>
<path d="M122.508 59.3919L122.456 59.5532H122.284L122.508 58.931H122.706L122.93 59.5532H122.753L122.701 59.3919H122.508ZM122.548 59.2657H122.663L122.606 59.0746L122.548 59.2657ZM123.541 59.1333C123.541 59.2558 123.459 59.32 123.369 59.3307C123.336 59.3344 123.31 59.3351 123.272 59.3351H123.2V59.5532H123.037V58.931H123.271C123.31 58.931 123.335 58.9318 123.369 58.9355C123.459 58.9465 123.541 59.0104 123.541 59.1333ZM123.372 59.1333C123.372 59.0864 123.348 59.062 123.306 59.0583C123.295 59.0576 123.28 59.0576 123.263 59.0576H123.2V59.2093H123.263C123.28 59.2093 123.295 59.2093 123.306 59.2085C123.348 59.2045 123.372 59.1801 123.372 59.1333ZM124.198 59.5532H124.022C124.007 59.5089 123.998 59.4731 123.993 59.4288C123.985 59.3602 123.958 59.3207 123.916 59.3178C123.898 59.3167 123.883 59.3166 123.865 59.3166H123.829V59.5528H123.667V58.9307H123.913C123.952 58.9307 123.977 58.9314 124.01 58.9351C124.1 58.9458 124.179 58.9901 124.179 59.1C124.179 59.1786 124.136 59.2307 124.054 59.255C124.118 59.2786 124.142 59.3262 124.151 59.4012C124.159 59.4724 124.174 59.5163 124.198 59.5532ZM123.887 59.2C123.904 59.2 123.919 59.2 123.931 59.1993C123.972 59.1956 124.01 59.1812 124.01 59.1292C124.01 59.0772 123.977 59.0624 123.935 59.0587C123.923 59.058 123.909 59.058 123.892 59.058H123.829V59.2004H123.887V59.2ZM124.33 59.5532V58.931H124.492V59.5532H124.33ZM125.139 59.5532H124.663V58.931H124.825V59.4163H125.139V59.5532H125.139Z" fill="white"/>
<path d="M123.374 62.8844V63.3663H121.536V63.0981L122.282 62.3962C122.636 62.0623 122.756 61.8973 122.756 61.6704C122.756 61.4914 122.657 61.3918 122.488 61.3918C122.31 61.3918 122.22 61.5054 122.196 61.753L122.193 61.7873H121.575L121.578 61.753C121.629 61.2301 121.959 60.9375 122.54 60.9375C123.093 60.9375 123.402 61.2024 123.402 61.6464C123.402 61.925 123.275 62.1386 122.818 62.5789L122.502 62.8851H123.374V62.8844ZM125.885 62.6608C125.885 63.115 125.514 63.4143 124.917 63.4143C124.315 63.4143 123.965 63.1217 123.917 62.6471L123.913 62.6128H124.532L124.539 62.6471C124.573 62.8125 124.69 62.9604 124.893 62.9604C125.106 62.9604 125.24 62.8401 125.24 62.6781C125.24 62.4752 125.092 62.3718 124.845 62.3615L124.752 62.3582V61.9589L124.845 61.9519C125.071 61.9346 125.185 61.811 125.185 61.649C125.185 61.494 125.092 61.3977 124.92 61.3977C124.738 61.3977 124.663 61.5456 124.649 61.7006L124.645 61.7349H124.027L124.03 61.7006C124.071 61.3013 124.367 60.9434 124.982 60.9434C125.562 60.9434 125.83 61.2394 125.83 61.5766C125.83 61.8552 125.689 62.0412 125.38 62.1169C125.717 62.1822 125.885 62.3545 125.885 62.6608Z" fill="#C2CDD2"/>
<path d="M102.884 54.5288C102.688 54.5288 102.524 54.5124 102.393 54.4797C102.262 54.4471 102.164 54.3973 102.098 54.3305C102.033 54.2637 102 54.1784 102 54.0746C102 54.0405 102.003 54.0036 102.009 53.9638C102.017 53.924 102.026 53.8856 102.036 53.8486C102.046 53.8102 102.055 53.7775 102.063 53.7505C102.07 53.7221 102.075 53.7029 102.077 53.693L102.304 53.7228C102.298 53.7456 102.289 53.7768 102.277 53.8166C102.267 53.8564 102.257 53.8991 102.247 53.9446C102.237 53.99 102.232 54.0334 102.232 54.0746C102.232 54.1272 102.243 54.1727 102.265 54.2111C102.289 54.2495 102.325 54.2814 102.375 54.307C102.427 54.3312 102.494 54.349 102.577 54.3603C102.661 54.3717 102.763 54.3774 102.884 54.3774H104.581L104.426 54.4733V53.5416L104.548 53.6141H104.042C103.927 53.6141 103.838 53.624 103.774 53.6439C103.713 53.6638 103.67 53.7015 103.646 53.7569C103.622 53.8109 103.61 53.8905 103.61 53.9957C103.61 54.1009 103.622 54.1812 103.646 54.2367C103.67 54.2907 103.713 54.3276 103.774 54.3475C103.838 54.3674 103.927 54.3774 104.042 54.3774V54.4861C103.869 54.4861 103.734 54.4712 103.637 54.4414C103.542 54.4101 103.475 54.3589 103.435 54.2878C103.397 54.2154 103.378 54.118 103.378 53.9957C103.378 53.8735 103.397 53.7733 103.435 53.6951C103.475 53.6155 103.542 53.5572 103.637 53.5203C103.734 53.4819 103.869 53.4627 104.042 53.4627H104.658V54.5288H102.884ZM103.971 53.2708V53.0789H104.203V53.2708H103.971Z" fill="white"/>
<path d="M105.201 54.5288V53H105.43V54.5288H105.201Z" fill="white"/>
<path d="M108.724 54.5288V54.3774H109.045V54.5288H108.724ZM109.045 54.5288V54.3774C109.057 54.3774 109.067 54.3795 109.075 54.3838C109.083 54.3866 109.089 54.3916 109.093 54.3987C109.097 54.4044 109.1 54.4122 109.102 54.4222C109.104 54.4307 109.105 54.4407 109.105 54.452C109.105 54.4634 109.104 54.4741 109.102 54.484C109.1 54.494 109.097 54.5025 109.093 54.5096C109.089 54.5153 109.083 54.5203 109.075 54.5245C109.067 54.5274 109.057 54.5288 109.045 54.5288ZM105.741 55C105.715 55 105.689 54.9986 105.661 54.9957C105.631 54.9943 105.602 54.9929 105.574 54.9915L105.601 54.8401C105.629 54.8415 105.655 54.8429 105.679 54.8443C105.702 54.8472 105.723 54.8486 105.741 54.8486C105.834 54.8486 105.91 54.823 105.967 54.7719C106.025 54.7221 106.054 54.6525 106.054 54.5629V53.4627H106.286V54.5629C106.286 54.6496 106.262 54.7257 106.214 54.791C106.169 54.8579 106.105 54.909 106.024 54.9446C105.943 54.9815 105.848 55 105.741 55ZM107.161 54.5288V54.3774H108.706L108.492 54.516V54.0149C108.492 53.9254 108.475 53.8515 108.441 53.7932C108.407 53.7335 108.356 53.6887 108.286 53.6588C108.219 53.629 108.132 53.6141 108.027 53.6141C107.942 53.6141 107.862 53.6247 107.786 53.6461C107.711 53.666 107.641 53.693 107.578 53.7271C107.514 53.7598 107.455 53.7967 107.399 53.838C107.346 53.8778 107.296 53.9183 107.25 53.9595C107.205 54.0007 107.163 54.0384 107.125 54.0725L107.051 53.9211C107.101 53.877 107.15 53.833 107.2 53.7889C107.251 53.7448 107.305 53.7036 107.361 53.6652C107.416 53.6254 107.477 53.5906 107.542 53.5608C107.61 53.5309 107.683 53.5075 107.762 53.4904C107.842 53.4719 107.931 53.4627 108.03 53.4627C108.171 53.4627 108.286 53.4797 108.376 53.5139C108.467 53.548 108.537 53.5935 108.587 53.6503C108.639 53.7058 108.674 53.7655 108.694 53.8294C108.714 53.8934 108.724 53.9552 108.724 54.0149V54.5288H107.161ZM106.286 53.8252V53.6716H106.929V53.8252H106.286ZM106.929 54.5288V53.4627H107.161V54.5288H106.929Z" fill="white"/>
<path d="M109.046 54.5288V54.3774H109.474L109.367 54.4392V53.4627H109.599V54.5288H109.046ZM109.046 54.5288C109.034 54.5288 109.024 54.5274 109.016 54.5245C109.008 54.5203 109.002 54.5153 108.998 54.5096C108.994 54.5025 108.991 54.494 108.989 54.484C108.987 54.4741 108.986 54.4634 108.986 54.452C108.986 54.4364 108.988 54.4236 108.992 54.4136C108.994 54.4023 109 54.3937 109.01 54.3881C109.018 54.381 109.03 54.3774 109.046 54.3774V54.5288ZM109.367 53.2708V53.0789H109.599V53.2708H109.367Z" fill="white"/>
<path d="M109.958 54.5288V54.3774H111.414L111.283 54.4733V53H111.515V54.5288H109.958ZM110.435 54.3774V53.3028H110.664V54.3774H110.435Z" fill="white"/>
<path d="M112.041 54.5288V53H112.27V54.5288H112.041Z" fill="white"/>
<path d="M113.248 55C113.179 55 113.104 54.9957 113.025 54.9872C112.948 54.9801 112.862 54.9694 112.769 54.9552L112.805 54.8209C112.91 54.8308 112.997 54.838 113.067 54.8422C113.138 54.8465 113.199 54.8486 113.248 54.8486C113.413 54.8486 113.533 54.8259 113.608 54.7804C113.684 54.7363 113.721 54.6716 113.721 54.5864V53.5586L113.841 53.6141H113.337C113.222 53.6141 113.133 53.624 113.07 53.6439C113.008 53.6638 112.965 53.7015 112.942 53.7569C112.918 53.8109 112.906 53.8905 112.906 53.9957C112.906 54.1009 112.918 54.1812 112.942 54.2367C112.965 54.2907 113.008 54.3276 113.07 54.3475C113.133 54.3674 113.222 54.3774 113.337 54.3774H113.721V54.5288H113.337C113.165 54.5288 113.03 54.5103 112.933 54.4733C112.837 54.435 112.77 54.3767 112.73 54.2985C112.693 54.2189 112.674 54.118 112.674 53.9957C112.674 53.8735 112.693 53.7733 112.73 53.6951C112.77 53.6155 112.837 53.5572 112.933 53.5203C113.03 53.4819 113.165 53.4627 113.337 53.4627H113.954V54.5842C113.954 54.6724 113.925 54.7477 113.867 54.8102C113.812 54.8728 113.731 54.9197 113.626 54.951C113.521 54.9837 113.395 55 113.248 55Z" fill="white"/>
<path d="M114.858 55C114.832 55 114.805 54.9986 114.777 54.9957C114.747 54.9943 114.719 54.9929 114.691 54.9915L114.718 54.8401C114.745 54.8415 114.771 54.8429 114.795 54.8443C114.819 54.8472 114.84 54.8486 114.858 54.8486C114.951 54.8486 115.026 54.823 115.084 54.7719C115.141 54.7221 115.17 54.6525 115.17 54.5629V53.4627H115.402V54.5629C115.402 54.6496 115.379 54.7257 115.331 54.791C115.285 54.8579 115.222 54.909 115.14 54.9446C115.059 54.9815 114.965 55 114.858 55Z" fill="white"/>
<path d="M117.012 54.5288V54.3774H117.333V54.5288H117.012ZM116.306 55C116.237 55 116.162 54.9957 116.083 54.9872C116.006 54.9801 115.92 54.9694 115.827 54.9552L115.863 54.8209C115.968 54.8308 116.055 54.838 116.125 54.8422C116.196 54.8465 116.257 54.8486 116.306 54.8486C116.471 54.8486 116.591 54.8259 116.667 54.7804C116.742 54.7363 116.78 54.6716 116.78 54.5864V53.5586L116.899 53.6141H116.396C116.281 53.6141 116.191 53.624 116.128 53.6439C116.066 53.6638 116.024 53.7015 116 53.7569C115.976 53.8109 115.964 53.8905 115.964 53.9957C115.964 54.1009 115.976 54.1812 116 54.2367C116.024 54.2907 116.066 54.3276 116.128 54.3475C116.191 54.3674 116.281 54.3774 116.396 54.3774H116.78V54.5288H116.396C116.223 54.5288 116.088 54.5103 115.991 54.4733C115.896 54.435 115.828 54.3767 115.788 54.2985C115.751 54.2189 115.732 54.118 115.732 53.9957C115.732 53.8735 115.751 53.7733 115.788 53.6951C115.828 53.6155 115.896 53.5572 115.991 53.5203C116.088 53.4819 116.223 53.4627 116.396 53.4627H117.012V54.5842C117.012 54.6724 116.983 54.7477 116.926 54.8102C116.87 54.8728 116.79 54.9197 116.684 54.951C116.579 54.9837 116.453 55 116.306 55ZM117.333 54.5288V54.3774C117.345 54.3774 117.355 54.3795 117.363 54.3838C117.371 54.3866 117.377 54.3916 117.381 54.3987C117.385 54.4044 117.388 54.4122 117.39 54.4222C117.392 54.4307 117.393 54.4407 117.393 54.452C117.393 54.4634 117.392 54.4741 117.39 54.484C117.388 54.494 117.385 54.5025 117.381 54.5096C117.377 54.5153 117.371 54.5203 117.363 54.5245C117.355 54.5274 117.345 54.5288 117.333 54.5288Z" fill="white"/>
<path d="M119.551 54.5288V54.3774H119.873V54.5288H119.551ZM117.334 54.5288C117.322 54.5288 117.312 54.5274 117.304 54.5245C117.296 54.5203 117.29 54.5153 117.286 54.5096C117.282 54.5025 117.279 54.494 117.277 54.484C117.275 54.4741 117.274 54.4634 117.274 54.452C117.274 54.4364 117.276 54.4236 117.28 54.4136C117.282 54.4023 117.288 54.3937 117.298 54.3881C117.306 54.381 117.318 54.3774 117.334 54.3774V54.5288ZM117.334 54.5288V54.3774H119.534L119.319 54.516V54.0149C119.319 53.9254 119.301 53.8515 119.266 53.7932C119.232 53.7335 119.18 53.6887 119.111 53.6588C119.043 53.629 118.958 53.6141 118.855 53.6141C118.768 53.6141 118.686 53.6247 118.611 53.6461C118.537 53.666 118.469 53.693 118.405 53.7271C118.342 53.7598 118.282 53.7967 118.227 53.838C118.173 53.8778 118.124 53.9183 118.078 53.9595C118.032 54.0007 117.991 54.0384 117.953 54.0725L117.879 53.9211C117.928 53.877 117.978 53.833 118.027 53.7889C118.079 53.7448 118.133 53.7036 118.188 53.6652C118.244 53.6254 118.304 53.5906 118.37 53.5608C118.437 53.5309 118.511 53.5075 118.59 53.4904C118.669 53.4719 118.759 53.4627 118.858 53.4627C118.999 53.4627 119.114 53.4797 119.203 53.5139C119.294 53.548 119.365 53.5935 119.415 53.6503C119.466 53.7058 119.502 53.7655 119.522 53.8294C119.542 53.8934 119.551 53.9552 119.551 54.0149V54.5288H117.334ZM117.756 54.3774V53.4627H117.989V54.3774H117.756ZM119.873 54.5288V54.3774C119.885 54.3774 119.895 54.3795 119.903 54.3838C119.911 54.3866 119.917 54.3916 119.921 54.3987C119.925 54.4044 119.928 54.4122 119.93 54.4222C119.932 54.4307 119.932 54.4407 119.932 54.452C119.932 54.4634 119.932 54.4741 119.93 54.484C119.928 54.494 119.925 54.5025 119.921 54.5096C119.917 54.5153 119.911 54.5203 119.903 54.5245C119.895 54.5274 119.885 54.5288 119.873 54.5288ZM118.569 53.2729V53.081H118.801V53.2729H118.569Z" fill="white"/>
<path d="M121.345 54.5288V54.3774H121.667V54.5288H121.345ZM119.872 54.5288C119.86 54.5288 119.85 54.5274 119.842 54.5245C119.834 54.5203 119.828 54.5153 119.824 54.5096C119.82 54.5025 119.817 54.494 119.815 54.484C119.813 54.4741 119.812 54.4634 119.812 54.452C119.812 54.4364 119.814 54.4236 119.818 54.4136C119.82 54.4023 119.826 54.3937 119.836 54.3881C119.844 54.381 119.856 54.3774 119.872 54.3774V54.5288ZM119.872 54.5288V54.3774H121.184L121.113 54.4222V53.8934C121.113 53.801 121.072 53.7321 120.991 53.6866C120.911 53.6397 120.789 53.6162 120.625 53.6162C120.573 53.6162 120.499 53.6198 120.401 53.6269C120.304 53.6326 120.202 53.6411 120.095 53.6525L120.068 53.516C120.149 53.5018 120.239 53.4897 120.336 53.4797C120.433 53.4684 120.527 53.4627 120.619 53.4627C120.77 53.4627 120.899 53.4797 121.006 53.5139C121.115 53.5466 121.198 53.5949 121.256 53.6588C121.315 53.7228 121.345 53.801 121.345 53.8934V54.5288H119.872ZM121.667 54.5288V54.3774C121.679 54.3774 121.688 54.3795 121.696 54.3838C121.704 54.3866 121.71 54.3916 121.714 54.3987C121.718 54.4044 121.721 54.4122 121.723 54.4222C121.725 54.4307 121.726 54.4407 121.726 54.452C121.726 54.4634 121.725 54.4741 121.723 54.484C121.721 54.494 121.718 54.5025 121.714 54.5096C121.71 54.5153 121.704 54.5203 121.696 54.5245C121.688 54.5274 121.679 54.5288 121.667 54.5288Z" fill="white"/>
<path d="M122.025 54.5288V53H122.258V54.5288H122.025ZM121.665 54.5288V54.3774H122.025V54.5288H121.665ZM121.665 54.5288C121.653 54.5288 121.643 54.5274 121.635 54.5245C121.628 54.5203 121.622 54.5153 121.618 54.5096C121.614 54.5025 121.611 54.494 121.609 54.484C121.607 54.4741 121.606 54.4634 121.606 54.452C121.606 54.4364 121.608 54.4236 121.612 54.4136C121.614 54.4023 121.62 54.3937 121.63 54.3881C121.637 54.381 121.649 54.3774 121.665 54.3774V54.5288Z" fill="white"/>
<path d="M122.771 54.5288V53H123V54.5288H122.771Z" fill="white"/>
<path d="M80.7218 37.7395C80.3416 40.2215 80.4661 41.7341 80.6772 42.9385C81.0453 45.0615 81.6808 46.2501 80.3081 50.1383C78.1543 56.2341 71.9722 51.7524 66.5225 57.0079C60.5275 62.7962 54.8454 65.1594 50.0913 65.1944C44.5034 65.2369 40.1907 62.0534 38.1349 57.4156C34.3317 48.8217 37.807 46.2061 45.3987 43.7242C52.986 41.2426 49.563 34.1664 53.5983 31.6154C57.6343 29.0692 62.5373 29.7818 64.4582 28.1563C66.3784 26.5308 72.2308 24.3045 77.5188 26.4223C81.9369 28.1851 81.7663 30.8958 80.7218 37.7395Z" fill="#001828"/>
<path opacity="0.5" d="M80.308 50.1389C78.1542 56.2346 71.9721 51.753 66.5224 57.0084C60.5274 62.7968 54.8453 65.1599 50.0912 65.195C50.1081 65.0721 50.1207 64.9496 50.1383 64.8315C50.67 60.965 51.8018 56.9302 53.5735 53.4512C55.3003 50.057 57.8774 47.3411 60.8996 45.0705C62.4208 43.9225 64.0208 42.8852 65.6039 41.8269C66.4384 41.2667 67.2891 40.728 68.1991 40.2929C69.066 39.8822 70.0412 39.597 70.7994 38.9859C72.0211 38.001 72.4076 36.4939 72.5638 35.0016C72.7001 33.6839 72.7266 32.3008 73.6384 31.327C75.8862 30.9798 75.912 34.3721 76.0476 35.8972C76.1566 37.1379 76.3585 38.3807 76.7306 39.5741C77.2026 41.0848 78.1527 42.1919 79.6717 42.693C80.0007 42.8004 80.3356 42.8834 80.6764 42.9384C81.0452 45.062 81.6811 46.2503 80.308 50.1389Z" fill="black"/>
<path d="M78.7145 47.3763L78.412 42.8345C78.412 42.8345 86.6683 44.7921 89.4134 62.5707C90.4266 69.1347 88.3936 71.7713 85.2046 72.285C82.0151 72.799 73.9843 61.4519 78.7145 47.3763Z" fill="#00365A"/>
<path d="M93.3061 38.9359C93.2961 39.0071 93.2807 39.0702 93.2641 39.1185C93.2604 39.1285 93.2575 39.1374 93.2541 39.1451C93.1712 39.3495 93.0784 39.5488 92.9863 39.7304C92.7398 40.2193 92.5011 40.5846 92.5011 40.5846C92.5011 40.5846 92.4362 43.7725 92.2752 44.1563C91.9661 44.481 90.25 44.0552 90.25 44.0552C90.0176 43.7408 90.4762 40.5662 90.4376 39.9378C90.3996 39.3086 90.621 38.5957 90.621 38.5957C90.621 38.5957 90.6645 35.3465 91.3977 35.3579C91.7237 35.3627 91.5841 37.003 91.6018 37.6329C91.6021 37.6381 91.6018 37.6432 91.6021 37.6484C91.6029 37.6469 91.8269 37.4665 92.0531 37.5997C92.164 37.6643 92.196 37.7458 92.196 37.7458C92.196 37.7458 92.3567 37.6868 92.4738 37.7222C92.5917 37.7576 92.7505 37.8761 92.7479 37.9351C92.7501 37.9351 92.8894 37.8753 93.0147 37.9661C93.1399 38.0562 93.1779 38.2853 93.1779 38.2853H93.1764C93.1926 38.3086 93.2077 38.3318 93.221 38.3558C93.3216 38.5396 93.33 38.7628 93.3061 38.9359Z" fill="#FEE1C6"/>
<path opacity="0.2" d="M93.3064 38.9355C93.2851 38.9119 93.26 38.8923 93.2291 38.8805C93.0917 38.8281 93.0029 38.9469 92.9531 39.0484C92.924 39.1078 92.9045 39.1746 92.868 39.2303C92.8374 39.2794 92.7829 39.3193 92.7328 39.3488C92.3066 39.6086 91.4654 39.3883 91.4588 38.8351C91.4559 38.6085 91.4736 38.3731 91.503 38.1502C91.5277 37.9639 91.541 37.8237 91.6025 37.648C91.6032 37.6465 91.8272 37.4661 92.0534 37.5993C92.1643 37.6639 92.1964 37.7454 92.1964 37.7454C92.1964 37.7454 92.357 37.6864 92.4742 37.7218C92.5921 37.7572 92.7509 37.8757 92.7483 37.9347C92.7505 37.9347 92.8898 37.8749 93.015 37.9657C93.1403 38.0558 93.1782 38.2849 93.1782 38.2849H93.1768C93.193 38.3082 93.2081 38.3314 93.2213 38.3554C93.3219 38.5392 93.3304 38.7624 93.3064 38.9355Z" fill="white"/>
<path opacity="0.1" d="M92.9974 38.9382C92.8721 39.4969 92.5678 39.6194 92.4329 39.646C92.073 39.5585 91.7396 39.4161 91.5819 39.2663C91.4717 39.1618 91.436 38.9227 91.4408 38.6519C91.4378 38.6666 91.4349 38.6814 91.4319 38.6965C91.3877 38.9452 91.3505 39.2323 91.4629 39.4688C91.5738 39.7024 91.8203 39.8083 92.0671 39.8179C92.2653 39.8257 92.4639 39.7836 92.6536 39.7198H92.654C92.6544 39.7198 92.6547 39.7194 92.6551 39.719C92.6728 39.7131 92.6905 39.7072 92.7081 39.701C92.7034 39.7002 92.6986 39.6995 92.6938 39.6984C92.9885 39.5275 92.9974 38.9382 92.9974 38.9382Z" fill="#074B71"/>
<path d="M92.4246 39.5826C92.4979 39.4162 92.5429 39.2797 92.5889 39.1055C92.6346 38.9276 92.6659 38.7435 92.6545 38.5605C92.653 38.7439 92.6096 38.9225 92.5525 39.0948C92.4942 39.2664 92.3436 39.5815 92.3436 39.5815C92.2817 39.5804 92.0772 39.5052 91.9906 39.4679C91.9862 39.466 91.9821 39.4642 91.9777 39.4623C92.0378 39.2871 92.0908 39.1111 92.1358 38.9321C92.1803 38.7513 92.2198 38.5671 92.2271 38.3808C92.2072 38.566 92.1557 38.7454 92.0993 38.9217C92.0429 39.0944 91.9785 39.2649 91.9085 39.4317C91.8502 39.4052 91.7928 39.3778 91.7397 39.3439C91.5935 39.2502 91.5282 39.1734 91.4822 38.897C91.4667 38.8044 91.4638 38.7092 91.4619 38.614C91.4579 38.5188 91.4601 38.4236 91.4623 38.3276C91.4266 38.5162 91.4115 38.7088 91.4243 38.9029C91.4313 39 91.4461 39.0981 91.4877 39.1926C91.4999 39.2155 91.5095 39.2398 91.5271 39.2605L91.5518 39.2922L91.5798 39.3188C91.5982 39.3373 91.6178 39.3528 91.6384 39.3671C91.6583 39.3826 91.6789 39.3967 91.7003 39.4088C91.8701 39.51 92.0536 39.5734 92.2393 39.6229C92.425 39.6719 92.6059 39.662 92.7724 39.4343C92.6645 39.5631 92.464 39.5941 92.4246 39.5826Z" fill="#B2D4EA"/>
<path opacity="0.1" d="M92.484 40.5531C92.2471 40.7406 91.7589 40.7137 91.3161 40.6435C90.9793 40.5904 90.7089 40.3897 90.517 40.1908C90.5409 40.2483 90.5667 40.3059 90.5973 40.3616C90.6769 40.507 90.9893 41.1561 91.4314 41.1856C92.1225 41.2318 92.3447 40.6469 92.4803 40.5808C92.4814 40.5716 92.4828 40.5624 92.484 40.5531ZM91.3809 38.4708C91.3809 38.4708 91.4509 38.6645 91.28 38.7232C91.109 38.7815 90.8449 38.5435 90.7763 39.0269C90.7078 39.5099 90.4853 40.066 90.4333 39.6712C90.3817 39.2764 90.3162 38.573 90.5866 38.469C90.8574 38.3642 91.3809 38.4708 91.3809 38.4708Z" fill="#074B71"/>
<path d="M90.438 39.9376C90.438 39.9376 89.9325 38.9815 89.92 38.6553C89.9074 38.3291 90.3035 37.9287 90.547 37.8988C90.7721 37.8715 91.2618 38.1593 91.3568 38.3065C91.4519 38.4538 91.534 38.6615 91.0801 38.6302C90.6259 38.5988 90.6001 38.7198 90.6001 38.7198L90.438 39.9376Z" fill="#FEE1C6"/>
<path opacity="0.2" d="M91.0658 38.3301C91.0658 38.3301 91.3123 38.512 91.3683 38.4917C91.4243 38.4714 91.3244 38.2688 91.2305 38.2316C91.1365 38.1943 91.0658 38.3301 91.0658 38.3301Z" fill="white"/>
<path d="M89.9901 42.2012C89.9897 42.5795 85.4806 59.03 85.229 60.233C82.9182 71.2783 89.5782 71.5809 89.5782 71.5809C89.6762 71.548 89.7734 71.5137 89.8622 71.4691C97.0306 67.8845 92.779 42.0721 92.779 42.0721C92.779 42.0721 89.9978 41.8104 89.9901 42.2012Z" fill="#00365A"/>
<g opacity="0.1">
<path d="M91.0979 67.9872C90.4834 67.8699 89.9569 67.5282 89.7263 66.9281C89.4894 66.3123 89.5362 65.6126 89.615 64.9705C89.7079 64.2148 89.874 63.4701 89.9882 62.7177C90.0833 62.0893 90.1887 61.3823 89.9746 60.7664C89.6172 59.7383 88.9463 58.8578 88.3554 57.9574C87.7353 57.012 87.2026 56.0301 87.0331 54.8976C86.9764 54.5182 86.9502 54.1367 86.9384 53.7544C86.0686 56.9917 85.327 59.7652 85.229 60.2328C82.9182 71.2781 89.5782 71.5806 89.5782 71.5806C89.6762 71.5478 89.7734 71.5135 89.8622 71.4688C91.081 70.8592 91.9692 69.6061 92.6048 67.9477C92.1133 68.0673 91.5957 68.0824 91.0979 67.9872Z" fill="#00365A"/>
</g>
<path d="M59.2438 83.2761H85.8217C83.7169 70.3909 86.7796 43.8888 75.1813 41.4651C69.0394 40.1817 57.6614 48.6177 60.3166 59.8545C61.045 67.6849 62.1886 75.4161 59.2438 83.2761Z" fill="#00365A"/>
<path d="M80.8533 63.268C80.8533 63.5765 80.8688 63.9005 80.8843 64.2086C80.8688 64.2241 80.8843 64.2241 80.8843 64.2241C80.9101 65.2404 80.9532 66.3013 81.0077 67.3404C81.0217 67.7364 81.0265 68.1161 81.0692 68.4976C81.095 69.2597 81.1381 70.1084 81.1768 70.8733C81.4395 76.8189 82.2032 79.6289 83.0569 83.2762H88.3857C86.7344 40.8627 79.0164 43.3882 78.1491 42.8081C77.9981 47.0267 80.612 57.2723 80.8533 63.2374C80.8382 63.2525 80.8382 63.2525 80.8533 63.268Z" fill="#00365A"/>
<path d="M70.2847 83.0237C70.7309 81.0827 73.1772 79.4539 73.2925 75.6018C73.308 75.5863 73.308 75.5708 73.2925 75.5553C73.3161 75.1708 73.3058 74.7232 73.308 74.3364C73.308 74.3213 73.308 74.3213 73.2925 74.3062C73.2567 67.5436 72.3239 60.6896 71.1361 54.0662C71.121 54.0507 71.121 54.0507 71.121 54.0507C70.4822 51.3798 70.0305 42.405 70.5794 41.9526C69.4524 42.8807 67.3613 46.1129 66.427 47.1458C66.9299 48.3251 68.5332 50.6012 69.0571 51.8289L64.8059 60.2985C70.8414 69.157 70.2847 83.0237 70.2847 83.0237ZM79.3287 52.2204C79.8331 57.7213 76.6599 72.0689 79.9278 82.9326C79.9278 82.9326 80.4914 69.157 82.8409 60.5575L79.4879 53.2917C82.4422 51.8056 81.5495 48.3258 81.9058 47.1465C80.8429 46.1136 78.5344 42.6567 77.1712 42.2132C78.4014 42.6132 78.7503 45.9099 79.3287 52.2204Z" fill="#00365A"/>
<path d="M70.2842 42.588C70.0908 43.4471 71.0303 47.2099 73.2437 48.942C74.143 49.6904 75.1529 50.1199 76.1351 49.9535C79.4137 49.4269 77.8505 44.0087 77.2835 42.429C77.2695 42.3736 77.2418 42.3179 77.2282 42.2766C76.7025 40.9326 76.8963 36.3321 76.8963 36.3321L73.5344 35.6255C73.5344 35.6255 73.7418 36.4292 72.8841 38.7433C72.0121 41.0574 70.5745 41.3828 70.2842 42.588Z" fill="#00365A"/>
<path opacity="0.5" d="M73.2438 48.9419C74.1431 49.6902 75.1529 50.1198 76.1351 49.9533C79.4137 49.4267 77.8505 44.0085 77.2835 42.4288C77.2695 42.3734 77.2419 42.3177 77.2282 42.2764C76.7025 40.9324 76.8963 36.332 76.8963 36.332L73.7419 35.6807C73.8528 35.7637 73.9217 35.9024 73.9357 36.0825C74.0049 37.9254 75.5958 39.214 76.2597 40.8491C76.7714 42.1103 77.1034 43.8421 76.3289 45.0753C76.1075 45.4359 74.5579 47.4038 73.2438 48.9419Z" fill="#00365A"/>
<path d="M79.2505 38.0219C78.0517 39.7009 73.6281 38.2485 73.1281 36.0842C72.9726 35.403 72.7055 34.2318 72.7055 34.2318C72.7055 34.2318 71.6419 33.7654 71.7933 32.6746C71.9201 31.8303 72.6171 32.3639 72.6171 32.3639L72.6134 31.4262L79.1809 30.6147C79.1809 30.6147 79.2837 31.0915 79.4178 31.8258C79.4826 32.2041 79.5434 32.6613 79.6112 33.1432C79.8242 34.8971 79.9177 37.0979 79.2505 38.0219Z" fill="#FEE1C6"/>
<path opacity="0.5" d="M79.6112 33.1432C78.65 33.3362 77.456 33.496 76.8378 33.4465C75.7491 33.3524 72.6289 32.1834 72.6289 32.1834L79.007 30.2476C79.406 30.7442 79.5434 32.6613 79.6112 33.1432Z" fill="#FEE1C6"/>
<path opacity="0.1" d="M75.1816 35.4723C75.1728 35.6672 75.4038 35.8362 75.6978 35.8498C75.9918 35.8635 76.2375 35.717 76.2467 35.5222C76.256 35.3277 76.025 35.1587 75.7306 35.1447C75.4366 35.131 75.1909 35.2779 75.1816 35.4723ZM78.4484 35.0952C78.4392 35.2897 78.6702 35.4587 78.9646 35.4723C79.2586 35.486 79.5043 35.3395 79.5135 35.1447C79.5228 34.9502 79.2914 34.7812 78.9974 34.7675C78.703 34.7535 78.4576 34.9004 78.4484 35.0952Z" fill="#112735"/>
<path d="M78.0937 33.3178C78.1217 33.3144 78.1468 33.2967 78.1586 33.269C78.1689 33.2451 78.4187 32.6915 79.2237 32.938C79.2671 32.951 79.3121 32.927 79.325 32.8842C79.3379 32.8414 79.3139 32.796 79.2712 32.7827C78.3221 32.4915 78.0123 33.1986 78.0093 33.2056C77.992 33.2469 78.0112 33.2945 78.0524 33.3122C78.0657 33.3178 78.0801 33.3196 78.0937 33.3178ZM76.5327 33.5215C76.5427 33.5203 76.5526 33.517 76.5618 33.5122C76.6012 33.4908 76.616 33.4414 76.5942 33.4023C76.5906 33.3953 76.2126 32.727 75.1806 33.0823C75.1382 33.0967 75.1158 33.1432 75.1305 33.1857C75.1452 33.2281 75.1906 33.251 75.2337 33.2362C76.1378 32.9244 76.4487 33.4746 76.452 33.4801C76.4679 33.5096 76.5007 33.5255 76.5327 33.5215ZM77.694 35.43C77.722 35.4267 77.7489 35.4193 77.7747 35.4082C77.9393 35.3377 77.9883 35.1363 77.9906 35.1278C77.9964 35.1027 77.9902 35.0765 77.9736 35.0569C77.631 34.6477 77.6354 34.0381 77.6354 34.0322C77.6361 33.9871 77.6 33.9502 77.5554 33.9499C77.5094 33.9488 77.4737 33.9853 77.4733 34.03C77.4729 34.0569 77.4685 34.6735 77.8211 35.1263C77.803 35.1713 77.7669 35.2355 77.7106 35.2591C77.6582 35.2809 77.589 35.268 77.5061 35.2185C77.4674 35.1957 77.4177 35.2086 77.3952 35.2473C77.3723 35.2861 77.3852 35.3359 77.4239 35.3588C77.5208 35.416 77.6114 35.4399 77.694 35.43Z" fill="#00365A"/>
<path d="M78.855 36.3555C78.855 36.3555 77.9866 36.8839 76.899 36.5289C76.7174 36.9854 78.0721 37.9529 78.855 36.3555Z" fill="#F7FAFC"/>
<path d="M78.4164 33.939C78.4466 34.1902 78.6105 34.3773 78.7822 34.3563C78.9539 34.3356 79.0685 34.1146 79.0383 33.8633C79.0081 33.612 78.8441 33.4249 78.6724 33.4459C78.5007 33.467 78.3862 33.6877 78.4164 33.939ZM75.6186 34.2777C75.6488 34.529 75.8127 34.7161 75.9844 34.6951C76.1561 34.6744 76.2707 34.4537 76.2405 34.2021C76.2103 33.9508 76.0463 33.7637 75.8746 33.7847C75.7026 33.8057 75.588 34.0264 75.6186 34.2777Z" fill="#00365A"/>
<path opacity="0.1" d="M77.8011 37.6433C77.8862 37.6329 77.94 37.6137 77.9455 37.6115C77.9665 37.6038 77.9772 37.5805 77.9695 37.5595C77.9618 37.5385 77.9382 37.5278 77.9175 37.5351C77.9142 37.5366 77.5701 37.658 77.2161 37.4182C77.1969 37.4064 77.1722 37.4108 77.1597 37.4292C77.1472 37.4477 77.1523 37.4732 77.1707 37.4857C77.4169 37.6525 77.6552 37.661 77.8011 37.6433Z" fill="#112735"/>
<path opacity="0.5" d="M72.4621 32.5808C72.4621 32.5808 72.2241 32.3244 72.1098 32.5196C71.9964 32.7152 72.0715 33.458 72.4385 33.7071C72.4385 33.7071 72.0616 33.0406 72.1692 32.8122C72.2764 32.5834 72.566 32.7731 72.4621 32.5808Z" fill="#B2D4EA"/>
<path d="M79.3123 31.9529C79.197 31.4045 79.0003 31.0787 78.3699 30.9411C78.2494 30.9145 78.9483 31.4079 79.0051 32.1274C78.6643 32.3592 78.2612 32.5562 77.8383 32.6813C76.2769 33.1481 72.477 32.1348 72.477 32.1348C71.99 26.8528 79.4619 28.2377 80.2452 30.1134C80.4176 30.5237 79.9099 31.3935 79.3123 31.9529Z" fill="#001828"/>
<path d="M77.3305 80.3676C80.5339 71.6213 81.9847 62.4011 81.5352 52.4005C81.5165 51.9928 81.2217 51.7009 80.8824 51.7452C76.2738 52.3562 71.3351 52.84 66.0387 53.1884C65.7852 53.205 65.5697 53.4987 65.5484 53.8445C65.0425 62.3978 63.0877 70.4637 59.7199 78.2307C59.5788 78.5561 59.6823 78.8583 59.9565 78.9034C65.7138 79.8539 71.1907 80.5374 76.3877 80.978C76.7697 81.0115 77.1964 80.7359 77.3305 80.3676Z" fill="white"/>
<g opacity="0.2">
<path opacity="0.1" d="M76.7884 77.8666C79.3235 70.2362 80.5367 62.2242 80.3323 53.6313C76.0792 54.1015 71.5568 54.4627 66.7478 54.7092C66.2427 62.7035 64.4655 70.2686 61.4507 77.5607C64.8037 78.0618 68.0572 78.4747 71.2116 78.8046C73.1156 78.5017 74.9739 78.1888 76.7884 77.8666Z" fill="#074B71"/>
</g>
<path d="M76.6592 77.5137C79.1567 69.8922 80.3379 61.8839 80.1061 53.2881C75.8781 53.7667 71.3823 54.1379 66.6009 54.3973C66.1212 62.3901 64.3746 69.9497 61.3955 77.2307C64.7338 77.7241 67.9729 78.1315 71.1134 78.4562C73.0067 78.1518 74.855 77.8374 76.6592 77.5137Z" fill="#678FAB"/>
<path opacity="0.1" d="M80.1061 53.2881C79.1877 53.3921 78.2504 53.4888 77.3061 53.5826C78.2685 55.6937 78.8417 58.0192 78.0997 60.1322C77.5125 61.8038 76.2875 62.7872 74.6498 63.3175C74.1841 63.4684 73.5376 63.637 73.22 64.05C73.2122 64.0599 73.2082 64.0625 73.2019 64.0703C73.2019 64.0706 73.2023 64.0706 73.2023 64.071C73.2104 64.1348 73.3338 64.3057 73.3541 64.3433C73.7516 65.0766 74.0486 65.8452 74.1436 66.6792C74.3112 68.1504 73.651 69.4235 72.4599 70.2693C70.8544 71.4095 68.7496 72.3125 66.7866 72.524C65.6014 72.6516 64.404 72.4867 63.2417 72.1756C62.6887 73.8757 62.0786 75.5617 61.3955 77.2307C64.7338 77.7245 67.9729 78.1315 71.1137 78.4562C73.007 78.1518 74.8554 77.8374 76.6596 77.5137C79.1567 69.8922 80.3382 61.8839 80.1061 53.2881Z" fill="#678FAB"/>
<path d="M76.6595 77.5137C76.339 77.1248 76.0162 76.7314 75.6905 76.3325C74.211 77.0359 72.6861 77.744 71.1136 78.4562C73.007 78.1518 74.8553 77.8374 76.6595 77.5137Z" fill="#678FAB"/>
<path opacity="0.25" d="M59.657 73.5055V76.428C59.657 76.428 68.187 79.0122 73.405 74.9668C78.6229 70.9213 78.4678 69.1035 78.4678 69.1035C78.4678 69.1035 81.0335 70.1441 80.9075 68.9707C80.7815 67.7976 78.099 67.0651 77.0148 67.3075C75.9305 67.5503 59.657 73.5055 59.657 73.5055Z" fill="#678FAB"/>
<path d="M78.4171 66.7019C77.8364 66.8373 75.3058 66.7812 75.0493 67.0487C75.0493 67.0487 74.9278 68.4458 75.28 68.6831C75.6639 68.7739 78.567 68.4458 78.567 68.4458C78.567 68.4458 78.9111 68.7584 79.662 68.9237C79.862 68.968 80.0646 69.0008 80.2577 69.0152V69.0159C80.2584 69.0159 80.2584 69.0159 80.2595 69.0167C80.2691 69.0178 80.3185 69.027 80.3907 69.0384H80.3914C80.6523 69.0798 81.2126 69.1558 81.3025 69.0525C81.416 68.9233 81.4643 68.7381 81.3549 68.6277C81.3596 68.6222 81.3637 68.6159 81.3685 68.6104C81.4366 68.6023 81.608 68.5676 81.6765 68.4322C81.7439 68.3004 81.6621 68.1938 81.622 68.1521C81.6242 68.1451 81.6271 68.1381 81.6293 68.1314C81.6861 68.1277 81.8102 68.1104 81.8423 68.0296C81.8828 67.9251 81.9167 67.7436 81.7594 67.6561C81.7601 67.6539 81.7601 67.651 81.7609 67.6488C81.794 67.6318 81.9222 67.5558 81.9038 67.3713C81.8828 67.1598 81.7841 67.1303 81.7841 67.1303C81.7841 67.1303 81.9119 66.9554 81.8843 66.8078C81.857 66.6594 81.7244 66.4779 81.3884 66.4332L81.3854 66.4336C81.353 66.421 81.3184 66.4096 81.2812 66.4041C81.1294 66.3793 80.9798 66.3657 80.8376 66.3602C80.8085 66.3594 80.7798 66.359 80.7506 66.3579C80.1969 66.3476 79.7732 66.4509 79.7732 66.4509C79.7732 66.4509 80.5613 65.6605 80.2588 65.224C79.9574 64.7878 78.9984 66.5661 78.4171 66.7019Z" fill="#FEE1C6"/>
<path opacity="0.2" d="M80.8381 66.3604C81.068 67.2825 80.501 68.5368 80.2582 69.0147C80.2574 69.0147 80.2574 69.0154 80.2574 69.0154H80.2582C80.2589 69.0154 80.2589 69.0154 80.26 69.0161C80.2987 69.0191 80.3429 69.0268 80.3912 69.0379H80.3919C80.6528 69.0792 81.2131 69.1552 81.303 69.0519C81.4165 68.9228 81.4648 68.7375 81.3553 68.6272C81.3601 68.6217 81.3642 68.6154 81.369 68.6098C81.4371 68.6017 81.6084 68.567 81.677 68.4316C81.7444 68.2999 81.6626 68.1932 81.6224 68.1515C81.6247 68.1445 81.6276 68.1375 81.6298 68.1309C81.6866 68.1272 81.8107 68.1098 81.8428 68.029C81.8833 67.9246 81.9172 67.743 81.7599 67.6556C81.7606 67.6534 81.7606 67.6504 81.7613 67.6482C81.7945 67.6312 81.9227 67.5552 81.9043 67.3707C81.8833 67.1593 81.7845 67.1297 81.7845 67.1297C81.7845 67.1297 81.9124 66.9548 81.8848 66.8072C81.8575 66.6589 81.7249 66.4773 81.3889 66.4327L81.3859 66.433C81.3535 66.4205 81.3189 66.4091 81.2817 66.4035C81.1295 66.3795 80.9799 66.3659 80.8381 66.3604Z" fill="#FEE1C6"/>
<path d="M81.331 68.5718C81.2179 68.5046 81.1011 68.45 80.9799 68.4046C80.8587 68.3596 80.7331 68.3264 80.6052 68.3131C80.7316 68.336 80.8532 68.3781 80.9689 68.4312C81.0842 68.4843 81.1962 68.5478 81.299 68.6198L81.2997 68.6201C81.3126 68.6294 81.3306 68.6264 81.3399 68.6131C81.3491 68.6002 81.3458 68.5821 81.3329 68.5733C81.3321 68.5725 81.3314 68.5722 81.331 68.5718ZM81.7473 67.0869C81.6206 67.0179 81.4902 66.9625 81.3557 66.9179C81.2209 66.8732 81.0816 66.8422 80.9412 66.833C81.0809 66.8529 81.2153 66.8939 81.3446 66.9474C81.4732 67.0009 81.5989 67.0659 81.7138 67.1404L81.7149 67.1411C81.7293 67.1507 81.7492 67.1467 81.7584 67.1319C81.768 67.1171 81.7639 67.0976 81.7492 67.0884C81.7488 67.0876 81.7481 67.0873 81.7473 67.0869ZM81.719 67.5976C81.5926 67.5223 81.4618 67.4614 81.3259 67.4105C81.1903 67.3603 81.0499 67.3231 80.907 67.3083C81.0484 67.3338 81.1844 67.381 81.3137 67.4404C81.4426 67.4998 81.5683 67.5707 81.6829 67.6511L81.684 67.6518C81.6983 67.6622 81.7186 67.6585 81.7285 67.6441C81.7389 67.6297 81.7352 67.6094 81.7208 67.5994C81.7204 67.5987 81.7197 67.598 81.719 67.5976ZM81.5919 68.0869C81.4655 68.012 81.3351 67.9507 81.1995 67.9002C81.0643 67.85 80.9239 67.8131 80.7813 67.7983C80.9224 67.8238 81.058 67.8707 81.1873 67.9301C81.3163 67.9895 81.4412 68.06 81.5558 68.1404L81.5569 68.1412C81.5716 68.1515 81.5915 68.1478 81.6014 68.1334C81.6118 68.119 81.6081 68.0987 81.5937 68.0888C81.593 68.0876 81.5922 68.0873 81.5919 68.0869Z" fill="#FEE1C6"/>
<path opacity="0.2" d="M80.0659 65.211C80.0659 65.211 79.8422 65.5635 79.7674 65.5686C79.6926 65.5738 79.6687 65.4856 79.6687 65.4856C79.6687 65.4856 79.934 65.1852 80.0659 65.211Z" fill="#FEE1C6"/>
<path d="M65.9387 44.6069C65.9387 44.6069 52.0526 55.4898 55.2096 70.685C55.9273 74.139 64.0027 69.35 63.3311 67.6853C59.1123 57.2297 65.9387 44.6069 65.9387 44.6069Z" fill="#00365A"/>
<path opacity="0.25" d="M62.9746 66.7139C61.6634 62.8134 61.7776 58.6812 62.4246 55.0575C62.4246 55.0553 62.4246 55.0535 62.4246 55.0513C62.4308 54.5358 62.4769 54.0217 62.5262 53.5088C62.1438 53.8594 61.8403 54.2904 61.5695 54.7306C61.2541 55.2439 60.9829 55.7826 60.7015 56.3148C60.5622 56.5782 60.4167 56.8362 60.3154 57.1177C60.2115 57.4063 60.1481 57.707 60.1201 58.0122C60.067 58.5945 60.144 59.1772 60.2409 59.751C60.4248 60.8422 60.7545 62.0359 60.2645 63.092C60.0534 63.547 59.7425 63.9426 59.4437 64.3415C59.0981 64.8028 58.7827 65.2836 58.53 65.8028C58.0241 66.8427 57.75 68.0165 57.9663 69.1638C58.4769 68.646 59.0428 68.1859 59.6662 67.8099C60.6731 67.2036 61.8086 66.8368 62.9746 66.7139Z" fill="#00365A"/>
<path d="M77.719 66.2399C77.719 66.2399 78.4474 68.3699 77.7249 69.1839C77.0028 69.9979 63.1299 74.7818 59.2438 73.9692C52.3234 72.522 54.6323 66.8838 60.8626 65.7982C67.093 64.7129 77.719 66.2399 77.719 66.2399Z" fill="#00365A"/>
<path d="M55.533 83.2875H90.5817C90.6774 83.2875 90.7552 83.2097 90.7552 83.1137C90.7552 83.0178 90.6774 82.9399 90.5817 82.9399H55.533C55.4372 82.9399 55.3595 83.0178 55.3595 83.1137C55.3595 83.2097 55.4372 83.2875 55.533 83.2875Z" fill="#678FAB"/>
<path d="M87.2934 35.1931V32.6879H87.2488C86.0537 32.6879 85.0811 31.714 85.0811 30.517V29.2461C85.0811 28.049 86.0533 27.0752 87.2488 27.0752H96.2538C97.4489 27.0752 98.4212 28.049 98.4212 29.2461V30.517C98.4212 31.714 97.4486 32.6879 96.2538 32.6879H90.0422L87.2934 35.1931ZM87.2488 27.3324C86.1955 27.3324 85.3386 28.1907 85.3386 29.2457V30.5166C85.3386 31.5716 86.1955 32.4299 87.2488 32.4299H87.5506V34.6101L89.9424 32.4299H96.2534C97.3067 32.4299 98.1637 31.5716 98.1637 30.5166V29.2457C98.1637 28.1907 97.3067 27.3324 96.2534 27.3324H87.2488Z" fill="#C2CDD2"/>
<path d="M91.0596 29.9698C91.0843 30.3525 91.4137 30.6425 91.7958 30.6178C92.1778 30.5935 92.4674 30.2632 92.4427 29.8809C92.418 29.4982 92.0886 29.2082 91.707 29.2329C91.3249 29.2573 91.035 29.5872 91.0596 29.9698ZM93.7362 29.9256C93.7362 30.309 94.0464 30.6197 94.4292 30.6197C94.812 30.6197 95.1222 30.309 95.1222 29.9256C95.1222 29.5422 94.812 29.2314 94.4292 29.2314C94.0464 29.2314 93.7362 29.5422 93.7362 29.9256ZM88.3816 29.9698C88.4059 30.3525 88.7356 30.6425 89.1173 30.6178C89.4994 30.5935 89.789 30.2632 89.7646 29.8809C89.74 29.4982 89.4106 29.2082 89.0285 29.2329C88.6469 29.2573 88.3569 29.5872 88.3816 29.9698Z" fill="#C2CDD2"/>
<path opacity="0.2" d="M43.7209 41.0422V42.5855C43.7209 42.5855 44.9699 42.9508 46.28 41.9526V40.2529L43.7209 41.0422Z" fill="#00365A"/>
<path d="M42.5668 41.836C40.9925 41.836 39.4183 41.236 38.2198 40.0352C35.8232 37.6344 35.8232 33.7277 38.2198 31.3272C40.6164 28.9261 44.5172 28.9261 46.9138 31.3272C47.2203 31.6343 47.2203 32.1313 46.9138 32.4383C46.6073 32.7454 46.1106 32.7454 45.8045 32.4383C44.9398 31.5723 43.7896 31.0951 42.5668 31.0951C41.344 31.0951 40.1938 31.5723 39.3291 32.4383C37.5441 34.2266 37.5441 37.1359 39.3291 38.9241C40.1938 39.7902 41.344 40.2673 42.5668 40.2673C43.7896 40.2673 44.9398 39.7902 45.8045 38.9241C47.206 37.52 47.5482 35.3867 46.6563 33.6155C46.461 33.228 46.6165 32.7553 47.003 32.5597C47.3902 32.362 47.8614 32.5195 48.057 32.907C49.2555 35.2856 48.7961 38.1503 46.9142 40.0352C45.7153 41.2356 44.1407 41.836 42.5668 41.836Z" fill="#678FAB"/>
<path d="M46.1209 32.1208C48.0839 34.0869 48.0839 37.2748 46.1209 39.2409C44.158 41.207 40.9752 41.207 39.0122 39.2409C37.0493 37.2748 37.0493 34.0869 39.0122 32.1208C40.9752 30.1544 44.1576 30.1544 46.1209 32.1208Z" fill="white"/>
<path d="M42.8524 32.6948H41.833V32.7461H42.8524V32.6948Z" fill="white"/>
<path d="M42.662 32.8545H41.833V32.9058H42.662V32.8545Z" fill="white"/>
<path d="M42.662 33.188H41.833V33.2415H42.662V33.188Z" fill="white"/>
<path d="M43.6361 35.0396V37.2986H43.4386V35.1156C43.4386 35.0886 43.4371 35.0643 43.4357 35.0396H43.6361Z" fill="white"/>
<path opacity="0.2" d="M148.133 59.5525V61.2603C148.133 61.2603 147.339 61.7518 145.599 61.2603V59.1304L148.133 59.5525Z" fill="#00365A"/>
<path opacity="0.49" d="M148.133 51.0132C148.281 51.1017 148.409 51.2316 148.488 51.3973C148.582 51.5645 148.526 51.7822 148.482 51.9342C148.401 52.2682 148.312 52.5996 148.217 52.9291C148.028 53.5889 147.823 54.2439 147.588 54.8897L147.585 54.8989L147.583 54.9011C147.504 55.0284 147.399 55.1303 147.269 55.1985C147.14 55.2672 146.983 55.2764 146.856 55.221C146.993 55.2454 147.128 55.2137 147.232 55.1373C147.335 55.0601 147.417 54.9517 147.475 54.8432L147.47 54.8542C147.629 54.1852 147.817 53.5254 148.021 52.8704C148.123 52.5427 148.23 52.2165 148.346 51.8933C148.41 51.7254 148.457 51.5877 148.406 51.4276C148.362 51.2726 148.256 51.132 148.133 51.0132Z" fill="white"/>
<path opacity="0.44" d="M144.865 54.8345L146.62 55.0533L146.618 54.8345H144.865Z" fill="#BADBF1"/>
<path opacity="0.49" d="M145.865 52.6255C146.032 52.6679 146.192 52.755 146.314 52.8915C146.452 53.0244 146.461 53.2491 146.463 53.4074C146.481 53.7506 146.491 54.0938 146.494 54.437C146.502 55.1233 146.493 55.8093 146.454 56.4957L146.453 56.5056L146.452 56.5079C146.412 56.6529 146.341 56.7806 146.236 56.8831C146.132 56.9861 145.985 57.04 145.848 57.0234C145.985 57.0075 146.106 56.9381 146.184 56.8348C146.26 56.7315 146.308 56.6038 146.331 56.4835L146.33 56.4957C146.29 55.8093 146.282 55.123 146.29 54.437C146.293 54.0938 146.303 53.7506 146.321 53.4074C146.335 53.2281 146.339 53.0831 146.245 52.9443C146.158 52.8081 146.017 52.7037 145.865 52.6255Z" fill="white"/>
<path d="M150.496 38.8146C150.612 38.8146 150.706 38.7206 150.706 38.6043C150.706 38.4881 150.612 38.394 150.496 38.394C150.38 38.394 150.286 38.4881 150.286 38.6043C150.286 38.7206 150.38 38.8146 150.496 38.8146ZM150.496 40.4272C150.612 40.4272 150.706 40.3331 150.706 40.2169C150.706 40.1007 150.612 40.0066 150.496 40.0066C150.38 40.0066 150.286 40.1007 150.286 40.2169C150.286 40.3331 150.38 40.4272 150.496 40.4272ZM150.496 42.0398C150.612 42.0398 150.706 41.9457 150.706 41.8295C150.706 41.7132 150.612 41.6191 150.496 41.6191C150.38 41.6191 150.286 41.7132 150.286 41.8295C150.286 41.9457 150.38 42.0398 150.496 42.0398ZM150.496 43.6524C150.612 43.6524 150.706 43.5583 150.706 43.4421C150.706 43.3258 150.612 43.2317 150.496 43.2317C150.38 43.2317 150.286 43.3258 150.286 43.4421C150.286 43.5583 150.38 43.6524 150.496 43.6524ZM151.402 37.9715C151.518 37.9715 151.612 37.8774 151.612 37.7611C151.612 37.6449 151.518 37.5508 151.402 37.5508C151.286 37.5508 151.192 37.6449 151.192 37.7611C151.192 37.8774 151.287 37.9715 151.402 37.9715ZM151.402 39.5844C151.518 39.5844 151.612 39.4903 151.612 39.3741C151.612 39.2578 151.518 39.1637 151.402 39.1637C151.286 39.1637 151.192 39.2578 151.192 39.3741C151.192 39.4899 151.287 39.5844 151.402 39.5844ZM151.402 41.197C151.518 41.197 151.612 41.1029 151.612 40.9867C151.612 40.8704 151.518 40.7763 151.402 40.7763C151.286 40.7763 151.192 40.8704 151.192 40.9867C151.192 41.1029 151.287 41.197 151.402 41.197ZM151.402 42.8096C151.518 42.8096 151.612 42.7155 151.612 42.5992C151.612 42.483 151.518 42.3889 151.402 42.3889C151.286 42.3889 151.192 42.483 151.192 42.5992C151.192 42.7155 151.287 42.8096 151.402 42.8096Z" fill="#678FAB"/>
<path d="M37.4393 78.1773C37.5852 78.1773 37.7031 78.0589 37.7031 77.9131C37.7031 77.767 37.5849 77.6489 37.4393 77.6489C37.2938 77.6489 37.1755 77.7674 37.1755 77.9131C37.1755 78.0593 37.2934 78.1773 37.4393 78.1773ZM37.4393 80.2036C37.5852 80.2036 37.7031 80.0851 37.7031 79.9394C37.7031 79.7936 37.5849 79.6752 37.4393 79.6752C37.2938 79.6752 37.1755 79.7936 37.1755 79.9394C37.1755 80.0855 37.2934 80.2036 37.4393 80.2036ZM37.4393 82.2298C37.5852 82.2298 37.7031 82.1114 37.7031 81.9656C37.7031 81.8195 37.5849 81.7014 37.4393 81.7014C37.2938 81.7014 37.1755 81.8199 37.1755 81.9656C37.1755 82.1114 37.2934 82.2298 37.4393 82.2298ZM37.4393 84.2561C37.5852 84.2561 37.7031 84.1376 37.7031 83.9919C37.7031 83.8457 37.5849 83.7276 37.4393 83.7276C37.2938 83.7276 37.1755 83.8461 37.1755 83.9919C37.1755 84.1376 37.2934 84.2561 37.4393 84.2561ZM38.5781 77.1183C38.724 77.1183 38.8419 76.9998 38.8419 76.8541C38.8419 76.7083 38.7236 76.5898 38.5781 76.5898C38.4326 76.5898 38.3143 76.7083 38.3143 76.8541C38.3143 76.9998 38.4322 77.1183 38.5781 77.1183ZM38.5781 79.1445C38.724 79.1445 38.8419 79.0261 38.8419 78.8803C38.8419 78.7345 38.7236 78.6161 38.5781 78.6161C38.4326 78.6161 38.3143 78.7345 38.3143 78.8803C38.3143 79.0261 38.4322 79.1445 38.5781 79.1445ZM38.5781 81.1708C38.724 81.1708 38.8419 81.0523 38.8419 80.9066C38.8419 80.7604 38.7236 80.6423 38.5781 80.6423C38.4326 80.6423 38.3143 80.7608 38.3143 80.9066C38.314 81.0523 38.4322 81.1708 38.5781 81.1708ZM38.5781 83.197C38.724 83.197 38.8419 83.0786 38.8419 82.9328C38.8419 82.787 38.7236 82.6686 38.5781 82.6686C38.4326 82.6686 38.3143 82.787 38.3143 82.9328C38.314 83.0786 38.4322 83.197 38.5781 83.197Z" fill="#678FAB"/>
</g>
<defs>
<clipPath id="clip0_380_12948">
<rect width="140" height="104" fill="white" transform="translate(24 3)"/>
</clipPath>
</defs>
</svg>
