<svg width="128" height="110" viewBox="0 0 128 110" fill="none" xmlns="http://www.w3.org/2000/svg">
<g opacity="0.2">
<mask id="mask0_225_11858" style="mask-type:alpha" maskUnits="userSpaceOnUse" x="0" y="0" width="96" height="110">
<rect width="95.8705" height="108.485" transform="matrix(1 0 0 -1 0.129517 109.243)" fill="#CEE2E4"/>
<rect x="0.5" y="-0.5" width="94.8705" height="107.485" transform="matrix(1 0 0 -1 0.129517 108.243)" stroke="#99A1B7" stroke-opacity="0.6"/>
</mask>
<g mask="url(#mask0_225_11858)">
<path d="M110.262 -11.3416C108.804 -7.05807 102.455 1.39025 88.7186 0.915097C71.5484 0.32116 60.8035 -12.6375 44.6051 -15.8772C32.6496 -18.2683 2.7055 -17.9289 -9.87519 -3.35046" stroke="#99A1B7" stroke-opacity="0.6"/>
<path d="M107.725 -5.00374C106.267 -0.720184 99.9176 7.72814 86.1815 7.25299C69.0112 6.65905 58.2664 -6.29961 42.068 -9.53927C30.1125 -11.9304 0.168392 -11.5911 -12.4123 2.98743" stroke="#99A1B7" stroke-opacity="0.6"/>
<path d="M105.415 1.42399C103.957 5.70755 97.6071 14.1559 83.8709 13.6807C66.7007 13.0868 55.9558 0.128128 39.7575 -3.11153C27.8019 -5.50265 -2.14216 -5.16332 -14.7228 9.41517" stroke="#99A1B7" stroke-opacity="0.6"/>
<path d="M103.37 7.93376C101.912 12.2173 95.5622 20.6656 81.826 20.1905C64.6558 19.5966 53.9109 6.63789 37.7126 3.39823C25.757 1.00712 -4.18708 1.34645 -16.7678 15.9249" stroke="#99A1B7" stroke-opacity="0.6"/>
<path d="M101.628 14.5392C100.17 18.8228 93.82 27.2711 80.0838 26.796C62.9136 26.202 52.1687 13.2434 35.9704 10.0037C24.0148 7.61259 -5.92926 7.95191 -18.51 22.5304" stroke="#99A1B7" stroke-opacity="0.6"/>
<path d="M100.245 21.2189C98.7869 25.5025 92.4372 33.9508 78.701 33.4756C61.5308 32.8817 50.7859 19.9231 34.5876 16.6834C22.632 14.2923 -7.31208 14.6316 -19.8928 29.2101" stroke="#99A1B7" stroke-opacity="0.6"/>
<path d="M99.2936 27.9787C97.8357 32.2622 91.486 40.7106 77.7498 40.2354C60.5796 39.6415 49.8347 26.6828 33.6364 23.4432C21.6808 21.052 -8.26325 21.3914 -20.8439 35.9699" stroke="#99A1B7" stroke-opacity="0.6"/>
<path d="M98.8502 34.7912C97.3924 39.0747 91.0426 47.5231 77.3065 47.0479C60.1362 46.454 49.3914 33.4953 33.193 30.2557C21.2375 27.8645 -8.70661 28.2039 -21.2873 42.7824" stroke="#99A1B7" stroke-opacity="0.6"/>
<path d="M99.0338 41.6193C97.576 45.9029 91.2262 54.3512 77.4901 53.876C60.3198 53.2821 49.575 40.3234 33.3766 37.0838C21.4211 34.6927 -8.52301 35.032 -21.1037 49.6105" stroke="#99A1B7" stroke-opacity="0.6"/>
<path d="M99.9519 48.383C98.494 52.6665 92.1443 61.1149 78.4081 60.6397C61.2379 60.0458 50.493 47.0871 34.2947 43.8474C22.3391 41.4563 -7.60495 41.7957 -20.1856 56.3742" stroke="#99A1B7" stroke-opacity="0.6"/>
<path d="M101.735 54.9748C100.277 59.2583 93.9274 67.7067 80.1912 67.2315C63.021 66.6376 52.2761 53.6789 36.0778 50.4392C24.1222 48.0481 -5.82184 48.3875 -18.4025 62.9659" stroke="#99A1B7" stroke-opacity="0.6"/>
<path d="M104.96 62.3595C103.502 66.6431 97.152 75.0914 83.4158 74.6163C66.2456 74.0223 55.5007 61.0637 39.3024 57.824C27.3468 55.4329 -2.59723 55.7722 -15.1779 70.3507" stroke="#99A1B7" stroke-opacity="0.6"/>
<path d="M107.524 68.6857C106.066 72.9693 99.7165 81.4176 85.9803 80.9424C68.8101 80.3485 58.0652 67.3898 41.8669 64.1502C29.9113 61.7591 -0.0327801 62.0984 -12.6135 76.6769" stroke="#99A1B7" stroke-opacity="0.6"/>
<path d="M109.551 75.2033C108.094 79.4868 101.744 87.9352 88.0076 87.46C70.8374 86.8661 60.0925 73.9074 43.8942 70.6678C31.9386 68.2766 1.99456 68.616 -10.5861 83.1945" stroke="#99A1B7" stroke-opacity="0.6"/>
<path d="M111.04 81.8674C109.582 86.1509 103.232 94.5992 89.4959 94.1241C72.3257 93.5301 61.5808 80.5715 45.3825 77.3318C33.4269 74.9407 3.48284 75.28 -9.09785 89.8585" stroke="#99A1B7" stroke-opacity="0.6"/>
<path d="M111.983 88.6291C110.525 92.9126 104.175 101.361 90.4393 100.886C73.2691 100.292 62.5242 87.3332 46.3259 84.0935C34.3703 81.7024 4.4262 82.0418 -8.15449 96.6202" stroke="#99A1B7" stroke-opacity="0.6"/>
<path d="M112.395 95.4435C110.937 99.7271 104.588 108.175 90.8514 107.7C73.6812 107.106 62.9363 94.1477 46.738 90.908C34.7824 88.5169 4.83831 88.8562 -7.74238 103.435" stroke="#99A1B7" stroke-opacity="0.6"/>
<path d="M112.296 102.274C110.838 106.557 104.488 115.005 90.7518 114.53C73.5816 113.936 62.8367 100.978 46.6384 97.7381C34.6828 95.347 4.7387 95.6863 -7.84199 110.265" stroke="#99A1B7" stroke-opacity="0.6"/>
<path d="M111.71 109.076C110.252 113.36 103.902 121.808 90.1658 121.333C72.9956 120.739 62.2507 107.78 46.0524 104.541C34.0968 102.15 4.15277 102.489 -8.42793 117.068" stroke="#99A1B7" stroke-opacity="0.6"/>
<path d="M110.672 115.822C109.215 120.106 102.865 128.554 89.1287 128.079C71.9585 127.485 61.2136 114.527 45.0153 111.287C33.0597 108.896 3.11566 109.235 -9.46504 123.814" stroke="#99A1B7" stroke-opacity="0.6"/>
</g>
</g>
<g clip-path="url(#clip0_225_11858)">
<path d="M98.7934 35.0311C98.7934 36.4837 95.864 36.289 93.836 35.7173C90.9063 35.0311 88.8783 33.6589 89.5543 30.6857C89.5543 28.2844 91.9207 28.6818 94.7374 29.7709C97.1034 30.6857 98.7934 33.5786 98.7934 35.0311Z" fill="#F1F2FF"/>
<path d="M30.7969 74.5944C30.7969 77.7664 32.2514 80.8621 34.0382 83.4237C36.8155 87.4048 41.7514 88.9166 46.6034 88.9166H104.462C107.824 88.9166 110.051 84.1641 110.161 80.8015C110.325 75.8029 113.181 70.1401 112.348 61.7286C111.049 48.6201 102.219 44.6147 92.9989 39.6386C83.7789 34.6622 89.7523 27.3797 73.9097 23.0102C58.067 18.6407 41.3153 33.0843 41.8347 46.5567C42.3542 60.0292 30.7969 61.9712 30.7969 74.5944Z" fill="#DDDEE1"/>
<path d="M67.0251 88.9169H77.8092C83.6585 86.813 89.5078 77.1171 84.1154 78.1231C78.7234 79.1295 73.4225 78.6722 80.4598 75.1962C87.4972 71.7202 83.6585 69.0678 80.4598 69.342C77.2611 69.6166 77.8092 67.4212 79.0888 63.2137C80.3683 59.0058 79.0888 55.1641 75.5247 55.1641C71.9603 55.1641 74.7936 65.5918 71.9603 66.3236C69.127 67.0554 70.498 62.2073 67.0251 63.2137C63.5519 64.2197 69.2185 76.2022 67.0251 75.1962C64.8314 74.1902 65.1056 69.342 61.1758 73.0008C58.0319 75.928 63.7654 84.8311 67.0251 88.9169Z" fill="#DDDEE1"/>
<path d="M54.9061 24.5374C54.9061 23.5504 55.7063 22.7502 56.6933 22.7502H88.3202C89.3071 22.7502 90.1072 23.5504 90.1072 24.5374V65.1085C90.1072 66.0958 89.3071 66.896 88.3202 66.896H56.6933C55.7063 66.896 54.9061 66.0958 54.9061 65.1085V24.5374Z" fill="white"/>
<path fill-rule="evenodd" clip-rule="evenodd" d="M54.6387 24.5375C54.6387 23.4025 55.5588 22.4824 56.6937 22.4824H88.3206C89.4556 22.4824 90.3756 23.4025 90.3756 24.5375V65.1086C90.3756 66.2436 89.4556 67.1636 88.3206 67.1636H56.6937C55.5588 67.1636 54.6387 66.2436 54.6387 65.1086V24.5375ZM56.6937 23.0182C55.8546 23.0182 55.1744 23.6984 55.1744 24.5375V65.1086C55.1744 65.9479 55.8546 66.628 56.6937 66.628H88.3206C89.1595 66.628 89.8397 65.9479 89.8397 65.1086V24.5375C89.8397 23.6984 89.1595 23.0182 88.3206 23.0182H56.6937Z" fill="#002E43"/>
<path d="M54.9061 24.5374C54.9061 23.5504 55.7063 22.7502 56.6933 22.7502H88.3202C89.3071 22.7502 90.1072 23.5504 90.1072 24.5374V28.8095H54.9061V24.5374Z" fill="#678FAB"/>
<path d="M60.3897 25.7789C60.3897 26.496 59.8083 27.0773 59.0914 27.0773C58.3743 27.0773 57.793 26.496 57.793 25.7789C57.793 25.0618 58.3743 24.4805 59.0914 24.4805C59.8083 24.4805 60.3897 25.0618 60.3897 25.7789ZM64.7182 25.7789C64.7182 26.496 64.1368 27.0773 63.4195 27.0773C62.7026 27.0773 62.1213 26.496 62.1213 25.7789C62.1213 25.0618 62.7026 24.4805 63.4195 24.4805C64.1368 24.4805 64.7182 25.0618 64.7182 25.7789ZM69.0459 25.7789C69.0459 26.496 68.4646 27.0773 67.7473 27.0773C67.0304 27.0773 66.4491 26.496 66.4491 25.7789C66.4491 25.0618 67.0304 24.4805 67.7473 24.4805C68.4646 24.4805 69.0459 25.0618 69.0459 25.7789Z" fill="white"/>
<path fill-rule="evenodd" clip-rule="evenodd" d="M78.2787 33.6939H59.957V33.1582H78.2787V33.6939ZM78.2787 52.4487H59.957V51.9128H78.2787V52.4487ZM78.2787 57.6421H59.957V57.1065H78.2787V57.6421Z" fill="#E7E8FF"/>
<path fill-rule="evenodd" clip-rule="evenodd" d="M60.1211 39.2524C60.1211 38.1175 61.0411 37.1973 62.1761 37.1973H79.9532C81.0882 37.1973 82.0082 38.1175 82.0082 39.2524V46.0651C82.0082 47.2001 81.0882 48.1202 79.9532 48.1202H62.1761C61.0411 48.1202 60.1211 47.2001 60.1211 46.0651V39.2524ZM62.1761 37.733C61.3372 37.733 60.6567 38.4132 60.6567 39.2524V46.0651C60.6567 46.9041 61.3372 47.5846 62.1761 47.5846H79.9532C80.7925 47.5846 81.4726 46.9041 81.4726 46.0651V39.2524C81.4726 38.4132 80.7925 37.733 79.9532 37.733H62.1761Z" fill="#002E43"/>
<path d="M70.7754 62.0468C70.7754 61.0599 71.5755 60.2598 72.5628 60.2598H72.7393C73.7262 60.2598 74.5263 61.0599 74.5263 62.0468V62.2233C74.5263 63.2102 73.7262 64.0107 72.7393 64.0107H72.5628C71.5755 64.0107 70.7754 63.2102 70.7754 62.2233V62.0468Z" fill="#678FAB"/>
<path fill-rule="evenodd" clip-rule="evenodd" d="M77.4336 62.0472C77.4336 60.9122 78.3536 59.9922 79.4886 59.9922H79.6651C80.8001 59.9922 81.7201 60.9122 81.7201 62.0472V62.2237C81.7201 63.3587 80.8001 64.2787 79.6651 64.2787H79.4886C78.3536 64.2787 77.4336 63.3587 77.4336 62.2237V62.0472ZM79.4886 60.5278C78.6497 60.5278 77.9692 61.2083 77.9692 62.0472V62.2237C77.9692 63.063 78.6497 63.7431 79.4886 63.7431H79.6651C80.5044 63.7431 81.1845 63.063 81.1845 62.2237V62.0472C81.1845 61.2083 80.5044 60.5278 79.6651 60.5278H79.4886Z" fill="#E7E8FF"/>
<path fill-rule="evenodd" clip-rule="evenodd" d="M68.0292 40.2491C67.7068 39.7405 66.9601 39.7537 66.6557 40.2737L64.3927 44.1397C64.1524 44.5502 63.7122 44.8029 63.2362 44.8029H60.3887V44.2669H63.2362C63.5218 44.2669 63.786 44.1154 63.9302 43.869L66.1933 40.0029C66.7004 39.137 67.9443 39.1148 68.4819 39.9624L70.4826 43.117C70.779 43.5847 71.448 43.62 71.7919 43.186L73.4053 41.1521C73.9118 40.5136 74.8658 40.4709 75.4271 41.0617L77.0006 42.718C77.1524 42.8782 77.3632 42.9687 77.5837 42.9687H81.5957V43.5043H77.5837C77.2166 43.5043 76.8654 43.3535 76.6123 43.0872L75.0385 41.4308C74.7018 41.0762 74.1292 41.1019 73.8251 41.4849L72.2117 43.5192C71.6387 44.2416 70.5238 44.183 70.0298 43.4041L68.0292 40.2491Z" fill="#002E43"/>
<path d="M72.028 88.7785C70.2967 85.6623 62.6506 83.5043 59.0439 82.7832L56.0078 88.7785H72.028Z" fill="#002E43"/>
<path d="M45.9937 48.255L45.1691 50.837L50.0659 52.667L50.7401 48.9407C51.528 49.0312 53.3283 48.4838 54.226 45.5721C55.3481 41.9325 53.8694 37.3251 50.7528 36.8617C47.6363 36.3984 45.3625 39.0253 44.7937 42.4469C44.3386 45.1839 45.4041 47.4594 45.9937 48.255Z" fill="#EFCB96"/>
<path d="M45.9764 48.1114C46.4793 48.3947 48.5497 48.5008 49.5221 48.5184C50.2373 48.4245 50.5912 47.796 51.0317 46.7192C51.3841 45.8581 50.8249 45.1461 50.5012 44.8975C48.5215 43.1205 50.5545 41.3982 51.1942 41.3143C51.8446 41.2287 51.9347 42.4857 51.9506 43.6256C51.9559 44.0028 52.3889 44.0749 52.5341 43.7268C52.8627 42.9385 53.2374 42.1165 53.5452 41.5022C53.828 40.9379 54.3547 40.568 54.9252 40.2979C57.9019 38.8901 57.7323 36.1735 56.9915 35.6049C56.1824 34.9837 55.7418 36.0602 52.8549 35.1302C49.968 34.2001 45.7824 34.4593 43.9336 39.2132C42.0849 43.9667 45.3478 47.7575 45.9764 48.1114Z" fill="#002E43"/>
<path d="M82.5588 76.7254C81.811 73.5242 77.6164 72.8957 75.6126 72.9821L75.3457 76.7254H82.5588Z" fill="#EFCB96"/>
<path d="M43.1747 50.0357C40.751 51.882 37.7339 56.9271 36.6689 60.5785C34.0207 69.6584 30.4846 87.3731 39.7794 88.7795C47.6773 88.7889 54.2498 88.7833 56.5489 88.7795C57.6233 87.1592 59.612 83.4544 58.9717 81.3414L58.6112 78.1677C62.8329 80.021 70.4301 78.7206 74.786 77.5648C75.6183 77.344 76.1397 76.5373 76.0402 75.6818L75.6644 72.4512C75.5639 71.5866 74.8491 70.9237 73.9817 70.8503C64.5614 70.0533 62.1049 66.9038 59.9095 63.8854C57.6014 60.7113 53.2734 53.7866 51.3979 52.1996C49.5224 50.6125 46.2043 47.7272 43.1747 50.0357Z" fill="#002E43"/>
<path d="M47.5039 67.2031C50.2738 72.7429 55.0058 76.5805 58.7568 78.3117L58.901 81.0528C50.822 76.2054 47.9367 69.8 47.5039 67.2031Z" fill="#002E43"/>
<path d="M60.1989 78.7433C59.3815 76.9642 56.5057 73.319 51.543 72.9727C53.0337 74.6557 56.852 78.1664 60.1989 78.7433Z" fill="#002E43"/>
<path d="M31.2427 79.7202C32.861 87.3416 36.5889 88.5148 39.0453 88.5148H56.9624C60.1411 88.5148 59.7078 87.515 59.7078 86.649C58.6962 82.3184 56.2399 80.5865 48.8708 78.4212C41.5017 76.2559 39.9123 67.5955 37.4559 61.966C34.9995 56.3365 28.3529 56.1923 27.4859 57.347C26.619 58.5018 29.2198 70.1934 31.2427 79.7202Z" fill="white"/>
<path fill-rule="evenodd" clip-rule="evenodd" d="M28.1523 57.2339C27.9042 57.3219 27.763 57.4228 27.7005 57.5064C27.6834 57.5289 27.6522 57.5937 27.6267 57.731C27.6023 57.8627 27.5874 58.0361 27.5836 58.2524C27.576 58.6847 27.613 59.2605 27.6893 59.9597C27.8417 61.3568 28.1472 63.216 28.5443 65.3434C29.2003 68.8583 30.1027 73.0873 30.9674 77.1395C31.1492 77.9912 31.3293 78.8354 31.5051 79.6632C32.3066 83.4381 33.6221 85.576 35.0052 86.7716C36.3848 87.9641 37.8621 88.2456 39.0456 88.2456H56.9627C57.7464 88.2456 58.2896 88.1836 58.6644 88.0848C59.0387 87.986 59.2228 87.8563 59.3188 87.7371C59.4131 87.6203 59.4509 87.4792 59.4585 87.293C59.4623 87.1991 59.4585 87.0999 59.4529 86.99C59.4522 86.9748 59.4512 86.9595 59.4505 86.9439C59.446 86.8597 59.4412 86.7692 59.4405 86.6791C58.9451 84.5779 58.1071 83.1302 56.5131 81.936C54.8933 80.7223 52.4783 79.7589 48.7956 78.6766C45.0115 77.5648 42.7253 74.7853 41.0835 71.6143C40.2628 70.0293 39.5989 68.3386 38.9887 66.6996C38.8541 66.338 38.7223 65.9792 38.592 65.6249C38.1295 64.3669 37.6867 63.1626 37.2107 62.0716C36.021 59.3451 33.819 57.9466 31.8014 57.3684C30.7913 57.0789 29.8345 56.9971 29.0851 57.0553C28.7101 57.0845 28.3941 57.1482 28.1523 57.2339ZM31.949 56.8532C34.0855 57.4658 36.435 58.9544 37.7017 61.8574C38.1848 62.9643 38.6349 64.189 39.0983 65.4495C39.2278 65.8014 39.3583 66.1564 39.4908 66.5124C40.0998 68.1483 40.7544 69.8134 41.5593 71.3682C43.1685 74.476 45.3616 77.1093 48.9466 78.1628C52.6331 79.2458 55.1308 80.231 56.8343 81.5071C58.5563 82.7974 59.4519 84.373 59.9688 86.5865L59.9761 86.6167V86.6475C59.9761 86.7324 59.9806 86.8188 59.9854 86.9134C59.9865 86.9293 59.9872 86.946 59.9878 86.9626C59.9937 87.0732 59.9989 87.1942 59.9937 87.3155C59.9833 87.5606 59.9306 87.8321 59.7358 88.0733C59.5431 88.3125 59.2397 88.4869 58.8012 88.6027C58.3632 88.7181 57.7684 88.7812 56.9627 88.7812H39.0456C37.7728 88.7812 36.1579 88.4762 34.6549 87.1769C33.1553 85.8803 31.7978 83.6211 30.981 79.7745C30.8055 78.948 30.6256 78.1049 30.444 77.2539C29.5793 73.2017 28.675 68.964 28.0176 65.4419C27.6199 63.3109 27.3114 61.4355 27.1567 60.0176C27.0795 59.3097 27.0397 58.7083 27.0479 58.2427C27.052 58.0104 27.0682 57.8048 27.0999 57.6336C27.1306 57.4682 27.1806 57.3063 27.272 57.1846C27.4262 56.9791 27.6824 56.8321 27.9733 56.7291C28.2706 56.6234 28.6352 56.553 29.0436 56.5211C29.8611 56.4577 30.882 56.5475 31.949 56.8532Z" fill="#002E43"/>
<path d="M119.413 77.1289H69.4969C68.5408 77.1289 67.7656 77.9037 67.7656 78.8602C67.7656 79.8163 68.5408 80.5911 69.4969 80.5911H119.413C120.369 80.5911 121.144 79.8163 121.144 78.8602C121.144 77.9037 120.369 77.1289 119.413 77.1289Z" fill="white"/>
<path fill-rule="evenodd" clip-rule="evenodd" d="M67.4963 78.8608C67.4963 77.7567 68.3914 76.8616 69.4955 76.8616H119.412C120.516 76.8616 121.411 77.7567 121.411 78.8608C121.411 79.9646 120.516 80.8597 119.412 80.8597H69.4955C68.3914 80.8597 67.4963 79.9646 67.4963 78.8608ZM69.4955 77.3972C68.6874 77.3972 68.0322 78.0524 68.0322 78.8608C68.0322 79.6689 68.6874 80.3241 69.4955 80.3241H119.412C120.22 80.3241 120.875 79.6689 120.875 78.8608C120.875 78.0524 120.22 77.3972 119.412 77.3972H69.4955Z" fill="#002E43"/>
<path d="M73.1543 88.5263L74.9947 80.7578H79.5836L76.1658 88.5263H73.1543Z" fill="white"/>
<path fill-rule="evenodd" clip-rule="evenodd" d="M74.7837 80.4902H79.9948L76.3413 88.7943H72.8164L74.7837 80.4902ZM75.2074 81.0258L73.4941 88.2587H75.9919L79.1739 81.0258H75.2074Z" fill="#002E43"/>
<path d="M115.21 88.5263L113.457 80.7578H108.781L112.142 88.5263H115.21Z" fill="white"/>
<path fill-rule="evenodd" clip-rule="evenodd" d="M113.744 80.4004H108.238L111.908 88.8837H115.659L113.744 80.4004ZM113.172 81.1152L114.764 88.1688H112.378L109.326 81.1152H113.172Z" fill="#002E43"/>
<path d="M46.2468 22.1423L45.2747 23.3962C45.2156 23.4725 45.1191 23.5091 45.0246 23.4913L43.8231 23.2646C43.5647 23.2158 43.4087 23.543 43.6082 23.7156L44.5525 24.5324C44.6214 24.592 44.654 24.6839 44.6382 24.774L44.4012 26.1208C44.3567 26.374 44.6663 26.5308 44.8415 26.3437L45.8115 25.3087C45.8685 25.2479 45.951 25.2185 46.0332 25.2299L47.1558 25.3838C47.4087 25.4185 47.5519 25.1011 47.3596 24.9321L46.5248 24.1984C46.4577 24.1395 46.4257 24.0498 46.4401 23.9614L46.7033 22.3435C46.7464 22.0789 46.4107 21.9309 46.2468 22.1423ZM95.2686 22.1921L94.6131 22.3338C94.5732 22.3424 94.5326 22.3281 94.508 22.2967L94.1943 21.8974C94.1267 21.8115 93.9863 21.8749 94.0009 21.9849L94.0688 22.5052C94.074 22.5432 94.0584 22.5817 94.0282 22.6066L93.5776 22.9777C93.4926 23.0475 93.546 23.1822 93.6535 23.1693L94.247 23.0978C94.282 23.0936 94.316 23.1065 94.3388 23.1324L94.6481 23.4868C94.7178 23.5666 94.8512 23.5029 94.8384 23.3961L94.7812 22.9323C94.7767 22.8951 94.7916 22.8574 94.8211 22.8327L95.3556 22.381C95.4433 22.3071 95.3792 22.1682 95.2686 22.1921Z" fill="#678FAB"/>
<path d="M103.974 35.6333L103.397 38.3745V40.1054L104.695 41.2598L108.59 40.8268V38.2299L108.446 35.2004C110.033 33.1807 110.61 29.2855 108.879 27.2658C107.148 25.2461 102.676 24.9575 101.81 29.7183C101.117 33.527 102.964 35.2485 103.974 35.6333Z" fill="#EFCB96"/>
<path d="M94.5977 89.0116L96.0755 72.8535H116.766L118.835 89.0116H94.5977Z" fill="#002E43"/>
<path d="M80.7469 42.7027C80.7469 43.1644 81.2277 43.9531 81.4683 44.2897L81.1799 46.021L79.0156 46.3094C78.4388 45.588 76.7075 45.2995 76.2745 44.1455C75.9286 43.222 76.8999 42.2218 77.4289 41.9813L75.6356 39.471C75.4259 39.1771 75.4751 38.7715 75.7493 38.5368C76.0402 38.2875 76.4773 38.3194 76.7287 38.6085L79.1602 41.4044C79.1602 41.5004 79.2465 41.4911 79.5928 40.683C80.0255 39.6731 80.4585 40.1058 80.7469 40.2503C81.0357 40.3946 80.7469 42.1258 80.7469 42.7027Z" fill="#EFCB96"/>
<path d="M105.704 39.818C103.742 39.818 103.252 38.2791 103.252 37.5098C101.867 37.5098 100.96 38.1859 100.671 38.3783L98.3467 45.0117L97.9141 72.9995C102.762 74.4999 108.878 73.6246 111.331 72.9995L112.918 38.5197C111.964 37.9127 110.571 37.6478 109.57 37.5535C109.08 37.5074 108.658 37.8541 108.408 38.2777C107.973 39.0141 107.123 39.818 105.704 39.818Z" fill="white"/>
<path fill-rule="evenodd" clip-rule="evenodd" d="M100.896 38.5509L98.6155 45.0596L98.1867 72.8016C102.812 74.164 108.561 73.394 111.074 72.7877L112.644 38.6663C111.751 38.1501 110.49 37.9096 109.546 37.8205C109.206 37.7886 108.867 38.0309 108.64 38.4143C108.171 39.2082 107.244 40.0863 105.706 40.0863C104.644 40.0863 103.951 39.6647 103.531 39.1156C103.201 38.6844 103.049 38.1879 103.002 37.7858C101.941 37.8534 101.217 38.3335 100.896 38.5509ZM100.583 38.1162C100.928 37.8811 101.867 37.2422 103.254 37.2422H103.521V37.5101C103.521 37.8485 103.631 38.3647 103.957 38.7901C104.272 39.2026 104.806 39.5503 105.706 39.5503C107.005 39.5503 107.778 38.8206 108.179 38.1418C108.453 37.678 108.957 37.2269 109.597 37.2871C110.607 37.3824 112.054 37.6517 113.063 38.294L113.194 38.3772L111.591 73.2103L111.399 73.2592C108.926 73.8894 102.753 74.7772 97.8362 73.2557L97.6445 73.1964L98.0813 44.9642L100.45 38.2056L100.524 38.1557C100.541 38.1442 100.561 38.1311 100.583 38.1162Z" fill="#002E43"/>
<path d="M100.656 52.5126C100.858 48.9804 101.956 42.6177 102.68 38.8245C102.856 37.2151 103.461 37.0999 101.507 37.6615C94.6643 39.628 93.0083 48.6265 90.8458 48.7617C89.3066 48.8577 85.5886 46.2875 83.1682 44.4266C82.4402 43.8671 81.4068 43.918 80.7575 44.5673L79.2106 46.1145C78.7367 46.5881 78.5603 47.2876 78.8234 47.9037C80.6108 52.0942 85.6365 58.7082 88.8261 60.3029C91.596 61.6878 93.8271 59.7257 94.5967 58.5716C94.5486 62.2744 94.4813 70.1708 94.5967 72.1329C94.741 74.5852 94.5967 76.6049 96.328 76.8937C98.0592 77.1821 101.377 76.6049 101.377 76.028C101.377 75.4508 100.367 57.5618 100.656 52.5126ZM107.581 52.3684C107.687 49.7153 109.021 42.5508 109.833 38.4979C110.036 37.483 109.955 37.4218 111.022 37.7183C118.499 39.7958 124.436 52.5916 123.883 57.706C123.421 61.9763 120.036 68.7186 118.401 71.5557C118.497 73.2869 118.516 76.807 117.824 77.0379C116.958 77.3263 109.456 77.0379 109.023 76.1723C108.591 75.3066 107.437 55.9748 107.581 52.3684Z" fill="#002E43"/>
<path d="M109.221 71.8819C108.315 71.4902 107.898 70.4384 108.29 69.5322L111.131 62.9538C111.523 62.0477 112.575 61.6306 113.481 62.022L123.14 66.1948C124.047 66.5862 124.464 67.6383 124.072 68.5442L121.231 75.1229C120.839 76.0291 119.787 76.4461 118.881 76.0547L109.221 71.8819Z" fill="white"/>
<path fill-rule="evenodd" clip-rule="evenodd" d="M109.115 72.1282C108.074 71.6779 107.594 70.4684 108.044 69.4266L110.886 62.8479C111.336 61.8062 112.546 61.3264 113.587 61.7764L123.247 65.9496C124.289 66.3995 124.769 67.609 124.319 68.6511L121.477 75.2295C121.027 76.2716 119.817 76.7513 118.775 76.301L109.115 72.1282ZM108.536 69.6391C108.203 70.4094 108.558 71.3035 109.328 71.6363L118.988 75.8094C119.758 76.1422 120.652 75.7873 120.985 75.017L123.827 68.4386C124.16 67.6683 123.805 66.7739 123.035 66.4415L113.375 62.2683C112.605 61.9355 111.711 62.2901 111.378 63.0604L108.536 69.6391Z" fill="#002E43"/>
<path d="M123.163 52.5137C122.249 53.9562 120.854 57.938 122.585 62.3236C123.451 60.6888 124.778 56.4376 123.163 52.5137ZM86.0859 58.1401C87.4806 57.8035 90.9909 57.5916 93.8766 59.4383C92.7222 60.737 89.5484 62.2949 86.0859 58.1401Z" fill="#002E43"/>
<path d="M95.317 50.4941C95.0286 53.0907 94.7402 56.409 94.596 58.8613C93.9033 59.6694 92.1915 60.4483 91.4219 60.7368C93.384 58.5441 94.4514 53.6679 95.317 50.4941Z" fill="#002E43"/>
<path d="M111.927 72.6088C112.042 72.2625 113.225 71.1182 113.802 70.5891C115.004 70.4449 117.322 70.5891 116.976 72.3204C116.543 74.4843 116.11 76.2155 113.802 75.4941C111.956 74.9173 112.167 73.715 112.504 73.186C112.263 73.1378 111.811 72.9551 111.927 72.6088Z" fill="#EFCB96"/>
<path d="M106.388 89.0061L105.035 81.168V89.0061H106.388Z" fill="white"/>
<path d="M108.302 32.3159L108.447 34.9127L108.482 37.7516C108.535 37.7491 108.697 37.5053 108.75 37.5041C111.333 37.4427 113.487 38.7461 114.241 39.3591C115.251 35.1751 111.765 32.3159 111.765 30.7289C111.765 29.142 111.043 24.2369 106.138 24.0927C102.459 23.9845 101.452 26.9961 101.38 29.1561C101.373 29.3757 101.574 29.5373 101.78 29.4612C102.768 29.0965 104.031 28.0821 104.782 27.2848C104.991 27.0631 105.422 27.134 105.558 27.4066C105.905 28.1023 106.413 28.7466 106.777 29.1868C106.83 29.2513 106.86 29.3314 106.861 29.4151C106.869 29.8241 106.912 30.3791 106.977 30.9273C107.023 31.3117 107.558 31.3103 107.678 30.9424C107.814 30.5288 107.978 30.1332 108.158 29.8633C108.735 28.9977 109.601 29.719 109.601 30.7289C109.601 31.5368 108.735 32.1235 108.302 32.3159ZM100.512 38.0864C101.089 37.5095 101.714 34.6723 101.955 33.3257C102.185 34.4799 103.397 35.3455 103.974 35.634L103.526 37.7516L103.392 37.3498C102.238 37.3498 101.041 37.8462 100.512 38.0864Z" fill="#002E43"/>
<path d="M116.392 71.9143L114.302 71.091C113.5 70.7748 113.038 69.9321 113.2 69.0855C113.651 66.7372 114.227 63.6532 114.649 61.1836L121.862 64.3421C121.055 66.5351 119.506 69.584 118.833 70.8341L118.492 71.3024C118.013 71.9611 117.149 72.2128 116.392 71.9143Z" fill="#002E43"/>
<path d="M115.226 57.1298C115.226 55.86 112.966 52.1285 111.908 49.9164C114.232 56.8261 114.367 58.4489 113.285 68.7269C113.962 65.3462 115.226 57.7355 115.226 57.1298ZM106.253 35.5938C105.279 36.0265 104.315 35.7741 103.954 35.5938L103.684 36.9461C104.982 36.9461 105.938 36.0445 106.253 35.5938Z" fill="#002E43"/>
</g>
<defs>
<clipPath id="clip0_225_11858">
<rect width="104" height="104" fill="white" transform="translate(24 3)"/>
</clipPath>
</defs>
</svg>
