<svg width="21" height="20" viewBox="0 0 21 20" fill="none" xmlns="http://www.w3.org/2000/svg">
<path d="M7.33325 4.2915C7.3031 4.2915 7.27182 4.27922 7.24618 4.25358C7.22054 4.22793 7.20825 4.19665 7.20825 4.1665V1.6665C7.20825 1.63636 7.22054 1.60508 7.24618 1.57943C7.27182 1.55379 7.3031 1.5415 7.33325 1.5415C7.3634 1.5415 7.39468 1.55379 7.42032 1.57943C7.44597 1.60508 7.45825 1.63636 7.45825 1.6665V4.1665C7.45825 4.19665 7.44597 4.22793 7.42032 4.25358C7.39468 4.27922 7.3634 4.2915 7.33325 4.2915Z" fill="#414651" stroke="#414651"/>
<path d="M14 4.2915C13.9699 4.2915 13.9386 4.27922 13.9129 4.25358C13.8873 4.22793 13.875 4.19665 13.875 4.1665V1.6665C13.875 1.63636 13.8873 1.60508 13.9129 1.57943C13.9386 1.55379 13.9699 1.5415 14 1.5415C14.0301 1.5415 14.0614 1.55379 14.0871 1.57943C14.1127 1.60508 14.125 1.63636 14.125 1.6665V4.1665C14.125 4.19665 14.1127 4.22793 14.0871 4.25358C14.0614 4.27922 14.0301 4.2915 14 4.2915Z" fill="#414651" stroke="#414651"/>
<path d="M8.02242 11.445C8.02233 11.4451 8.02219 11.4453 8.02201 11.4455L8.02242 11.445ZM8.02242 11.445L8.02255 11.4448C8.02255 11.4448 8.02253 11.4449 8.02247 11.4449C8.02246 11.4449 8.02244 11.445 8.02242 11.445ZM7.6256 11.5552L7.62567 11.5551L7.61278 11.5501C7.58125 11.538 7.55233 11.5215 7.509 11.4844C7.44733 11.4135 7.41663 11.331 7.41663 11.2501C7.41663 11.2176 7.42448 11.1746 7.44483 11.1257C7.46121 11.0864 7.48354 11.0487 7.51371 11.0118C7.55446 10.9775 7.5824 10.9618 7.61278 10.9501L7.61285 10.9503L7.6256 10.945C7.7433 10.8959 7.89765 10.926 7.98355 11.0076C8.04841 11.0787 8.08329 11.1718 8.08329 11.2501C8.08329 11.25 8.08329 11.25 8.08329 11.2502C8.08325 11.2512 8.08299 11.2585 8.08114 11.2751C8.07931 11.2915 8.07682 11.3097 8.07334 11.3342C8.07277 11.3358 8.07161 11.3388 8.06941 11.3432L8.05352 11.3749L8.04228 11.4087C8.04147 11.4111 8.03766 11.4213 8.0256 11.4394L8.0194 11.4487L8.0138 11.4554L7.98918 11.4839C7.98643 11.4871 7.98342 11.4906 7.98019 11.4944C7.91084 11.5524 7.82386 11.5834 7.74996 11.5834C7.71744 11.5834 7.67442 11.5756 7.6256 11.5552Z" fill="#414651" stroke="#414651"/>
<path d="M10.6666 12.0832C10.5583 12.0832 10.4499 12.0582 10.3499 12.0166C10.2416 11.9749 10.1583 11.9166 10.0749 11.8416C9.92492 11.6832 9.83325 11.4749 9.83325 11.2499C9.83325 11.1416 9.85825 11.0332 9.89992 10.9332C9.94159 10.8332 9.99992 10.7416 10.0749 10.6582C10.1583 10.5832 10.2416 10.5249 10.3499 10.4832C10.6499 10.3499 11.0249 10.4249 11.2583 10.6582C11.4083 10.8166 11.4999 11.0332 11.4999 11.2499C11.4999 11.2999 11.4916 11.3582 11.4833 11.4166C11.4749 11.4666 11.4582 11.5166 11.4332 11.5666C11.4166 11.6166 11.3916 11.6666 11.3583 11.7166C11.3333 11.7582 11.2916 11.7999 11.2583 11.8416C11.0999 11.9916 10.8833 12.0832 10.6666 12.0832Z" fill="#414651"/>
<path d="M13.5833 12.0832C13.475 12.0832 13.3667 12.0582 13.2667 12.0166C13.1583 11.9749 13.075 11.9166 12.9917 11.8416C12.9583 11.7999 12.925 11.7582 12.8917 11.7166C12.8583 11.6666 12.8333 11.6166 12.8167 11.5666C12.7917 11.5166 12.775 11.4666 12.7667 11.4166C12.7583 11.3582 12.75 11.2999 12.75 11.2499C12.75 11.0332 12.8417 10.8166 12.9917 10.6582C13.075 10.5832 13.1583 10.5249 13.2667 10.4832C13.575 10.3499 13.9417 10.4249 14.175 10.6582C14.325 10.8166 14.4167 11.0332 14.4167 11.2499C14.4167 11.2999 14.4083 11.3582 14.4 11.4166C14.3917 11.4666 14.375 11.5166 14.35 11.5666C14.3333 11.6166 14.3083 11.6666 14.275 11.7166C14.25 11.7582 14.2083 11.7999 14.175 11.8416C14.0167 11.9916 13.8 12.0832 13.5833 12.0832Z" fill="#414651"/>
<path d="M7.74996 15C7.64163 15 7.53329 14.975 7.43329 14.9333C7.33329 14.8917 7.24163 14.8333 7.15829 14.7583C7.00829 14.6 6.91663 14.3833 6.91663 14.1667C6.91663 14.0583 6.94163 13.95 6.98329 13.85C7.02496 13.7417 7.08329 13.65 7.15829 13.575C7.46663 13.2667 8.03329 13.2667 8.34163 13.575C8.49163 13.7333 8.58329 13.95 8.58329 14.1667C8.58329 14.3833 8.49163 14.6 8.34163 14.7583C8.18329 14.9083 7.96663 15 7.74996 15Z" fill="#414651"/>
<path d="M10.6666 15C10.4499 15 10.2333 14.9083 10.0749 14.7583C9.92492 14.6 9.83325 14.3833 9.83325 14.1667C9.83325 14.0583 9.85825 13.95 9.89992 13.85C9.94159 13.7417 9.99992 13.65 10.0749 13.575C10.3833 13.2667 10.9499 13.2667 11.2583 13.575C11.3333 13.65 11.3916 13.7417 11.4332 13.85C11.4749 13.95 11.4999 14.0583 11.4999 14.1667C11.4999 14.3833 11.4083 14.6 11.2583 14.7583C11.0999 14.9083 10.8833 15 10.6666 15Z" fill="#414651"/>
<path d="M13.5833 14.9999C13.3667 14.9999 13.15 14.9083 12.9917 14.7583C12.9167 14.6833 12.8583 14.5916 12.8167 14.4833C12.775 14.3833 12.75 14.2749 12.75 14.1666C12.75 14.0583 12.775 13.9499 12.8167 13.8499C12.8583 13.7416 12.9167 13.6499 12.9917 13.5749C13.1833 13.3833 13.475 13.2916 13.7417 13.3499C13.8 13.3583 13.85 13.3749 13.9 13.3999C13.95 13.4166 14 13.4416 14.05 13.4749C14.0917 13.4999 14.1333 13.5416 14.175 13.5749C14.325 13.7333 14.4167 13.9499 14.4167 14.1666C14.4167 14.3833 14.325 14.5999 14.175 14.7583C14.0167 14.9083 13.8 14.9999 13.5833 14.9999Z" fill="#414651"/>
<path d="M17.7499 8.20019H3.58325C3.24159 8.20019 2.95825 7.91686 2.95825 7.5752C2.95825 7.23353 3.24159 6.9502 3.58325 6.9502H17.7499C18.0916 6.9502 18.3749 7.23353 18.3749 7.5752C18.3749 7.91686 18.0916 8.20019 17.7499 8.20019Z" fill="#414651"/>
<path d="M14 18.9582H7.33329C4.29163 18.9582 2.54163 17.2082 2.54163 14.1665V7.08317C2.54163 4.0415 4.29163 2.2915 7.33329 2.2915H14C17.0416 2.2915 18.7916 4.0415 18.7916 7.08317V14.1665C18.7916 17.2082 17.0416 18.9582 14 18.9582ZM7.33329 3.5415C4.94996 3.5415 3.79163 4.69984 3.79163 7.08317V14.1665C3.79163 16.5498 4.94996 17.7082 7.33329 17.7082H14C16.3833 17.7082 17.5416 16.5498 17.5416 14.1665V7.08317C17.5416 4.69984 16.3833 3.5415 14 3.5415H7.33329Z" fill="#414651"/>
</svg>
