<svg width="20" height="21" viewBox="0 0 20 21" fill="none" xmlns="http://www.w3.org/2000/svg">
<path d="M6.66669 4.79175C6.63654 4.79175 6.60526 4.77946 6.57962 4.75382C6.55397 4.72818 6.54169 4.6969 6.54169 4.66675V2.16675C6.54169 2.1366 6.55397 2.10532 6.57962 2.07968C6.60526 2.05403 6.63654 2.04175 6.66669 2.04175C6.69683 2.04175 6.72811 2.05403 6.75376 2.07968C6.7794 2.10532 6.79169 2.1366 6.79169 2.16675V4.66675C6.79169 4.6969 6.7794 4.72818 6.75376 4.75382C6.72811 4.77946 6.69683 4.79175 6.66669 4.79175Z" fill="#414651" stroke="#414651"/>
<path d="M13.3333 4.79175C13.3032 4.79175 13.2719 4.77946 13.2462 4.75382C13.2206 4.72818 13.2083 4.6969 13.2083 4.66675V2.16675C13.2083 2.1366 13.2206 2.10532 13.2462 2.07968C13.2719 2.05403 13.3032 2.04175 13.3333 2.04175C13.3635 2.04175 13.3947 2.05403 13.4204 2.07968C13.446 2.10532 13.4583 2.1366 13.4583 2.16675V4.66675C13.4583 4.6969 13.446 4.72818 13.4204 4.75382C13.3947 4.77946 13.3635 4.79175 13.3333 4.79175Z" fill="#414651" stroke="#414651"/>
<path d="M6.95897 12.0555L6.95905 12.0553L6.94616 12.0503C6.91462 12.0382 6.88571 12.0218 6.84237 11.9846C6.7807 11.9138 6.75 11.8312 6.75 11.7503C6.75 11.7179 6.75785 11.6748 6.77821 11.626C6.79458 11.5867 6.81691 11.5489 6.84709 11.5121C6.88783 11.4777 6.91578 11.462 6.94616 11.4503L6.94622 11.4505L6.95897 11.4452C7.07667 11.3962 7.23103 11.4262 7.31693 11.5078C7.38178 11.579 7.41667 11.672 7.41667 11.7503C7.41667 11.7502 7.41667 11.7502 7.41666 11.7504C7.41662 11.7514 7.41636 11.7587 7.41452 11.7753C7.41269 11.7918 7.4102 11.81 7.40671 11.8345C7.40615 11.8361 7.40498 11.839 7.40278 11.8434L7.38689 11.8752L7.37566 11.9089C7.37485 11.9113 7.37104 11.9216 7.35898 11.9397L7.35277 11.949L7.34717 11.9557L7.32256 11.9842C7.31981 11.9874 7.31679 11.9909 7.31357 11.9947C7.24422 12.0526 7.15723 12.0837 7.08333 12.0837C7.05082 12.0837 7.00779 12.0758 6.95897 12.0555ZM7.35592 11.9451C7.35591 11.9451 7.35574 11.9453 7.35538 11.9458L7.35592 11.9451Z" fill="#414651" stroke="#414651"/>
<path d="M10 12.5832C9.89169 12.5832 9.78335 12.5582 9.68335 12.5166C9.57502 12.4749 9.49169 12.4166 9.40835 12.3416C9.25835 12.1832 9.16669 11.9749 9.16669 11.7499C9.16669 11.6416 9.19169 11.5332 9.23336 11.4332C9.27502 11.3332 9.33335 11.2416 9.40835 11.1582C9.49169 11.0832 9.57502 11.0249 9.68335 10.9832C9.98335 10.8499 10.3584 10.9249 10.5917 11.1582C10.7417 11.3166 10.8334 11.5332 10.8334 11.7499C10.8334 11.7999 10.825 11.8582 10.8167 11.9166C10.8084 11.9666 10.7917 12.0166 10.7667 12.0666C10.75 12.1166 10.725 12.1666 10.6917 12.2166C10.6667 12.2582 10.625 12.2999 10.5917 12.3416C10.4334 12.4916 10.2167 12.5832 10 12.5832Z" fill="#717680"/>
<path d="M12.9166 12.5832C12.8083 12.5832 12.7 12.5582 12.6 12.5166C12.4916 12.4749 12.4083 12.4166 12.325 12.3416C12.2916 12.2999 12.2583 12.2582 12.225 12.2166C12.1916 12.1666 12.1666 12.1166 12.15 12.0666C12.125 12.0166 12.1083 11.9666 12.1 11.9166C12.0916 11.8582 12.0833 11.7999 12.0833 11.7499C12.0833 11.5332 12.175 11.3166 12.325 11.1582C12.4083 11.0832 12.4916 11.0249 12.6 10.9832C12.9083 10.8499 13.275 10.9249 13.5083 11.1582C13.6583 11.3166 13.75 11.5332 13.75 11.7499C13.75 11.7999 13.7416 11.8582 13.7333 11.9166C13.725 11.9666 13.7083 12.0166 13.6833 12.0666C13.6666 12.1166 13.6416 12.1666 13.6083 12.2166C13.5833 12.2582 13.5416 12.2999 13.5083 12.3416C13.35 12.4916 13.1333 12.5832 12.9166 12.5832Z" fill="#414651"/>
<path d="M7.08333 15.5C6.975 15.5 6.86667 15.475 6.76667 15.4333C6.66667 15.3917 6.575 15.3333 6.49167 15.2583C6.34167 15.1 6.25 14.8833 6.25 14.6667C6.25 14.5583 6.275 14.45 6.31667 14.35C6.35833 14.2417 6.41667 14.15 6.49167 14.075C6.8 13.7667 7.36667 13.7667 7.675 14.075C7.825 14.2333 7.91667 14.45 7.91667 14.6667C7.91667 14.8833 7.825 15.1 7.675 15.2583C7.51667 15.4083 7.3 15.5 7.08333 15.5Z" fill="#717680"/>
<path d="M10 15.5C9.78335 15.5 9.56669 15.4083 9.40835 15.2583C9.25835 15.1 9.16669 14.8833 9.16669 14.6667C9.16669 14.5583 9.19169 14.45 9.23336 14.35C9.27502 14.2417 9.33335 14.15 9.40835 14.075C9.71669 13.7667 10.2834 13.7667 10.5917 14.075C10.6667 14.15 10.725 14.2417 10.7667 14.35C10.8084 14.45 10.8334 14.5583 10.8334 14.6667C10.8334 14.8833 10.7417 15.1 10.5917 15.2583C10.4334 15.4083 10.2167 15.5 10 15.5Z" fill="#717680"/>
<path d="M12.9166 15.4999C12.7 15.4999 12.4833 15.4083 12.325 15.2583C12.25 15.1833 12.1916 15.0916 12.15 14.9833C12.1083 14.8833 12.0833 14.7749 12.0833 14.6666C12.0833 14.5583 12.1083 14.4499 12.15 14.3499C12.1916 14.2416 12.25 14.1499 12.325 14.0749C12.5166 13.8833 12.8083 13.7916 13.075 13.8499C13.1333 13.8583 13.1833 13.8749 13.2333 13.8999C13.2833 13.9166 13.3333 13.9416 13.3833 13.9749C13.425 13.9999 13.4666 14.0416 13.5083 14.0749C13.6583 14.2333 13.75 14.4499 13.75 14.6666C13.75 14.8833 13.6583 15.0999 13.5083 15.2583C13.35 15.4083 13.1333 15.4999 12.9166 15.4999Z" fill="#717680"/>
<path d="M17.0834 8.69995H2.91669C2.57502 8.69995 2.29169 8.41662 2.29169 8.07495C2.29169 7.73328 2.57502 7.44995 2.91669 7.44995H17.0834C17.425 7.44995 17.7084 7.73328 17.7084 8.07495C17.7084 8.41662 17.425 8.69995 17.0834 8.69995Z" fill="#717680"/>
<path d="M13.3333 19.4584H6.66667C3.625 19.4584 1.875 17.7084 1.875 14.6667V7.58341C1.875 4.54175 3.625 2.79175 6.66667 2.79175H13.3333C16.375 2.79175 18.125 4.54175 18.125 7.58341V14.6667C18.125 17.7084 16.375 19.4584 13.3333 19.4584ZM6.66667 4.04175C4.28333 4.04175 3.125 5.20008 3.125 7.58341V14.6667C3.125 17.0501 4.28333 18.2084 6.66667 18.2084H13.3333C15.7167 18.2084 16.875 17.0501 16.875 14.6667V7.58341C16.875 5.20008 15.7167 4.04175 13.3333 4.04175H6.66667Z" fill="#717680"/>
</svg>
