<svg width="24" height="21" viewBox="0 0 24 21" fill="none" xmlns="http://www.w3.org/2000/svg">
<path d="M18.9997 5.59961V8.39961C18.9997 9.88482 18.4097 11.3092 17.3595 12.3594C16.3093 13.4096 14.8849 13.9996 13.3997 13.9996H11.7589L9.2865 16.4734C9.6785 16.682 10.1251 16.7996 10.5997 16.7996H13.3997L17.5997 20.9996V16.7996H20.3997C21.1423 16.7996 21.8545 16.5046 22.3796 15.9795C22.9047 15.4544 23.1997 14.7422 23.1997 13.9996V8.39961C23.1997 7.657 22.9047 6.94481 22.3796 6.41971C21.8545 5.89461 21.1423 5.59961 20.3997 5.59961H18.9997Z" fill="#5E7B89"/>
<path d="M0.800354 2.8C0.800354 2.05739 1.09535 1.3452 1.62045 0.820101C2.14556 0.294999 2.85775 0 3.60035 0H13.4004C14.143 0 14.8552 0.294999 15.3803 0.820101C15.9054 1.3452 16.2004 2.05739 16.2004 2.8V8.4C16.2004 9.14261 15.9054 9.8548 15.3803 10.3799C14.8552 10.905 14.143 11.2 13.4004 11.2H10.6004L6.40035 15.4V11.2H3.60035C2.85775 11.2 2.14556 10.905 1.62045 10.3799C1.09535 9.8548 0.800354 9.14261 0.800354 8.4V2.8Z" fill="#002E43"/>
</svg>
