<svg width="20" height="20" viewBox="0 0 20 20" fill="none" xmlns="http://www.w3.org/2000/svg">
<path d="M9.00817 14.1252C8.84984 14.1252 8.6915 14.0669 8.5665 13.9419L7.3165 12.6919C7.07484 12.4502 7.07484 12.0502 7.3165 11.8085C7.55817 11.5669 7.95817 11.5669 8.19984 11.8085L9.00817 12.6169L11.8998 9.7252C12.1415 9.48353 12.5415 9.48353 12.7832 9.7252C13.0248 9.96686 13.0248 10.3669 12.7832 10.6085L9.44984 13.9419C9.33317 14.0669 9.1665 14.1252 9.00817 14.1252Z" fill="#12B76A"/>
<path d="M11.6665 5.62484H8.33317C7.53317 5.62484 6.0415 5.62484 6.0415 3.33317C6.0415 1.0415 7.53317 1.0415 8.33317 1.0415H11.6665C12.4665 1.0415 13.9582 1.0415 13.9582 3.33317C13.9582 4.13317 13.9582 5.62484 11.6665 5.62484ZM8.33317 2.2915C7.50817 2.2915 7.2915 2.2915 7.2915 3.33317C7.2915 4.37484 7.50817 4.37484 8.33317 4.37484H11.6665C12.7082 4.37484 12.7082 4.15817 12.7082 3.33317C12.7082 2.2915 12.4915 2.2915 11.6665 2.2915H8.33317Z" fill="#12B76A"/>
<path d="M12.5 18.9582H7.5C2.81667 18.9582 1.875 16.8082 1.875 13.3332V8.33319C1.875 4.5332 3.25 2.9082 6.63333 2.7332C6.975 2.71653 7.275 2.97486 7.29167 3.32486C7.30833 3.67486 7.04167 3.9582 6.7 3.97486C4.33333 4.1082 3.125 4.81653 3.125 8.33319V13.3332C3.125 16.4165 3.73333 17.7082 7.5 17.7082H12.5C16.2667 17.7082 16.875 16.4165 16.875 13.3332V8.33319C16.875 4.81653 15.6667 4.1082 13.3 3.97486C12.9583 3.9582 12.6917 3.6582 12.7083 3.31653C12.725 2.97486 13.0167 2.7082 13.3667 2.72486C16.75 2.9082 18.125 4.53319 18.125 8.32486V13.3249C18.125 16.8082 17.1833 18.9582 12.5 18.9582Z" fill="#12B76A"/>
</svg>
