<svg width="20" height="20" viewBox="0 0 20 20" fill="none" xmlns="http://www.w3.org/2000/svg">
<path d="M11.6666 13.5919C11.6489 13.5919 11.6334 13.5886 11.62 13.5833C11.6072 13.5781 11.5931 13.5697 11.5785 13.555L8.27846 10.255C8.25693 10.2334 8.24365 10.2027 8.24365 10.1669C8.24365 10.131 8.25693 10.1003 8.27846 10.0787C8.29998 10.0572 8.33072 10.0439 8.36657 10.0439C8.40242 10.0439 8.43315 10.0572 8.45468 10.0787L11.7547 13.3787C11.7762 13.4003 11.7895 13.431 11.7895 13.4669C11.7895 13.4998 11.7783 13.5285 11.7597 13.5496C11.7198 13.5839 11.6837 13.5919 11.6666 13.5919Z" fill="#F04438" stroke="#F04438"/>
<path d="M8.33337 13.6251C8.31568 13.6251 8.30016 13.6218 8.28684 13.6165C8.27398 13.6113 8.25993 13.6029 8.24525 13.5882C8.22373 13.5667 8.21045 13.5359 8.21045 13.5001C8.21045 13.4642 8.22373 13.4335 8.24525 13.412L11.5453 10.112C11.5668 10.0904 11.5975 10.0771 11.6334 10.0771C11.6692 10.0771 11.7 10.0904 11.7215 10.112C11.743 10.1335 11.7563 10.1642 11.7563 10.2001C11.7563 10.2359 11.743 10.2667 11.7215 10.2882L8.42148 13.5882C8.4068 13.6029 8.39275 13.6113 8.37989 13.6165C8.36657 13.6218 8.35105 13.6251 8.33337 13.6251Z" fill="#F04438" stroke="#F04438"/>
<path d="M11.6665 5.62484H8.33317C7.53317 5.62484 6.0415 5.62484 6.0415 3.33317C6.0415 1.0415 7.53317 1.0415 8.33317 1.0415H11.6665C12.4665 1.0415 13.9582 1.0415 13.9582 3.33317C13.9582 4.13317 13.9582 5.62484 11.6665 5.62484ZM8.33317 2.2915C7.50817 2.2915 7.2915 2.2915 7.2915 3.33317C7.2915 4.37484 7.50817 4.37484 8.33317 4.37484H11.6665C12.7082 4.37484 12.7082 4.15817 12.7082 3.33317C12.7082 2.2915 12.4915 2.2915 11.6665 2.2915H8.33317Z" fill="#F04438"/>
<path d="M12.5 18.9582H7.5C2.81667 18.9582 1.875 16.8082 1.875 13.3332V8.3332C1.875 4.5332 3.25 2.9082 6.63333 2.7332C6.98333 2.71653 7.275 2.97486 7.29167 3.32486C7.30833 3.67486 7.04167 3.9582 6.7 3.97486C4.33333 4.1082 3.125 4.81653 3.125 8.3332V13.3332C3.125 16.4165 3.73333 17.7082 7.5 17.7082H12.5C16.2667 17.7082 16.875 16.4165 16.875 13.3332V8.3332C16.875 4.81653 15.6667 4.1082 13.3 3.97486C12.9583 3.9582 12.6917 3.6582 12.7083 3.31653C12.725 2.97486 13.025 2.7082 13.3667 2.72486C16.75 2.9082 18.125 4.53319 18.125 8.32486V13.3249C18.125 16.8082 17.1833 18.9582 12.5 18.9582Z" fill="#F04438"/>
</svg>
