<svg width="20" height="21" viewBox="0 0 20 21" fill="none" xmlns="http://www.w3.org/2000/svg">
<path d="M1.6665 15.5003C1.6665 14.2166 1.6665 13.5748 1.95544 13.1033C2.11712 12.8394 2.33895 12.6176 2.60278 12.4559C3.07429 12.167 3.71614 12.167 4.99984 12.167C6.28354 12.167 6.92538 12.167 7.39689 12.4559C7.66073 12.6176 7.88255 12.8394 8.04423 13.1033C8.33317 13.5748 8.33317 14.2166 8.33317 15.5003C8.33317 16.784 8.33317 17.4259 8.04423 17.8974C7.88255 18.1612 7.66073 18.383 7.39689 18.5447C6.92538 18.8337 6.28354 18.8337 4.99984 18.8337C3.71614 18.8337 3.07429 18.8337 2.60278 18.5447C2.33895 18.383 2.11712 18.1612 1.95544 17.8974C1.6665 17.4259 1.6665 16.784 1.6665 15.5003Z" stroke="#717680"/>
<path d="M11.6665 15.5003C11.6665 14.2166 11.6665 13.5748 11.9554 13.1033C12.1171 12.8394 12.3389 12.6176 12.6028 12.4559C13.0743 12.167 13.7161 12.167 14.9998 12.167C16.2835 12.167 16.9254 12.167 17.3969 12.4559C17.6607 12.6176 17.8826 12.8394 18.0442 13.1033C18.3332 13.5748 18.3332 14.2166 18.3332 15.5003C18.3332 16.784 18.3332 17.4259 18.0442 17.8974C17.8826 18.1612 17.6607 18.383 17.3969 18.5447C16.9254 18.8337 16.2835 18.8337 14.9998 18.8337C13.7161 18.8337 13.0743 18.8337 12.6028 18.5447C12.3389 18.383 12.1171 18.1612 11.9554 17.8974C11.6665 17.4259 11.6665 16.784 11.6665 15.5003Z" stroke="#717680"/>
<path d="M1.6665 5.50033C1.6665 4.21663 1.6665 3.57478 1.95544 3.10327C2.11712 2.83944 2.33895 2.61761 2.60278 2.45593C3.07429 2.16699 3.71614 2.16699 4.99984 2.16699C6.28354 2.16699 6.92538 2.16699 7.39689 2.45593C7.66073 2.61761 7.88255 2.83944 8.04423 3.10327C8.33317 3.57478 8.33317 4.21663 8.33317 5.50033C8.33317 6.78402 8.33317 7.42587 8.04423 7.89738C7.88255 8.16122 7.66073 8.38304 7.39689 8.54472C6.92538 8.83366 6.28354 8.83366 4.99984 8.83366C3.71614 8.83366 3.07429 8.83366 2.60278 8.54472C2.33895 8.38304 2.11712 8.16122 1.95544 7.89738C1.6665 7.42587 1.6665 6.78402 1.6665 5.50033Z" stroke="#717680"/>
<path d="M11.6665 5.50033C11.6665 4.21663 11.6665 3.57478 11.9554 3.10327C12.1171 2.83944 12.3389 2.61761 12.6028 2.45593C13.0743 2.16699 13.7161 2.16699 14.9998 2.16699C16.2835 2.16699 16.9254 2.16699 17.3969 2.45593C17.6607 2.61761 17.8826 2.83944 18.0442 3.10327C18.3332 3.57478 18.3332 4.21663 18.3332 5.50033C18.3332 6.78402 18.3332 7.42587 18.0442 7.89738C17.8826 8.16122 17.6607 8.38304 17.3969 8.54472C16.9254 8.83366 16.2835 8.83366 14.9998 8.83366C13.7161 8.83366 13.0743 8.83366 12.6028 8.54472C12.3389 8.38304 12.1171 8.16122 11.9554 7.89738C11.6665 7.42587 11.6665 6.78402 11.6665 5.50033Z" stroke="#717680"/>
</svg>
