<svg width="20" height="21" viewBox="0 0 20 21" fill="none" xmlns="http://www.w3.org/2000/svg">
<path d="M11.6414 11.2119L11.6412 11.2118L8.28284 10.0285L8.28284 10.0285L8.28023 10.0276C7.98968 9.927 7.70097 9.78532 7.48311 9.54173C7.27544 9.30956 7.09167 8.93937 7.09167 8.30006C7.09167 7.27848 7.89033 6.4834 8.83334 6.4834H10.925C11.9985 6.4834 12.9 7.39217 12.9 8.55006C12.9 8.58021 12.8877 8.61149 12.8621 8.63714C12.8364 8.66278 12.8052 8.67506 12.775 8.67506C12.7449 8.67506 12.7136 8.66278 12.6879 8.63714C12.6623 8.61149 12.65 8.58021 12.65 8.55006C12.65 7.58365 11.9096 6.7334 10.925 6.7334H8.83334C7.98203 6.7334 7.34167 7.47532 7.34167 8.30006C7.34167 8.71052 7.41259 9.06462 7.63599 9.33942C7.85176 9.60483 8.14989 9.71457 8.3586 9.78823L8.35884 9.78831L11.7172 10.9716L11.7172 10.9717L11.7198 10.9726C12.0103 11.0731 12.299 11.2148 12.5169 11.4584C12.7244 11.6904 12.908 12.0601 12.9083 12.6984C12.9008 13.7177 12.1052 14.5167 11.1667 14.5167H9.07501C8.00154 14.5167 7.10001 13.608 7.10001 12.4501C7.10001 12.4199 7.11229 12.3886 7.13794 12.363C7.16358 12.3373 7.19486 12.3251 7.22501 12.3251C7.25516 12.3251 7.28644 12.3373 7.31208 12.363C7.33772 12.3886 7.35001 12.4199 7.35001 12.4501C7.35001 13.4165 8.09038 14.2667 9.07501 14.2667H11.1667C12.018 14.2667 12.6583 13.5248 12.6583 12.7001C12.6583 12.2896 12.5874 11.9355 12.364 11.6607C12.1483 11.3953 11.8501 11.2856 11.6414 11.2119Z" fill="#717680" stroke="#717680"/>
<path d="M10 15.625C9.96985 15.625 9.93857 15.6127 9.91293 15.5871C9.88728 15.5614 9.875 15.5301 9.875 15.5V5.5C9.875 5.46985 9.88728 5.43857 9.91293 5.41293C9.93857 5.38728 9.96985 5.375 10 5.375C10.0301 5.375 10.0614 5.38728 10.0871 5.41293C10.1127 5.43857 10.125 5.46985 10.125 5.5V15.5C10.125 15.5301 10.1127 15.5614 10.0871 15.5871C10.0614 15.6127 10.0301 15.625 10 15.625Z" fill="#717680" stroke="#717680"/>
<path d="M10 18.9582C5.3345 18.9582 1.54169 15.1654 1.54169 10.4998C1.54169 5.83431 5.3345 2.0415 10 2.0415C14.6655 2.0415 18.4584 5.83431 18.4584 10.4998C18.4584 15.1654 14.6655 18.9582 10 18.9582ZM10 2.2915C5.47388 2.2915 1.79169 5.9737 1.79169 10.4998C1.79169 15.026 5.47388 18.7082 10 18.7082C14.5262 18.7082 18.2084 15.026 18.2084 10.4998C18.2084 5.9737 14.5262 2.2915 10 2.2915Z" fill="#717680" stroke="#717680"/>
</svg>
