<svg width="16" height="17" viewBox="0 0 16 17" fill="none" xmlns="http://www.w3.org/2000/svg">
<path d="M5.0007 8.48902C5.00024 8.25585 5.08162 8.02987 5.2307 7.85033L9.2307 2.86052C9.40044 2.65672 9.64435 2.52855 9.90878 2.50422C10.1732 2.47989 10.4365 2.56139 10.6407 2.73078C10.8449 2.90017 10.9733 3.14359 10.9977 3.40748C11.0221 3.67136 10.9404 3.93411 10.7707 4.13791L7.2907 8.48902L10.6107 12.8401C10.6938 12.9422 10.7558 13.0597 10.7932 13.1858C10.8307 13.3118 10.8428 13.4441 10.8288 13.5748C10.8149 13.7056 10.7752 13.8323 10.712 13.9477C10.6488 14.0631 10.5634 14.1649 10.4607 14.2473C10.3579 14.3387 10.2373 14.4079 10.1064 14.4506C9.97551 14.4933 9.83721 14.5086 9.70014 14.4954C9.56308 14.4823 9.43021 14.4411 9.30985 14.3744C9.18949 14.3076 9.08425 14.2168 9.0007 14.1075L5.1707 9.11774C5.04519 8.93303 4.98533 8.71167 5.0007 8.48902Z" fill="#91A5AE"/>
</svg>
