<svg width="24" height="24" viewBox="0 0 24 24" fill="none" xmlns="http://www.w3.org/2000/svg">
<path d="M8.43412 10.3309L8.43401 10.331L8.44171 10.3403L11.6157 14.1488L11.9998 14.6096L12.3839 14.1488L15.553 10.3461C15.5958 10.2989 15.655 10.2698 15.7186 10.2648C15.7837 10.2596 15.8482 10.2801 15.8983 10.3219L16.217 9.93958L15.8983 10.3219C15.9485 10.3637 15.9803 10.4234 15.987 10.4884C15.9935 10.5518 15.9755 10.6153 15.9368 10.6659L12.5922 14.6801L12.3255 15.0002L12.5922 15.3202L15.9417 19.3402L15.9419 19.3405C15.963 19.3658 15.9789 19.3949 15.9887 19.4263C15.9985 19.4576 16.002 19.4906 15.9991 19.5234C15.9961 19.5561 15.9867 19.5879 15.9715 19.617L16.4144 19.8491L15.9715 19.617C15.9562 19.6462 15.9354 19.672 15.9102 19.693L16.2306 20.0769L15.9102 19.693C15.8849 19.7141 15.8558 19.73 15.8244 19.7398L15.9735 20.217L15.8244 19.7398C15.7931 19.7496 15.7601 19.7531 15.7273 19.7502C15.6613 19.7442 15.6004 19.7123 15.5579 19.6615C15.5578 19.6614 15.5577 19.6614 15.5577 19.6613L12.384 15.8516L11.9999 15.3906L11.6157 15.8515L8.44656 19.6542C8.40379 19.7014 8.34457 19.7305 8.28097 19.7356C8.21591 19.7407 8.15142 19.7202 8.10128 19.6784C8.05115 19.6366 8.01933 19.5769 8.01264 19.5119C8.00611 19.4485 8.02408 19.385 8.0628 19.3344L11.4074 15.3202L11.6741 15.0002L11.4074 14.6801L8.05794 10.6601L8.05805 10.66L8.05012 10.6509C8.02817 10.6258 8.01146 10.5966 8.00098 10.565C7.99049 10.5333 7.98643 10.4999 7.98905 10.4667C7.99167 10.4335 8.00091 10.4011 8.01623 10.3715C8.03154 10.3419 8.05263 10.3156 8.07824 10.2943C8.10385 10.2729 8.13346 10.2569 8.16535 10.2472C8.19723 10.2375 8.23074 10.2342 8.2639 10.2376C8.29706 10.2411 8.3292 10.2511 8.35844 10.2671C8.38767 10.2831 8.4134 10.3048 8.43412 10.3309Z" fill="black" stroke="#131416"/>
<path d="M20 6.75V6.45711L20.5 6.95711V21C20.5 21.663 20.2366 22.2989 19.7678 22.7678C19.2989 23.2366 18.663 23.5 18 23.5H6C5.33696 23.5 4.70107 23.2366 4.23223 22.7678C3.76339 22.2989 3.5 21.663 3.5 21V3C3.5 2.33696 3.76339 1.70107 4.23223 1.23223C4.70107 0.763392 5.33696 0.5 6 0.5H14.0429L14.5429 1H14.25H6C5.46957 1 4.96086 1.21071 4.58579 1.58579C4.21071 1.96086 4 2.46957 4 3V21C4 21.5304 4.21071 22.0391 4.58579 22.4142C4.96086 22.7893 5.46957 23 6 23H18C18.5304 23 19.0391 22.7893 19.4142 22.4142C19.7893 22.0391 20 21.5304 20 21V6.75ZM14.75 1.20711L19.7929 6.25H19.5H16.5C16.0359 6.25 15.5908 6.06563 15.2626 5.73744C14.9344 5.40925 14.75 4.96413 14.75 4.5V1.5V1.20711Z" fill="black" stroke="#131416"/>
</svg>
