<svg width="15" height="14" viewBox="0 0 15 14" fill="none" xmlns="http://www.w3.org/2000/svg">
<path d="M6.33332 13.2707H5.74999C2.58249 13.2707 1.22916 11.9173 1.22916 8.74984V5.24984C1.22916 2.08234 2.58249 0.729004 5.74999 0.729004H9.24999C12.4175 0.729004 13.7708 2.08234 13.7708 5.24984V6.4165C13.7708 6.65567 13.5725 6.854 13.3333 6.854C13.0942 6.854 12.8958 6.65567 12.8958 6.4165V5.24984C12.8958 2.56067 11.9392 1.604 9.24999 1.604H5.74999C3.06082 1.604 2.10416 2.56067 2.10416 5.24984V8.74984C2.10416 11.439 3.06082 12.3957 5.74999 12.3957H6.33332C6.57249 12.3957 6.77082 12.594 6.77082 12.8332C6.77082 13.0723 6.57249 13.2707 6.33332 13.2707Z" fill="#717680"/>
<path d="M13.3335 5.396H1.68433C1.44516 5.396 1.24683 5.19766 1.24683 4.9585C1.24683 4.71933 1.44516 4.521 1.68433 4.521H13.3335C13.5726 4.521 13.771 4.71933 13.771 4.9585C13.771 5.19766 13.5726 5.396 13.3335 5.396Z" fill="#717680"/>
<path d="M7.50014 9.479H1.68433C1.44516 9.479 1.24683 9.28067 1.24683 9.0415C1.24683 8.80234 1.44516 8.604 1.68433 8.604H7.50014C7.73931 8.604 7.93764 8.80234 7.93764 9.0415C7.93764 9.28067 7.73931 9.479 7.50014 9.479Z" fill="#717680"/>
<path d="M5.46402 13.2649C5.22485 13.2649 5.02652 13.0665 5.02652 12.8274V1.17822C5.02652 0.939056 5.22485 0.740723 5.46402 0.740723C5.70319 0.740723 5.90152 0.939056 5.90152 1.17822V12.8274C5.90152 13.0665 5.70902 13.2649 5.46402 13.2649Z" fill="#717680"/>
<path d="M9.54736 7.43154C9.3082 7.43154 9.10986 7.23321 9.10986 6.99404V1.17822C9.10986 0.939056 9.3082 0.740723 9.54736 0.740723C9.78653 0.740723 9.98486 0.939056 9.98486 1.17822V6.99404C9.98486 7.23321 9.79236 7.43154 9.54736 7.43154Z" fill="#717680"/>
<path d="M9.11007 13.2706C8.86507 13.2706 8.64339 13.1831 8.48006 13.0198C8.28173 12.8273 8.19424 12.5414 8.24091 12.2439L8.37506 11.3165C8.40423 11.0948 8.5384 10.8265 8.70173 10.6631L11.1226 8.24228C11.4376 7.92728 11.7467 7.76395 12.0734 7.72895C12.4759 7.68811 12.8784 7.86312 13.2576 8.24228C13.6367 8.62145 13.8117 9.01813 13.7709 9.42647C13.7417 9.75313 13.5726 10.0623 13.2576 10.3773L10.8367 12.7981C10.6792 12.9556 10.4109 13.0898 10.1834 13.1248L9.26174 13.2589C9.20924 13.2648 9.15674 13.2706 9.11007 13.2706ZM12.1784 8.60395C12.1726 8.60395 12.1609 8.60395 12.1551 8.60395C12.0384 8.61562 11.8984 8.70309 11.7351 8.86642L9.31422 11.2873C9.28505 11.3164 9.24422 11.4039 9.23839 11.4448L9.10423 12.3723L10.0551 12.2673C10.0959 12.2615 10.1834 12.2148 10.2126 12.1915L12.6334 9.77062C12.7967 9.60728 12.8842 9.4673 12.8959 9.35063C12.9076 9.21647 12.8201 9.05893 12.6334 8.87226C12.4584 8.69143 12.3067 8.60395 12.1784 8.60395Z" fill="#717680"/>
<path d="M12.5983 10.856C12.5575 10.856 12.5225 10.8501 12.4817 10.8385C11.6067 10.5935 10.9067 9.89346 10.6617 9.01846C10.5975 8.78512 10.7317 8.546 10.965 8.48184C11.2042 8.41767 11.4375 8.55185 11.5017 8.78518C11.665 9.36851 12.1317 9.83516 12.715 9.99849C12.9484 10.0627 13.0825 10.3077 13.0184 10.5352C12.9659 10.7335 12.785 10.856 12.5983 10.856Z" fill="#717680"/>
</svg>
