<svg width="20" height="20" viewBox="0 0 20 20" fill="none" xmlns="http://www.w3.org/2000/svg">
<path d="M17.5 8.3335C17.5 13.5031 11.6095 18.0183 10.2692 18.9788C10.1051 19.0964 9.89491 19.0964 9.73083 18.9788C8.39046 18.0183 2.5 13.5031 2.5 8.3335C2.5 6.34437 3.29018 4.43672 4.6967 3.0302C6.10322 1.62367 8.01088 0.833496 10 0.833496C11.9891 0.833496 13.8968 1.62367 15.3033 3.0302C16.7098 4.43672 17.5 6.34437 17.5 8.3335Z" stroke="#002E43" stroke-width="1.5" stroke-linecap="round" stroke-linejoin="round"/>
<path d="M10 10.8335C11.3807 10.8335 12.5 9.71421 12.5 8.3335C12.5 6.95278 11.3807 5.8335 10 5.8335C8.61929 5.8335 7.5 6.95278 7.5 8.3335C7.5 9.71421 8.61929 10.8335 10 10.8335Z" stroke="#002E43" stroke-width="1.5" stroke-linecap="round" stroke-linejoin="round"/>
</svg>
