<svg width="20" height="21" viewBox="0 0 20 21" fill="none" xmlns="http://www.w3.org/2000/svg">
<path d="M18.0834 5.3252H12.025C11.9949 5.3252 11.9636 5.31291 11.938 5.28727C11.9123 5.26162 11.9 5.23034 11.9 5.2002C11.9 5.17005 11.9123 5.13877 11.938 5.11312C11.9636 5.08748 11.9949 5.0752 12.025 5.0752H18.0834C18.1135 5.0752 18.1448 5.08748 18.1704 5.11312C18.1961 5.13877 18.2084 5.17005 18.2084 5.2002C18.2084 5.23034 18.1961 5.26162 18.1704 5.28727C18.1448 5.31291 18.1135 5.3252 18.0834 5.3252Z" fill="#717680" stroke="#717680"/>
<path d="M7.98335 5.3252H1.91669C1.88654 5.3252 1.85526 5.31291 1.82962 5.28727C1.80397 5.26162 1.79169 5.23034 1.79169 5.2002C1.79169 5.17005 1.80397 5.13877 1.82962 5.11312C1.85526 5.08748 1.88654 5.0752 1.91669 5.0752H7.97502C8.00517 5.0752 8.03645 5.08748 8.06209 5.11312C8.08774 5.13877 8.10002 5.17005 8.10002 5.2002C8.10002 5.27449 8.04019 5.3252 7.98335 5.3252Z" fill="#717680" stroke="#717680"/>
<path d="M18.0834 13.3999H12.025C11.9949 13.3999 11.9636 13.3876 11.938 13.362C11.9123 13.3363 11.9 13.305 11.9 13.2749C11.9 13.2448 11.9123 13.2135 11.938 13.1878C11.9636 13.1622 11.9949 13.1499 12.025 13.1499H18.0834C18.1135 13.1499 18.1448 13.1622 18.1704 13.1878C18.1961 13.2135 18.2084 13.2448 18.2084 13.2749C18.2084 13.305 18.1961 13.3363 18.1704 13.362C18.1448 13.3876 18.1135 13.3999 18.0834 13.3999Z" fill="#717680" stroke="#717680"/>
<path d="M18.0834 18.9502H12.025C11.6834 18.9502 11.4 18.6669 11.4 18.3252C11.4 17.9835 11.6834 17.7002 12.025 17.7002H18.0834C18.425 17.7002 18.7084 17.9835 18.7084 18.3252C18.7084 18.6669 18.425 18.9502 18.0834 18.9502Z" fill="#717680"/>
<path d="M15.075 8.84984C14.7333 8.84984 14.45 8.5665 14.45 8.22484V2.1665C14.45 1.82484 14.7333 1.5415 15.075 1.5415C15.4167 1.5415 15.7 1.82484 15.7 2.1665V8.22484C15.7 8.57484 15.425 8.84984 15.075 8.84984Z" fill="#717680"/>
<path d="M1.91668 19.4581C1.75835 19.4581 1.60001 19.3998 1.47501 19.2748C1.23335 19.0331 1.23335 18.6331 1.47501 18.3914L7.53335 12.3331C7.77501 12.0914 8.17501 12.0914 8.41668 12.3331C8.65835 12.5748 8.65835 12.9748 8.41668 13.2164L2.35835 19.2748C2.24168 19.3998 2.08335 19.4581 1.91668 19.4581Z" fill="#717680"/>
<path d="M7.98331 19.4581C7.82498 19.4581 7.66665 19.3998 7.54165 19.2748L1.48331 13.2164C1.24165 12.9748 1.24165 12.5748 1.48331 12.3331C1.72498 12.0914 2.12498 12.0914 2.36665 12.3331L8.42498 18.3914C8.66665 18.6331 8.66665 19.0331 8.42498 19.2748C8.29998 19.3998 8.14165 19.4581 7.98331 19.4581Z" fill="#717680"/>
</svg>
