<svg width="20" height="21" viewBox="0 0 20 21" fill="none" xmlns="http://www.w3.org/2000/svg">
<path d="M10 8.7667C9.96985 8.7667 9.93857 8.75442 9.91293 8.72877C9.88728 8.70313 9.875 8.67185 9.875 8.6417V5.8667C9.875 5.83655 9.88728 5.80527 9.91293 5.77963C9.93857 5.75398 9.96985 5.7417 10 5.7417C10.0301 5.7417 10.0614 5.75398 10.0871 5.77963C10.1127 5.80527 10.125 5.83655 10.125 5.8667V8.6417C10.125 8.71122 10.0699 8.7667 10 8.7667Z" fill="#717680" stroke="#717680"/>
<path d="M4.04787 11.4316L4.04789 11.4316C4.34876 10.9373 4.59166 10.0527 4.59166 9.46654V7.71654C4.59166 4.72373 7.02385 2.29154 10.0167 2.29154C13.0103 2.29154 15.4408 4.72424 15.45 7.72334L15.45 7.72487L15.45 9.47487C15.45 10.061 15.6929 10.9456 15.9938 11.4399L15.9956 11.4429L15.9956 11.4429L17.0539 13.2096L17.0557 13.2125L17.0557 13.2125C17.3186 13.6583 17.3828 14.1981 17.1941 14.698C17.0158 15.1925 16.6246 15.5693 16.123 15.7331C16.1225 15.7333 16.122 15.7335 16.1214 15.7336L15.9667 15.2582L4.04787 11.4316ZM4.04787 11.4316L4.04553 11.4355M4.04787 11.4316L4.04553 11.4355M4.04553 11.4355L2.98879 13.2078M4.04553 11.4355L2.98879 13.2078M2.98879 13.2078C2.98852 13.2083 2.98824 13.2087 2.98797 13.2092L2.98879 13.2078ZM3.84202 15.9591L3.83987 15.9583C3.21398 15.752 2.76259 15.314 2.56955 14.7864C2.37544 14.2558 2.43352 13.6293 2.77081 13.0648C2.77083 13.0647 2.77085 13.0647 2.77087 13.0647L3.82892 11.2985L3.82954 11.2974C3.9766 11.0506 4.10162 10.724 4.18973 10.4099C4.2777 10.0964 4.34166 9.75 4.34166 9.4582V7.7082C4.34166 4.57601 6.88447 2.0332 10.0167 2.0332C13.1488 2.0332 15.6917 4.57601 15.6917 7.7082V9.4582C15.6917 9.74616 15.7558 10.0927 15.8435 10.4064C15.9313 10.7207 16.0563 11.0499 16.2038 11.2974L16.2044 11.2985L17.2627 13.0652L17.2634 13.0663C17.5752 13.5837 17.6297 14.2005 17.4219 14.7702C17.2171 15.3318 16.7671 15.7649 16.1902 15.9594L16.1896 15.9596C14.2023 16.6329 12.1151 16.9582 10.0167 16.9582C7.91952 16.9582 5.83151 16.6249 3.84202 15.9591Z" fill="#717680" stroke="#717680"/>
<path d="M9.99998 19.0831C9.24281 19.0831 8.49444 18.7705 7.95353 18.2296C7.5325 17.8085 7.24978 17.2618 7.14513 16.6831H7.3988C7.50037 17.2001 7.75643 17.68 8.12976 18.0533C8.62128 18.5448 9.29756 18.8331 9.99998 18.8331C11.2886 18.8331 12.3676 17.905 12.6025 16.6831H12.8568C12.6192 18.0446 11.4284 19.0831 9.99998 19.0831Z" fill="#717680" stroke="#717680"/>
</svg>
