<svg width="20" height="21" viewBox="0 0 20 21" fill="none" xmlns="http://www.w3.org/2000/svg">
<path d="M14.838 6.34107L15.0569 6.34991L15.068 6.33878C16.1313 6.26634 16.939 5.3831 16.9498 4.32158L16.9499 4.32158V4.31648C16.9499 3.1969 16.0409 2.29148 14.9165 2.29148C13.7987 2.29148 12.8915 3.19867 12.8915 4.31648C12.8915 5.41052 13.7457 6.29694 14.838 6.34107ZM14.9999 6.59148H14.9997H14.9996H14.9994H14.9993H14.9991H14.999H14.9989H14.9987H14.9986H14.9984H14.9983H14.9981H14.998H14.9978H14.9977H14.9976H14.9974H14.9973H14.9971H14.997H14.9968H14.9967H14.9966H14.9964H14.9963H14.9961H14.996H14.9958H14.9957H14.9956H14.9954H14.9953H14.9951H14.995H14.9949H14.9947H14.9946H14.9944H14.9943H14.9942H14.994H14.9939H14.9937H14.9936H14.9935H14.9933H14.9932H14.993H14.9929H14.9928H14.9926H14.9925H14.9924H14.9922H14.9921H14.9919H14.9918H14.9917H14.9915H14.9914H14.9913H14.9911H14.991H14.9909H14.9907H14.9906H14.9904H14.9903H14.9902H14.99H14.9899H14.9898H14.9896H14.9895H14.9894H14.9892H14.9891H14.989H14.9888H14.9887H14.9886H14.9884H14.9883H14.9882H14.988H14.9879H14.9878H14.9876H14.9875H14.9874H14.9872H14.9871H14.987H14.9868H14.9867H14.9866H14.9864H14.9863H14.9862H14.9861H14.9859H14.9858H14.9857H14.9855H14.9854H14.9853H14.9851H14.985H14.9849H14.9847H14.9846H14.9845H14.9844H14.9842H14.9841H14.984H14.9838H14.9837H14.9836H14.9835H14.9833H14.9832H14.9831H14.9829H14.9828H14.9827H14.9826H14.9824H14.9823H14.9822H14.982H14.9819H14.9818H14.9817H14.9815H14.9814H14.9813H14.9811H14.981H14.9809H14.9808H14.9806H14.9805H14.9804H14.9803H14.9801H14.98H14.9799H14.9798H14.9796H14.9795H14.9794H14.9792H14.9791H14.979H14.9789H14.9787H14.9786H14.9785H14.9784H14.9782H14.9781H14.978H14.9779H14.9777H14.9776H14.9775H14.9774H14.9772H14.9771H14.977H14.9769H14.9767H14.9766H14.9765H14.9764H14.9762H14.9761H14.976H14.9759H14.9757H14.9756H14.9755H14.9754H14.9753H14.9751H14.975H14.9749H14.9748H14.9746H14.9745H14.9744H14.9743H14.9741H14.974H14.9739H14.9738H14.9736H14.9735H14.9734H14.9733H14.9732H14.973H14.9729H14.9728H14.9727H14.9725H14.9724H14.9723H14.9722H14.972H14.9719H14.9718H14.9717H14.9716H14.9714H14.9713H14.9712H14.9711H14.9709H14.9708H14.9707H14.9706H14.9704H14.9703H14.9702H14.9701H14.97H14.9698H14.9697H14.9696H14.9695H14.9693H14.9692H14.9691H14.969H14.9689H14.9687H14.9686H14.9685H14.9684H14.9682H14.9681H14.968H14.9679H14.9678H14.9676H14.9675H14.9674H14.9673H14.9671H14.967H14.9669H14.9668H14.9667H14.9665H14.9664H14.9663H14.9662H14.9661H14.9659H14.9658H14.9657H14.9656H14.9654H14.9653H14.9652H14.9651H14.965H14.9648H14.9647H14.9646H14.9645H14.9643H14.9642H14.9641H14.964H14.9639H14.9637H14.9636H14.9635H14.9634H14.9632H14.9631H14.963H14.9629H14.9628H14.9626H14.9625H14.9624H14.9623H14.9621H14.962H14.9619H14.9618H14.9616H14.9615H14.9614H14.9613H14.9612H14.961H14.9609H14.9608H14.9607H14.9605H14.9604H14.9603H14.9602H14.9601H14.9599H14.9598H14.9597H14.9596H14.9594H14.9593H14.9592H14.9591H14.9589H14.9588H14.9587H14.9586H14.9584H14.9583H14.9582H14.9581H14.958H14.9578H14.9577H14.9576H14.9575H14.9573H14.9572H14.9571H14.957H14.9568H14.9567H14.9566H14.9565H14.9563H14.9562H14.9561H14.956H14.9558H14.9557H14.9556H14.9555H14.9553H14.9552H14.9551H14.955H14.9548H14.9547H14.9546H14.9545H14.9543H14.9542H14.9541H14.954H14.9538H14.9537H14.9536H14.9535H14.9533H14.9532H14.9531H14.9529H14.9528H14.9527H14.9526H14.9524H14.9523H14.9522H14.9521H14.9519H14.9518H14.9517H14.9515H14.9514H14.9513H14.9512H14.951H14.9509H14.9508H14.9507H14.9505H14.9504H14.9503H14.9501H14.95H14.9499H14.9498H14.9496H14.9495H14.9494H14.9492H14.9491H14.949H14.9488H14.9487H14.9486H14.9485H14.9483H14.9482H14.9481H14.9479H14.9478H14.9477H14.9475H14.9474H14.9473H14.9472H14.947H14.9469H14.9468H14.9466H14.9465H14.9464H14.9462H14.9461H14.946H14.9458H14.9457H14.9456H14.9454H14.9453H14.9452H14.945H14.9449H14.9448H14.9446H14.9445H14.9444H14.9442H14.9441H14.944H14.9438H14.9437H14.9436H14.9434H14.9433H14.9432H14.943H14.9429H14.9428H14.9426H14.9425H14.9424H14.9422H14.9421H14.942H14.9418H14.9417H14.9415H14.9414H14.9413H14.9411H14.941H14.9409H14.9407H14.9406H14.9404H14.9403H14.9402H14.94H14.9399H14.9398H14.9396H14.9395H14.9393H14.9392H14.9391H14.9389H14.9388H14.9386H14.9385H14.9384H14.9382H14.9381H14.9379H14.9378H14.9377H14.9375H14.9374H14.9372H14.9371H14.937H14.9368H14.9367H14.9365H14.9364H14.9362H14.9361H14.936H14.9358H14.9357H14.9355H14.9354H14.9352H14.9351H14.9349H14.9348H14.9347H14.9345H14.9344H14.9342H14.9341H14.9339H14.9338H14.9336H14.9335H14.9334H14.9332H14.8998C13.5907 6.54618 12.6415 5.54464 12.6415 4.32481C12.6415 3.06859 13.6667 2.0498 14.9165 2.0498C16.1649 2.0498 17.1908 3.07519 17.1915 4.32343C17.1841 5.5383 16.2614 6.51567 15.0715 6.59605C15.0667 6.59542 15.0627 6.59498 15.0597 6.59465C15.0372 6.59215 15.0192 6.59173 15.0127 6.5916L15.0035 6.59149L14.9999 6.59148Z" fill="#717680" stroke="#717680"/>
<path d="M14.1216 12.6579L14.1216 12.6579L14.1175 12.6572C14.0541 12.6464 14.0049 12.5848 14.0178 12.5092C14.0287 12.4459 14.0902 12.3967 14.1658 12.4096C15.2907 12.6016 16.5086 12.4003 17.3596 11.8334C17.8322 11.5214 18.1833 11.061 18.1833 10.5084C18.1833 9.94741 17.8139 9.49778 17.3627 9.19374L17.3627 9.19373L17.3607 9.19235C16.5083 8.62412 15.2718 8.42317 14.1376 8.6244L14.1376 8.62432L14.1292 8.62596C14.0729 8.63695 14.0056 8.59904 13.9928 8.52423C13.9799 8.44858 14.0291 8.38706 14.0925 8.37625L14.0925 8.37626L14.0959 8.37565C15.346 8.15323 16.6194 8.39749 17.4971 8.98237C18.1243 9.40311 18.4333 9.96115 18.4333 10.5084C18.4333 11.0499 18.13 11.6152 17.4976 12.0424C16.8316 12.4808 15.9477 12.7334 15.0083 12.7334C14.709 12.7334 14.4139 12.7104 14.1216 12.6579Z" fill="#717680" stroke="#717680"/>
<path d="M7.32496 4.31651C7.32496 5.42421 6.55689 6.33588 5.51673 6.54698L5.45645 6.33169L4.47713 6.51297L4.47787 6.52088C3.49558 6.26862 2.78148 5.38415 2.77496 4.32345C2.77572 3.06592 3.80254 2.0415 5.04997 2.0415C6.29882 2.0415 7.32496 3.06765 7.32496 4.31651ZM5.18943 6.35081L5.22241 6.34933C6.24309 6.30346 7.09163 5.40521 7.09163 4.32483C7.09163 3.20703 6.18444 2.29983 5.06663 2.29983C3.94882 2.29983 3.04163 3.20703 3.04163 4.32483C3.04163 5.41063 3.88544 6.28288 4.95243 6.34888L5.17744 6.3628L5.18943 6.35081Z" fill="#717680" stroke="#717680"/>
<path d="M4.96669 13.2334C3.94169 13.2334 2.95835 12.9584 2.20002 12.4584C1.46669 11.9667 1.04169 11.2584 1.04169 10.5084C1.04169 9.76671 1.46669 9.05837 2.20002 8.5667C3.20002 7.90004 4.60835 7.64171 5.96669 7.88338C6.30835 7.94171 6.53335 8.26671 6.47502 8.60837C6.41669 8.95004 6.09169 9.18337 5.75002 9.11671C4.71669 8.93337 3.62502 9.12504 2.89169 9.60837C2.50002 9.8667 2.29169 10.1834 2.29169 10.5084C2.29169 10.8334 2.50835 11.1584 2.89169 11.4167C3.61669 11.9 4.70002 12.0917 5.72502 11.9167C6.06669 11.8584 6.39169 12.0917 6.45002 12.425C6.50836 12.7667 6.28335 13.0917 5.94169 13.15C5.61669 13.2084 5.29169 13.2334 4.96669 13.2334Z" fill="#717680"/>
<path d="M9.99987 13.3166C9.97487 13.3166 9.95821 13.3166 9.93321 13.3166H9.89154C8.31654 13.2666 7.14154 12.0499 7.14154 10.5499C7.14154 9.01657 8.39154 7.7749 9.91654 7.7749C11.4415 7.7749 12.6915 9.0249 12.6915 10.5499C12.6832 12.0582 11.5082 13.2749 10.0082 13.3249C10.0082 13.3166 10.0082 13.3166 9.99987 13.3166ZM9.91654 9.01657C9.07488 9.01657 8.39154 9.69991 8.39154 10.5416C8.39154 11.3666 9.03321 12.0332 9.85821 12.0666C9.86654 12.0582 9.93321 12.0582 10.0082 12.0666C10.8165 12.0249 11.4415 11.3582 11.4499 10.5416C11.4499 9.70824 10.7665 9.01657 9.91654 9.01657Z" fill="#717680"/>
<path d="M9.9998 19.4666C8.9998 19.4666 7.9998 19.2083 7.2248 18.6833C6.49147 18.1916 6.06647 17.4916 6.06647 16.7416C6.06647 15.9999 6.48313 15.2833 7.2248 14.7916C8.78313 13.7583 11.2248 13.7583 12.7748 14.7916C13.5081 15.2833 13.9331 15.9833 13.9331 16.7333C13.9331 17.4749 13.5165 18.1916 12.7748 18.6833C11.9998 19.1999 10.9998 19.4666 9.9998 19.4666ZM7.91647 15.8416C7.5248 16.0999 7.31647 16.4249 7.31647 16.7499C7.31647 17.0749 7.53313 17.3916 7.91647 17.6499C9.04147 18.4083 10.9498 18.4083 12.0748 17.6499C12.4665 17.3916 12.6748 17.0666 12.6748 16.7416C12.6748 16.4166 12.4581 16.0999 12.0748 15.8416C10.9581 15.0833 9.0498 15.0916 7.91647 15.8416Z" fill="#717680"/>
</svg>
