<svg width="20" height="21" viewBox="0 0 20 21" fill="none" xmlns="http://www.w3.org/2000/svg">
<path d="M18.45 7.5165L18.45 7.51901C18.4536 8.2326 18.2172 8.79244 17.8377 9.1727C17.4581 9.55312 16.8977 9.7915 16.1833 9.7915H13.3333C13.3032 9.7915 13.2719 9.77922 13.2462 9.75358C13.2206 9.72793 13.2083 9.69665 13.2083 9.6665V3.8415C13.2083 3.35895 13.3962 2.91069 13.7369 2.57006C14.0775 2.22942 14.5258 2.0415 15.0083 2.0415H15.0146C15.9236 2.04927 16.7809 2.4045 17.4381 3.0534C18.0948 3.71846 18.45 4.59152 18.45 5.49984L18.45 7.5165ZM17.2731 3.2325L17.2731 3.23246L17.2673 3.22671C16.6668 2.63609 15.8599 2.30139 15.0225 2.29154L15.0225 2.2915H15.0166H15.0166H15.0166H15.0166H15.0166H15.0166H15.0166H15.0166H15.0166H15.0166H15.0166H15.0166H15.0166H15.0166H15.0166H15.0166H15.0166H15.0166H15.0166H15.0166H15.0166H15.0166H15.0166H15.0166H15.0166H15.0166H15.0166H15.0166H15.0166H15.0166H15.0166H15.0166H15.0166H15.0166H15.0166H15.0166H15.0166H15.0166H15.0166H15.0166H15.0166H15.0166H15.0165H15.0165H15.0165H15.0165H15.0165H15.0165H15.0165H15.0165H15.0165H15.0165H15.0165H15.0165H15.0165H15.0165H15.0165H15.0165H15.0165H15.0165H15.0165H15.0165H15.0165H15.0165H15.0165H15.0165H15.0165H15.0165H15.0165H15.0165H15.0165H15.0165H15.0164H15.0164H15.0164H15.0164H15.0164H15.0164H15.0164H15.0164H15.0164H15.0164H15.0164H15.0164H15.0164H15.0164H15.0164H15.0164H15.0164H15.0164H15.0164H15.0164H15.0164H15.0164H15.0163H15.0163H15.0163H15.0163H15.0163H15.0163H15.0163H15.0163H15.0163H15.0163H15.0163H15.0163H15.0163H15.0163H15.0163H15.0163H15.0163H15.0162H15.0162H15.0162H15.0162H15.0162H15.0162H15.0162H15.0162H15.0162H15.0162H15.0162H15.0162H15.0162H15.0162H15.0162H15.0161H15.0161H15.0161H15.0161H15.0161H15.0161H15.0161H15.0161H15.0161H15.0161H15.0161H15.0161H15.016H15.016H15.016H15.016H15.016H15.016H15.016H15.016H15.016H15.016H15.016H15.0159H15.0159H15.0159H15.0159H15.0159H15.0159H15.0159H15.0159H15.0159H15.0159H15.0159H15.0158H15.0158H15.0158H15.0158H15.0158H15.0158H15.0158H15.0158H15.0158H15.0157H15.0157H15.0157H15.0157H15.0157H15.0157H15.0157H15.0157H15.0157H15.0156H15.0156H15.0156H15.0156H15.0156H15.0156H15.0156H15.0156H15.0155H15.0155H15.0155H15.0155H15.0155H15.0155H15.0155H15.0155H15.0154H15.0154H15.0154H15.0154H15.0154H15.0154H15.0154H15.0153H15.0153H15.0153H15.0153H15.0153H15.0153H15.0153H15.0152H15.0152H15.0152H15.0152H15.0152H15.0152H15.0151H15.0151H15.0151H15.0151H15.0151H15.0151H15.0151H15.015H15.015H15.015H15.015H15.015H15.015H15.0149H15.0149H15.0149H15.0149H15.0149H15.0149H15.0148H15.0148H15.0148H15.0148H15.0148H15.0147H15.0147H15.0147H15.0147H15.0147H15.0147H15.0146H15.0146H15.0146H15.0146H15.0146H15.0145H15.0145H15.0145H15.0145H15.0145H15.0144H15.0144H15.0144H15.0144H15.0144H15.0143H15.0143H15.0143H15.0143H15.0142H15.0142H15.0142H15.0142H15.0142H15.0141H15.0141H15.0141H15.0141H15.0141H15.014H15.014H15.014H15.014H15.0139H15.0139H15.0139H15.0139H15.0138H15.0138H15.0138H15.0138H15.0138H15.0137H15.0137H15.0137H15.0137H15.0136H15.0136H15.0136H15.0136H15.0135H15.0135H15.0135H15.0135H15.0134H15.0134H15.0134H15.0133H15.0133H15.0133H15.0133H15.0132H15.0132H15.0132H15.0132H15.0131H15.0131H15.0131H15.013H15.013H15.013H15.013H15.0129H15.0129H15.0129H15.0128H15.0128H15.0128H15.0128H15.0127H15.0127H15.0127H15.0126H15.0126H15.0126H15.0126H15.0125H15.0125H15.0125H15.0124H15.0124H15.0124H15.0123H15.0123H15.0123H15.0122H15.0122H15.0122H15.0121H15.0121H15.0121H15.012H15.012H15.012H15.0119H15.0119H15.0119H15.0118H15.0118H15.0118H15.0117H15.0117H15.0117H15.0116H15.0116H15.0116H15.0115H15.0115H15.0115H15.0114H15.0114H15.0114H15.0113H15.0113H15.0112H15.0112H15.0112H15.0111H15.0111H15.0111H15.011H15.011H15.011H15.0109H15.0109H15.0108H15.0108H15.0108H15.0107H15.0107H15.0106H15.0106H15.0106H15.0105H15.0105H15.0104H15.0104H15.0104H15.0103H15.0103H15.0102H15.0102H15.0102H15.0101H15.0101H15.01H15.01H15.01H15.0099H15.0099H15.0098H15.0098H15.0097H15.0097H15.0097H15.0096H15.0096H15.0095H15.0095H15.0094H15.0094H15.0093H15.0093H15.0093H15.0092H15.0092H15.0091H15.0091H15.009H15.009H15.0089H15.0089H15.0088H15.0088H15.0087H15.0087H15.0087H15.0086H15.0086H15.0085H15.0085H15.0084H15.0084H15.0083C14.6013 2.2915 14.2073 2.45208 13.9131 2.74628C13.6204 3.03898 13.4583 3.42405 13.4583 3.8415V9.0415H13.9583V9.5415H16.1833C16.7621 9.5415 17.2843 9.37263 17.6619 8.99506C18.0394 8.61749 18.2083 8.09524 18.2083 7.5165V5.49984C18.2083 4.64951 17.8717 3.84093 17.2731 3.2325Z" fill="#717680" stroke="#717680"/>
<path d="M6.82548 19.1599L6.8255 19.1599L6.8213 19.1557L5.43797 17.764L5.43691 17.7629C5.18961 17.5157 4.79224 17.4796 4.50476 17.7025L3.07651 18.7654L3.07382 18.7674C2.78178 18.9878 2.40155 19.0249 2.07363 18.861C1.74328 18.6958 1.54169 18.3691 1.54169 17.9998V5.49984C1.54169 4.33586 1.87339 3.48774 2.43066 2.93047C2.98792 2.37321 3.83604 2.0415 5.00002 2.0415H15C15.0302 2.0415 15.0614 2.05379 15.0871 2.07943C15.1127 2.10508 15.125 2.13636 15.125 2.1665C15.125 2.19665 15.1127 2.22793 15.0871 2.25358C15.0614 2.27922 15.0302 2.2915 15 2.2915C14.1489 2.2915 13.4584 2.98203 13.4584 3.83317V17.9998C13.4584 18.3691 13.2568 18.6958 12.9264 18.861C12.593 19.0277 12.2134 18.9925 11.9262 18.7757L11.9246 18.7746L10.5043 17.7114C10.2014 17.4759 9.80439 17.5467 9.5798 17.7713L8.18283 19.1683C8.0016 19.3428 7.76085 19.4415 7.50002 19.4415C7.23964 19.4415 7.00363 19.3435 6.82548 19.1599ZM5.60805 17.5899L5.60802 17.5899L5.61207 17.594L6.9954 18.9857L6.99647 18.9867C7.18277 19.173 7.40968 19.1915 7.50002 19.1915C7.59036 19.1915 7.81727 19.173 8.00357 18.9867L9.40357 17.5867C9.74208 17.2482 10.2771 17.2154 10.6538 17.5047L10.6537 17.5047L10.6591 17.5087L12.0758 18.5671L12.0758 18.5671L12.0809 18.5709C12.3788 18.7875 12.6872 18.709 12.8489 18.6119C12.9112 18.5745 13.2084 18.3952 13.2084 17.9998V3.83317C13.2084 3.53909 13.2804 3.2589 13.4031 3.01991L13.7772 2.2915H12.9584H5.00002C4.00737 2.2915 3.1758 2.52111 2.59855 3.09837C2.0213 3.67562 1.79169 4.50719 1.79169 5.49984V17.9998C1.79169 18.3944 2.07443 18.5742 2.15111 18.6203L2.16757 18.6301L2.18475 18.6387C2.34933 18.721 2.65104 18.7804 2.9296 18.5631L4.34794 17.5014C4.34819 17.5012 4.34844 17.501 4.34869 17.5008C4.52097 17.3733 4.72461 17.3082 4.92502 17.3082C5.18382 17.3082 5.42599 17.4025 5.60805 17.5899Z" fill="#717680" stroke="#717680"/>
<path d="M10 11.4668H7.5C7.46985 11.4668 7.43857 11.4545 7.41293 11.4289C7.38728 11.4032 7.375 11.3719 7.375 11.3418C7.375 11.3116 7.38728 11.2804 7.41293 11.2547C7.43857 11.2291 7.46985 11.2168 7.5 11.2168H10C10.0301 11.2168 10.0614 11.2291 10.0871 11.2547C10.1127 11.2804 10.125 11.3116 10.125 11.3418C10.125 11.3719 10.1127 11.4032 10.0871 11.4289C10.0614 11.4545 10.0301 11.4668 10 11.4668Z" fill="#717680" stroke="#717680"/>
<path d="M10 8.6333H7.5C7.15833 8.6333 6.875 8.34997 6.875 8.0083C6.875 7.66663 7.15833 7.3833 7.5 7.3833H10C10.3417 7.3833 10.625 7.66663 10.625 8.0083C10.625 8.34997 10.3417 8.6333 10 8.6333Z" fill="#717680"/>
<path d="M4.97518 8.84147C4.51685 8.84147 4.14185 8.46647 4.14185 8.00814C4.14185 7.5498 4.51685 7.1748 4.97518 7.1748C5.43351 7.1748 5.80851 7.5498 5.80851 8.00814C5.80851 8.46647 5.43351 8.84147 4.97518 8.84147Z" fill="#717680"/>
<path d="M4.97518 12.175C4.51685 12.175 4.14185 11.8 4.14185 11.3416C4.14185 10.8833 4.51685 10.5083 4.97518 10.5083C5.43351 10.5083 5.80851 10.8833 5.80851 11.3416C5.80851 11.8 5.43351 12.175 4.97518 12.175Z" fill="#717680"/>
</svg>
