<svg width="20" height="21" viewBox="0 0 20 21" fill="none" xmlns="http://www.w3.org/2000/svg">
<path d="M10 13.125C8.55114 13.125 7.375 11.9489 7.375 10.5C7.375 9.05114 8.55114 7.875 10 7.875C11.4489 7.875 12.625 9.05114 12.625 10.5C12.625 11.9489 11.4489 13.125 10 13.125ZM10 8.125C8.69052 8.125 7.625 9.19052 7.625 10.5C7.625 11.8095 8.69052 12.875 10 12.875C11.3095 12.875 12.375 11.8095 12.375 10.5C12.375 9.19052 11.3095 8.125 10 8.125Z" fill="#717680" stroke="#717680"/>
<path d="M16.1584 16.5584C16.3167 15.9917 16.2334 15.3917 15.9417 14.8834C15.6917 14.4584 15.6334 14.0751 15.775 13.8334C15.9167 13.5917 16.275 13.4501 16.7667 13.4501C17.9834 13.4501 18.975 12.4584 18.975 11.2417V9.77508C18.975 8.55841 17.9834 7.56674 16.7667 7.56674C16.275 7.56674 15.9167 7.42508 15.775 7.18341C15.6334 6.94174 15.7 6.55841 15.9417 6.13341C16.2334 5.62508 16.3084 5.03341 16.1584 4.45841L15.6745 4.58462C15.6748 4.58571 15.6751 4.58679 15.6754 4.58788M16.1584 16.5584L15.6754 4.58788M16.1584 16.5584C16.0084 17.1334 15.6417 17.6084 15.125 17.9001L13.6834 18.7251L16.1584 16.5584ZM15.6754 4.58788C15.5511 4.13963 15.2675 3.77494 14.8762 3.55043L14.8756 3.55009L13.4423 2.72509L13.4355 2.7212L13.4355 2.72115C12.7287 2.2995 11.7945 2.53784 11.3654 3.26849C11.3651 3.26886 11.3649 3.26923 11.3647 3.2696L11.2745 3.42543C10.9928 3.91235 10.5686 4.31258 10.0125 4.31258C9.45783 4.31258 9.03431 3.91434 8.75265 3.42907L8.65461 3.26566L8.65296 3.26291L8.65297 3.2629C8.22388 2.53723 7.2871 2.29919 6.58836 2.71349L6.58172 2.71743L6.58169 2.71738L5.14003 3.54238L5.13749 3.54383L5.13748 3.54382C4.73841 3.76911 4.45788 4.13272 4.34216 4.57629L4.34171 4.57802C4.22493 5.01916 4.2836 5.48265 4.50752 5.87417C4.78007 6.33862 4.95821 6.94147 4.67304 7.42794C4.39135 7.90846 3.78984 8.05841 3.25002 8.05841C2.3095 8.05841 1.54169 8.82622 1.54169 9.76674V11.2334C1.54169 12.1739 2.3095 12.9417 3.25002 12.9417C3.78984 12.9417 4.39135 13.0917 4.67304 13.5722C4.82121 13.825 4.83663 14.1097 4.79561 14.3617C4.75428 14.6155 4.65059 14.8744 4.50967 15.1222L4.50871 15.1239C4.28451 15.5146 4.22462 15.97 4.34131 16.4206C4.46563 16.8688 4.74921 17.2335 5.14052 17.4581L5.14111 17.4584L6.57445 18.2834L6.58231 18.2879L6.58227 18.288C6.92278 18.4923 7.32437 18.549 7.71976 18.4423L7.72507 18.4409L7.72508 18.4409C8.10798 18.3421 8.43313 18.0953 8.64334 17.7394L8.73388 17.5831C8.73391 17.583 8.73394 17.5829 8.73397 17.5829C9.01562 17.096 9.43984 16.6959 9.99585 16.6959C10.5505 16.6959 10.9741 17.0941 11.2557 17.5794L11.3538 17.7428C11.56 18.0866 11.8831 18.3313 12.2742 18.4407C12.4173 18.4742 12.5499 18.4917 12.675 18.4917C12.9346 18.4917 13.1925 18.4245 13.4385 18.2891L14.8767 17.4661L14.8792 17.4647L14.8792 17.4647C15.2783 17.2394 15.5588 16.8758 15.6745 16.4322L15.6767 16.4238L15.6768 16.4239C15.7975 15.9917 15.7357 15.5303 15.5092 15.1343C15.2366 14.6699 15.0585 14.067 15.3437 13.5806C15.6254 13.1 16.2269 12.9501 16.7667 12.9501C17.7072 12.9501 18.475 12.1823 18.475 11.2417V9.77508C18.475 8.83455 17.7072 8.06674 16.7667 8.06674C16.2269 8.06674 15.6254 7.9168 15.3437 7.43627C15.1955 7.1835 15.1801 6.89881 15.2211 6.64682C15.2624 6.39295 15.3661 6.1341 15.507 5.88626L15.508 5.88457C15.7322 5.49384 15.7921 5.03849 15.6754 4.58788ZM11.4756 17.4506L11.475 17.4496C11.0606 16.7297 10.5119 16.4084 10 16.4084C9.4903 16.4084 8.94045 16.7356 8.52422 17.4509C8.52411 17.4511 8.524 17.4513 8.5239 17.4515L8.43273 17.6089L8.42904 17.6153L8.42515 17.6216C8.25768 17.8921 7.98955 18.1152 7.64876 18.2012C7.33694 18.2819 6.99124 18.2437 6.69517 18.0637L5.26001 17.2424L5.2531 17.2384L5.24631 17.2342C4.92922 17.0391 4.68571 16.7369 4.58357 16.3539C4.48372 15.9795 4.53237 15.5846 4.72526 15.2502L4.72614 15.2487C5.13914 14.5386 5.14475 13.8924 4.8909 13.4481C4.63973 13.0086 4.08122 12.6917 3.25002 12.6917C2.43772 12.6917 1.79169 12.0317 1.79169 11.2334V9.76674C1.79169 8.95727 2.44055 8.30841 3.25002 8.30841C4.08122 8.30841 4.63973 7.99156 4.8909 7.55201C5.14475 7.10777 5.13914 6.46153 4.72614 5.75146L4.72526 5.74994L4.72526 5.74994C4.53237 5.41559 4.48372 5.02069 4.58357 4.64624C4.68589 4.26253 4.93993 3.94724 5.26683 3.75865L6.70704 2.92616C6.70725 2.92604 6.70745 2.92592 6.70765 2.9258C7.30433 2.57934 8.07376 2.7854 8.42133 3.36933L8.42569 3.37665L8.4298 3.38412L8.51902 3.54634C8.93319 4.26331 9.48073 4.58341 9.99169 4.58341C10.5036 4.58341 11.0523 4.2621 11.4667 3.54226L11.4673 3.54122L11.559 3.38289L11.5612 3.37903L11.5612 3.37904C11.9135 2.78295 12.6911 2.56653 13.2946 2.92706L14.7317 3.74944L14.7386 3.7534L14.7454 3.75758C15.0625 3.95271 15.306 4.25489 15.4081 4.63791C15.508 5.01235 15.4593 5.40726 15.2664 5.7416L15.2656 5.74313C14.8526 6.45319 14.847 7.09943 15.1008 7.54367C15.352 7.98322 15.9105 8.30008 16.7417 8.30008C17.554 8.30008 18.2 8.9601 18.2 9.75841V11.2251C18.2 12.0346 17.5512 12.6834 16.7417 12.6834C15.9105 12.6834 15.352 13.0003 15.1008 13.4398C14.847 13.8841 14.8526 14.5303 15.2656 15.2404L15.2664 15.2419C15.4593 15.5762 15.508 15.9711 15.4081 16.3456C15.3059 16.7291 15.052 17.0443 14.7252 17.233L11.4756 17.4506ZM11.4756 17.4506L11.5659 17.6065C11.5662 17.607 11.5665 17.6075 11.5668 17.608C11.7362 17.9035 12.0171 18.1114 12.3454 18.1935C12.6598 18.2721 12.9963 18.2372 13.2867 18.0645L14.7249 17.2332L11.4756 17.4506Z" fill="#717680" stroke="#717680"/>
</svg>
