<svg width="25" height="24" viewBox="0 0 25 24" fill="none" xmlns="http://www.w3.org/2000/svg">
<path d="M22.6699 7.25H16.6699C16.2599 7.25 15.9199 6.91 15.9199 6.5C15.9199 6.09 16.2599 5.75 16.6699 5.75H22.6699C23.0799 5.75 23.4199 6.09 23.4199 6.5C23.4199 6.91 23.0799 7.25 22.6699 7.25Z" fill="#002E43"/>
<path d="M6.66992 7.25H2.66992C2.25992 7.25 1.91992 6.91 1.91992 6.5C1.91992 6.09 2.25992 5.75 2.66992 5.75H6.66992C7.07992 5.75 7.41992 6.09 7.41992 6.5C7.41992 6.91 7.07992 7.25 6.66992 7.25Z" fill="#002E43"/>
<path d="M10.6699 10.75C8.32992 10.75 6.41992 8.84 6.41992 6.5C6.41992 4.16 8.32992 2.25 10.6699 2.25C13.0099 2.25 14.9199 4.16 14.9199 6.5C14.9199 8.84 13.0099 10.75 10.6699 10.75ZM10.6699 3.75C9.14992 3.75 7.91992 4.98 7.91992 6.5C7.91992 8.02 9.14992 9.25 10.6699 9.25C12.1899 9.25 13.4199 8.02 13.4199 6.5C13.4199 4.98 12.1899 3.75 10.6699 3.75Z" fill="#002E43"/>
<path d="M22.6699 18.25H18.6699C18.2599 18.25 17.9199 17.91 17.9199 17.5C17.9199 17.09 18.2599 16.75 18.6699 16.75H22.6699C23.0799 16.75 23.4199 17.09 23.4199 17.5C23.4199 17.91 23.0799 18.25 22.6699 18.25Z" fill="#002E43"/>
<path d="M8.66992 18.25H2.66992C2.25992 18.25 1.91992 17.91 1.91992 17.5C1.91992 17.09 2.25992 16.75 2.66992 16.75H8.66992C9.07992 16.75 9.41992 17.09 9.41992 17.5C9.41992 17.91 9.07992 18.25 8.66992 18.25Z" fill="#002E43"/>
<path d="M14.6699 21.75C12.3299 21.75 10.4199 19.84 10.4199 17.5C10.4199 15.16 12.3299 13.25 14.6699 13.25C17.0099 13.25 18.9199 15.16 18.9199 17.5C18.9199 19.84 17.0099 21.75 14.6699 21.75ZM14.6699 14.75C13.1499 14.75 11.9199 15.98 11.9199 17.5C11.9199 19.02 13.1499 20.25 14.6699 20.25C16.1899 20.25 17.4199 19.02 17.4199 17.5C17.4199 15.98 16.1899 14.75 14.6699 14.75Z" fill="#002E43"/>
</svg>
