<svg width="20" height="20" viewBox="0 0 20 20" fill="none" xmlns="http://www.w3.org/2000/svg">
<path d="M2.48194 4.85603L2.48217 4.85601L4.18217 4.68935L4.18388 4.68917C8.57181 4.24378 13.0273 4.41608 17.5095 4.856L17.5098 4.85603C17.5727 4.86216 17.626 4.92235 17.6191 4.99318L17.619 4.99317L17.6182 5.00338C17.614 5.05834 17.5651 5.10839 17.5001 5.10839H17.5H17.4999H17.4998H17.4997H17.4996H17.4995H17.4994H17.4993H17.4992H17.4991H17.499H17.4989H17.4988H17.4987H17.4986H17.4985H17.4984H17.4983H17.4982H17.4981H17.498H17.4979H17.4978H17.4977H17.4976H17.4974H17.4973H17.4972H17.4971H17.497H17.4969H17.4968H17.4967H17.4966H17.4965H17.4964H17.4963H17.4962H17.4961H17.496H17.4959H17.4958H17.4957H17.4956H17.4955H17.4954H17.4953H17.4952H17.495H17.4949H17.4948H17.4947H17.4946H17.4945H17.4944H17.4943H17.4942H17.4941H17.494H17.4939H17.4938H17.4936H17.4935H17.4934H17.4933H17.4932H17.4931H17.493H17.4929H17.4928H17.4927H17.4925H17.4924H17.4923H17.4922H17.4921H17.492H17.4919H17.4918H17.4917H17.4915H17.4914H17.4913H17.4912H17.4911H17.491H17.4909H17.4908H17.4906H17.4905H17.4904H17.4903H17.4902H17.4901H17.49H17.4899H17.4897H17.4896H17.4895H17.4894H17.4893H17.4892H17.489H17.4889H17.4888H17.4887H17.4886H17.4885H17.4884H17.4882H17.4881H17.488H17.4879H17.4878H17.4877H17.4875H17.4874H17.4873H17.4872H17.4871H17.4869H17.4868H17.4867H17.4866H17.4865H17.4864H17.4862H17.4861H17.486H17.4859H17.4858H17.4856H17.4855H17.4854H17.4853H17.4852H17.485H17.4849H17.4848H17.4847H17.4846H17.4844H17.4843H17.4842H17.4841H17.484H17.4838H17.4837H17.4836H17.4835H17.4833H17.4832H17.4831H17.483H17.4829H17.4827H17.4826H17.4825H17.4824H17.4822H17.4821H17.482H17.4819H17.4817H17.4816H17.4815H17.4814H17.4812H17.4811H17.481H17.4809H17.4808H17.4806H17.4805H17.4804H17.4802H17.4801H17.48H17.4799H17.4797H17.4796H17.4795H17.4794H17.4792H17.4791H17.479H17.4789H17.4787H17.4786H17.4785H17.4784H17.4782H17.4781H17.478H17.4778H17.4777H17.4776H17.4775H17.4773H17.4772H17.4771H17.4769H17.4768H17.4767H17.4766H17.4764H17.4763H17.4762H17.476H17.4759H17.4758H17.4757H17.4755H17.4754H17.4753H17.4751H17.475H17.4749H17.4747H17.4746H17.4745H17.4744H17.4742H17.4741H17.474H17.4738H17.4737H17.4736H17.4734H17.4733H17.4732H17.473H17.4729H17.4728H17.4726H17.4725H17.4724H17.4722H17.4721H17.472H17.4718H17.4717H17.4716H17.4714H17.4713H17.4712H17.471H17.4709H17.4708H17.4706H17.4705H17.4704H17.4702H17.4701H17.47H17.4698H17.4697H17.4696H17.4694H17.4693H17.4692H17.469H17.4689H17.4688H17.4686H17.4685H17.4684H17.4682H17.4681H17.468H17.4678H17.4677H17.4675H17.4674H17.4673H17.4671H17.467H17.4669H17.4667H17.4666H17.4665H17.4663H17.4662H17.466H17.4659H17.4658H17.4656H17.4655H17.4654H17.4652H17.4651H17.465H17.4648H17.4647H17.4645H17.4644H17.4643H17.4641H17.464H17.4638H17.4637H17.4636H17.4634H17.4633H17.4632H17.463H17.4629H17.4627H17.4626H17.4625H17.4623H17.4622H17.462H17.4619H17.4618H17.4616H17.4615H17.4614H17.4612H17.4611H17.4609H17.4608H17.4607H17.4605H17.4604H17.4602H17.4601H17.46H17.4598H17.4597H17.4595H17.4594H17.4593H17.4591H17.459H17.4588H17.4587H17.4585H17.4584H17.4583C13.0395 4.66671 8.61203 4.4989 4.21712 4.94419C4.21685 4.94422 4.21658 4.94425 4.21631 4.94428L2.51931 5.11065C2.51916 5.11066 2.51901 5.11068 2.51886 5.11069C2.4387 5.1181 2.37944 5.06403 2.3728 4.99432C2.36549 4.91759 2.41584 4.86248 2.48194 4.85603Z" fill="#D92D20" stroke="#D92D20"/>
<path d="M7.06619 4.26643C7.06609 4.26643 7.06599 4.26643 7.0659 4.26643L7.06148 4.26566C7.03236 4.26056 7.00288 4.24291 6.98156 4.21296C6.96046 4.18333 6.95508 4.15282 6.95947 4.12769L6.96005 4.12431L7.14339 3.03265L7.14349 3.03204C7.21355 2.6117 7.28048 2.26908 7.48998 2.01024C7.67165 1.78579 8.03642 1.5415 8.90863 1.5415H11.092C11.9631 1.5415 12.3305 1.79291 12.5143 2.02378C12.7259 2.28954 12.7912 2.63643 12.8568 3.03863L12.8568 3.03863L12.8573 3.0416L13.0406 4.12493L13.0408 4.12565C13.0465 4.15907 13.0384 4.19206 13.019 4.21921C12.9996 4.24653 12.9746 4.26018 12.9511 4.2637L12.9511 4.2636L12.9411 4.2653C12.9077 4.27101 12.8747 4.2629 12.8476 4.24357C12.8203 4.22412 12.8066 4.19914 12.8031 4.17567L12.8032 4.17565L12.8016 4.16641L12.6186 3.0851L12.6163 3.07079C12.5896 2.90477 12.5621 2.73387 12.5213 2.5893C12.4775 2.43408 12.4036 2.25138 12.2466 2.10066C12.0869 1.9473 11.8943 1.87742 11.7108 1.84224C11.5335 1.80826 11.3269 1.79984 11.1003 1.79984H8.91696C8.69318 1.79984 8.4889 1.80657 8.31489 1.83725C8.13528 1.86893 7.94089 1.93375 7.77841 2.08584C7.61829 2.23571 7.54395 2.41962 7.49989 2.57373C7.45952 2.71496 7.43111 2.88374 7.40314 3.04995C7.40184 3.05767 7.40055 3.06537 7.39925 3.07307L7.20794 4.1544L7.20789 4.15439L7.20674 4.16147C7.19692 4.22205 7.14416 4.2665 7.08363 4.2665L7.06619 4.26643Z" fill="#D92D20" stroke="#D92D20"/>
<path d="M4.16563 7.62594L4.16564 7.62594L4.16533 7.62166C4.16329 7.59376 4.17242 7.56342 4.19632 7.53624C4.21915 7.51027 4.24928 7.49454 4.28055 7.49073C4.3595 7.4901 4.41249 7.54526 4.41789 7.60997L4.95937 15.9987L4.95935 15.9987L4.95963 16.0026L4.96132 16.0259C4.98291 16.3244 5.00402 16.6165 5.05291 16.8683C5.10412 17.132 5.19483 17.4062 5.39329 17.6377C5.79414 18.1054 6.46409 18.2082 7.325 18.2082H12.675C13.5391 18.2082 14.2118 18.1057 14.613 17.6377C14.812 17.4055 14.9021 17.1304 14.9522 16.8661C15.0003 16.6123 15.0196 16.318 15.0394 16.0175L15.0406 15.9993L15.0406 15.9987L15.5821 7.61005C15.5873 7.54867 15.6449 7.49021 15.7196 7.49072C15.7942 7.49922 15.839 7.56082 15.8346 7.62253L15.8344 7.62594L15.2929 16.0147C15.2929 16.0152 15.2928 16.0157 15.2928 16.0162C15.2449 16.6948 15.1906 17.2707 14.883 17.7004C14.6082 18.0844 14.0403 18.4582 12.675 18.4582H7.325C5.9597 18.4582 5.39182 18.0844 5.11698 17.7004C4.80935 17.2707 4.75507 16.6948 4.7072 16.0161C4.70716 16.0156 4.70713 16.0151 4.70709 16.0147L4.16563 7.62594Z" fill="#D92D20" stroke="#D92D20"/>
<path d="M11.3834 14.375H8.6084C8.26673 14.375 7.9834 14.0917 7.9834 13.75C7.9834 13.4083 8.26673 13.125 8.6084 13.125H11.3834C11.7251 13.125 12.0084 13.4083 12.0084 13.75C12.0084 14.0917 11.7251 14.375 11.3834 14.375Z" fill="#D92D20"/>
<path d="M12.0837 11.0415H7.91699C7.57533 11.0415 7.29199 10.7582 7.29199 10.4165C7.29199 10.0748 7.57533 9.7915 7.91699 9.7915H12.0837C12.4253 9.7915 12.7087 10.0748 12.7087 10.4165C12.7087 10.7582 12.4253 11.0415 12.0837 11.0415Z" fill="#D92D20"/>
</svg>
