<svg width="20" height="20" viewBox="0 0 20 20" fill="none" xmlns="http://www.w3.org/2000/svg">
<path fill-rule="evenodd" clip-rule="evenodd" d="M6.22464 4.5579C5.98056 4.80198 5.98057 5.19771 6.22465 5.44178C6.46872 5.68586 6.86445 5.68586 7.10853 5.44178L9.37489 3.1754L9.37489 13.3332C9.37489 13.6784 9.65471 13.9582 9.99989 13.9582C10.3451 13.9582 10.6249 13.6784 10.6249 13.3332L10.6249 3.17538L12.8913 5.44178C13.1354 5.68586 13.5311 5.68586 13.7752 5.44178C14.0193 5.1977 14.0193 4.80197 13.7752 4.5579L10.4418 1.22456C10.3246 1.10735 10.1656 1.0415 9.99989 1.0415C9.83412 1.0415 9.67515 1.10735 9.55794 1.22456L6.22464 4.5579ZM5.28309 7.89078C5.49899 7.62146 5.45568 7.22811 5.18636 7.01221C4.91703 6.79631 4.52368 6.83962 4.30778 7.10894C3.30718 8.35716 2.70825 9.94275 2.70825 11.6665C2.70825 15.6936 5.97284 18.9582 9.99992 18.9582C14.027 18.9582 17.2916 15.6936 17.2916 11.6665C17.2916 9.94275 16.6927 8.35716 15.6921 7.10894C15.4762 6.83962 15.0828 6.79631 14.8135 7.01221C14.5442 7.22811 14.5008 7.62146 14.7167 7.89078C15.546 8.92523 16.0416 10.2371 16.0416 11.6665C16.0416 15.0032 13.3366 17.7082 9.99992 17.7082C6.6632 17.7082 3.95825 15.0032 3.95825 11.6665C3.95825 10.2371 4.45385 8.92523 5.28309 7.89078Z" fill="white"/>
</svg>
