<svg width="20" height="21" viewBox="0 0 20 21" fill="none" xmlns="http://www.w3.org/2000/svg">
<path d="M9.54992 12.0666C8.19273 12.0666 7.08325 10.9572 7.08325 9.59997C7.08325 8.24277 8.19273 7.1333 9.54992 7.1333C10.9071 7.1333 12.0166 8.24278 12.0166 9.59997C12.0166 10.9572 10.9071 12.0666 9.54992 12.0666ZM9.54992 7.39164C8.33369 7.39164 7.33325 8.38059 7.33325 9.60831C7.33325 10.8344 8.32377 11.825 9.54992 11.825C10.7761 11.825 11.7666 10.8345 11.7666 9.60831C11.7666 8.38216 10.7761 7.39164 9.54992 7.39164Z" fill="#717680" stroke="#717680"/>
<path d="M13.875 17.4581C13.8449 17.4581 13.8136 17.4459 13.788 17.4202C13.7623 17.3946 13.75 17.3633 13.75 17.3331C13.75 15.3504 11.7476 13.9331 9.55004 13.9331C7.35249 13.9331 5.35004 15.3504 5.35004 17.3331C5.35004 17.3633 5.33775 17.3946 5.31211 17.4202C5.28646 17.4459 5.25518 17.4581 5.22504 17.4581C5.19489 17.4581 5.16361 17.4459 5.13797 17.4202C5.11232 17.3946 5.10004 17.3633 5.10004 17.3331C5.10004 15.4043 7.00735 13.6831 9.55004 13.6831C12.0934 13.6831 14 15.3966 14 17.3331C14 17.3633 13.9878 17.3946 13.9621 17.4202C13.9365 17.4459 13.9052 17.4581 13.875 17.4581Z" fill="#717680" stroke="#717680"/>
<path d="M12.7831 3.65293C12.673 3.98421 12.625 4.32906 12.625 4.66667C12.625 5.24535 12.7811 5.81755 13.087 6.3142C13.2486 6.59478 13.4573 6.84196 13.6923 7.04824C14.5491 7.82384 15.8146 8.07623 16.8346 7.71267L16.8346 7.71275L16.8436 7.70933C16.8896 7.69194 16.9603 7.7145 16.9867 7.77953L16.9866 7.77955L16.9899 7.78732C17.4131 8.78264 17.625 9.84099 17.625 10.925C17.625 15.3485 14.0159 18.9583 9.58335 18.9583C5.15116 18.9583 1.54169 15.3489 1.54169 10.9167C1.54169 6.48448 5.15116 2.875 9.58335 2.875C10.6758 2.875 11.7265 3.08695 12.7145 3.50255L12.716 3.50319C12.7715 3.52631 12.8033 3.58877 12.7831 3.65293ZM12.7831 3.65293C12.7834 3.65202 12.7837 3.65111 12.784 3.6502L13.2584 3.80831M12.7831 3.65293C12.783 3.65331 12.7829 3.65368 12.7827 3.65406L13.2584 3.80831M13.2584 3.80831C13.3584 3.49998 13.2084 3.16666 12.9084 3.04166L14.025 6.67498C13.825 6.49998 13.65 6.29165 13.5167 6.05832C13.2584 5.64165 13.125 5.15833 13.125 4.66667C13.125 4.375 13.1667 4.08331 13.2584 3.80831ZM16.9665 8.41011L16.8314 8.00008L16.406 8.07406C15.4078 8.24765 14.306 7.93436 13.5376 7.23115L13.5316 7.22567L13.5254 7.22039C13.2762 7.00675 13.0536 6.74141 12.8815 6.44741L12.8816 6.44737L12.8767 6.43928C12.5585 5.91873 12.3834 5.30078 12.3834 4.66667C12.3834 4.46669 12.3981 4.2824 12.4327 4.10278L12.5149 3.6754L12.1029 3.53506C11.29 3.25815 10.4437 3.125 9.58335 3.125C5.29092 3.125 1.79169 6.61515 1.79169 10.9167C1.79169 15.2182 5.29092 18.7083 9.58335 18.7083C13.8758 18.7083 17.375 15.2182 17.375 10.9167C17.375 10.061 17.2324 9.21651 16.9665 8.41011Z" fill="#717680" stroke="#717680"/>
<path d="M15.8333 8.62516C14.85 8.62516 13.9167 8.25851 13.1917 7.60018C12.9 7.35018 12.6417 7.04183 12.4417 6.70016C12.075 6.10016 11.875 5.39183 11.875 4.66683C11.875 4.24183 11.9417 3.82517 12.075 3.42517C12.2583 2.8585 12.575 2.3335 13 1.9085C13.75 1.14183 14.7583 0.708496 15.8417 0.708496C16.975 0.708496 18.05 1.19184 18.7833 2.02518C19.4333 2.75018 19.8 3.6835 19.8 4.66683C19.8 4.9835 19.7583 5.30016 19.675 5.60016C19.5917 5.97516 19.4333 6.36684 19.2167 6.70851C18.7333 7.52517 17.9667 8.1335 17.0667 8.41683C16.6917 8.5585 16.275 8.62516 15.8333 8.62516ZM15.8333 1.9585C15.0917 1.9585 14.4 2.25015 13.8917 2.77515C13.6 3.07515 13.3917 3.4168 13.2667 3.80847C13.175 4.08347 13.1333 4.37516 13.1333 4.66683C13.1333 5.1585 13.2667 5.64182 13.525 6.05848C13.6583 6.29182 13.8333 6.50014 14.0333 6.67514C14.7583 7.33347 15.8333 7.54185 16.675 7.24185C17.3083 7.04185 17.825 6.62516 18.1583 6.06682C18.3083 5.82516 18.4083 5.56685 18.4667 5.30851C18.525 5.09185 18.55 4.8835 18.55 4.66683C18.55 4.00016 18.3 3.35851 17.85 2.85851C17.3417 2.28351 16.6083 1.9585 15.8333 1.9585Z" fill="#717680"/>
<path d="M17.075 5.2749H14.5833C14.2416 5.2749 13.9583 4.99157 13.9583 4.6499C13.9583 4.30824 14.2416 4.0249 14.5833 4.0249H17.075C17.4166 4.0249 17.7 4.30824 17.7 4.6499C17.7 4.99157 17.425 5.2749 17.075 5.2749Z" fill="#717680"/>
<path d="M15.8333 6.55025C15.4916 6.55025 15.2083 6.26692 15.2083 5.92525V3.43359C15.2083 3.09193 15.4916 2.80859 15.8333 2.80859C16.175 2.80859 16.4583 3.09193 16.4583 3.43359V5.92525C16.4583 6.27525 16.175 6.55025 15.8333 6.55025Z" fill="#717680"/>
</svg>
