<svg width="4" height="14" viewBox="0 0 4 14" fill="none" xmlns="http://www.w3.org/2000/svg">
<path d="M2.22 2.44C2.41096 2.44 2.59409 2.36414 2.72912 2.22912C2.86414 2.09409 2.94 1.91096 2.94 1.72C2.94 1.52904 2.86414 1.34591 2.72912 1.21088C2.59409 1.07586 2.41096 1 2.22 1C2.02904 1 1.84591 1.07586 1.71088 1.21088C1.57586 1.34591 1.5 1.52904 1.5 1.72C1.5 1.91096 1.57586 2.09409 1.71088 2.22912C1.84591 2.36414 2.02904 2.44 2.22 2.44ZM2.22 7.72C2.41096 7.72 2.59409 7.64414 2.72912 7.50912C2.86414 7.37409 2.94 7.19096 2.94 7C2.94 6.80904 2.86414 6.62591 2.72912 6.49088C2.59409 6.35586 2.41096 6.28 2.22 6.28C2.02904 6.28 1.84591 6.35586 1.71088 6.49088C1.57586 6.62591 1.5 6.80904 1.5 7C1.5 7.19096 1.57586 7.37409 1.71088 7.50912C1.84591 7.64414 2.02904 7.72 2.22 7.72ZM2.22 13C2.41096 13 2.59409 12.9241 2.72912 12.7891C2.86414 12.6541 2.94 12.471 2.94 12.28C2.94 12.089 2.86414 11.9059 2.72912 11.7709C2.59409 11.6359 2.41096 11.56 2.22 11.56C2.02904 11.56 1.84591 11.6359 1.71088 11.7709C1.57586 11.9059 1.5 12.089 1.5 12.28C1.5 12.471 1.57586 12.6541 1.71088 12.7891C1.84591 12.9241 2.02904 13 2.22 13Z" stroke="#A4A7AE" stroke-width="1.5" stroke-linecap="round" stroke-linejoin="round"/>
</svg>
